<svg xmlns="http://www.w3.org/2000/svg" width="16" height="17" viewBox="0 0 16 17" fill="none"><g id="bi:check"><path id="Vector" d="M10.97 5.46999C11.1109 5.33588 11.2983 5.26173 11.4928 5.26321C11.6873 5.26468 11.8736 5.34165 12.0125 5.47787C12.1513 5.6141 12.2317 5.79893 12.2369 5.99336C12.242 6.18779 12.1714 6.37661 12.04 6.51999L8.05001 11.51C7.9814 11.5839 7.89859 11.6432 7.80654 11.6844C7.71448 11.7255 7.61508 11.7477 7.51426 11.7496C7.41344 11.7514 7.31328 11.7329 7.21976 11.6952C7.12625 11.6575 7.0413 11.6013 6.97001 11.53L4.32401 8.88399C4.25032 8.81532 4.19122 8.73252 4.15022 8.64053C4.10923 8.54853 4.08719 8.44921 4.08541 8.34851C4.08364 8.24781 4.10216 8.14778 4.13988 8.05439C4.1776 7.961 4.23375 7.87617 4.30497 7.80495C4.37619 7.73373 4.46102 7.67759 4.55441 7.63986C4.6478 7.60214 4.74782 7.58362 4.84853 7.5854C4.94923 7.58717 5.04854 7.60921 5.14054 7.65021C5.23254 7.6912 5.31534 7.7503 5.384 7.82399L7.47801 9.91699L10.951 5.49199L10.97 5.46999Z" fill="white"></path></g></svg>