<svg xmlns="http://www.w3.org/2000/svg" width="64" height="64" viewBox="0 0 64 64" fill="none"><g id="bi:check"><path id="Vector" d="M43.8826 19.8799C44.4461 19.3435 45.1959 19.0469 45.9739 19.0528C46.7518 19.0587 47.4971 19.3666 48.0524 19.9115C48.6077 20.4564 48.9295 21.1957 48.9501 21.9734C48.9707 22.7512 48.6883 23.5065 48.1626 24.0799L32.2026 44.04C31.9281 44.3355 31.5969 44.5728 31.2287 44.7374C30.8605 44.9021 30.4629 44.9908 30.0596 44.9983C29.6563 45.0057 29.2557 44.9318 28.8816 44.7809C28.5076 44.63 28.1678 44.4052 27.8826 44.1199L17.2986 33.5359C17.0038 33.2613 16.7674 32.9301 16.6035 32.5621C16.4395 32.1941 16.3513 31.7969 16.3442 31.394C16.3371 30.9912 16.4112 30.5911 16.5621 30.2176C16.713 29.844 16.9376 29.5047 17.2224 29.2198C17.5073 28.9349 17.8466 28.7103 18.2202 28.5595C18.5937 28.4086 18.9939 28.3345 19.3967 28.3416C19.7995 28.3487 20.1967 28.4369 20.5647 28.6008C20.9327 28.7648 21.2639 29.0012 21.5386 29.2959L29.9146 37.6679L43.8066 19.9679L43.8826 19.8799Z" fill="white"></path></g></svg>