<svg xmlns="http://www.w3.org/2000/svg" width="64" height="64" viewBox="0 0 64 64" fill="none"><g id="Group"><g id="Group_2"><path id="Vector" d="M6.63322 55.0184C3.40941 55.0184 0.801636 51.8818 0.801636 48.014V7.91724C0.801636 4.04514 3.40941 0.912842 6.63322 0.912842H57.3676C60.5877 0.912842 63.1992 4.04947 63.1992 7.91724V48.014C63.1992 51.8861 60.5877 55.0184 57.3676 55.0184H6.63322Z" fill="#76C5D4"></path><path id="Vector_2" d="M57.3672 55.9356H6.6328C2.97436 55.9356 0 52.3837 0 48.0141V7.91726C0 3.54762 2.97436 0 6.6328 0H57.3672C61.0257 0 64 3.54762 64 7.91726V48.0141C64 52.3794 61.0257 55.9356 57.3672 55.9356ZM6.6328 1.82572C3.85874 1.82572 1.60244 4.55999 1.60244 7.91293V48.0097C1.60244 51.367 3.85874 54.1013 6.6328 54.1013H57.3672C60.1413 54.1013 62.3976 51.367 62.3976 48.0097V7.91293C62.3976 4.55999 60.1413 1.82572 57.3672 1.82572H6.6328Z" fill="#274242"></path><path id="Vector_3" d="M58.577 9.95068H5.42383V50.0518H58.577V9.95068Z" fill="white"></path><path id="Vector_4" d="M58.5769 50.9646H5.42366C4.98147 50.9646 4.62244 50.5492 4.62244 50.0474V9.94624C4.62244 9.44006 4.98147 9.02905 5.42366 9.02905H58.5769C59.019 9.02905 59.3781 9.44006 59.3781 9.94624V50.0474C59.3781 50.5536 59.0228 50.9646 58.5769 50.9646ZM6.22488 49.1302H57.7794V10.8634H6.22488V49.1302Z" fill="#274242"></path><g id="Group_3"><path id="Vector_5" d="M11.2099 6.27317H5.42366C4.98147 6.27317 4.62244 5.86217 4.62244 5.36031C4.62244 4.85413 4.98147 4.44312 5.42366 4.44312H11.2099C11.6521 4.44312 12.0111 4.85413 12.0111 5.36031C12.0111 5.86217 11.6521 6.27317 11.2099 6.27317Z" fill="#274242"></path><path id="Vector_6" d="M21.3725 6.27317H15.5825C15.1403 6.27317 14.785 5.86217 14.785 5.36031C14.785 4.85413 15.1403 4.44312 15.5825 4.44312H21.3725C21.8147 4.44312 22.1737 4.85413 22.1737 5.36031C22.1737 5.86217 21.8147 6.27317 21.3725 6.27317Z" fill="#274242"></path><path id="Vector_7" d="M25.783 6.27317C25.3408 6.27317 24.9629 5.86217 24.9629 5.36031C24.9629 4.85413 25.2993 4.44312 25.7415 4.44312H25.783C26.2252 4.44312 26.5842 4.85413 26.5842 5.36031C26.5842 5.86217 26.2252 6.27317 25.783 6.27317Z" fill="#274242"></path><path id="Vector_8" d="M32.7486 6.27317H32.6617C32.2233 6.27317 31.8642 5.86217 31.8642 5.36031C31.8642 4.85413 32.2233 4.44312 32.6617 4.44312H32.7486C33.187 4.44312 33.546 4.85413 33.546 5.36031C33.546 5.86217 33.1908 6.27317 32.7486 6.27317ZM29.264 6.27317H29.1771C28.7387 6.27317 28.3796 5.86217 28.3796 5.36031C28.3796 4.85413 28.7387 4.44312 29.1771 4.44312H29.264C29.7024 4.44312 30.0614 4.85413 30.0614 5.36031C30.0614 5.86217 29.7062 6.27317 29.264 6.27317Z" fill="#274242"></path><path id="Vector_9" d="M36.1878 6.27317C35.7456 6.27317 35.3677 5.86217 35.3677 5.36031C35.3677 4.85413 35.7078 4.44312 36.1462 4.44312H36.1878C36.63 4.44312 36.989 4.85413 36.989 5.36031C36.9853 5.86217 36.63 6.27317 36.1878 6.27317Z" fill="#274242"></path></g><path id="Vector_10" d="M43.0665 24.9892C43.0665 24.9892 29.5249 24.7036 31.2672 34.4163L31.2635 34.412L28.0396 38.2884C28.0169 38.3187 27.9943 38.3447 27.9716 38.3706C27.9716 38.3706 6.27042 54.3176 12.4648 61.7633C18.663 69.2133 31.9286 43.1296 31.9286 43.1296C31.9513 43.1037 31.974 43.0734 31.9967 43.0474L35.2205 39.171L35.2242 39.1667C43.3045 41.2563 43.0665 24.9892 43.0665 24.9892Z" fill="#76C5D4"></path><g id="Group_4"><path id="Vector_11" d="M53.407 24.401L53.3578 24.4832C53.116 24.9029 53.2331 25.4307 53.5997 25.7119C53.7282 25.8071 53.8756 25.8546 54.023 25.8546C54.2951 25.8546 54.571 25.6989 54.7335 25.4263C54.983 25.0067 54.8847 24.4356 54.5181 24.1544C54.1515 23.8775 53.6602 23.9857 53.407 24.401Z" fill="#274242"></path><path id="Vector_12" d="M51.3172 26.6159L51.2492 26.6592C50.8561 26.8928 50.739 27.425 50.9393 27.8706C51.0791 28.1778 51.3663 28.3508 51.6649 28.3508C51.7972 28.3508 51.9295 28.3119 52.0504 28.2427C52.4435 28.009 52.5984 27.4596 52.3943 27.0096C52.194 26.564 51.7141 26.3866 51.3172 26.6159Z" fill="#274242"></path><path id="Vector_13" d="M48.1308 27.5072L48.059 27.5505C47.6622 27.7841 47.545 28.3162 47.7491 28.7619C47.889 29.0734 48.1762 29.2421 48.471 29.2421C48.6032 29.2421 48.7393 29.2075 48.864 29.1382C49.2571 28.9046 49.4121 28.3508 49.208 27.9052C49.0039 27.451 48.5239 27.2736 48.1308 27.5072Z" fill="#274242"></path><path id="Vector_14" d="M45.0017 26.5901L44.9336 26.6334C44.5405 26.867 44.4196 27.3991 44.6237 27.8447C44.7635 28.1519 45.0508 28.3206 45.3456 28.3206C45.4779 28.3206 45.6139 28.286 45.7387 28.2168C46.1279 27.9832 46.2828 27.4337 46.0825 26.9838C45.8747 26.5338 45.3947 26.3565 45.0017 26.5901Z" fill="#274242"></path><path id="Vector_15" d="M56.9031 21.6883C56.6952 21.2383 56.2114 21.0696 55.8184 21.3119L55.7352 21.3681C55.3459 21.619 55.2401 22.1598 55.4593 22.5968C55.6029 22.891 55.8788 23.0467 56.1661 23.0467C56.3059 23.0467 56.4495 23.0078 56.578 22.9256C56.9635 22.6877 57.1109 22.1339 56.9031 21.6883Z" fill="#274242"></path></g><path id="Vector_16" d="M43.8676 24.9719C43.8638 24.8378 43.826 24.7166 43.7769 24.5998C43.7467 24.4873 43.7013 24.3705 43.6295 24.2753L43.588 24.2191C43.5842 24.2191 43.5842 24.2104 43.5842 24.2104C43.3914 23.9379 43.2025 23.6523 43.021 23.3755C42.3105 22.3155 41.5811 21.2209 40.64 20.3513C38.6936 18.5559 36.033 17.9848 33.6898 18.863C31.3428 19.7413 29.5589 21.7228 27.8355 23.6437C26.7357 24.8681 25.5981 26.1357 24.3509 27.0485C23.2095 27.8835 21.7167 28.5455 20.0311 28.7402C20.1747 28.0955 20.2616 27.4293 20.2881 26.7717C20.4733 22.3198 17.6349 18.1881 14.2184 17.9329C12.8313 17.829 11.5804 18.3655 10.7829 19.3952C10.0384 20.36 9.68315 21.7877 9.80787 23.3149C9.99306 25.5733 11.2629 27.6586 13.198 28.8786C14.6266 29.7828 16.161 30.3323 17.703 30.5399C16.8904 32.2402 15.6092 33.7458 14.0067 34.8317C11.1987 36.7266 7.91816 37.1549 5.37464 37.315C4.93245 37.341 4.5961 37.7779 4.62255 38.2798C4.64523 38.7687 4.99671 39.1451 5.42 39.1451C5.43511 39.1451 5.45024 39.1451 5.46535 39.1451C8.19029 38.972 11.7127 38.5048 14.8231 36.4065C16.9169 34.9918 18.5345 32.9281 19.4529 30.6221C21.4824 30.5442 23.4741 29.865 25.2088 28.5887C26.5883 27.5764 27.7902 26.2395 28.9429 24.9503C30.6096 23.0942 32.1818 21.3464 34.1811 20.5979C36.0141 19.9144 38.1003 20.36 39.6272 21.7704C40.3264 22.415 40.9084 23.2413 41.498 24.1239C38.9658 24.3056 34.0412 25.0973 31.664 28.3724C30.5226 29.9429 30.1107 31.8681 30.4093 34.0962L27.4576 37.6438C26.131 38.6259 11.4519 49.6798 10.594 57.8393C10.4088 59.5958 10.8434 61.1274 11.8865 62.3777C12.7823 63.4593 13.8518 64.0001 15.0725 64.0001C15.2653 64.0001 15.4542 63.9871 15.6508 63.9611C22.5066 63.0396 31.8152 45.1501 32.5786 43.6618L35.5039 40.1445C35.878 40.218 36.2446 40.2613 36.5999 40.2613C37.8849 40.2613 39.0338 39.7984 40.0203 38.8768C43.9697 35.2167 43.8714 25.3915 43.8676 24.9719ZM18.3644 28.7748C16.9584 28.6709 15.4618 28.2167 13.9727 27.2735C12.5214 26.3563 11.535 24.7772 11.4028 23.1418C11.3158 22.1338 11.535 21.1863 11.9772 20.6066C12.3967 20.0658 13.1035 19.7543 13.8896 19.7543C13.9652 19.7543 14.037 19.7586 14.1164 19.7629C16.6523 19.9533 18.833 23.25 18.6932 26.6851C18.663 27.3903 18.5533 28.0912 18.3644 28.7748ZM32.8961 29.5578C35.005 26.6505 39.8804 26.0535 42.012 25.9367C40.1034 26.8149 35.1599 29.5968 32.3896 35.6104C32.2422 35.1345 32.1289 34.6716 32.0458 34.2303C31.7132 32.3397 31.989 30.8082 32.8961 29.5578ZM15.4694 62.1527C14.5245 62.2825 13.7308 61.945 13.0468 61.1274C12.34 60.2794 12.0566 59.2713 12.1888 58.0643C12.7822 52.4746 21.7016 44.38 26.7017 40.4387C26.7017 40.443 26.7055 40.4473 26.7055 40.4473C26.7319 40.6117 26.7811 40.7761 26.8302 40.9492C26.8453 40.9968 26.8642 41.04 26.8793 41.0876C26.9398 41.2607 27.0078 41.4337 27.0985 41.6154C27.1061 41.6241 27.1099 41.6371 27.1136 41.6457C27.2043 41.8361 27.3253 42.0308 27.45 42.2298C27.484 42.2817 27.518 42.3293 27.552 42.3812C27.6881 42.5889 27.8431 42.7965 28.0207 43.0129C28.1908 43.2162 28.3571 43.3936 28.5233 43.558C28.5574 43.5926 28.5914 43.6272 28.6216 43.6575C28.7804 43.8132 28.9391 43.9474 29.0978 44.0685C29.1281 44.0901 29.1583 44.1117 29.1848 44.1334C29.3397 44.2415 29.4946 44.3367 29.6458 44.4103C29.6572 44.4189 29.6723 44.4276 29.6836 44.4319C29.8424 44.5098 30.0011 44.5617 30.1598 44.6049C30.1787 44.6093 30.1939 44.6179 30.2128 44.6223C26.9134 50.6446 20.0689 61.5384 15.4694 62.1527ZM31.373 42.4721C31.0706 42.8095 30.825 42.8658 30.704 42.8441C30.4206 42.8398 29.9217 42.6451 29.1772 41.7452C27.7486 40.032 28.323 39.2922 28.6178 38.9201L30.8741 36.2031C30.8817 36.2291 30.8968 36.2594 30.9044 36.2853C30.9724 36.5017 31.048 36.7223 31.1311 36.9386C31.1689 37.0468 31.2029 37.1549 31.2445 37.2588C31.3654 37.5876 31.5015 37.9207 31.6527 38.2625C31.6905 38.349 31.7396 38.4226 31.8001 38.4918C31.8114 38.5048 31.8303 38.5178 31.8454 38.5307C31.887 38.574 31.9248 38.6173 31.9739 38.6432C32.2649 38.8292 32.5484 38.998 32.8318 39.1494C32.9263 39.2013 33.0208 39.2403 33.1115 39.2922C33.2967 39.383 33.4819 39.4782 33.6595 39.5647C33.6935 39.5777 33.7238 39.595 33.7502 39.608L31.373 42.4721ZM39.0187 37.4664C38.0323 38.3836 36.8531 38.6475 35.4056 38.2798C34.7858 38.1197 34.1131 37.8299 33.4063 37.4362C35.6173 31.8119 40.0618 28.9478 42.148 27.8749C41.9023 30.886 41.1805 35.4547 39.0187 37.4664Z" fill="#274242"></path></g></g></svg>