<svg xmlns="http://www.w3.org/2000/svg" width="44" height="49" viewBox="0 0 44 49" fill="none"><g id="Frame 197"><path id="path1008" d="M6.62932 36.8864L8.46678 40.6131L12.5752 41.2088L9.60208 44.1097L10.3039 48.198L6.62932 46.2683L2.95572 48.198L3.65753 44.1097L0.68457 41.2088L4.79182 40.6131L6.62932 36.8864Z" fill="#93D2C6"></path><path id="path1010" d="M6.63184 45.5818C6.74061 45.5818 6.84938 45.6083 6.94909 45.6601L9.39482 46.9486L8.92801 44.2221C8.89014 44.0023 8.96362 43.7722 9.12678 43.6165L11.1031 41.688L8.37056 41.2924C8.14525 41.2607 7.95328 41.1179 7.85325 40.9143L6.63184 38.4369L5.40764 40.9143C5.30648 41.1179 5.11551 41.2607 4.89169 41.2924L2.159 41.688L4.1355 43.6165C4.29863 43.7722 4.37198 44.0023 4.33278 44.2221L3.86616 46.9486L6.31307 45.6601C6.41167 45.6083 6.52177 45.5818 6.63184 45.5818ZM10.3051 48.8847C10.1964 48.8847 10.0866 48.8582 9.98659 48.8064L6.63184 47.0421L3.27559 48.8064C3.04293 48.9288 2.76599 48.9061 2.55356 48.752C2.34236 48.5989 2.23741 48.3396 2.28166 48.0816L2.92154 44.3448L0.207819 41.7007C0.0193789 41.52 -0.0476303 41.2481 0.0345633 40.9975C0.112969 40.7525 0.327955 40.5676 0.587193 40.5323L4.33783 39.9849L6.01715 36.5894C6.13223 36.3531 6.36994 36.2038 6.63184 36.2038C6.89082 36.2038 7.13005 36.3531 7.24497 36.5894L8.92445 39.9849L12.6764 40.5323C12.9328 40.5676 13.1481 40.7525 13.2277 40.9975C13.3087 41.2481 13.2429 41.52 13.0555 41.7007L10.3407 44.3448L10.9817 48.0816C11.0261 48.3396 10.9199 48.5989 10.7085 48.752C10.5897 48.8417 10.4482 48.8847 10.3051 48.8847Z" fill="#2F5548"></path><path id="path1012" d="M22.3899 36.8864L24.2286 40.6131L28.337 41.2088L25.3655 44.1097L26.0674 48.198L22.3899 46.2683L18.7179 48.198L19.4197 44.1097L16.4453 41.2088L20.5537 40.6131L22.3899 36.8864Z" fill="#93D2C6"></path><path id="path1014" d="M22.3894 45.5817C22.5008 45.5817 22.6096 45.6082 22.7096 45.66L25.1563 46.9484L24.6885 44.222C24.6507 44.0022 24.7225 43.772 24.8844 43.6163L26.8636 41.6879L24.1308 41.2923C23.9058 41.2606 23.7148 41.1178 23.6138 40.9142L22.3894 38.4367L21.168 40.9142C21.068 41.1178 20.876 41.2606 20.6507 41.2923L17.9182 41.6879L19.8958 43.6163C20.0564 43.772 20.1311 44.0022 20.0933 44.222L19.6265 46.9484L22.0722 45.66C22.1719 45.6082 22.282 45.5817 22.3894 45.5817ZM26.067 48.8846C25.9569 48.8846 25.8468 48.8581 25.7468 48.8063L22.3894 47.042L19.0347 48.8063C18.8045 48.9286 18.5251 48.906 18.3138 48.7519C18.1027 48.5988 17.9952 48.3395 18.0409 48.0815L18.6818 44.3447L15.9668 41.7005C15.7796 41.5199 15.7126 41.248 15.7936 40.9974C15.8745 40.7523 16.0894 40.5675 16.3475 40.5322L20.0981 39.9848L21.7776 36.5892C21.8925 36.3529 22.1305 36.2037 22.3894 36.2037C22.6526 36.2037 22.889 36.3529 23.0055 36.5892L24.6821 39.9848L28.434 40.5322C28.6946 40.5675 28.907 40.7523 28.9879 40.9974C29.0689 41.248 29.0018 41.5199 28.816 41.7005L26.0997 44.3447L26.7409 48.0815C26.784 48.3395 26.6788 48.5988 26.469 48.7519C26.3502 48.8416 26.2071 48.8846 26.067 48.8846Z" fill="#2F5548"></path><path id="path1012_2" d="M36.9572 36.8864L38.796 40.6131L42.9044 41.2088L39.9329 44.1097L40.6348 48.198L36.9572 46.2683L33.2852 48.198L33.9871 44.1097L31.0127 41.2088L35.1211 40.6131L36.9572 36.8864Z" fill="#93D2C6"></path><path id="path1014_2" d="M36.9568 45.5817C37.0682 45.5817 37.177 45.6082 37.277 45.66L39.7237 46.9484L39.2559 44.222C39.218 44.0022 39.2899 43.772 39.4518 43.6163L41.431 41.6879L38.6981 41.2923C38.4732 41.2606 38.2822 41.1178 38.1812 40.9142L36.9568 38.4367L35.7354 40.9142C35.6354 41.1178 35.4434 41.2606 35.2181 41.2923L32.4855 41.6879L34.4632 43.6163C34.6237 43.772 34.6985 44.0022 34.6607 44.222L34.1938 46.9484L36.6396 45.66C36.7393 45.6082 36.8494 45.5817 36.9568 45.5817ZM40.6343 48.8846C40.5243 48.8846 40.4142 48.8581 40.3142 48.8063L36.9568 47.042L33.6021 48.8063C33.3719 48.9286 33.0925 48.906 32.8811 48.7519C32.6701 48.5988 32.5626 48.3395 32.6082 48.0815L33.2492 44.3447L30.5341 41.7005C30.347 41.5199 30.28 41.248 30.3609 40.9974C30.4419 40.7523 30.6568 40.5675 30.9148 40.5322L34.6655 39.9848L36.345 36.5892C36.4599 36.3529 36.6979 36.2037 36.9568 36.2037C37.22 36.2037 37.4563 36.3529 37.5729 36.5892L39.2494 39.9848L43.0014 40.5322C43.262 40.5675 43.4744 40.7523 43.5553 40.9974C43.6362 41.248 43.5692 41.5199 43.3834 41.7005L40.667 44.3447L41.3083 48.0815C41.3514 48.3395 41.2462 48.5988 41.0364 48.7519C40.9176 48.8416 40.7745 48.8846 40.6343 48.8846Z" fill="#2F5548"></path><path id="path1020" d="M37.3647 1.57127H7.42898C4.14765 1.57127 1.48828 4.22936 1.48828 7.51225V23.5454C1.48828 26.8282 4.14765 29.4863 7.42898 29.4863H11.6617V35.7507L21.5327 29.4863H37.3647C40.645 29.4863 43.3031 26.8282 43.3031 23.5454V7.51225C43.3031 4.22936 40.645 1.57127 37.3647 1.57127Z" fill="#93D2C6"></path><path id="path1022" d="M7.4298 2.25806C4.53159 2.25806 2.17449 4.61542 2.17449 7.51243V23.5455C2.17449 26.4464 4.53159 28.7999 7.4298 28.7999H11.6625C12.0419 28.7999 12.3478 29.1084 12.3478 29.4865V34.5042L21.1641 28.9074C21.2755 28.8391 21.4021 28.7999 21.5335 28.7999H37.3656C40.2626 28.7999 42.6186 26.4464 42.6186 23.5455V7.51243C42.6186 4.61542 40.2626 2.25806 37.3656 2.25806H7.4298ZM11.6625 36.434C11.5498 36.434 11.4359 36.4074 11.3323 36.3491C11.1135 36.229 10.9772 35.9963 10.9772 35.7509V30.1731H7.4298C3.7754 30.1731 0.803711 27.2013 0.803711 23.5455V7.51243C0.803711 3.8579 3.7754 0.884823 7.4298 0.884823H37.3656C41.0175 0.884823 43.9893 3.8579 43.9893 7.51243V23.5455C43.9893 27.2013 41.0175 30.1731 37.3656 30.1731H21.7319L12.0302 36.3265C11.9179 36.3984 11.79 36.434 11.6625 36.434Z" fill="#2F5548"></path><path id="path1024" d="M16.9454 7.93982H8.89887C8.51947 7.93982 8.21484 7.63131 8.21484 7.2532C8.21484 6.87379 8.51947 6.57046 8.89887 6.57046H16.9454C17.3248 6.57046 17.6307 6.87379 17.6307 7.2532C17.6307 7.63131 17.3248 7.93982 16.9454 7.93982Z" fill="#2F5548"></path><path id="path1026" d="M36.9092 7.93982H21.7055C21.3261 7.93982 21.0215 7.63131 21.0215 7.2532C21.0215 6.87379 21.3261 6.57046 21.7055 6.57046H36.9092C37.2873 6.57046 37.5933 6.87379 37.5933 7.2532C37.5933 7.63131 37.2873 7.93982 36.9092 7.93982Z" fill="#2F5548"></path><path id="path1028" d="M36.9083 13.5431H29.8699C29.4918 13.5431 29.1846 13.2381 29.1846 12.86C29.1846 12.481 29.4918 12.1773 29.8699 12.1773H36.9083C37.2864 12.1773 37.5923 12.481 37.5923 12.86C37.5923 13.2381 37.2864 13.5431 36.9083 13.5431Z" fill="#2F5548"></path><path id="path1030" d="M24.616 13.5431H8.89887C8.51947 13.5431 8.21484 13.2381 8.21484 12.86C8.21484 12.481 8.51947 12.1773 8.89887 12.1773H24.616C24.9928 12.1773 25.3 12.481 25.3 12.86C25.3 13.2381 24.9928 13.5431 24.616 13.5431Z" fill="#2F5548"></path><path id="path1032" d="M19.3063 19.15H8.89887C8.51947 19.15 8.21484 18.8454 8.21484 18.4673C8.21484 18.0879 8.51947 17.7807 8.89887 17.7807H19.3063C19.6844 17.7807 19.9903 18.0879 19.9903 18.4673C19.9903 18.8454 19.6844 19.15 19.3063 19.15Z" fill="#2F5548"></path><path id="path1034" d="M36.9093 19.15H24.4093C24.0312 19.15 23.7236 18.8454 23.7236 18.4673C23.7236 18.0879 24.0312 17.7807 24.4093 17.7807H36.9093C37.2874 17.7807 37.5933 18.0879 37.5933 18.4673C37.5933 18.8454 37.2874 19.15 36.9093 19.15Z" fill="#2F5548"></path><path id="path1036" d="M25.5581 24.7568H8.89887C8.51947 24.7568 8.21484 24.4522 8.21484 24.0702C8.21484 23.6921 8.51947 23.3836 8.89887 23.3836H25.5581C25.9349 23.3836 26.2434 23.6921 26.2434 24.0702C26.2434 24.4522 25.9349 24.7568 25.5581 24.7568Z" fill="#2F5548"></path></g></svg>