<svg xmlns="http://www.w3.org/2000/svg" width="61" height="60" viewBox="0 0 61 60" fill="none"><g id="Frame 196"><g id="Group"><g id="Group_2"><path id="Vector" d="M24.1348 46.639C24.1348 50.4079 27.1883 53.464 30.9598 53.464C34.7312 53.464 37.7848 50.4079 37.7848 46.639C37.7848 42.8701 34.7287 39.814 30.9598 39.814C27.1909 39.814 24.1348 42.8701 24.1348 46.639Z" fill="#F7BE56"></path></g><g id="Group_3"><path id="Vector_2" d="M30.9576 54C26.9005 54 23.5967 50.6962 23.5967 46.6391C23.5967 42.582 26.898 39.2808 30.9576 39.2808C35.0172 39.2808 38.3185 42.582 38.3185 46.6391C38.3185 50.6962 35.0172 54 30.9576 54ZM30.9576 40.35C27.4895 40.35 24.6685 43.171 24.6685 46.6391C24.6685 50.1072 27.4895 52.9282 30.9576 52.9282C34.4282 52.9282 37.2492 50.1072 37.2492 46.6391C37.2492 43.171 34.4282 40.35 30.9576 40.35Z" fill="#703407"></path></g><g id="Group_4"><path id="Vector_3" d="M30.9591 50.5193C29.6497 50.5193 28.583 49.5284 28.583 48.3126C28.583 48.0168 28.8232 47.7767 29.1189 47.7767C29.4147 47.7767 29.6523 48.0168 29.6523 48.3126C29.6523 48.9395 30.2387 49.4501 30.9591 49.4501C31.6795 49.4501 32.266 48.9395 32.266 48.3126C32.266 47.5568 31.8262 47.1751 30.9591 47.1751C29.2074 47.1751 28.583 46.035 28.583 44.9683C28.583 43.7499 29.6497 42.759 30.9591 42.759C32.271 42.759 33.3352 43.7499 33.3352 44.9683C33.3352 45.2641 33.0951 45.5017 32.7993 45.5017C32.5036 45.5017 32.266 45.2641 32.266 44.9683C32.266 44.3414 31.6795 43.8308 30.9591 43.8308C30.2387 43.8308 29.6523 44.3414 29.6523 44.9683C29.6523 45.7241 30.0921 46.1033 30.9591 46.1033C32.7109 46.1033 33.3352 47.2433 33.3352 48.3126C33.3378 49.531 32.271 50.5193 30.9591 50.5193Z" fill="#703407"></path></g><g id="Group_5"><path id="Vector_4" d="M30.9591 51.4393C30.6634 51.4393 30.4258 51.1992 30.4258 50.9034V49.9858C30.4258 49.6901 30.6659 49.45 30.9591 49.45C31.2549 49.45 31.495 49.6901 31.495 49.9858V50.9034C31.495 51.2017 31.2574 51.4393 30.9591 51.4393Z" fill="#703407"></path></g><g id="Group_6"><path id="Vector_5" d="M30.9591 43.8308C30.6634 43.8308 30.4258 43.5906 30.4258 43.2949V42.3748C30.4258 42.0815 30.6659 41.8389 30.9591 41.8389C31.2549 41.8389 31.495 42.0815 31.495 42.3748V43.2949C31.495 43.5906 31.2574 43.8308 30.9591 43.8308Z" fill="#703407"></path></g><g id="Group_7"><path id="Vector_6" d="M30.9584 24.4123C22.9807 24.4123 14.5 22.6302 14.5 19.3264C14.5 16.0226 22.9807 14.2405 30.9584 14.2405C38.9386 14.2405 47.4193 16.0226 47.4193 19.3264C47.4193 22.6302 38.9411 24.4123 30.9584 24.4123ZM30.9584 15.3122C21.8887 15.3122 15.5693 17.428 15.5693 19.3289C15.5693 21.2273 21.8887 23.343 30.9584 23.343C40.028 23.343 46.3475 21.2273 46.3475 19.3289C46.35 17.4255 40.0306 15.3122 30.9584 15.3122Z" fill="#703407"></path></g><g id="Group_8"><g id="Group_9"><path id="Vector_7" d="M15.6836 20.6157L15.6861 20.6182L15.6836 20.6157Z" fill="#F7BE56"></path></g><g id="Group_10"><path id="Vector_8" d="M24.3319 45.0312C24.2081 45.5494 24.1348 46.0853 24.1348 46.6389C24.2232 46.1056 24.2839 45.5697 24.3319 45.0312Z" fill="#F7BE56"></path></g><g id="Group_11"><path id="Vector_9" d="M37.5889 45.0315C37.6369 45.5699 37.695 46.1058 37.786 46.6392C37.786 46.0856 37.7127 45.5497 37.5889 45.0315Z" fill="#F7BE56"></path></g><g id="Group_12"><path id="Vector_10" d="M46.2338 20.6182C44.2874 22.5014 38.1853 23.8765 30.9584 23.8765C23.7365 23.8765 17.637 22.5014 15.6855 20.6182C15.7209 20.6637 25.4074 32.8374 24.3305 45.0315C25.0535 42.0386 27.7431 39.8141 30.9584 39.8141C34.1737 39.8141 36.8633 42.0411 37.5862 45.0315C36.5094 32.8122 46.2338 20.6182 46.2338 20.6182Z" fill="#F7BE56"></path></g></g><g id="Group_13"><path id="Vector_11" d="M37.7874 47.175C37.5296 47.175 37.3046 46.9879 37.2616 46.7276C37.1656 46.1613 37.0948 45.5951 37.0442 45.0289C36.3314 42.3368 33.8769 40.3475 30.9624 40.3475C28.0529 40.3475 25.5959 42.3343 24.8831 45.0289C24.8325 45.5951 24.7618 46.1613 24.6657 46.7276C24.6177 47.0006 24.3674 47.2003 24.0944 47.1725C23.8164 47.1497 23.604 46.9172 23.604 46.6391C23.604 46.0249 23.6799 45.4283 23.8214 44.8595C24.7592 33.2848 15.7629 21.5812 15.2902 20.9746C15.1031 20.7673 15.1056 20.4488 15.3028 20.244C15.4595 20.0848 15.6921 20.0418 15.8867 20.1202C15.9575 20.1505 16.0257 20.1935 16.0814 20.2541C17.9949 22.0741 24.1045 23.3431 30.9624 23.3431C37.8481 23.3431 43.9754 22.064 45.8662 20.2364C46.0709 20.0393 46.3894 20.0342 46.5992 20.2238C46.809 20.4134 46.8343 20.7319 46.6574 20.9518C46.5588 21.0782 37.1479 33.0371 38.1059 44.8621C38.2475 45.4333 38.3233 46.0274 38.3233 46.6416C38.3233 46.9197 38.111 47.1522 37.8329 47.175C37.8152 47.175 37.8026 47.175 37.7874 47.175ZM17.6334 22.3977C20.1081 26.0579 24.7137 33.9623 24.9539 42.3899C26.286 40.5092 28.4852 39.2807 30.9599 39.2807C33.4396 39.2807 35.6337 40.5092 36.9684 42.3899C37.2085 33.9623 41.8142 26.0554 44.2888 22.3977C41.2909 23.6414 36.3946 24.4123 30.9599 24.4123C25.5251 24.4123 20.6339 23.6414 17.6334 22.3977Z" fill="#703407"></path></g><g id="Group_14"><path id="Vector_12" d="M30.9591 35.6483C30.6634 35.6483 30.4258 35.4081 30.4258 35.1124C30.4258 34.8166 30.6659 34.5765 30.9591 34.5765C33.7296 34.5765 36.4495 34.3692 38.8306 33.9774C39.1239 33.9294 39.3969 34.1266 39.4474 34.4173C39.4955 34.708 39.2983 34.986 39.0051 35.0315C36.5683 35.4334 33.7877 35.6483 30.9591 35.6483Z" fill="#703407"></path></g><g id="Group_15"><path id="Vector_13" d="M30.9591 30.297C30.6634 30.297 30.4258 30.0569 30.4258 29.7611C30.4258 29.4654 30.6659 29.2278 30.9591 29.2278C34.7053 29.2278 38.3276 28.8461 41.1638 28.1535C41.4494 28.0852 41.7401 28.2596 41.8109 28.5453C41.8792 28.8309 41.7047 29.1216 41.4166 29.1924C38.502 29.9052 34.7887 30.297 30.9591 30.297Z" fill="#703407"></path></g><g id="Group_16"><path id="Vector_14" d="M24.5814 16.9174C24.5814 18.3961 23.3832 19.5943 21.9045 19.5943C20.4282 19.5943 19.2275 18.3961 19.2275 16.9174C19.2275 15.4386 20.4257 14.2405 21.9045 14.2405C23.3807 14.243 24.5814 15.4386 24.5814 16.9174Z" fill="#F7BE56"></path></g><g id="Group_17"><path id="Vector_15" d="M21.9017 20.1302C20.1322 20.1302 18.6914 18.6894 18.6914 16.9174C18.6914 15.1479 20.1322 13.7046 21.9017 13.7046C23.6737 13.7046 25.1145 15.1454 25.1145 16.9174C25.1145 18.6868 23.6737 20.1302 21.9017 20.1302ZM21.9017 14.7789C20.7212 14.7789 19.7607 15.7369 19.7607 16.9199C19.7607 18.1004 20.7212 19.0609 21.9017 19.0609C23.0822 19.0609 24.0427 18.1004 24.0427 16.9199C24.0452 15.7344 23.0847 14.7789 21.9017 14.7789Z" fill="#703407"></path></g><g id="Group_18"><path id="Vector_16" d="M31.6682 19.5943C31.6682 20.8506 30.6495 21.8668 29.3932 21.8668C28.1369 21.8668 27.1182 20.8506 27.1182 19.5943C27.1182 18.338 28.1369 17.3193 29.3932 17.3193C30.6495 17.3168 31.6682 18.338 31.6682 19.5943Z" fill="#F7BE56"></path></g><g id="Group_19"><path id="Vector_17" d="M29.3949 22.4027C27.8454 22.4027 26.584 21.1413 26.584 19.5943C26.584 18.0448 27.8454 16.7834 29.3949 16.7834C30.9444 16.7834 32.2032 18.0448 32.2032 19.5943C32.2058 21.1413 30.9444 22.4027 29.3949 22.4027ZM29.3949 17.8527C28.4343 17.8527 27.6558 18.6338 27.6558 19.5918C27.6558 20.5498 28.4369 21.3309 29.3949 21.3309C30.3529 21.3309 31.134 20.5473 31.134 19.5918C31.1365 18.6338 30.3554 17.8527 29.3949 17.8527Z" fill="#703407"></path></g><g id="Group_20"><path id="Vector_18" d="M41.7009 17.2512C41.7009 18.9145 40.3535 20.2618 38.6903 20.2618C37.027 20.2618 35.6797 18.9145 35.6797 17.2512C35.6797 15.5905 37.027 14.2432 38.6903 14.2432C40.3535 14.2432 41.7009 15.5905 41.7009 17.2512Z" fill="#F7BE56"></path></g><g id="Group_21"><path id="Vector_19" d="M38.691 20.7977C36.737 20.7977 35.1445 19.2052 35.1445 17.2512C35.1445 15.2972 36.7345 13.7073 38.691 13.7073C40.6475 13.7073 42.2375 15.2972 42.2375 17.2512C42.2375 19.2077 40.645 20.7977 38.691 20.7977ZM38.691 14.779C37.326 14.779 36.2163 15.8862 36.2163 17.2537C36.2163 18.6213 37.326 19.7284 38.691 19.7284C40.056 19.7284 41.1657 18.6213 41.1657 17.2537C41.1682 15.8862 40.056 14.779 38.691 14.779Z" fill="#703407"></path></g><g id="Group_22"><path id="Vector_20" d="M27.8409 9.17236C27.8409 10.6309 26.6604 11.8114 25.2019 11.8114C23.7459 11.8114 22.5654 10.6309 22.5654 9.17236C22.5654 7.71889 23.7459 6.53589 25.2019 6.53589C26.6579 6.53589 27.8409 7.71889 27.8409 9.17236Z" fill="#F7BE56"></path></g><g id="Group_23"><path id="Vector_21" d="M25.1997 12.3473C23.4505 12.3473 22.0273 10.9241 22.0273 9.1749C22.0273 7.42568 23.4505 6 25.1997 6C26.9489 6 28.3721 7.42315 28.3721 9.1749C28.3721 10.9216 26.9515 12.3473 25.1997 12.3473ZM25.1997 7.07179C24.042 7.07179 23.0991 8.01465 23.0991 9.1749C23.0991 10.3326 24.042 11.2755 25.1997 11.2755C26.36 11.2755 27.3028 10.3326 27.3028 9.1749C27.3028 8.01465 26.36 7.07179 25.1997 7.07179Z" fill="#703407"></path></g><g id="Group_24"><path id="Vector_22" d="M44.5794 13.798C45.6265 13.798 46.4753 12.9492 46.4753 11.9022C46.4753 10.8551 45.6265 10.0063 44.5794 10.0063C43.5324 10.0063 42.6836 10.8551 42.6836 11.9022C42.6836 12.9492 43.5324 13.798 44.5794 13.798Z" fill="#F7BE56"></path></g><g id="Group_25"><path id="Vector_23" d="M44.5796 14.3342C43.2399 14.3342 42.1504 13.2421 42.1504 11.9024C42.1504 10.5627 43.2399 9.4707 44.5796 9.4707C45.9193 9.4707 47.0088 10.5627 47.0088 11.9024C47.0088 13.2421 45.9193 14.3342 44.5796 14.3342ZM44.5796 10.5425C43.8288 10.5425 43.2171 11.1517 43.2171 11.9024C43.2171 12.6532 43.8288 13.2624 44.5796 13.2624C45.3278 13.2624 45.9395 12.6532 45.9395 11.9024C45.9395 11.1517 45.3278 10.5425 44.5796 10.5425Z" fill="#703407"></path></g><g id="Group_26"><path id="Vector_24" d="M32.474 15.6029C33.521 15.6029 34.3698 14.7542 34.3698 13.7071C34.3698 12.6601 33.521 11.8113 32.474 11.8113C31.4269 11.8113 30.5781 12.6601 30.5781 13.7071C30.5781 14.7542 31.4269 15.6029 32.474 15.6029Z" fill="#F7BE56"></path></g><g id="Group_27"><path id="Vector_25" d="M32.4737 16.1391C31.134 16.1391 30.042 15.0471 30.042 13.7074C30.042 12.3676 31.1315 11.2756 32.4737 11.2756C33.8134 11.2756 34.9029 12.3676 34.9029 13.7074C34.9029 15.0471 33.8134 16.1391 32.4737 16.1391ZM32.4737 12.3474C31.723 12.3474 31.1138 12.9566 31.1138 13.7074C31.1138 14.4581 31.723 15.0673 32.4737 15.0673C33.2245 15.0673 33.8337 14.4581 33.8337 13.7074C33.8337 12.9566 33.2219 12.3474 32.4737 12.3474Z" fill="#703407"></path></g><g id="Group_28"><path id="Vector_26" d="M17.3558 12.964C18.4028 12.964 19.2516 12.1152 19.2516 11.0682C19.2516 10.0212 18.4028 9.17236 17.3558 9.17236C16.3088 9.17236 15.46 10.0212 15.46 11.0682C15.46 12.1152 16.3088 12.964 17.3558 12.964Z" fill="#F7BE56"></path></g><g id="Group_29"><path id="Vector_27" d="M17.3565 13.4998C16.0168 13.4998 14.9248 12.4079 14.9248 11.0681C14.9248 9.73093 16.0143 8.63892 17.3565 8.63892C18.6963 8.63892 19.7857 9.73093 19.7857 11.0681C19.7883 12.4079 18.6963 13.4998 17.3565 13.4998ZM17.3565 9.70818C16.6058 9.70818 15.9941 10.3199 15.9941 11.0681C15.9941 11.8214 16.6058 12.4306 17.3565 12.4306C18.1073 12.4306 18.7165 11.8214 18.7165 11.0681C18.7165 10.3199 18.1073 9.70818 17.3565 9.70818Z" fill="#703407"></path></g></g></g></svg>