<svg xmlns="http://www.w3.org/2000/svg" width="48" height="33" viewBox="0 0 48 33" fill="none"><g id="Frame 199"><g id="Group"><g id="Group_2"><path id="Vector" d="M46.17 0.414673H13.6191C12.8408 0.414673 12.2061 1.04749 12.2061 1.8277V23.7543C12.2061 24.5326 12.8389 25.1674 13.6191 25.1674H46.17C46.9502 25.1674 47.5831 24.5345 47.5831 23.7543V1.8277C47.5811 1.04749 46.9502 0.414673 46.17 0.414673Z" fill="#76C5D4"></path></g><g id="Group_3"><path id="Vector_2" d="M46.1706 25.584H13.6197C12.6115 25.584 11.792 24.7625 11.792 23.7543V1.82771C11.792 0.819522 12.6115 0 13.6197 0H46.1706C47.1808 0 48.0003 0.819522 48.0003 1.82771V23.7543C47.9983 24.7625 47.1788 25.584 46.1706 25.584ZM13.6197 0.831314C13.0714 0.831314 12.6233 1.2794 12.6233 1.82771V23.7543C12.6233 24.3027 13.0714 24.7507 13.6197 24.7507H46.1706C46.7209 24.7507 47.169 24.3046 47.169 23.7543V1.82771C47.169 1.2794 46.7209 0.831314 46.1706 0.831314H13.6197Z" fill="#274242"></path></g><g id="Group_4"><path id="Vector_3" d="M33.2392 25.1674H26.5534L24.2422 29.1982H35.5484L33.2392 25.1674Z" fill="white"></path></g><g id="Group_5"><path id="Vector_4" d="M35.5474 29.6128H24.2411C24.0917 29.6128 23.9561 29.5342 23.8795 29.4065C23.8048 29.2768 23.8048 29.1196 23.8775 28.9918L26.1907 24.9591C26.2654 24.8294 26.401 24.7488 26.5523 24.7488H33.2362C33.3836 24.7488 33.5231 24.8294 33.5958 24.9591L35.909 28.9918C35.9817 29.1215 35.9817 29.2787 35.909 29.4065C35.8343 29.5342 35.6967 29.6128 35.5474 29.6128ZM24.9604 28.7815H34.83L32.9945 25.5821H26.794L24.9604 28.7815Z" fill="#274242"></path></g><g id="Group_6"><path id="Vector_5" d="M41.7014 29.1981H18.0886C17.5953 29.1981 17.1904 29.601 17.1904 30.0963C17.1904 30.5895 17.5953 30.9944 18.0886 30.9944H41.7034C42.1986 30.9944 42.6015 30.5895 42.6015 30.0963C42.5995 29.601 42.1966 29.1981 41.7014 29.1981Z" fill="#76C5D4"></path></g><g id="Group_7"><path id="Vector_6" d="M41.701 31.4112H18.0882C17.365 31.4112 16.7754 30.8196 16.7754 30.0964C16.7754 29.3712 17.365 28.7816 18.0882 28.7816H41.703C42.4282 28.7816 43.0178 29.3712 43.0178 30.0964C43.0158 30.8216 42.4262 31.4112 41.701 31.4112ZM18.0882 29.6129C17.8229 29.6129 17.6067 29.8291 17.6067 30.0964C17.6067 30.3617 17.8229 30.5779 18.0882 30.5779H41.703C41.9703 30.5779 42.1865 30.3617 42.1865 30.0964C42.1865 29.8291 41.9703 29.6129 41.703 29.6129H18.0882Z" fill="#274242"></path></g><g id="Group_8"><path id="Vector_7" d="M45.1447 2.85559H14.6494V21.6496H45.1447V2.85559Z" fill="white"></path></g><g id="Group_9"><path id="Vector_8" d="M45.1433 22.0643H14.65C14.4201 22.0643 14.2334 21.8776 14.2334 21.6476V2.85365C14.2334 2.62371 14.4201 2.43701 14.65 2.43701H45.1453C45.3752 2.43701 45.5619 2.62371 45.5619 2.85365V21.6476C45.5599 21.8795 45.3733 22.0643 45.1433 22.0643ZM15.0647 21.2349H44.7286V3.27029H15.0647V21.2349Z" fill="#274242"></path></g><g id="Group_10"><path id="Vector_9" d="M32.9456 23.8251H26.8454C26.6154 23.8251 26.4287 23.6364 26.4287 23.4085C26.4287 23.1785 26.6154 22.9918 26.8454 22.9918H32.9456C33.1736 22.9918 33.3603 23.1785 33.3603 23.4085C33.3603 23.6364 33.1736 23.8251 32.9456 23.8251Z" fill="#274242"></path></g><g id="Group_11"><path id="Vector_10" d="M36.9757 10.4691H22.8178C21.562 10.4691 20.5361 11.495 20.5361 12.7488V16.5065C20.5361 17.7623 21.562 18.7881 22.8178 18.7881H36.9757C38.2296 18.7881 39.2554 17.7623 39.2554 16.5065V12.7488C39.2554 11.497 38.2296 10.4691 36.9757 10.4691Z" fill="#76C5D4"></path></g><g id="Group_12"><path id="Vector_11" d="M36.6815 19.2028H23.1113C21.4624 19.2028 20.1221 17.8625 20.1221 16.2136V13.0436C20.1221 11.3948 21.4644 10.0544 23.1113 10.0544H36.6815C38.3304 10.0544 39.6707 11.3967 39.6707 13.0436V16.2136C39.6707 17.8645 38.3284 19.2028 36.6815 19.2028ZM23.1093 10.8858C21.9203 10.8858 20.9495 11.8527 20.9495 13.0436V16.2136C20.9495 17.4046 21.9183 18.3735 23.1093 18.3735H36.6796C37.8686 18.3735 38.8374 17.4066 38.8374 16.2136V13.0436C38.8374 11.8546 37.8705 10.8858 36.6796 10.8858H23.1093Z" fill="#274242"></path></g><g id="Group_13"><path id="Vector_12" d="M31.2531 6.23971C31.2531 6.99045 30.6438 7.59575 29.897 7.59575C29.1483 7.59575 28.543 6.98848 28.543 6.23971C28.543 5.49094 29.1502 4.88562 29.897 4.88562C30.6438 4.88366 31.2531 5.49094 31.2531 6.23971Z" fill="#76C5D4"></path></g><g id="Group_14"><path id="Vector_13" d="M29.8938 8.01067C28.917 8.01067 28.123 7.2167 28.123 6.23996C28.123 5.26321 28.917 4.46924 29.8938 4.46924C30.8705 4.46924 31.6664 5.26321 31.6664 6.23996C31.6664 7.2167 30.8725 8.01067 29.8938 8.01067ZM29.8938 5.30055C29.3749 5.30055 28.9563 5.72112 28.9563 6.23996C28.9563 6.76076 29.3769 7.18133 29.8938 7.18133C30.4126 7.18133 30.8351 6.76076 30.8351 6.23996C30.8351 5.72112 30.4126 5.30055 29.8938 5.30055Z" fill="#274242"></path></g><g id="Group_15"><path id="Vector_14" d="M23.758 10.8857C23.6421 10.8857 23.53 10.8386 23.4475 10.7442C23.2962 10.5733 23.3119 10.3099 23.4848 10.1586L28.2644 5.92931C28.4373 5.77798 28.7007 5.7937 28.852 5.96665C29.0033 6.13763 28.9876 6.40097 28.8166 6.55427L24.0351 10.7816C23.9565 10.8504 23.8563 10.8857 23.758 10.8857Z" fill="#274242"></path></g><g id="Group_16"><path id="Vector_15" d="M36.0311 10.8858C35.9328 10.8858 35.8345 10.8504 35.7559 10.7796L30.9744 6.55231C30.8034 6.39902 30.7857 6.13567 30.9371 5.96469C31.0904 5.79175 31.3537 5.77603 31.5247 5.92736L36.3062 10.1566C36.4772 10.308 36.4949 10.5713 36.3435 10.7423C36.261 10.8386 36.145 10.8858 36.0311 10.8858Z" fill="#274242"></path></g><g id="Group_17"><path id="Vector_16" d="M35.8733 13.5879H30.569C30.341 13.5879 30.1543 13.4032 30.1543 13.1732C30.1543 12.9433 30.341 12.7566 30.569 12.7566H35.8733C36.1032 12.7566 36.2899 12.9433 36.2899 13.1732C36.2899 13.4032 36.1052 13.5879 35.8733 13.5879Z" fill="#274242"></path></g><g id="Group_18"><path id="Vector_17" d="M28.3867 13.5879H23.9156C23.6877 13.5879 23.501 13.4032 23.501 13.1732C23.501 12.9433 23.6877 12.7566 23.9156 12.7566H28.3867C28.6166 12.7566 28.8033 12.9433 28.8033 13.1732C28.8033 13.4032 28.6166 13.5879 28.3867 13.5879Z" fill="#274242"></path></g><g id="Group_19"><path id="Vector_18" d="M32.5472 16.5005H23.9137C23.6857 16.5005 23.499 16.3138 23.499 16.0839C23.499 15.8539 23.6857 15.6672 23.9137 15.6672H32.5472C32.7771 15.6672 32.9638 15.8539 32.9638 16.0839C32.9638 16.3158 32.7771 16.5005 32.5472 16.5005Z" fill="#274242"></path></g><g id="Group_20"><path id="Vector_19" d="M20.3114 6.94337H14.6494V2.85559H24.3992C24.3992 5.1137 22.5675 6.94337 20.3114 6.94337Z" fill="white"></path></g><g id="Group_21"><path id="Vector_20" d="M20.312 7.35991H14.65C14.4201 7.35991 14.2334 7.1732 14.2334 6.94326V2.85549C14.2334 2.62555 14.4201 2.43884 14.65 2.43884H24.3998C24.6297 2.43884 24.8164 2.62555 24.8164 2.85549C24.8164 5.3396 22.7941 7.35991 20.312 7.35991ZM15.0647 6.52663H20.312C22.1967 6.52663 23.7532 5.09983 23.9596 3.27016H15.0647V6.52663Z" fill="#274242"></path></g><g id="Group_22"><path id="Vector_21" d="M16.8151 5.31408C16.7011 5.31408 16.5989 5.27281 16.5203 5.19223C16.4456 5.11362 16.3984 5.00749 16.3984 4.89743C16.3984 4.78934 16.4436 4.68126 16.5203 4.60461C16.6775 4.44739 16.9526 4.44739 17.1118 4.60461C17.1845 4.67929 17.2317 4.78934 17.2317 4.89743C17.2317 5.00946 17.1865 5.11755 17.1079 5.19223C17.0332 5.27281 16.9232 5.31408 16.8151 5.31408Z" fill="#274242"></path></g><g id="Group_23"><path id="Vector_22" d="M18.6113 4.89759C18.6113 4.66962 18.7941 4.48096 19.028 4.48096C19.2559 4.48096 19.4426 4.66962 19.4426 4.89759C19.4426 5.1295 19.2559 5.31424 19.028 5.31424C18.7941 5.31424 18.6113 5.1295 18.6113 4.89759Z" fill="#274242"></path></g><g id="Group_24"><path id="Vector_23" d="M21.2369 5.31395C21.1269 5.31395 21.0208 5.27268 20.9461 5.1921C20.8675 5.11349 20.8223 5.00736 20.8223 4.89731C20.8223 4.78922 20.8675 4.68113 20.9441 4.60448C21.1013 4.45119 21.3804 4.44726 21.5357 4.60448C21.6143 4.67917 21.6555 4.78922 21.6555 4.89731C21.6555 5.00933 21.6143 5.11742 21.5357 5.1921C21.4531 5.27268 21.349 5.31395 21.2369 5.31395Z" fill="#274242"></path></g></g><g id="Group_25"><g id="Group_26"><g id="Group_27"><path id="Vector_24" d="M22.5463 22.1956C22.4146 22.1308 22.4048 21.9618 22.5227 21.8733C22.8765 21.606 23.2401 21.0577 23.2401 20.1734C23.2401 19.1278 22.4245 18.2651 21.5519 18.2651H15.0547C15.2315 17.6381 15.5794 16.119 15.4163 14.305C15.2021 11.9152 14.074 10.3037 12.7317 10.2507C11.3894 10.1976 10.906 10.4924 10.906 10.4924C10.906 10.4924 11.5466 13.6388 11.2007 14.7079C10.2338 17.6991 6.69043 20.3974 6.69043 21.9283C6.69043 24.1865 6.69043 28.9817 6.69043 30.212V30.5048V31.1907C6.69043 31.6938 7.09921 32.1026 7.60429 32.1026H19.6691C19.7124 32.1026 19.7576 32.0987 19.7988 32.0928C20.8699 31.9906 21.7111 31.0865 21.7111 29.9899C21.7111 29.6205 21.6128 29.2726 21.4477 28.968C22.4028 28.7636 23.1202 27.9185 23.1202 26.9005C23.1202 26.3424 22.902 25.8353 22.5463 25.456C23.0651 25.0728 23.4012 24.4557 23.4012 23.762C23.3992 22.9621 23.0003 22.4256 22.5463 22.1956Z" fill="#76C5D4"></path></g><g id="Group_28"><path id="Vector_25" d="M19.6678 32.5173H7.60295C6.8699 32.5173 6.27441 31.9218 6.27441 31.1888V21.9264C6.27441 21.046 7.0959 20.0338 8.1375 18.7544C9.16338 17.4927 10.3268 16.062 10.8063 14.5782C11.0599 13.7901 10.6707 11.42 10.4978 10.5749C10.4624 10.402 10.5391 10.2271 10.6884 10.1347C10.7867 10.0758 11.3488 9.77508 12.7461 9.83404C14.3576 9.89692 15.5957 11.6794 15.8276 14.2657C15.9613 15.7554 15.7608 17.0604 15.584 17.8465H21.5486C22.6707 17.8465 23.6554 18.9333 23.6554 20.1714C23.6554 21.1147 23.2937 21.6866 23.0048 21.9952C23.4333 22.3234 23.8165 22.913 23.8165 23.76C23.8165 24.4125 23.559 25.0374 23.1149 25.5071C23.3881 25.9179 23.5355 26.4014 23.5355 26.9005C23.5355 27.9205 22.9164 28.8285 22.0065 29.2255C22.0851 29.4711 22.1264 29.7305 22.1264 29.9899C22.1264 31.3008 21.1437 32.3837 19.8388 32.5075C19.7916 32.5134 19.7307 32.5173 19.6678 32.5173ZM11.3802 10.7636C11.5453 11.6598 11.903 13.8825 11.5964 14.8337C11.0677 16.4669 9.85319 17.9605 8.78211 19.2811C7.92132 20.3404 7.10573 21.3427 7.10573 21.9284V31.1907C7.10573 31.4639 7.32781 31.6879 7.60295 31.6879H19.6678C19.6933 31.6879 19.7169 31.684 19.7425 31.6801C20.6327 31.5956 21.2931 30.8684 21.2931 29.9899C21.2931 29.705 21.2204 29.422 21.0808 29.1704C21.0179 29.0545 21.012 28.9169 21.0671 28.797C21.1201 28.6771 21.2302 28.5926 21.3579 28.5632C22.1362 28.3981 22.7022 27.7004 22.7022 26.9025C22.7022 26.4721 22.5391 26.0594 22.2403 25.743C22.1598 25.6565 22.1185 25.5386 22.1303 25.4207C22.1401 25.3008 22.201 25.1947 22.2973 25.1239C22.7336 24.8016 22.9852 24.3044 22.9852 23.7639C22.9852 23.1174 22.6629 22.7223 22.3602 22.571C22.1716 22.4747 22.0478 22.2939 22.0301 22.0876C22.0124 21.8792 22.1028 21.6748 22.2757 21.5451C22.4428 21.4213 22.828 21.0361 22.828 20.1773C22.828 19.3224 22.1558 18.6857 21.5525 18.6857H15.0553C14.9256 18.6857 14.8018 18.6247 14.7232 18.5206C14.6445 18.4144 14.619 18.2808 14.6544 18.155C14.8116 17.5989 15.1594 16.1111 15.0003 14.3463C14.8136 12.2612 13.8525 10.7164 12.7146 10.6712C12.0504 10.6398 11.6259 10.7047 11.3802 10.7636Z" fill="#274242"></path></g><g id="Group_29"><path id="Vector_26" d="M2.28206 32.1025C1.25618 32.1025 0.415039 31.2633 0.415039 30.2375V22.4432C0.415039 21.4173 1.25618 20.5781 2.28206 20.5781C3.30793 20.5781 4.14907 21.4173 4.14907 22.4432V30.2375C4.14711 31.2633 3.30793 32.1025 2.28206 32.1025Z" fill="#76C5D4"></path></g><g id="Group_30"><path id="Vector_27" d="M2.28267 32.5172C1.02489 32.5172 0.000976562 31.4933 0.000976562 30.2355V22.4412C0.000976562 21.1815 1.02489 20.1595 2.28267 20.1595C3.54044 20.1595 4.56435 21.1835 4.56435 22.4412V30.2355C4.56435 31.4953 3.54044 32.5172 2.28267 32.5172ZM2.28267 20.9909C1.4828 20.9909 0.832291 21.6414 0.832291 22.4412V30.2355C0.832291 31.0354 1.4828 31.6859 2.28267 31.6859C3.08253 31.6859 3.73304 31.0354 3.73304 30.2355V22.4412C3.73304 21.6414 3.08253 20.9909 2.28267 20.9909Z" fill="#274242"></path></g></g></g></g></svg>