<svg xmlns="http://www.w3.org/2000/svg" width="61" height="60" viewBox="0 0 61 60" fill="none"><g id="Group"><g id="Group_2"><g id="Group_3"><path id="Vector" d="M55.9611 0.789917H1.2373V37.7118H55.9611V0.789917Z" fill="#F7BE56"></path></g><g id="Group_4"><path id="Vector_2" d="M55.961 38.5097H1.23729C0.83195 38.5097 0.5 38.1539 0.5 37.7158V0.79388C0.5 0.35576 0.83195 0 1.23729 0H55.961C56.3699 0 56.7018 0.35576 56.7018 0.79388V37.7158C56.7018 38.1539 56.3699 38.5097 55.961 38.5097ZM1.97806 36.9219H55.2202V1.58399H1.97806V36.9219Z" fill="#703407"></path></g><g id="Group_5"><path id="Vector_3" d="M38.5314 19.251C38.5314 25.2499 33.9924 30.1104 28.398 30.1104C22.8002 30.1104 18.2646 25.2461 18.2646 19.251C18.2646 13.2521 22.8037 8.3916 28.398 8.3916C33.9924 8.3916 38.5314 13.2559 38.5314 19.251Z" fill="white"></path></g><g id="Group_6"><path id="Vector_4" d="M28.3947 30.9044C22.3985 30.9044 17.5205 25.677 17.5205 19.2512C17.5205 12.8254 22.3985 7.60168 28.3947 7.60168C34.3908 7.60168 39.2688 12.8292 39.2688 19.2512C39.2723 25.677 34.3908 30.9044 28.3947 30.9044ZM28.3947 9.18564C23.2162 9.18564 19.0021 13.7017 19.0021 19.2512C19.0021 24.8007 23.2162 29.3167 28.3947 29.3167C33.5732 29.3167 37.7873 24.8007 37.7873 19.2512C37.7907 13.7017 33.5767 9.18564 28.3947 9.18564Z" fill="#703407"></path></g><g id="Group_7"><path id="Vector_5" d="M25.0713 13.162L34.9112 19.2507L25.0713 25.3432V13.162Z" fill="#F7BE56"></path></g><g id="Group_8"><path id="Vector_6" d="M25.0713 26.1334C24.942 26.1334 24.8162 26.096 24.7009 26.0286C24.4737 25.89 24.334 25.6279 24.334 25.3396V13.1621C24.334 12.8775 24.4737 12.6153 24.7009 12.4731C24.928 12.3345 25.2111 12.3345 25.4417 12.4731L35.285 18.5655C35.5122 18.7041 35.6519 18.9662 35.6519 19.2508C35.6519 19.5354 35.5122 19.7975 35.285 19.9398L25.4417 26.0286C25.3264 26.096 25.1971 26.1334 25.0713 26.1334ZM25.8086 14.5326V23.969L33.4365 19.2508L25.8086 14.5326Z" fill="#703407"></path></g><g id="Group_9"><path id="Vector_7" d="M54.4166 47.8334H2.78178C1.93267 47.8334 1.2373 47.0882 1.2373 46.1782V45.5829C1.2373 44.6729 1.93267 43.9277 2.78178 43.9277H54.4131C55.2622 43.9277 55.9576 44.6729 55.9576 45.5829V46.1782C55.9611 47.0882 55.2657 47.8334 54.4166 47.8334Z" fill="#F7BE56"></path></g><g id="Group_10"><path id="Vector_8" d="M54.2174 48.6277H2.98093C1.61117 48.6277 0.5 47.4332 0.5 45.9653V45.793C0.5 44.3251 1.61117 43.1306 2.98093 43.1306H54.2174C55.5906 43.1306 56.7018 44.3251 56.7018 45.793V45.9653C56.7018 47.4332 55.5906 48.6277 54.2174 48.6277ZM2.98093 44.7183C2.42883 44.7183 1.97806 45.2014 1.97806 45.793V45.9653C1.97806 46.5569 2.42883 47.04 2.98093 47.04H54.2174C54.7695 47.04 55.2202 46.5569 55.2202 45.9653V45.793C55.2202 45.2014 54.7695 44.7183 54.2174 44.7183H2.98093Z" fill="#703407"></path></g><g id="Group_11"><path id="Vector_9" d="M54.4164 47.8334H21.0357C20.1866 47.8334 19.4912 47.0882 19.4912 46.1782V45.5829C19.4912 44.6729 20.1866 43.9277 21.0357 43.9277H54.4164C55.2655 43.9277 55.9609 44.6729 55.9609 45.5829V46.1782C55.9609 47.0882 55.2655 47.8334 54.4164 47.8334Z" fill="white"></path></g><g id="Group_12"><path id="Vector_10" d="M54.2178 48.6277H21.2354C19.8656 48.6277 18.751 47.4332 18.751 45.9653V45.793C18.751 44.3251 19.8656 43.1306 21.2354 43.1306H54.2178C55.5911 43.1306 56.7022 44.3251 56.7022 45.793V45.9653C56.7022 47.4332 55.5911 48.6277 54.2178 48.6277ZM21.2354 44.7183C20.6833 44.7183 20.2325 45.2014 20.2325 45.793V45.9653C20.2325 46.5569 20.6833 47.04 21.2354 47.04H54.2178C54.7699 47.04 55.2206 46.5569 55.2206 45.9653V45.793C55.2206 45.2014 54.7699 44.7183 54.2178 44.7183H21.2354Z" fill="#703407"></path></g><g id="Group_13"><path id="Vector_11" d="M27.5979 45.8345C27.5979 48.2348 25.7809 50.1782 23.5446 50.1782C21.3047 50.1782 19.4912 48.231 19.4912 45.8345C19.4912 43.4342 21.3082 41.4907 23.5446 41.4907C25.7809 41.4907 27.5979 43.4342 27.5979 45.8345Z" fill="#F7BE56"></path></g><g id="Group_14"><path id="Vector_12" d="M23.5451 50.9675C20.9 50.9675 18.751 48.6646 18.751 45.8337C18.751 42.999 20.9 40.696 23.5451 40.696C26.1868 40.696 28.3392 42.999 28.3392 45.8337C28.3392 48.6646 26.1868 50.9675 23.5451 50.9675ZM23.5451 42.2838C21.7176 42.2838 20.2325 43.8752 20.2325 45.8337C20.2325 47.7884 21.7176 49.3836 23.5451 49.3836C25.3691 49.3836 26.8577 47.7884 26.8577 45.8337C26.8577 43.8715 25.3691 42.2838 23.5451 42.2838Z" fill="#703407"></path></g><g id="Group_15"><path id="Vector_13" d="M59.5565 52.1663C60.0387 53.2373 59.6194 54.5404 58.6165 55.0534L51.0305 58.989C50.0311 59.5095 48.8186 59.0564 48.3364 57.9854C47.8507 56.9145 48.2735 55.6151 49.2728 55.0984L56.8589 51.1627C57.8618 50.646 59.0743 51.0991 59.5565 52.1663Z" fill="#F7BE56"></path></g><g id="Group_16"><path id="Vector_14" d="M50.16 59.9999C49.1362 59.9999 48.1508 59.3858 47.6721 58.3335C47.0117 56.8656 47.5882 55.0982 48.9545 54.3867L56.5405 50.4511C57.201 50.1066 57.9487 50.0617 58.6476 50.3238C59.3429 50.5822 59.902 51.1139 60.2235 51.8217C60.5449 52.5294 60.5869 53.3307 60.3423 54.0796C60.1012 54.8286 59.6015 55.4277 58.9411 55.7722L51.3585 59.7078C50.9672 59.9063 50.5618 59.9999 50.16 59.9999ZM57.7356 51.743C57.5434 51.743 57.3582 51.7879 57.187 51.8778L49.5974 55.8134C48.9649 56.1429 48.6959 56.9668 49.0034 57.6408C49.3109 58.3223 50.0796 58.6106 50.7121 58.2774L58.2982 54.3418C58.9341 54.016 59.1997 53.1922 58.8922 52.5144C58.7419 52.1886 58.4833 51.9415 58.1584 51.8179C58.0186 51.7692 57.8753 51.743 57.7356 51.743Z" fill="#703407"></path></g><g id="Group_17"><path id="Vector_15" d="M56.5446 45.647L50.8594 33.0651C50.8384 33.0202 50.814 32.979 50.786 32.9341C50.1815 31.8706 48.9096 31.4512 47.8368 32.0054C47.4769 32.1926 47.1834 32.466 46.9703 32.7918C46.3203 31.9006 45.1568 31.5823 44.1679 32.0916C43.6263 32.3724 43.2314 32.8592 43.0357 33.4171C42.4137 33.0689 41.6555 33.0277 40.9811 33.3797C40.3067 33.7317 39.8699 34.3907 39.7336 35.1209L35.8655 26.5532C35.3728 25.4673 34.1498 25.0142 33.126 25.5422C32.1022 26.0739 31.6724 27.3846 32.165 28.4742L39.5624 44.8569C38.8706 44.988 37.2282 45.3962 35.544 46.4821C33.3182 47.9125 32.2804 49.9009 32.8604 51.3276C33.4405 52.7543 33.9541 53.1101 33.9541 53.1101C33.9541 53.1101 36.7146 50.8521 37.9166 50.6761C41.2851 50.1743 45.5795 52.5072 47.0681 51.7358C49.2625 50.5937 53.9308 48.1747 55.1294 47.5568L55.4159 47.407L56.0798 47.0625C56.576 46.8079 56.7787 46.175 56.5446 45.647Z" fill="white"></path></g><g id="Group_18"><path id="Vector_16" d="M33.9579 53.9036C33.8182 53.9036 33.6784 53.8625 33.5596 53.7801C33.4408 53.7014 32.8223 53.2184 32.1828 51.6456C31.4246 49.7846 32.6231 47.4367 35.1634 45.804C36.3934 45.0102 37.5955 44.5608 38.4935 44.3062L31.5154 28.8596C31.5119 28.8484 31.505 28.8372 31.498 28.8222C31.1765 28.107 31.1346 27.2944 31.3826 26.5417C31.6272 25.789 32.1339 25.1824 32.8048 24.8342C33.4757 24.4859 34.234 24.4372 34.9363 24.6956C35.6422 24.954 36.2082 25.4969 36.5332 26.2122L39.7689 33.3719C40.017 33.0873 40.321 32.8477 40.6634 32.6679C41.2994 32.3384 42.0192 32.2635 42.6901 32.4357C42.9836 31.9864 43.3785 31.6194 43.8502 31.376C44.867 30.848 46.0621 30.9866 46.9496 31.6718C47.1243 31.522 47.3165 31.391 47.5192 31.2861C48.9274 30.5559 50.6081 31.0839 51.4188 32.5181C51.4502 32.5668 51.4922 32.6342 51.5236 32.7091L57.2088 45.2985C57.6211 46.2159 57.2612 47.3243 56.4086 47.7699L47.3934 52.4432C46.4429 52.9375 45.0278 52.578 43.2352 52.1249C41.551 51.6981 39.6396 51.2187 38.0218 51.4547C37.3264 51.5595 35.4849 52.8514 34.4052 53.7351C34.2724 53.8475 34.1152 53.9036 33.9579 53.9036ZM32.8188 28.0995C32.8223 28.1107 32.8293 28.1182 32.8328 28.1294L40.2336 44.5159C40.3315 44.7405 40.328 44.9989 40.2231 45.2199C40.1218 45.4445 39.9226 45.5981 39.6955 45.6393C39.0945 45.7516 37.5221 46.1335 35.9252 47.1596C33.8706 48.4814 33.1717 50.0953 33.5421 51.0053C33.7343 51.4809 33.9125 51.8141 34.0558 52.0388C34.9992 51.3124 36.7708 50.0392 37.8156 49.8857C39.706 49.6011 41.7606 50.1216 43.5707 50.5784C44.8356 50.9004 46.2682 51.2599 46.747 51.0128L55.7587 46.3357C55.881 46.2721 55.9334 46.1148 55.874 45.9838L50.1888 33.3981C49.7346 32.6043 48.882 32.3309 48.1586 32.7053C47.9245 32.8252 47.7254 33.0087 47.5716 33.2408C47.4353 33.4468 47.2152 33.5704 46.9846 33.5741C46.747 33.5741 46.5268 33.4692 46.3835 33.267C45.9398 32.6567 45.1466 32.4582 44.4896 32.7952C44.1367 32.9787 43.8642 33.297 43.7209 33.6939C43.6475 33.9036 43.4903 34.0721 43.2911 34.1508C43.0955 34.2294 42.8753 34.2182 42.6866 34.1096C42.2498 33.8662 41.7397 33.855 41.3029 34.0834C40.8591 34.3155 40.5516 34.7424 40.4608 35.2592C40.4014 35.5962 40.1463 35.8508 39.8283 35.8958C39.5068 35.9407 39.2028 35.761 39.0665 35.4539L35.1984 26.89C35.0481 26.553 34.7826 26.3058 34.4506 26.1822C34.1221 26.0624 33.7658 26.0849 33.4443 26.2534C33.1263 26.4181 32.8887 26.7027 32.7699 27.0585C32.6651 27.4105 32.679 27.7737 32.8188 28.0995Z" fill="#703407"></path></g></g></g></svg>