<svg xmlns="http://www.w3.org/2000/svg" width="61" height="60" viewBox="0 0 61 60" fill="none"><g id="Frame 187"><rect width="60" height="60" transform="translate(0.5)" fill="white"></rect><g id="Group"><g id="Group_2"><path id="Vector" d="M52.0795 11.2021H8.9279C7.8936 11.2021 7.05469 12.0411 7.05469 13.0754V39.936C7.05469 40.9703 7.89099 41.8092 8.9279 41.8092H52.0795C53.1112 41.8092 53.9527 40.9703 53.9527 39.936V13.0754C53.9527 12.0411 53.1138 11.2021 52.0795 11.2021Z" fill="#E66673"></path></g><g id="Group_3"><path id="Vector_2" d="M50.7135 14.2687H10.2871V38.7428H50.7135V14.2687Z" fill="white"></path></g><g id="Group_4"><path id="Vector_3" d="M50.7177 39.2951H10.2887C9.98645 39.2951 9.73633 39.045 9.73633 38.7428V14.2686C9.73633 13.9638 9.98645 13.7163 10.2887 13.7163H50.7177C51.0225 13.7163 51.27 13.9638 51.27 14.2686V38.7428C51.27 39.045 51.0225 39.2951 50.7177 39.2951ZM10.841 38.1905H50.1653V14.8184H10.841V38.1905Z" fill="#3F232C"></path></g><g id="Group_5"><path id="Vector_4" d="M34.9349 41.8092H26.0743L23.0078 47.1527H37.9987L34.9349 41.8092Z" fill="white"></path></g><g id="Group_6"><path id="Vector_5" d="M45.5083 47.1527H15.5005C15.0967 47.1527 14.7189 47.3559 14.5001 47.6946C13.9868 48.4892 14.5548 49.534 15.5005 49.534H45.5083C46.4514 49.534 47.022 48.4892 46.5088 47.6946C46.2873 47.3585 45.9121 47.1527 45.5083 47.1527Z" fill="#E66673"></path></g><g id="Group_7"><path id="Vector_6" d="M52.0771 10.6525H8.92553C7.58901 10.6525 6.5 11.7389 6.5 13.0754V39.936C6.5 41.2725 7.58901 42.3615 8.92553 42.3615H25.1201L22.6867 46.603H15.4961C14.9021 46.603 14.355 46.9 14.0319 47.3976C13.6828 47.9343 13.6594 48.6169 13.9642 49.1796C14.2742 49.7502 14.8474 50.0915 15.4961 50.0915H45.5065C46.1526 50.0915 46.7258 49.7502 47.0358 49.1796C47.3407 48.6169 47.3172 47.9343 46.9681 47.3976C46.645 46.9026 46.0979 46.603 45.5065 46.603H38.3133L35.8799 42.3615H52.0745C53.4136 42.3615 54.5 41.2725 54.5 39.936V13.0754C54.5026 11.7389 53.4162 10.6525 52.0771 10.6525ZM46.0432 47.9968C46.1735 48.1974 46.1839 48.4423 46.0693 48.6507C45.9572 48.8592 45.7462 48.9842 45.5091 48.9842H15.4987C15.259 48.9842 15.048 48.8592 14.936 48.6507C14.8213 48.4423 14.8317 48.1974 14.962 47.9968C15.0792 47.8144 15.2798 47.7076 15.4987 47.7076H23.0072H37.998H45.5091C45.7254 47.705 45.926 47.8118 46.0432 47.9968ZM37.0471 46.603H23.9607L26.3914 42.3615H34.6138L37.0471 46.603ZM53.398 39.936C53.398 40.6629 52.8066 41.2569 52.0771 41.2569H34.9342H26.0736H8.92814C8.20126 41.2569 7.60726 40.6629 7.60726 39.936V13.0754C7.60726 12.3485 8.20126 11.7545 8.92814 11.7545H52.0797C52.8092 11.7545 53.4006 12.3485 53.4006 13.0754L53.398 39.936Z" fill="#3F232C"></path></g><g id="Group_8"><path id="Vector_7" d="M37.25 17.1423H23.8066V30.5857H37.25V17.1423Z" fill="#E66673"></path></g><g id="Group_9"><path id="Vector_8" d="M37.2489 31.1379H23.8056C23.5008 31.1379 23.2559 30.8878 23.2559 30.5856V17.1423C23.2559 16.8375 23.5008 16.59 23.8056 16.59H37.2489C37.5537 16.59 37.8012 16.8375 37.8012 17.1423V30.5856C37.8012 30.8878 37.5537 31.1379 37.2489 31.1379ZM24.3553 30.0333H36.694V17.6946H24.3553V30.0333Z" fill="#3F232C"></path></g><g id="Group_10"><path id="Vector_9" d="M16.9903 19.1744C14.4007 19.1744 12.3008 21.2743 12.3008 23.864C12.3008 26.4536 14.4007 28.5535 16.9903 28.5535C19.58 28.5535 21.6799 26.4536 21.6799 23.864C21.6799 21.2743 19.58 19.1744 16.9903 19.1744ZM16.9903 28.4285C15.5183 28.4285 14.3199 28.1132 14.3199 26.6907C14.3199 25.6382 14.9738 24.4736 15.9091 23.9369C15.5652 23.5618 15.349 23.0355 15.349 22.5066C15.349 21.5322 16.0837 20.7402 16.9903 20.7402C17.8996 20.7402 18.6343 21.5322 18.6343 22.5066C18.6343 23.0355 18.4154 23.5618 18.0715 23.9369C19.0068 24.4736 19.6607 25.6356 19.6607 26.6907C19.6633 28.1132 18.4675 28.4285 16.9903 28.4285Z" fill="#E66673"></path></g><g id="Group_11"><path id="Vector_10" d="M18.0739 23.9369C18.4178 23.5618 18.6366 23.0355 18.6366 22.5066C18.6366 21.5322 17.9019 20.7402 16.9927 20.7402C16.086 20.7402 15.3513 21.5322 15.3513 22.5066C15.3513 23.0355 15.5676 23.5618 15.9115 23.9369C14.9762 24.4736 14.3223 25.6356 14.3223 26.6907C14.3223 28.1132 15.5207 28.4285 16.9927 28.4285C18.4673 28.4285 19.6631 28.1132 19.6631 26.6907C19.6657 25.6382 19.0118 24.4736 18.0739 23.9369Z" fill="white"></path></g><g id="Group_12"><path id="Vector_11" d="M16.9879 18.6221C14.0987 18.6221 11.7461 20.9721 11.7461 23.8639C11.7461 26.7532 14.0961 29.1058 16.9879 29.1058C19.8772 29.1058 22.2298 26.7558 22.2298 23.8639C22.2298 20.9747 19.8798 18.6221 16.9879 18.6221ZM14.8933 26.3833C14.8985 26.3468 14.9089 26.3155 14.9141 26.2816C14.9271 26.2139 14.9428 26.141 14.9636 26.0732C14.974 26.0315 14.9871 25.9951 15.0001 25.9534C15.0209 25.8909 15.0444 25.8257 15.0678 25.7658C15.0835 25.7241 15.1017 25.685 15.1199 25.646C15.1486 25.5834 15.1773 25.5209 15.2137 25.4636C15.232 25.4245 15.2528 25.3906 15.2736 25.3542C15.3127 25.289 15.3544 25.2265 15.3987 25.1666C15.4169 25.1379 15.4352 25.1067 15.456 25.0832C15.5212 24.9946 15.5915 24.9113 15.6645 24.8331C15.6697 24.8279 15.6748 24.8253 15.6775 24.8201C15.74 24.7549 15.8103 24.695 15.8755 24.6377C15.9667 24.7028 16.0631 24.7602 16.1621 24.8044C16.2089 24.8305 16.2611 24.8461 16.3106 24.867C16.3653 24.8878 16.42 24.9087 16.4747 24.9217C16.545 24.9425 16.618 24.9608 16.6909 24.9738C16.7092 24.9764 16.7274 24.9764 16.7456 24.979C16.8264 24.992 16.9098 25.0077 16.9931 25.0077C17.0765 25.0077 17.1573 24.992 17.2432 24.979C17.2615 24.9764 17.2797 24.9764 17.298 24.9738C17.3683 24.9608 17.4413 24.9425 17.5116 24.9217C17.5663 24.9061 17.621 24.8852 17.6757 24.867C17.7252 24.8461 17.7747 24.8305 17.8242 24.8044C17.9232 24.7575 18.0196 24.7028 18.1108 24.6377C18.1786 24.695 18.2463 24.7549 18.3088 24.8201C18.314 24.8253 18.3192 24.8279 18.3245 24.8331C18.3948 24.9113 18.4678 24.9946 18.5329 25.0832C18.5537 25.1093 18.572 25.1379 18.5902 25.1666C18.6345 25.2265 18.6736 25.289 18.7126 25.3542C18.7361 25.3906 18.7569 25.4245 18.7726 25.4636C18.8064 25.5209 18.8351 25.5834 18.8638 25.646C18.882 25.685 18.9002 25.7241 18.9185 25.7658C18.9419 25.8257 18.9654 25.8909 18.9862 25.9534C18.9992 25.9951 19.0123 26.0315 19.0227 26.0732C19.0435 26.141 19.0566 26.2139 19.0722 26.2816C19.0774 26.3155 19.0852 26.3468 19.0904 26.3833C19.106 26.4849 19.1138 26.5891 19.1138 26.6907C19.1138 27.2638 18.9497 27.8761 16.9958 27.8761C15.0392 27.8761 14.8777 27.2638 14.8777 26.6907C14.8698 26.5891 14.8802 26.4849 14.8933 26.3833ZM18.0509 22.7932C17.9962 23.0771 17.8607 23.3507 17.6653 23.5617C17.5481 23.6894 17.3032 23.903 16.9879 23.903C16.9098 23.903 16.8342 23.8874 16.7665 23.8665C16.6987 23.8431 16.6336 23.8118 16.5763 23.7806C16.4617 23.7128 16.3731 23.6268 16.3132 23.5617C16.0526 23.2803 15.8963 22.8869 15.8963 22.5092C15.8963 21.8396 16.3861 21.2951 16.9879 21.2951C17.5898 21.2951 18.0796 21.8396 18.0796 22.5092C18.0796 22.603 18.0691 22.6994 18.0509 22.7932ZM20.2055 26.4666C20.2029 26.4119 20.1899 26.3572 20.1846 26.3025C20.1794 26.253 20.1742 26.2061 20.1664 26.1566C20.1456 26.0315 20.1169 25.9039 20.0856 25.784C20.0804 25.7632 20.0778 25.745 20.0726 25.7267C20.0309 25.5834 19.9814 25.448 19.9241 25.3073C19.9059 25.2682 19.885 25.2291 19.8694 25.19C19.8251 25.091 19.7782 24.9946 19.7261 24.9008C19.7 24.8565 19.674 24.8149 19.6506 24.7706C19.5958 24.6768 19.5333 24.5882 19.4708 24.4996C19.4447 24.4631 19.4239 24.4293 19.3978 24.3954C19.3093 24.2782 19.2129 24.1635 19.1113 24.0593C19.093 24.0411 19.0748 24.0255 19.0591 24.0098C18.9888 23.9395 18.9159 23.8691 18.8429 23.8066C18.9002 23.7024 18.9523 23.593 18.9966 23.4836C19.0018 23.4653 19.007 23.4471 19.0149 23.4315C19.0618 23.309 19.093 23.1813 19.1217 23.0563C19.1321 23.0198 19.1399 22.9833 19.1451 22.9443C19.1712 22.7984 19.1894 22.6551 19.1894 22.5066C19.1894 21.23 18.2046 20.1905 16.9931 20.1905C15.7843 20.1905 14.7995 21.2274 14.7995 22.5066C14.7995 22.6551 14.8177 22.7984 14.8412 22.9443C14.849 22.9833 14.8568 23.0198 14.8646 23.0563C14.8933 23.1839 14.9272 23.3116 14.9741 23.4315C14.9819 23.4471 14.9844 23.4653 14.9923 23.4836C15.0366 23.593 15.0861 23.7024 15.146 23.8066C15.0704 23.8691 15.0001 23.9395 14.9324 24.0072C14.9141 24.0255 14.8933 24.0411 14.8777 24.0593C14.776 24.1635 14.6822 24.2782 14.5937 24.3954C14.565 24.4319 14.5415 24.4658 14.5155 24.5048C14.4556 24.5908 14.3956 24.6768 14.3409 24.7706C14.3149 24.8149 14.2888 24.8592 14.2628 24.9061C14.2133 24.9972 14.1664 25.0936 14.1221 25.1874C14.1012 25.2317 14.0804 25.2708 14.0674 25.3125C14.0075 25.4506 13.958 25.586 13.9189 25.7293C13.9111 25.7476 13.9085 25.7684 13.9032 25.7866C13.8694 25.9117 13.8434 26.0367 13.8225 26.1592C13.8173 26.2087 13.8121 26.2556 13.8068 26.3051C13.799 26.3598 13.7886 26.4119 13.786 26.4692C13.2076 25.758 12.8611 24.8513 12.8611 23.8665C12.8611 21.5843 14.7187 19.7267 16.9984 19.7267C19.2806 19.7267 21.1382 21.5843 21.1382 23.8665C21.1278 24.8487 20.7813 25.7554 20.2055 26.4666Z" fill="#3F232C"></path></g><g id="Group_13"><path id="Vector_12" d="M30.5313 19.1744C27.9417 19.1744 25.8418 21.2743 25.8418 23.864C25.8418 26.4536 27.9417 28.5535 30.5313 28.5535C33.121 28.5535 35.2208 26.4536 35.2208 23.864C35.2182 21.2743 33.121 19.1744 30.5313 19.1744ZM30.5313 28.4285C29.0567 28.4285 27.8609 28.1132 27.8609 26.6907C27.8609 25.6382 28.5148 24.4736 29.4501 23.9369C29.1062 23.5618 28.8874 23.0355 28.8874 22.5066C28.8874 21.5322 29.6247 20.7402 30.5313 20.7402C31.4406 20.7402 32.1753 21.5322 32.1753 22.5066C32.1753 23.0355 31.9564 23.5618 31.6125 23.9369C32.5478 24.4736 33.2018 25.6356 33.2018 26.6907C33.2018 28.1132 32.0059 28.4285 30.5313 28.4285Z" fill="white"></path></g><g id="Group_14"><path id="Vector_13" d="M31.6071 23.9369C31.951 23.5618 32.1699 23.0355 32.1699 22.5066C32.1699 21.5322 31.4352 20.7402 30.5259 20.7402C29.6193 20.7402 28.8819 21.5322 28.8819 22.5066C28.8819 23.0355 29.1008 23.5618 29.4447 23.9369C28.5094 24.4736 27.8555 25.6356 27.8555 26.6907C27.8555 28.1132 29.0513 28.4285 30.5259 28.4285C32.0005 28.4285 33.1963 28.1132 33.1963 26.6907C33.1963 25.6382 32.5424 24.4736 31.6071 23.9369Z" fill="#E66673"></path></g><g id="Group_15"><path id="Vector_14" d="M30.5309 18.6221C27.6417 18.6221 25.2891 20.9721 25.2891 23.8639C25.2891 26.7532 27.6391 29.1058 30.5309 29.1058C33.4202 29.1058 35.7728 26.7558 35.7728 23.8639C35.7702 20.9747 33.4202 18.6221 30.5309 18.6221ZM28.4337 26.3833C28.4389 26.3468 28.4493 26.3155 28.4545 26.2816C28.4675 26.2139 28.4832 26.141 28.5014 26.0732C28.5144 26.0315 28.5275 25.9951 28.5405 25.9534C28.5613 25.8909 28.5848 25.8257 28.6082 25.7658C28.6238 25.7241 28.6421 25.685 28.6603 25.646C28.689 25.5834 28.7176 25.5209 28.7515 25.4636C28.7723 25.4245 28.7932 25.3906 28.8114 25.3542C28.8505 25.289 28.8922 25.2265 28.9365 25.1666C28.9547 25.1379 28.9729 25.1067 28.9938 25.0832C29.0589 24.9946 29.1293 24.9113 29.2022 24.8331C29.2074 24.8279 29.2127 24.8253 29.2153 24.8201C29.2804 24.7549 29.3455 24.695 29.4133 24.6377C29.5045 24.7028 29.6009 24.7602 29.6999 24.8044C29.7494 24.8305 29.7962 24.8461 29.8483 24.867C29.9004 24.8878 29.9552 24.9087 30.0125 24.9217C30.0828 24.9425 30.1558 24.9608 30.2261 24.9738C30.247 24.9764 30.2652 24.9764 30.2834 24.979C30.3642 24.992 30.4476 25.0077 30.5309 25.0077C30.6143 25.0077 30.6951 24.992 30.781 24.979C30.7993 24.9764 30.8175 24.9764 30.8357 24.9738C30.9061 24.9608 30.979 24.9425 31.0494 24.9217C31.1041 24.9061 31.1588 24.8852 31.2161 24.867C31.2656 24.8461 31.3125 24.8305 31.362 24.8044C31.461 24.7575 31.5574 24.7028 31.6486 24.6377C31.7163 24.6924 31.7815 24.7549 31.844 24.8175C31.8492 24.8227 31.8544 24.8279 31.8596 24.8331C31.9352 24.9113 32.0055 24.9972 32.0706 25.0832C32.0889 25.1093 32.1071 25.1379 32.1254 25.1614C32.1697 25.2239 32.2139 25.289 32.2556 25.3568C32.2765 25.3906 32.2947 25.4245 32.3104 25.4584C32.3468 25.5209 32.3755 25.5834 32.4067 25.6486C32.425 25.6876 32.4406 25.7241 32.4563 25.7606C32.4823 25.8257 32.5083 25.8935 32.5266 25.956C32.5396 25.9951 32.5527 26.0315 32.5631 26.0706C32.5839 26.141 32.5969 26.2139 32.6099 26.2843C32.6178 26.3155 32.6256 26.3494 32.6308 26.3833C32.6464 26.4849 32.6542 26.5891 32.6542 26.6907C32.6542 27.2638 32.4901 27.8761 30.5362 27.8761C28.5796 27.8761 28.4154 27.2638 28.4154 26.6907C28.4102 26.5891 28.4206 26.4849 28.4337 26.3833ZM31.2057 23.5617C31.0884 23.6894 30.8436 23.903 30.5283 23.903C30.4502 23.903 30.3746 23.8874 30.3069 23.8665C30.2391 23.8431 30.174 23.8118 30.1167 23.7806C30.002 23.7128 29.9135 23.6268 29.8535 23.5617C29.593 23.2803 29.4367 22.8869 29.4367 22.5092C29.4367 21.8396 29.9291 21.2951 30.5283 21.2951C31.1301 21.2951 31.62 21.8396 31.62 22.5092C31.6226 22.8869 31.4662 23.2803 31.2057 23.5617ZM33.7459 26.4666C33.7407 26.4119 33.7302 26.3572 33.725 26.3025C33.7198 26.253 33.7146 26.2061 33.7068 26.1566C33.6859 26.0289 33.6573 25.9039 33.626 25.7762C33.6208 25.7606 33.6182 25.7423 33.613 25.7241C33.5713 25.5808 33.5218 25.4427 33.4645 25.3047C33.4463 25.2656 33.428 25.2291 33.4098 25.19C33.3629 25.0884 33.316 24.992 33.2613 24.8956C33.2378 24.8539 33.2144 24.8123 33.1883 24.768C33.1336 24.6742 33.0711 24.583 33.006 24.4918C32.9825 24.4579 32.9591 24.4267 32.9382 24.3954C32.847 24.2756 32.7506 24.1609 32.6464 24.0541C32.6334 24.0411 32.6204 24.0307 32.6074 24.015C32.5344 23.9447 32.4588 23.8691 32.3807 23.804C32.438 23.6998 32.4875 23.5904 32.5344 23.481C32.5422 23.4627 32.5448 23.4445 32.5526 23.4262C32.5969 23.3064 32.6308 23.1787 32.6594 23.0563C32.6673 23.0172 32.6777 22.9807 32.6829 22.9417C32.7089 22.7958 32.7272 22.6525 32.7272 22.504C32.7272 21.2274 31.7424 20.1879 30.5309 20.1879C29.3221 20.1879 28.3373 21.2248 28.3373 22.504C28.3373 22.6525 28.3529 22.7958 28.379 22.9417C28.3868 22.9807 28.3946 23.0172 28.4024 23.0537C28.4311 23.1813 28.4675 23.309 28.5118 23.4288C28.517 23.4445 28.5222 23.4627 28.5301 23.481C28.5744 23.5904 28.6239 23.6998 28.6838 23.804C28.6082 23.8665 28.5379 23.9369 28.4702 24.0046C28.4519 24.0229 28.431 24.0385 28.4154 24.0567C28.3138 24.1609 28.22 24.2756 28.1315 24.3928C28.1028 24.4293 28.0767 24.4631 28.0533 24.5022C27.9934 24.5882 27.9334 24.6742 27.8787 24.768C27.8501 24.8123 27.8266 24.8566 27.8006 24.9034C27.7485 24.9946 27.7042 25.091 27.6599 25.1848C27.6391 25.2291 27.6182 25.2682 27.6052 25.3099C27.5479 25.448 27.4958 25.5834 27.4541 25.7267C27.4489 25.745 27.4463 25.7658 27.441 25.784C27.4072 25.9091 27.3837 26.0341 27.3629 26.1566C27.3525 26.2061 27.3499 26.253 27.3446 26.3025C27.3368 26.3572 27.3264 26.4093 27.3212 26.4666C26.7454 25.7554 26.3989 24.8487 26.3989 23.8639C26.3989 21.5817 28.2565 19.7241 30.5362 19.7241C32.8184 19.7241 34.6734 21.5817 34.6734 23.8639C34.6655 24.8487 34.3242 25.7554 33.7459 26.4666Z" fill="#3F232C"></path></g><g id="Group_16"><path id="Vector_15" d="M44.0124 19.1744C41.4228 19.1744 39.3203 21.2743 39.3203 23.864C39.3203 26.4536 41.4228 28.5535 44.0124 28.5535C46.6021 28.5535 48.702 26.4536 48.702 23.864C48.702 21.2743 46.6021 19.1744 44.0124 19.1744ZM44.0124 28.4285C42.5378 28.4285 41.342 28.1132 41.342 26.6907C41.342 25.6382 41.996 24.4736 42.9313 23.9369C42.5874 23.5618 42.3685 23.0355 42.3685 22.5066C42.3685 21.5322 43.1032 20.7402 44.0124 20.7402C44.9217 20.7402 45.6564 21.5322 45.6564 22.5066C45.6564 23.0355 45.4376 23.5618 45.0937 23.9369C46.029 24.4736 46.6829 25.6356 46.6829 26.6907C46.6855 28.1132 45.4896 28.4285 44.0124 28.4285Z" fill="#E66673"></path></g><g id="Group_17"><path id="Vector_16" d="M45.0934 23.9369C45.4373 23.5618 45.6562 23.0355 45.6562 22.5066C45.6562 21.5322 44.9215 20.7402 44.0122 20.7402C43.103 20.7402 42.3683 21.5322 42.3683 22.5066C42.3683 23.0355 42.5871 23.5618 42.931 23.9369C41.9957 24.4736 41.3418 25.6356 41.3418 26.6907C41.3418 28.1132 42.5376 28.4285 44.0122 28.4285C45.4868 28.4285 46.6827 28.1132 46.6827 26.6907C46.6853 25.6382 46.0313 24.4736 45.0934 23.9369Z" fill="white"></path></g><g id="Group_18"><path id="Vector_17" d="M44.0153 18.6221C41.126 18.6221 38.7734 20.9721 38.7734 23.8639C38.7734 26.7532 41.1234 29.1058 44.0153 29.1058C46.9072 29.1058 49.2572 26.7558 49.2572 23.8639C49.2572 20.9747 46.9072 18.6221 44.0153 18.6221ZM41.9206 26.3833C41.9258 26.3468 41.9337 26.3155 41.9415 26.2816C41.9545 26.2139 41.9675 26.141 41.9884 26.0732C41.9988 26.0315 42.0118 25.9951 42.0274 25.9534C42.0483 25.8909 42.0717 25.8257 42.0952 25.7658C42.1108 25.7241 42.1291 25.685 42.1473 25.646C42.176 25.5834 42.2046 25.5209 42.2385 25.4636C42.2593 25.4245 42.2776 25.3906 42.2984 25.3542C42.3375 25.289 42.3765 25.2265 42.4208 25.1666C42.4417 25.1379 42.4599 25.1067 42.4808 25.0832C42.5433 24.9946 42.6137 24.9113 42.6892 24.8331C42.6944 24.8279 42.697 24.8253 42.7022 24.8201C42.7647 24.7549 42.8325 24.695 42.9002 24.6377C42.9914 24.7028 43.0878 24.7602 43.1868 24.8044C43.2363 24.8305 43.2832 24.8461 43.3353 24.867C43.3874 24.8878 43.4421 24.9087 43.4994 24.9217C43.5698 24.9425 43.6427 24.9608 43.7131 24.9738C43.7339 24.9764 43.7521 24.9764 43.7678 24.979C43.8511 24.992 43.9319 25.0077 44.0179 25.0077C44.1013 25.0077 44.182 24.992 44.268 24.979C44.2862 24.9764 44.3045 24.9764 44.3201 24.9738C44.3931 24.9608 44.466 24.9425 44.5364 24.9217C44.5885 24.9061 44.6458 24.8852 44.7005 24.867C44.75 24.8461 44.7995 24.8305 44.849 24.8044C44.9454 24.7575 45.0418 24.7028 45.1356 24.6377C45.2007 24.695 45.271 24.7549 45.331 24.8201C45.3362 24.8253 45.3414 24.8279 45.3466 24.8331C45.4195 24.9113 45.4925 24.9946 45.555 25.0832C45.5759 25.1093 45.5967 25.1379 45.6123 25.1666C45.6566 25.2265 45.6983 25.289 45.7374 25.3542C45.7583 25.3906 45.7791 25.4245 45.7973 25.4636C45.8286 25.5209 45.8599 25.5834 45.8885 25.646C45.9068 25.685 45.925 25.7241 45.9406 25.7658C45.9666 25.8257 45.9875 25.8909 46.0083 25.9534C46.0214 25.9951 46.037 26.0315 46.0474 26.0732C46.0656 26.141 46.0813 26.2139 46.0943 26.2816C46.1021 26.3155 46.1099 26.3468 46.1151 26.3833C46.1308 26.4849 46.1386 26.5891 46.1386 26.6907C46.1386 27.2638 45.9745 27.8761 44.0205 27.8761C42.0639 27.8761 41.8998 27.2638 41.8998 26.6907C41.8946 26.5891 41.905 26.4849 41.9206 26.3833ZM45.0809 22.7932C45.0262 23.0771 44.8881 23.3507 44.6927 23.5617C44.5754 23.6894 44.3331 23.903 44.0179 23.903C43.9397 23.903 43.8642 23.8874 43.7964 23.8665C43.7261 23.8431 43.661 23.8118 43.6063 23.7806C43.4916 23.7128 43.4005 23.6268 43.3405 23.5617C43.08 23.2803 42.9263 22.8869 42.9263 22.5092C42.9263 21.8396 43.4161 21.2951 44.0179 21.2951C44.6197 21.2951 45.1095 21.8396 45.1095 22.5092C45.1069 22.603 45.0965 22.6994 45.0809 22.7932ZM47.2302 26.4666C47.2276 26.4119 47.2172 26.3572 47.212 26.3025C47.2042 26.253 47.199 26.2061 47.1912 26.1566C47.1703 26.0315 47.1443 25.9039 47.113 25.784C47.1078 25.7632 47.1052 25.745 47.1 25.7267C47.0583 25.5834 47.0088 25.448 46.9489 25.3073C46.9332 25.2682 46.9124 25.2291 46.8967 25.19C46.8499 25.091 46.8056 24.9946 46.7509 24.9008C46.7274 24.8565 46.704 24.8149 46.6779 24.7706C46.618 24.6768 46.5607 24.5882 46.4981 24.4996C46.4721 24.4631 46.4486 24.4293 46.4252 24.3954C46.334 24.2782 46.2402 24.1635 46.136 24.0593C46.1204 24.0411 46.1021 24.0255 46.0839 24.0098C46.0162 23.9395 45.9432 23.8691 45.8703 23.8066C45.925 23.7024 45.9771 23.593 46.024 23.4836C46.0292 23.4653 46.0344 23.4471 46.0396 23.4315C46.0865 23.309 46.1204 23.1813 46.149 23.0563C46.1568 23.0198 46.1647 22.9833 46.1725 22.9443C46.1985 22.7984 46.2142 22.6551 46.2142 22.5066C46.2142 21.23 45.232 20.1905 44.0205 20.1905C42.809 20.1905 41.8243 21.2274 41.8243 22.5066C41.8243 22.6551 41.8425 22.7984 41.8685 22.9443C41.8764 22.9833 41.8841 23.0198 41.892 23.0563C41.9206 23.1839 41.9545 23.3116 42.0014 23.4315C42.0066 23.4471 42.0118 23.4653 42.017 23.4836C42.0639 23.593 42.1108 23.7024 42.1707 23.8066C42.0978 23.8691 42.0275 23.9395 41.9571 24.0072C41.9389 24.0255 41.9206 24.0411 41.9024 24.0593C41.8008 24.1635 41.707 24.2782 41.6158 24.3954C41.5872 24.4319 41.5637 24.4658 41.5403 24.5048C41.4803 24.5908 41.4178 24.6768 41.3657 24.7706C41.337 24.8149 41.3136 24.8592 41.2875 24.9061C41.2354 24.9972 41.1911 25.0936 41.1469 25.1874C41.126 25.2317 41.1052 25.2708 41.0895 25.3125C41.0348 25.4506 40.9827 25.586 40.941 25.7293C40.9358 25.7476 40.9332 25.7684 40.928 25.7866C40.8941 25.9117 40.8681 26.0367 40.8473 26.1592C40.8395 26.2087 40.8342 26.2556 40.829 26.3051C40.8238 26.3598 40.8134 26.4119 40.8082 26.4692C40.2298 25.758 39.8833 24.8513 39.8833 23.8665C39.8833 21.5843 41.7409 19.7267 44.0231 19.7267C46.3054 19.7267 48.1603 21.5843 48.1603 23.8665C48.1525 24.8487 47.806 25.7554 47.2302 26.4666Z" fill="#3F232C"></path></g><g id="Group_19"><path id="Vector_18" d="M21.6804 36.6716L18.5566 34.6134L21.6804 32.5579V36.6716Z" fill="#E66673"></path></g><g id="Group_20"><path id="Vector_19" d="M21.6761 37.2239C21.5693 37.2239 21.4651 37.1926 21.3739 37.1327L18.2475 35.0771C18.0938 34.9755 18 34.8036 18 34.6134C18 34.431 18.0938 34.2565 18.2475 34.1548L21.3739 32.0967C21.5458 31.9846 21.7595 31.9742 21.9392 32.0706C22.1164 32.167 22.2284 32.352 22.2284 32.5578V36.6716C22.2284 36.8748 22.1164 37.0598 21.9392 37.1588C21.8559 37.203 21.7673 37.2239 21.6761 37.2239ZM19.5554 34.6134L21.129 35.6477V33.5791L19.5554 34.6134Z" fill="#3F232C"></path></g><g id="Group_21"><path id="Vector_20" d="M39.3203 32.5579L42.4467 34.6134L39.3203 36.6716V32.5579Z" fill="#E66673"></path></g><g id="Group_22"><path id="Vector_21" d="M39.3232 37.2239C39.2346 37.2239 39.146 37.203 39.0626 37.1588C38.8855 37.0624 38.7734 36.8774 38.7734 36.6716V32.5578C38.7734 32.3546 38.8855 32.1696 39.0626 32.0706C39.2398 31.9742 39.456 31.9846 39.628 32.0967L42.7543 34.1548C42.908 34.2565 43.0018 34.4284 43.0018 34.6134C43.0018 34.801 42.908 34.9755 42.7543 35.0771L39.628 37.1327C39.5368 37.1926 39.43 37.2239 39.3232 37.2239ZM39.8729 33.5817V35.6503L41.4465 34.6134L39.8729 33.5817Z" fill="#3F232C"></path></g><g id="Group_23"><path id="Vector_22" d="M35.2204 35.1658H25.8414C25.5365 35.1658 25.2891 34.9183 25.2891 34.6134C25.2891 34.3112 25.5365 34.0637 25.8414 34.0637H35.2204C35.5253 34.0637 35.7727 34.3112 35.7727 34.6134C35.7727 34.9183 35.5279 35.1658 35.2204 35.1658Z" fill="#3F232C"></path></g></g></g></svg>