<svg xmlns="http://www.w3.org/2000/svg" width="61" height="60" viewBox="0 0 61 60" fill="none"><g clip-path="url(#clip0_433_37905)"><rect width="60" height="60" transform="translate(0.5)" fill="white"></rect><path d="M59.8188 13.1663H11.1162V54.0344H59.8188V13.1663Z" fill="#AA8FA2"></path><path d="M59.8184 54.8129H11.1158C10.7381 54.8129 10.4346 54.4641 10.4346 54.0345V13.1664C10.4346 12.7369 10.7413 12.3881 11.1158 12.3881H59.8184C60.1962 12.3881 60.4997 12.7369 60.4997 13.1664V54.0345C60.5029 54.4641 60.1962 54.8129 59.8184 54.8129ZM11.7971 53.2598H59.1339V13.9448H11.7971V53.2598Z" fill="#3D2139"></path><path d="M14.2188 9.51001V49.0013C31.3441 49.0013 35.4607 54.002 35.4607 54.002V14.5143C35.4607 14.5143 31.3441 9.51001 14.2188 9.51001Z" fill="#AA8FA2"></path><path d="M35.4707 14.5146V54.0022C35.4707 54.0022 39.5874 49.0015 56.7127 49.0015V9.51025C39.5906 9.51025 35.4707 14.5146 35.4707 14.5146Z" fill="#AA8FA2"></path><path d="M56.7162 8.73096C42.4096 8.73096 36.995 12.2043 35.4678 13.504C33.9406 12.2043 28.526 8.73096 14.2226 8.73096C13.8448 8.73096 13.5381 9.08342 13.5381 9.50932V49.0006C13.5381 49.4302 13.8448 49.779 14.2226 49.779C30.6957 49.779 34.9286 54.4932 34.9673 54.5336C34.9835 54.5557 35.0093 54.5667 35.0255 54.585C35.0481 54.6071 35.0739 54.6254 35.0997 54.6438C35.2127 54.7245 35.3322 54.7833 35.4646 54.7833C35.5485 54.7833 35.6357 54.7649 35.7164 54.7282L35.7261 54.7209C35.7487 54.7099 35.7681 54.6915 35.7874 54.6768C35.8359 54.6475 35.8778 54.6144 35.9166 54.5777C35.9327 54.563 35.9521 54.5557 35.965 54.541C36.007 54.4932 40.2399 49.779 56.7162 49.779C57.094 49.779 57.3975 49.4302 57.3975 49.0006V9.50932C57.3975 9.08342 57.0908 8.73096 56.7162 8.73096ZM34.7801 52.4666C32.6136 50.9686 27.0795 48.3213 14.9039 48.2259V10.2914C28.9877 10.4052 33.8308 14.0143 34.7801 14.8661V52.4666ZM56.0317 48.2259C43.8561 48.3213 38.3188 50.9686 36.1555 52.4666V14.8661C37.1145 14.0033 41.9641 10.4052 56.0317 10.2914V48.2259Z" fill="#3D2139"></path><path d="M17.6348 6.77429V45.1935C32.0092 45.1935 35.464 52.6871 35.464 52.6871V11.9365C35.464 11.9365 32.0092 6.77429 17.6348 6.77429Z" fill="#AA8FA2"></path><path d="M35.4668 11.9366V52.6872C35.4668 52.6872 38.9216 45.1936 53.296 45.1936V6.77441C38.9216 6.77441 35.4668 11.9366 35.4668 11.9366Z" fill="#AA8FA2"></path><path d="M53.297 5.99976C41.5798 5.99976 36.9143 9.40329 35.4678 10.8425C34.0181 9.39962 29.3558 5.99976 17.6386 5.99976C17.2608 5.99976 16.9541 6.3449 16.9541 6.77448V45.1936C16.9541 45.6232 17.2608 45.972 17.6386 45.972C31.3479 45.972 34.8317 52.981 34.864 53.0508C34.8769 53.0801 34.8963 53.1059 34.9157 53.1316C34.9254 53.1499 34.935 53.1646 34.9447 53.1793C34.9867 53.238 35.0319 53.2821 35.0803 53.3261C35.0868 53.3298 35.09 53.3335 35.0965 53.3372C35.2063 53.4179 35.3322 53.4657 35.4678 53.4657C35.5227 53.4657 35.5776 53.4583 35.6325 53.4436C35.6389 53.44 35.6389 53.4363 35.6454 53.4363C35.7099 53.4143 35.7713 53.3849 35.8262 53.3482C35.8488 53.3335 35.8649 53.3115 35.8843 53.2931C35.9198 53.2637 35.9553 53.227 35.9844 53.194C36.0005 53.1719 36.0134 53.1462 36.0296 53.1242C36.0425 53.0985 36.0619 53.0765 36.0748 53.0508C36.1103 52.9773 39.5941 45.9683 53.3002 45.9683C53.678 45.9683 53.9847 45.6195 53.9847 45.19V6.77081C53.9815 6.34491 53.6747 5.99976 53.297 5.99976ZM34.7833 50.4697C32.775 48.1823 28.0836 44.5805 18.3199 44.4226V7.55651C30.0435 7.69603 34.0278 11.4006 34.7833 12.2414V50.4697ZM52.6157 44.4226C42.852 44.5842 38.1573 48.1823 36.1523 50.4697V12.2414C36.9143 11.3933 40.905 7.69603 52.6157 7.55651V44.4226Z" fill="#3D2139"></path><path d="M38.6769 18.7768C38.4703 18.7768 38.2604 18.6704 38.128 18.4611C37.9052 18.116 37.9666 17.6313 38.2669 17.378C38.4089 17.2568 41.8443 14.4113 50.0098 14.1396C50.3941 14.1507 50.7008 14.4664 50.7137 14.896C50.7234 15.3219 50.4296 15.6817 50.0486 15.6964C42.3706 15.9497 39.1128 18.6006 39.0837 18.6263C38.961 18.7291 38.819 18.7768 38.6769 18.7768Z" fill="#3D2139"></path><path d="M38.6769 24.9961C38.4703 24.9961 38.2604 24.8896 38.128 24.6803C37.9052 24.3352 37.9666 23.8505 38.2669 23.5972C38.4089 23.476 41.8443 20.6306 50.0098 20.3589C50.3941 20.3736 50.7008 20.6857 50.7137 21.1152C50.7234 21.5411 50.4296 21.901 50.0486 21.9156C42.3706 22.169 39.1128 24.8198 39.0837 24.8455C38.961 24.9447 38.819 24.9961 38.6769 24.9961Z" fill="#3D2139"></path><path d="M38.6769 31.2124C38.4703 31.2124 38.2604 31.1059 38.128 30.8967C37.9052 30.5515 37.9666 30.0669 38.2669 29.8135C38.4089 29.6924 41.8443 26.8469 50.0098 26.5752C50.3941 26.5716 50.7008 26.902 50.7137 27.3316C50.7234 27.7575 50.4296 28.1173 50.0486 28.132C42.3706 28.3853 39.1128 31.0362 39.0837 31.0619C38.961 31.161 38.819 31.2124 38.6769 31.2124Z" fill="#3D2139"></path><path d="M38.6769 37.4287C38.4703 37.4287 38.2604 37.3222 38.128 37.1129C37.9052 36.7678 37.9666 36.2831 38.2669 36.0298C38.4089 35.9086 41.8443 33.0632 50.0098 32.7915C50.3941 32.7952 50.7008 33.1183 50.7137 33.5442C50.7234 33.9738 50.4296 34.3335 50.0486 34.3446C42.3706 34.6016 39.1128 37.2524 39.0837 37.2781C38.961 37.381 38.819 37.4287 38.6769 37.4287Z" fill="#3D2139"></path><path d="M3.80928 42.5906L1.94951 44.7017C0.925996 45.8693 0.922768 47.7638 1.94951 48.9313C2.97949 50.0989 4.64552 50.0989 5.67227 48.9313L7.5288 46.8202C5.47531 46.8202 3.80928 44.9294 3.80928 42.5906Z" fill="#AA8FA2"></path><path d="M28.6516 18.5706C24.0668 13.357 16.631 13.357 12.0494 18.5706C8.10381 23.0573 7.55493 29.9414 10.3995 35.0926L3.80957 42.5899C3.80957 44.9324 5.47561 46.8196 7.53233 46.8196L14.1222 39.3259C18.6554 42.5569 24.7093 41.9364 28.6516 37.4497C33.2365 32.2361 33.2365 23.7842 28.6516 18.5706Z" fill="white"></path><path d="M29.1358 18.0204C26.7885 15.3549 23.6696 13.8826 20.3504 13.8826C17.0312 13.8826 13.9122 15.3512 11.5682 18.0204C7.57743 22.5585 6.78962 29.4389 9.5502 34.961L3.32516 42.0397L1.46863 44.1509C0.177124 45.6195 0.177124 48.0134 1.46863 49.482C2.11438 50.2126 2.96354 50.5835 3.8127 50.5835C4.66187 50.5835 5.51103 50.2126 6.15678 49.482L8.01331 47.3672L14.2319 40.2958C16.1562 41.5404 18.2646 42.1572 20.3633 42.1572C23.5598 42.1572 26.724 40.74 29.1358 37.9974C33.979 32.4937 33.979 23.5277 29.1358 18.0204ZM5.19138 48.3842C4.43262 49.247 3.19601 49.247 2.43725 48.3842C1.6785 47.5214 1.6785 46.1152 2.43725 45.2487L3.36391 44.1986C3.37682 44.2427 3.39296 44.2794 3.40911 44.3198C3.44462 44.4336 3.48337 44.5437 3.52534 44.6502C3.55117 44.7126 3.577 44.7714 3.59961 44.8301C3.64804 44.9329 3.69324 45.0357 3.74813 45.1349C3.77719 45.1899 3.80625 45.245 3.8353 45.3001C3.89342 45.4029 3.958 45.5057 4.02257 45.6012C4.05163 45.6452 4.07746 45.6893 4.10652 45.7333C4.30347 46.0087 4.52303 46.262 4.76841 46.4823C4.80716 46.519 4.84268 46.5484 4.88465 46.5778C4.97183 46.6549 5.059 46.7246 5.14941 46.7944C5.19784 46.8311 5.24627 46.8642 5.2947 46.8935C5.38188 46.9559 5.46905 47.0074 5.55946 47.0588C5.61435 47.0918 5.66601 47.1212 5.7209 47.1469C5.8113 47.1946 5.90817 47.235 6.0018 47.2754C6.04054 47.2937 6.07606 47.3158 6.11481 47.3305L5.19138 48.3842ZM7.27393 46.0124C7.2029 46.005 7.13509 46.0014 7.06406 45.9867C6.98657 45.9757 6.90908 45.961 6.83482 45.9389C6.71858 45.9096 6.6088 45.8692 6.49903 45.8214C6.43122 45.7957 6.36342 45.7701 6.29562 45.7407C6.17938 45.6783 6.07283 45.6085 5.96628 45.5351C5.91139 45.4947 5.85973 45.469 5.80807 45.4286C5.65955 45.3148 5.52071 45.1863 5.39156 45.0394C5.38511 45.0357 5.38188 45.0284 5.37542 45.0211C5.24627 44.8742 5.13326 44.7163 5.02994 44.5474C4.99443 44.485 4.9686 44.4226 4.93631 44.3638C4.87174 44.2427 4.81039 44.1215 4.75873 43.9893C4.72967 43.9159 4.70707 43.8351 4.68447 43.758C4.64572 43.6369 4.61021 43.512 4.58115 43.3835C4.56177 43.2991 4.55209 43.2073 4.53917 43.1192C4.52949 43.0421 4.52303 42.9576 4.5198 42.8769L10.2993 36.3084C10.3703 36.4149 10.4446 36.5177 10.5188 36.6242C10.5931 36.7343 10.6674 36.8445 10.7448 36.951C11.0031 37.3071 11.2679 37.6522 11.5553 37.979C11.5585 37.9864 11.5649 37.9937 11.5682 38.001C11.5746 38.0084 11.5811 38.0157 11.5908 38.023C11.8749 38.3461 12.1816 38.6472 12.4916 38.9373C12.5852 39.018 12.6789 39.1062 12.7725 39.1869C12.8661 39.2677 12.9598 39.3595 13.0534 39.4403L7.27393 46.0124ZM28.1672 36.9032C24.5026 41.0741 18.8781 41.7974 14.487 38.6692L14.4837 38.6656C13.7766 38.1589 13.1212 37.5678 12.5303 36.8995C11.9459 36.2313 11.4229 35.486 10.9805 34.6819L10.9773 34.6783C8.22641 29.6886 8.86571 23.2891 12.5336 19.1219C14.6226 16.7501 17.3993 15.443 20.3504 15.443C23.3047 15.443 26.0814 16.7464 28.1672 19.1219C32.4776 24.0234 32.4776 31.998 28.1672 36.9032Z" fill="#3D2139"></path><path d="M20.35 18.5713C19.6429 18.5713 18.9584 18.6851 18.3029 18.876C16.017 19.5369 14.1088 21.2662 13.0239 23.5793C12.404 24.901 12.0488 26.4101 12.0488 28.0109C12.0488 33.2245 15.7651 37.4468 20.35 37.4468C24.9348 37.4468 28.6511 33.2245 28.6511 28.0109C28.6511 22.7972 24.9348 18.5713 20.35 18.5713Z" fill="#AA8FA2"></path><path d="M20.3506 38.2248C15.3977 38.2248 11.3682 33.6427 11.3682 28.0105C11.3682 26.3436 11.733 24.6841 12.4207 23.2118C13.6057 20.6858 15.6882 18.828 18.1324 18.1157C18.8815 17.8991 19.6273 17.7926 20.3506 17.7926C25.3035 17.7926 29.3362 22.3747 29.3362 28.0069C29.3362 33.6427 25.3035 38.2248 20.3506 38.2248ZM20.3506 19.3493C19.7403 19.3493 19.1075 19.4411 18.4682 19.6247C16.3953 20.2268 14.6324 21.8019 13.6251 23.9461C13.0407 25.1908 12.7339 26.6007 12.7339 28.0105C12.7339 32.7872 16.15 36.6717 20.3506 36.6717C24.5512 36.6717 27.9672 32.7836 27.9672 28.0105C27.9672 23.2338 24.5512 19.3493 20.3506 19.3493Z" fill="#3D2139"></path><path d="M20.2991 30.243C19.9213 30.243 19.6178 29.8943 19.6178 29.4647C19.6178 27.8345 20.4444 27.1479 21.0481 26.6449C21.6002 26.1896 21.8456 25.9583 21.8456 25.3011C21.8456 24.3318 21.1547 23.5424 20.2991 23.5424C19.4467 23.5424 18.7557 24.3318 18.7557 25.3011C18.7557 25.727 18.449 26.0758 18.0712 26.0758C17.6935 26.0758 17.3867 25.727 17.3867 25.3011C17.3867 23.4727 18.6944 21.9894 20.2991 21.9894C21.907 21.9894 23.2114 23.4727 23.2114 25.3011C23.2114 26.7771 22.4268 27.4306 21.8521 27.9043C21.3097 28.3522 20.9836 28.6239 20.9836 29.4647C20.9836 29.8979 20.6801 30.243 20.2991 30.243Z" fill="#3D2139"></path><path d="M20.2985 33.8813C19.9207 33.8813 19.6172 33.5325 19.6172 33.1029C19.6172 32.6734 19.9239 32.2842 20.2985 32.2842C20.6762 32.2842 20.983 32.5962 20.983 33.0258V33.1029C20.983 33.5325 20.6794 33.8813 20.2985 33.8813Z" fill="#3D2139"></path></g><defs><clipPath id="clip0_433_37905"><rect width="60" height="60" fill="white" transform="translate(0.5)"></rect></clipPath></defs></svg>