<svg xmlns="http://www.w3.org/2000/svg" width="61" height="60" viewBox="0 0 61 60" fill="none"><path d="M19.7558 14.9895C19.5799 14.9895 19.3974 14.9215 19.2614 14.7813C17.1475 12.6031 17.111 9.6396 19.1618 7.04055C20.7414 5.03742 20.7414 2.86984 19.1585 1.23902C18.8864 0.954568 18.8864 0.496434 19.1585 0.213349C19.4339 -0.0711031 19.8753 -0.0711031 20.1507 0.213349C22.2613 2.38777 22.3011 5.35503 20.2536 7.95408C18.6707 9.95722 18.6707 12.1248 20.2536 13.7556C20.529 14.0401 20.529 14.4982 20.2536 14.7813C20.1175 14.9215 19.9383 14.9895 19.7558 14.9895Z" fill="#7A4720"></path><path d="M27.0658 15.0483C26.8866 15.0483 26.7041 14.983 26.568 14.8401C24.4541 12.6616 24.4176 9.69707 26.4685 7.09939C28.0481 5.09626 28.0481 2.92457 26.4651 1.29649C26.1897 1.0134 26.1897 0.555272 26.4651 0.27082C26.7406 -0.00816345 27.1852 -0.00816345 27.4607 0.27082C29.5679 2.449 29.6078 5.41387 27.5569 8.01155C25.9773 10.012 25.9773 12.1823 27.5603 13.8168C27.8357 14.0975 27.8357 14.5557 27.5603 14.8401C27.4242 14.983 27.245 15.0483 27.0658 15.0483Z" fill="#7A4720"></path><path d="M34.3741 15.1097C34.1949 15.1097 34.0124 15.0376 33.8764 14.8974C31.7658 12.7189 31.726 9.75539 33.7768 7.15669C35.3597 5.15355 35.3564 2.98597 33.7735 1.35105C33.498 1.0707 33.498 0.612567 33.7735 0.329482C34.0489 0.0450287 34.4936 0.0450287 34.7657 0.329482C36.8796 2.50766 36.9161 5.47117 34.8686 8.07022C33.289 10.0734 33.289 12.245 34.8686 13.8718C35.144 14.1562 35.144 14.614 34.8686 14.8974C34.7325 15.0376 34.55 15.1097 34.3741 15.1097Z" fill="#7A4720"></path><path d="M50.6739 19.513C50.6706 19.513 50.6706 19.513 50.6672 19.513H3.35547C3.35547 21.5268 3.50447 23.4954 3.78322 25.3997C3.90634 25.4626 17.4757 32.1295 30.5273 27.5646C43.6387 22.9798 50.2624 27.1813 50.2624 27.1813C50.3852 26.2691 50.4714 25.2048 50.5776 23.8C53.7136 24.1566 55.6981 26.6004 55.4591 29.2367C55.0111 34.2424 49.1042 33.3876 48.4106 33.1138C48.6297 32.6208 48.8155 32.1763 48.9881 31.766C48.9847 31.7636 42.0558 27.8651 30.5273 31.9103C17.5022 36.4739 4.8332 29.8282 4.67756 29.7455C7.9028 41.8494 16.6825 50.5367 27.013 50.5367C35.0537 50.5367 42.1487 45.2775 46.4229 37.2431C47.6905 37.931 49.1341 38.3235 50.6672 38.3235C55.7047 38.3235 59.7964 34.1114 59.7964 28.9188C59.7964 23.7251 55.7114 19.5168 50.6739 19.513Z" fill="#F0BD5E"></path><path d="M30.5273 31.9102C42.0558 27.865 48.9847 31.7636 48.988 31.766C49.7181 29.9885 50.0434 28.8332 50.2624 27.1812C50.2624 27.1812 43.6387 22.9797 30.5273 27.5645C17.4757 32.1294 3.90632 25.4625 3.7832 25.3996C4.00355 26.8916 4.30155 28.3406 4.67754 29.7454C4.83318 29.8281 17.5022 36.4738 30.5273 31.9102Z" fill="white"></path><path d="M50.6676 37.6024C49.2904 37.6024 47.973 37.2642 46.7518 36.6047C46.4133 36.4191 45.9919 36.55 45.8093 36.8984C41.5019 44.9838 34.4767 49.8115 27.0134 49.8115C17.6951 49.8115 9.31852 42.3406 5.79029 31.0623C5.79925 31.0688 5.80821 31.0716 5.81883 31.0757C5.82912 31.0798 5.83807 31.0822 5.85102 31.089C6.05477 31.1745 6.27612 31.2664 6.51871 31.3694C6.52501 31.3735 6.53164 31.3735 6.5406 31.3735C6.77787 31.4723 7.03472 31.5711 7.30286 31.674C7.33538 31.6873 7.36526 31.6979 7.3938 31.7085C7.65928 31.8101 7.94467 31.913 8.23902 32.0159C8.27917 32.0333 8.32065 32.0466 8.35947 32.06C8.66146 32.1629 8.97506 32.2682 9.29928 32.3711C9.34209 32.3858 9.38357 32.3991 9.42638 32.4125C9.76188 32.5181 10.1133 32.6275 10.4773 32.7304C10.5039 32.7369 10.5304 32.7475 10.557 32.7544C11.3169 32.9694 12.1333 33.1776 12.9927 33.366C13.0392 33.3728 13.079 33.3834 13.1222 33.394C13.5303 33.4863 13.9551 33.5677 14.3865 33.6463C14.4496 33.6532 14.5093 33.6679 14.569 33.6771C15.0004 33.7561 15.4385 33.8214 15.8832 33.8857C15.9495 33.8963 16.0159 33.9069 16.0823 33.9137C16.5402 33.9749 16.9982 34.0296 17.4727 34.0778C17.5225 34.0805 17.5723 34.0805 17.6254 34.087C18.1198 34.1325 18.6242 34.1725 19.132 34.1968C19.1353 34.1968 19.1386 34.1968 19.1419 34.1968C19.653 34.2207 20.174 34.2313 20.7049 34.2341C20.7348 34.2341 20.7647 34.2341 20.7979 34.2341C20.8144 34.2341 20.831 34.2341 20.8476 34.2341C21.2127 34.2341 21.581 34.2276 21.9494 34.218C22.0124 34.218 22.0788 34.2142 22.1385 34.2074C22.4438 34.1968 22.7525 34.1794 23.0578 34.1568C23.1739 34.1486 23.2867 34.1394 23.3962 34.1325C23.6683 34.1086 23.9438 34.0805 24.2192 34.0539C24.3287 34.0405 24.4415 34.0296 24.5577 34.0163C24.8829 33.9749 25.2115 33.9335 25.5433 33.8829C25.5931 33.8761 25.6462 33.8696 25.6993 33.8587C26.0842 33.7975 26.4692 33.7318 26.8574 33.6532C26.9503 33.6357 27.0499 33.6132 27.1461 33.5916C27.4348 33.5304 27.7269 33.4648 28.0189 33.394C28.1483 33.366 28.2711 33.3352 28.3972 33.3021C28.676 33.2299 28.9547 33.155 29.2335 33.0761C29.3496 33.0374 29.4658 33.0067 29.5852 32.9694C29.9735 32.8532 30.3651 32.7304 30.7567 32.594C31.2843 32.4056 31.7987 32.2415 32.3097 32.088C32.3927 32.0665 32.4789 32.0357 32.5652 32.0118C33.0497 31.873 33.5276 31.7461 33.9889 31.6326C34.0751 31.6124 34.1581 31.5926 34.2411 31.5711C34.7156 31.4589 35.1868 31.3588 35.6381 31.2706C35.6547 31.2664 35.6747 31.2664 35.6913 31.26C36.1459 31.1786 36.5872 31.1064 37.0153 31.0517C37.0717 31.0408 37.1348 31.0316 37.1912 31.0247C37.616 30.9663 38.0275 30.9246 38.4323 30.8873C38.4987 30.8808 38.5651 30.8781 38.6314 30.8699C39.0363 30.8391 39.4312 30.8124 39.8128 30.8018C39.8394 30.8018 39.8659 30.8018 39.8958 30.8018C40.2741 30.7926 40.6391 30.7885 40.9975 30.7926C41.0307 30.7926 41.0639 30.7926 41.0971 30.7926C41.4522 30.7991 41.7973 30.8124 42.1325 30.8326C42.1822 30.8367 42.2353 30.8391 42.2851 30.8432C42.617 30.8671 42.9322 30.8941 43.2408 30.9287C43.2674 30.9314 43.2939 30.9355 43.3238 30.942C43.6291 30.9728 43.9211 31.0141 44.1966 31.0582C44.2098 31.0623 44.2297 31.0651 44.243 31.0688C44.5251 31.1102 44.7906 31.1611 45.0461 31.2117C45.0859 31.2227 45.1224 31.2292 45.1623 31.2333C45.4078 31.288 45.6434 31.3427 45.8658 31.3974C45.889 31.4042 45.9155 31.4107 45.9421 31.4176C46.1644 31.4764 46.3801 31.5311 46.5726 31.5926C46.5759 31.5926 46.5792 31.5926 46.5825 31.595C46.7816 31.6538 46.9642 31.7112 47.1301 31.7701C47.1566 31.7769 47.1865 31.7902 47.2097 31.7967C47.369 31.849 47.5184 31.9037 47.6511 31.9543C47.671 31.9612 47.6909 31.9718 47.7108 31.9783C47.8436 32.0333 47.9664 32.0812 48.0726 32.1253C47.9763 32.3472 47.8768 32.5728 47.7706 32.8159C47.6909 32.9974 47.6876 33.2084 47.7639 33.3899C47.8369 33.5742 47.9796 33.7185 48.1621 33.7934C48.7893 34.0364 51.849 34.4987 54.0027 33.1137C55.2803 32.2962 56.0071 31.0141 56.1597 29.3088C56.4451 26.1422 54.079 23.4686 50.6543 23.0785C50.4652 23.0611 50.276 23.1161 50.13 23.243C49.984 23.3698 49.8911 23.5473 49.8778 23.7425C49.8081 24.6827 49.7451 25.4386 49.682 26.0943C49.6787 26.0943 49.6754 26.0916 49.6721 26.0916C49.5393 26.0328 49.3933 25.9713 49.2341 25.9124C49.2042 25.9032 49.1776 25.8899 49.1478 25.8793C48.8192 25.7562 48.4343 25.6253 47.9995 25.4998C47.9564 25.4851 47.9166 25.4759 47.8734 25.4625C47.6511 25.3996 47.4188 25.3384 47.1699 25.281C47.1467 25.2741 47.1235 25.27 47.1002 25.2635C46.8679 25.2126 46.6257 25.1579 46.3735 25.11C46.3204 25.1032 46.2739 25.0926 46.2208 25.082C45.9454 25.0311 45.66 24.9832 45.3614 24.9415C45.3116 24.9322 45.2552 24.9258 45.1987 24.9175C44.92 24.8803 44.628 24.8468 44.3293 24.8187C44.2862 24.816 44.243 24.8122 44.1999 24.8054C43.8713 24.7774 43.5262 24.7548 43.1745 24.7374C43.1015 24.7333 43.0218 24.7305 42.9455 24.7268C42.2154 24.6998 41.4323 24.6998 40.5993 24.7439C40.5064 24.7466 40.4201 24.7507 40.3305 24.7572C39.9124 24.7815 39.4876 24.816 39.0429 24.8601C38.9898 24.8642 38.9334 24.8734 38.877 24.8775C38.4688 24.9216 38.0507 24.9763 37.6226 25.0416C37.533 25.0512 37.4401 25.0659 37.3472 25.082C36.8826 25.1514 36.4014 25.2396 35.9136 25.3357C35.8141 25.3555 35.7178 25.3757 35.6216 25.3931C35.1669 25.4892 34.7023 25.5921 34.2278 25.7107C34.1515 25.7282 34.0818 25.7456 34.0055 25.763C33.4845 25.8964 32.9502 26.0434 32.4026 26.2078C32.2798 26.2451 32.157 26.2786 32.0309 26.32C31.4668 26.4909 30.8927 26.6725 30.302 26.8807C29.9237 27.0144 29.5421 27.1333 29.1572 27.2468C29.0311 27.2841 28.9083 27.319 28.7855 27.3521C28.5266 27.4243 28.2711 27.4992 28.0123 27.5607C27.8629 27.6021 27.7136 27.6328 27.5643 27.6674C27.332 27.7221 27.0964 27.7768 26.8674 27.8209C26.7081 27.8558 26.5455 27.8865 26.3862 27.9173C26.1672 27.9546 25.9448 27.9946 25.7225 28.0332C25.5599 28.0602 25.3973 28.0841 25.2347 28.104C25.0157 28.1388 24.8 28.1696 24.5809 28.1963C24.4217 28.2175 24.2557 28.2349 24.0931 28.2482C23.8774 28.2725 23.6617 28.2923 23.4526 28.3139C23.29 28.3272 23.1241 28.3406 22.9615 28.3512C22.7491 28.3672 22.5367 28.3778 22.3277 28.3847C22.1651 28.3953 22.0058 28.4021 21.8465 28.4086C21.6341 28.4154 21.4184 28.4192 21.2093 28.4219C21.0534 28.426 20.8974 28.4301 20.7447 28.4301C20.5257 28.4301 20.3034 28.426 20.0877 28.4219C19.945 28.4192 19.799 28.4154 19.6596 28.4127C19.4107 28.4058 19.1652 28.3911 18.913 28.3819C18.8068 28.3778 18.7006 28.3751 18.5944 28.3672C18.2492 28.347 17.9074 28.3204 17.569 28.2896C17.4229 28.2749 17.2803 28.2592 17.1342 28.2445C16.9418 28.2284 16.7393 28.2069 16.5469 28.187C16.3876 28.1655 16.2283 28.1457 16.0657 28.1255C15.8931 28.1016 15.7239 28.0841 15.5513 28.0575C15.3854 28.0332 15.2228 28.0093 15.0602 27.9812C14.8976 27.9573 14.7416 27.933 14.5823 27.9064C14.4164 27.8783 14.2538 27.8517 14.0912 27.8209C13.9385 27.7969 13.7925 27.7689 13.6432 27.7422C13.4806 27.7074 13.318 27.6766 13.1554 27.6462C13.016 27.6154 12.8766 27.5887 12.7372 27.558C12.5746 27.5272 12.412 27.4899 12.2561 27.4551C12.1266 27.4243 11.9972 27.3935 11.8744 27.3655C11.7118 27.3282 11.5459 27.2882 11.3866 27.2492C11.2738 27.2253 11.1609 27.1945 11.0481 27.1638C10.8888 27.1238 10.7229 27.0851 10.5636 27.041C10.4674 27.0144 10.3711 26.9863 10.2782 26.9624C10.1057 26.9183 9.93443 26.8701 9.77249 26.8219C9.72039 26.8085 9.66862 26.7952 9.61685 26.7819C8.7328 26.5255 7.93172 26.2625 7.23152 26.0154C7.20199 26.0061 7.17345 25.9952 7.14491 25.9846C6.98928 25.9299 6.84026 25.8752 6.69624 25.8205C6.66139 25.8136 6.62225 25.8003 6.58741 25.7829C6.45135 25.7323 6.31761 25.6803 6.18819 25.6321C6.15567 25.6229 6.12081 25.6054 6.08431 25.5921C5.96119 25.5439 5.84207 25.4998 5.72791 25.4543C5.69539 25.441 5.6632 25.4276 5.63466 25.417C5.5205 25.3729 5.41698 25.3288 5.31709 25.2875C5.2912 25.2769 5.2653 25.2635 5.24174 25.2567C5.1382 25.2153 5.04497 25.174 4.9567 25.1367C4.93978 25.1299 4.92816 25.1234 4.91522 25.1206C4.82064 25.082 4.73634 25.0417 4.65835 25.0071C4.65205 25.0071 4.65205 25.003 4.64541 25.003C4.56377 24.9658 4.4901 24.935 4.42506 24.9042C4.21533 23.3565 4.0909 21.7937 4.06236 20.2381H50.6743C55.3168 20.2405 59.0933 24.135 59.0933 28.9187C59.0933 33.7052 55.3135 37.6024 50.6676 37.6024ZM49.6323 32.0466C50.3988 30.1833 50.734 28.9802 50.9597 27.28C51.0592 26.5388 51.1322 25.7189 51.2185 24.6451C53.4684 25.1955 54.9551 27.0383 54.7593 29.1713C54.6498 30.4117 54.1653 31.2972 53.276 31.8757C52.0647 32.662 50.3955 32.6863 49.4132 32.5793C49.4895 32.395 49.5626 32.2176 49.6323 32.0466ZM4.98257 26.706C5.07316 26.7446 5.1704 26.7846 5.26763 26.8195C5.32205 26.8434 5.37149 26.8609 5.42326 26.8834C5.58521 26.9463 5.7538 27.0103 5.92902 27.0783C5.93532 27.0824 5.94195 27.0824 5.94826 27.0851C6.12082 27.148 6.29835 27.2161 6.48618 27.28C6.5406 27.3015 6.59635 27.3214 6.65476 27.3388C6.79745 27.3898 6.94646 27.4417 7.1021 27.4964C7.16681 27.5204 7.23151 27.5405 7.29921 27.5607C7.45452 27.6154 7.61414 27.6674 7.77608 27.7221C7.84345 27.7422 7.91214 27.7662 7.98349 27.7863C8.16899 27.8451 8.35549 27.9063 8.55128 27.9611C8.59907 27.9785 8.64853 27.9946 8.70295 28.0093C8.95316 28.0882 9.20835 28.1628 9.47416 28.2376C9.49374 28.2417 9.51563 28.2482 9.5392 28.251C9.77481 28.3231 10.0187 28.3847 10.2683 28.4541C10.3446 28.4739 10.4276 28.4941 10.5039 28.5156C10.7063 28.5662 10.9021 28.6168 11.1112 28.665C11.2041 28.6889 11.297 28.7105 11.3933 28.733C11.5924 28.7854 11.7981 28.8267 12.0038 28.8732C12.1001 28.8948 12.193 28.9187 12.2859 28.9389C12.5282 28.9867 12.7704 29.0377 13.016 29.0896C13.0823 29.0992 13.1421 29.1098 13.2085 29.1272C13.5171 29.1884 13.8357 29.2431 14.1609 29.2982C14.2239 29.3115 14.2903 29.3221 14.3533 29.3314C14.6122 29.3727 14.8677 29.4141 15.1299 29.4517C15.2394 29.4691 15.3522 29.4862 15.465 29.4996C15.6874 29.5266 15.9097 29.557 16.1354 29.5878C16.2615 29.6025 16.3843 29.6158 16.507 29.6332C16.7327 29.6572 16.9617 29.6773 17.1906 29.7013C17.3101 29.7122 17.4296 29.7255 17.5524 29.7361C17.8245 29.7587 18.0999 29.7803 18.3787 29.7977C18.455 29.8001 18.528 29.8069 18.6077 29.811C18.9594 29.8309 19.3145 29.8483 19.6729 29.8589C19.7724 29.8616 19.8753 29.8616 19.9782 29.8657C20.237 29.8685 20.4992 29.8722 20.7614 29.8722C20.8941 29.8722 21.0301 29.8685 21.1662 29.8685C21.3985 29.8657 21.6374 29.8589 21.873 29.8524C22.0157 29.8483 22.1584 29.8414 22.3011 29.835C22.5467 29.8244 22.7889 29.8069 23.0345 29.7936C23.1673 29.7867 23.3 29.7761 23.4328 29.7669C23.7447 29.7389 24.0566 29.7081 24.3719 29.6732C24.4382 29.6667 24.5013 29.664 24.5677 29.6572C24.9393 29.612 25.3143 29.5611 25.6893 29.5023C25.8154 29.4862 25.9382 29.4623 26.061 29.4411C26.3198 29.397 26.5787 29.3529 26.8408 29.3006C26.9835 29.2701 27.1295 29.2431 27.2722 29.2127C27.5178 29.1604 27.7634 29.1057 28.0123 29.0483C28.155 29.011 28.301 28.9761 28.447 28.943C28.7058 28.8773 28.9647 28.8052 29.2235 28.7303C29.3496 28.693 29.4757 28.6623 29.6051 28.6236C29.9868 28.5074 30.3717 28.3819 30.7567 28.2482C31.3739 28.0332 31.9778 27.841 32.5685 27.6674C32.6581 27.6366 32.7478 27.6086 32.8374 27.5819C33.3982 27.4178 33.9457 27.2708 34.4767 27.1371C34.5762 27.1132 34.6725 27.093 34.772 27.0691C35.303 26.9422 35.824 26.8219 36.3284 26.7272C36.3915 26.7166 36.4512 26.706 36.5109 26.6926C37.012 26.6003 37.4998 26.5217 37.9711 26.4533C38.0042 26.4468 38.0408 26.4427 38.0773 26.4362C38.5551 26.3706 39.0197 26.32 39.471 26.2786C39.5474 26.2718 39.6237 26.2625 39.7 26.2584C40.1314 26.2236 40.5562 26.1969 40.961 26.1798C41.0307 26.1798 41.1004 26.1771 41.1701 26.173C41.5849 26.1624 41.9864 26.1596 42.3681 26.1624C42.3946 26.1624 42.4178 26.1661 42.4411 26.1661C42.8194 26.173 43.1778 26.1904 43.5229 26.2143C43.5694 26.2171 43.6158 26.2171 43.659 26.2212C44.0008 26.2451 44.3293 26.2759 44.6412 26.3131C44.7043 26.32 44.764 26.3265 44.8238 26.3333C45.1291 26.3747 45.4211 26.4119 45.6965 26.4643C45.743 26.4708 45.7894 26.48 45.8392 26.4868C46.1146 26.535 46.3768 26.587 46.6224 26.6417C46.6324 26.6444 46.6456 26.6485 46.6556 26.6485C46.9078 26.7032 47.1368 26.7644 47.3624 26.8219C47.4022 26.8328 47.4454 26.8461 47.4885 26.8567C47.6909 26.9142 47.8834 26.9689 48.0626 27.0277C48.1024 27.0451 48.1456 27.0585 48.1887 27.0718C48.358 27.1265 48.5172 27.1853 48.6632 27.24C48.6931 27.2468 48.723 27.2602 48.7528 27.2708C48.8789 27.3214 48.9951 27.3655 49.1013 27.411C49.1212 27.4202 49.1477 27.4284 49.1677 27.4376C49.2772 27.4858 49.3668 27.5272 49.453 27.5645C49.4663 27.5754 49.4796 27.5819 49.4929 27.5887C49.3203 28.6889 49.0681 29.6093 48.6168 30.7953C48.5935 30.7885 48.5637 30.7751 48.5438 30.7683C48.4475 30.7269 48.3447 30.6828 48.2319 30.6415C48.1987 30.6281 48.1621 30.6134 48.1223 30.6001C47.9962 30.5495 47.8568 30.5013 47.7075 30.4507C47.6644 30.4333 47.6213 30.4199 47.5715 30.4025C47.4022 30.3478 47.2264 30.289 47.0372 30.2343C46.9907 30.2209 46.9443 30.2076 46.8945 30.1943C46.6987 30.1314 46.4863 30.0767 46.264 30.0192C46.2474 30.0151 46.2308 30.0124 46.2142 30.0086C45.9885 29.9471 45.743 29.8965 45.4908 29.8414C45.4377 29.8308 45.3846 29.8175 45.3282 29.8069C45.0693 29.756 44.8038 29.704 44.5218 29.664C44.4687 29.6534 44.4123 29.6466 44.3558 29.636C43.7618 29.5413 43.1114 29.465 42.4145 29.4168C42.3548 29.4103 42.2951 29.4076 42.2353 29.4035C41.8902 29.3796 41.5384 29.3703 41.1734 29.3594C41.1104 29.3594 41.044 29.3594 40.9842 29.3594C40.2177 29.3461 39.4046 29.3703 38.5452 29.4343C38.4755 29.4411 38.4025 29.4449 38.3328 29.4517C37.9146 29.489 37.4832 29.5303 37.0452 29.5919C36.9689 29.6025 36.8926 29.612 36.8196 29.6226C35.9036 29.7495 34.9446 29.9269 33.9391 30.1594C33.8495 30.1796 33.7666 30.2008 33.6803 30.2251C33.1925 30.341 32.698 30.4733 32.1902 30.6216C32.1006 30.6483 32.0077 30.6722 31.9115 30.703C31.3872 30.8606 30.8496 31.0316 30.302 31.2227C29.9204 31.356 29.5421 31.4791 29.1604 31.5926C29.031 31.6326 28.9016 31.6634 28.7722 31.702C28.5233 31.7728 28.2711 31.8449 28.0222 31.9102C27.8696 31.9478 27.7202 31.9783 27.5676 32.0159C27.3419 32.0706 27.1129 32.1212 26.8873 32.1735C26.728 32.2066 26.5687 32.2309 26.4094 32.2617C26.1937 32.3068 25.9747 32.3509 25.7623 32.3817C25.5997 32.4125 25.4338 32.4364 25.2712 32.4607C25.0621 32.4911 24.853 32.5219 24.6473 32.5485C24.4814 32.5701 24.3155 32.5903 24.1562 32.6073C23.9504 32.6316 23.748 32.6514 23.5423 32.6689C23.3763 32.6822 23.2137 32.6955 23.0544 32.7103C22.852 32.7236 22.6462 32.7369 22.4505 32.7475C22.2878 32.7585 22.1253 32.765 21.966 32.7718C21.7669 32.7783 21.5644 32.7851 21.3653 32.7892C21.2127 32.7916 21.0567 32.7957 20.9041 32.7957C20.7016 32.7957 20.4992 32.7916 20.2968 32.7916C20.1507 32.7892 20.0047 32.7851 19.8554 32.781C19.6497 32.7745 19.4506 32.7677 19.2448 32.7585C19.1054 32.7502 18.9661 32.7438 18.8267 32.7369C18.6176 32.7236 18.4052 32.7062 18.1995 32.6891C18.0767 32.6795 17.9473 32.673 17.8245 32.662C17.5922 32.6408 17.3632 32.6183 17.1309 32.5902C17.038 32.5793 16.9418 32.5728 16.8422 32.5595C16.1918 32.4846 15.5613 32.3885 14.944 32.2856C14.8909 32.2764 14.8345 32.2617 14.7748 32.2521C14.5292 32.2108 14.2837 32.1666 14.0414 32.1147C13.9518 32.0972 13.8688 32.0839 13.7825 32.0637C13.5768 32.0224 13.3711 31.9783 13.1686 31.9369C13.0724 31.913 12.9762 31.889 12.8833 31.8689C12.6941 31.8248 12.5116 31.7834 12.329 31.7355C12.2328 31.7112 12.1366 31.6873 12.0403 31.6634C11.8645 31.623 11.6952 31.5752 11.5227 31.527C11.4331 31.5071 11.3402 31.4791 11.2472 31.4548C11.078 31.407 10.9121 31.3629 10.7495 31.3147C10.6632 31.288 10.5802 31.26 10.4939 31.236C10.3346 31.1919 10.1744 31.141 10.0187 31.089C9.93841 31.0688 9.8591 31.0408 9.78278 31.0182C9.62316 30.9663 9.47018 30.9181 9.31852 30.8671C9.24983 30.8432 9.17981 30.8193 9.11112 30.7991C8.95847 30.7471 8.80914 30.6924 8.66412 30.6442C8.60572 30.6216 8.54365 30.6001 8.48657 30.5803C8.33093 30.5215 8.18194 30.4705 8.03526 30.4117C7.99245 30.3984 7.95097 30.3813 7.90816 30.368C7.74622 30.3064 7.59456 30.2449 7.44158 30.1861C7.42366 30.1796 7.39612 30.17 7.37421 30.1594C6.36307 29.7628 5.64361 29.425 5.27028 29.2366C5.04728 28.3672 4.85548 27.4817 4.69088 26.587C4.72738 26.6044 4.76223 26.6205 4.79707 26.6352C4.85548 26.6578 4.91785 26.679 4.98257 26.706ZM50.6743 18.7916H3.35585C2.96692 18.7916 2.65332 19.1136 2.65332 19.5129C2.65332 21.5027 2.79835 23.5192 3.09005 25.5025C3.09005 25.5066 3.09005 25.5066 3.09005 25.5094C3.3104 27.001 3.61501 28.4913 3.99996 29.9379C3.99996 29.9406 3.99996 29.9406 3.99996 29.9406C7.40009 42.6931 16.6497 51.2605 27.0134 51.2605C34.8085 51.2605 42.1324 46.3886 46.712 38.1897C47.963 38.7614 49.2904 39.0486 50.6676 39.0486C56.09 39.0486 60.5003 34.5052 60.5003 28.9187C60.5003 23.339 56.0934 18.7943 50.6743 18.7916Z" fill="#7A4720"></path><path d="M52.824 46.3817C38.5544 56.6185 15.4677 56.6185 1.20312 46.3817H52.824Z" fill="#F0BD5E"></path><path d="M3.58226 47.1069C17.0079 55.4045 37.0217 55.4045 50.445 47.1069H3.58226ZM27.0132 54.7515C17.5223 54.7515 8.02872 52.1633 0.801707 46.9776C0.549169 46.7957 0.439001 46.4672 0.533578 46.1667C0.622845 45.8624 0.896609 45.6566 1.20125 45.6566H52.8244C53.133 45.6566 53.4018 45.8624 53.4948 46.1667C53.5877 46.4672 53.4748 46.7957 53.2259 46.9776C46.0016 52.1633 36.5074 54.7515 27.0132 54.7515Z" fill="#7A4720"></path></svg>