<svg xmlns="http://www.w3.org/2000/svg" width="43" height="48" viewBox="0 0 43 48" fill="none"><g id="Frame 198"><path id="path1492" d="M34.3541 42.9977C34.3541 45.4095 32.4001 47.3658 29.9896 47.3658H4.99897C2.58846 47.3658 0.630859 45.4095 0.630859 42.9977V5.00106C0.630859 2.58815 2.58846 0.63414 4.99897 0.63414H29.9896C32.4001 0.63414 34.3541 2.58815 34.3541 5.00106V42.9977Z" fill="#E36B81"></path><path id="path1494" d="M5.00017 1.2683C2.94313 1.2683 1.26742 2.94521 1.26742 5.00105V42.9977C1.26742 45.056 2.94313 46.7305 5.00017 46.7305H29.9908C32.0478 46.7305 33.7211 45.056 33.7211 42.9977V5.00105C33.7211 2.94521 32.0478 1.2683 29.9908 1.2683H5.00017ZM29.9908 48H5.00017C2.24097 48 0 45.7569 0 42.9977V5.00105C0 2.24306 2.24097 0 5.00017 0H29.9908C32.7464 0 34.9895 2.24306 34.9895 5.00105V42.9977C34.9895 45.7569 32.7464 48 29.9908 48Z" fill="#4C313B"></path><path id="path1496" d="M29.9906 41.1256H5V6.87455H29.9906V41.1256Z" fill="white"></path><path id="path1498" d="M5.63279 40.491H29.3539V7.5095H5.63279V40.491ZM29.9893 41.757H4.99865C4.64757 41.757 4.36328 41.4763 4.36328 41.1252V6.87414C4.36328 6.52426 4.64757 6.23998 4.99865 6.23998H29.9893C30.3379 6.23998 30.621 6.52426 30.621 6.87414V41.1252C30.621 41.4763 30.3379 41.757 29.9893 41.757Z" fill="#4C313B"></path><path id="path1500" d="M12.8752 44.879H11.2896C10.9374 44.879 10.6543 44.5948 10.6543 44.2437C10.6543 43.8938 10.9374 43.6119 11.2896 43.6119H12.8752C13.2227 43.6119 13.5093 43.8938 13.5093 44.2437C13.5093 44.5948 13.2227 44.879 12.8752 44.879Z" fill="#4C313B"></path><path id="path1502" d="M18.9615 44.879H16.1943C15.8432 44.879 15.5625 44.5948 15.5625 44.2437C15.5625 43.8938 15.8432 43.6119 16.1943 43.6119H18.9615C19.3126 43.6119 19.5957 43.8938 19.5957 44.2437C19.5957 44.5948 19.3126 44.879 18.9615 44.879Z" fill="#4C313B"></path><path id="path1504" d="M23.8701 44.879H22.2845C21.9335 44.879 21.6504 44.5948 21.6504 44.2437C21.6504 43.8938 21.9335 43.6119 22.2845 43.6119H23.8701C24.2176 43.6119 24.5018 43.8938 24.5018 44.2437C24.5018 44.5948 24.2176 44.879 23.8701 44.879Z" fill="#4C313B"></path><path id="path1506" d="M20.2761 4.39795H14.8842C14.5331 4.39795 14.25 4.11487 14.25 3.76379C14.25 3.41271 14.5331 3.13203 14.8842 3.13203H20.2761C20.6272 3.13203 20.9103 3.41271 20.9103 3.76379C20.9103 4.11487 20.6272 4.39795 20.2761 4.39795Z" fill="#4C313B"></path><path id="path1508" d="M41.0702 26.5041C41.7745 27.2087 41.7745 28.3614 41.0702 29.0656L35.7193 34.4154C35.0147 35.1187 33.862 35.1187 33.1602 34.4154C32.4544 33.7111 32.4544 32.5584 33.1602 31.8542L38.5075 26.5041C39.2133 25.7999 40.3645 25.7999 41.0702 26.5041Z" fill="#E36B81"></path><path id="path1510" d="M39.7885 26.6087C39.4881 26.6087 39.1861 26.7235 38.9579 26.9538L33.6081 32.3039C33.1483 32.7589 33.1483 33.5078 33.6081 33.9688C34.0668 34.4277 34.812 34.4277 35.2719 33.9688L40.6231 28.6191C41.0817 28.158 41.0817 27.4127 40.6231 26.9538C40.3912 26.7235 40.0893 26.6087 39.7885 26.6087ZM34.4376 35.5813C33.8115 35.5813 33.1858 35.3414 32.7095 34.8618C31.7557 33.9092 31.7557 32.3611 32.7095 31.4052L38.0604 26.0552C39.0142 25.105 40.5632 25.1029 41.5182 26.0552C42.472 27.0078 42.472 28.5594 41.5182 29.5117L36.1672 34.8618C35.6909 35.3414 35.0649 35.5813 34.4376 35.5813Z" fill="#4C313B"></path><path id="path1512" d="M37.421 22.8524L29.1401 14.5701C29.1072 14.5398 29.0757 14.5129 29.0431 14.4895C28.2355 13.8236 27.042 13.8694 26.2872 14.624C26.0334 14.8756 25.8603 15.1812 25.7665 15.5017C24.9709 14.9867 23.8979 15.0769 23.2017 15.7707C22.8177 16.1547 22.6188 16.6553 22.6035 17.1585C21.9835 17.0684 21.3295 17.2604 20.852 17.7367C20.3758 18.2129 20.1849 18.8624 20.2727 19.4801L14.6363 13.8424C13.9189 13.1262 12.7548 13.1322 12.0349 13.8505C11.3118 14.5725 11.3094 15.7416 12.0233 16.4543L22.8096 27.2382C22.2561 27.5471 20.9749 28.3496 19.8434 29.7071C18.3502 31.4916 18.0204 33.3731 18.9037 34.3314C19.7871 35.2896 20.3218 35.4185 20.3218 35.4185C20.3218 35.4185 22.0419 32.8183 23.0109 32.3247C25.7279 30.9323 30.0142 31.5126 31.0651 30.4641C32.6119 28.9124 35.9035 25.6233 36.7482 24.7786L36.9495 24.5749L37.421 24.1079C37.7664 23.7604 37.7664 23.1999 37.421 22.8524Z" fill="#E36B81"></path><path id="path1514" d="M12.4527 15.9876C12.4572 15.9933 12.4644 16.0029 12.4725 16.0086L23.2553 26.7893C23.3958 26.9295 23.4635 27.1251 23.4368 27.3252C23.4074 27.5205 23.2903 27.6936 23.1172 27.7895C22.6388 28.06 21.4064 28.823 20.3301 30.117C19.1014 31.5854 18.6976 33.1758 19.3683 33.9013C19.6747 34.2359 19.932 34.4546 20.1192 34.5894C20.7102 33.7419 21.8746 32.1929 22.7194 31.7586C24.2405 30.983 26.1244 30.785 27.7836 30.6143C28.9516 30.4951 30.2702 30.3603 30.6153 30.0128L36.9692 23.6589C37.0336 23.5936 37.0453 23.5187 37.0453 23.4822C37.0453 23.4403 37.0336 23.369 36.9716 23.3022L28.6907 15.0198C28.6811 15.0141 28.6437 14.9871 28.638 14.9814C28.0703 14.5132 27.2513 14.5495 26.7331 15.0701C26.5668 15.2388 26.4416 15.4481 26.3736 15.6821C26.3188 15.8729 26.1747 16.0263 25.9875 16.0976C25.8003 16.1668 25.5897 16.1431 25.4202 16.032C24.8642 15.6728 24.1189 15.7537 23.6474 16.2204C23.3922 16.4792 23.2472 16.8171 23.2355 17.1799C23.2319 17.3626 23.1477 17.5298 23.0096 17.6433C22.8691 17.7604 22.69 17.8119 22.51 17.7874C22.0654 17.7218 21.6194 17.8656 21.2989 18.1828C20.9817 18.5033 20.8367 18.9409 20.9011 19.387C20.9385 19.6572 20.8016 19.9241 20.5581 20.0469C20.316 20.1685 20.0198 20.1242 19.8233 19.9262L14.1869 14.2886C13.9622 14.0639 13.6638 13.9411 13.3442 13.9411C13.3409 13.9411 13.3385 13.9411 13.3385 13.9411C13.0165 13.9447 12.7124 14.0699 12.4806 14.3003C12.2502 14.5285 12.125 14.8338 12.1214 15.1579C12.1214 15.4715 12.2386 15.763 12.4527 15.9876ZM20.3205 36.0542C20.2714 36.0542 20.2211 36.0485 20.172 36.0332C20.0527 36.0063 19.4033 35.8086 18.4366 34.7601C17.2935 33.5233 17.662 31.3305 19.3566 29.2989C20.1932 28.2987 21.0964 27.5837 21.7925 27.1191L11.5972 16.9285C11.5891 16.919 11.5831 16.9097 11.575 16.9016C11.1068 16.437 10.8519 15.8133 10.8555 15.1522C10.8576 14.4956 11.1152 13.8719 11.5831 13.4016C12.0513 12.9349 12.6714 12.6737 13.3325 12.6737C13.3361 12.6737 13.3385 12.6737 13.3442 12.6737C14.002 12.6737 14.6197 12.9289 15.0819 13.3935L19.8305 18.1384C19.965 17.8272 20.1546 17.5333 20.4038 17.2877C20.8471 16.8408 21.4415 16.5715 22.0618 16.5143C22.1811 16.0682 22.4186 15.6575 22.7499 15.3253C23.4659 14.6091 24.5155 14.3751 25.4516 14.6606C25.5603 14.4863 25.6891 14.3212 25.8377 14.1714C26.8209 13.1898 28.371 13.1149 29.4453 14.0007C29.4803 14.0253 29.5366 14.0732 29.5858 14.1235L37.8669 22.4035C38.1536 22.6914 38.3127 23.0751 38.3127 23.4822C38.3127 23.886 38.1536 24.2676 37.8669 24.5543L31.5107 30.9114C30.8496 31.5726 29.5543 31.7083 27.916 31.8757C26.3655 32.0372 24.6069 32.2196 23.2999 32.8879C22.7346 33.1758 21.5271 34.7448 20.8471 35.7699C20.7279 35.9503 20.529 36.0542 20.3205 36.0542Z" fill="#4C313B"></path><path id="path1516" d="M11.6453 20.1141C11.5695 20.1141 11.4946 20.1024 11.4185 20.0734C9.36714 19.2787 8.04492 17.3528 8.04492 15.1574C8.04492 12.2508 10.4087 9.88495 13.3165 9.88495C15.5104 9.88495 17.4374 11.212 18.231 13.2606C18.3574 13.5871 18.1959 13.9535 17.8682 14.0787C17.5441 14.2075 17.1741 14.0425 17.0492 13.7159C16.4465 12.1586 14.9802 11.1521 13.3165 11.1521C11.1082 11.1521 9.31082 12.9494 9.31082 15.1574C9.31082 16.8226 10.3185 18.2877 11.8735 18.8869C12.2024 19.0154 12.3663 19.3805 12.2363 19.7106C12.1404 19.962 11.9005 20.1141 11.6453 20.1141Z" fill="#4C313B"></path></g></svg>