<svg xmlns="http://www.w3.org/2000/svg" width="45" height="48" viewBox="0 0 45 48" fill="none"><g id="Frame 202"><path id="path1370" d="M43.5853 14.8625L22.0944 24.4606V24.4572L43.5824 14.8625L22.0915 5.26443L0.603516 14.8625V37.7916L22.0944 47.392H22.0973L43.5853 37.7916V14.8625Z" fill="#75C9E8"></path><path id="path1372" d="M38.6889 34.7549L26.9922 39.9797V27.4958L38.6889 22.2755V34.7549Z" fill="white"></path><path id="path1374" d="M42.9817 37.4001L22.703 46.4555V24.8526L42.9817 15.7972V37.4001ZM1.21208 15.7972L21.488 24.8561V46.4555L1.21208 37.4001V15.7972ZM22.0955 5.92718L42.0992 14.8628L22.0955 23.795L2.09463 14.8628L22.0955 5.92718ZM44.0964 14.5416C44.0935 14.5324 44.0878 14.527 44.0821 14.5181C44.0563 14.4823 44.0276 14.4485 43.9932 14.4184C43.9846 14.4095 43.9732 14.4003 43.9617 14.3891C43.9445 14.378 43.933 14.3645 43.9158 14.3533C43.8987 14.3421 43.8786 14.3344 43.8557 14.3255C43.8471 14.3198 43.8414 14.3144 43.8328 14.3086L22.3419 4.71052C22.1843 4.63774 22.0038 4.63774 21.8462 4.71052L0.358181 14.3086C0.343854 14.3144 0.335227 14.3232 0.32663 14.331C0.309438 14.339 0.292265 14.3444 0.275072 14.3533C0.26361 14.3625 0.25215 14.3737 0.240688 14.3848C0.22063 14.3983 0.206287 14.4115 0.189094 14.4261C0.166171 14.4507 0.143253 14.4731 0.123195 14.5023C0.111733 14.5181 0.0974071 14.5347 0.0888107 14.5528C0.0687526 14.5828 0.057281 14.6164 0.0429538 14.6499C0.0372229 14.6668 0.0286419 14.6837 0.022911 14.7003C0.00858376 14.7542 0 14.8066 0 14.8628V37.7918C0 38.0325 0.140407 38.2474 0.358181 38.346L21.8491 47.9476C21.8576 47.9496 21.8662 47.9496 21.8748 47.9519C21.9465 47.9811 22.021 48 22.0955 48C22.1757 48 22.2473 47.9811 22.3161 47.9519C22.3247 47.9496 22.3333 47.9496 22.3419 47.9476L43.8356 38.346C44.0534 38.2474 44.1938 38.0325 44.1938 37.7918V14.8628C44.1938 14.745 44.1565 14.6367 44.0964 14.5416Z" fill="#2F585A"></path><path id="path1376" d="M30.486 5.76581C30.486 8.61321 26.7295 10.9225 22.096 10.9225C17.4626 10.9225 13.7031 8.61321 13.7031 5.76581C13.7031 2.91584 17.4626 0.608006 22.096 0.608006C26.7295 0.608006 30.486 2.91584 30.486 5.76581Z" fill="white"></path><path id="path1380" d="M22.0943 4.85277C17.8763 4.85277 14.3088 6.93796 14.3088 9.40396C14.3088 11.8708 17.8763 13.9563 22.0943 13.9563C26.3122 13.9563 29.8768 11.8708 29.8768 9.40396C29.8768 6.93796 26.3122 4.85277 22.0943 4.85277ZM22.0943 15.1672C17.0482 15.1672 13.0996 12.6353 13.0996 9.40396C13.0996 6.17145 17.0482 3.63954 22.0943 3.63954C27.1374 3.63954 31.0917 6.17145 31.0917 9.40396C31.0917 12.6353 27.1374 15.1672 22.0943 15.1672Z" fill="#2F585A"></path><path id="path1384" d="M22.0943 8.49007C17.8763 8.49007 14.3088 10.5755 14.3088 13.0436C14.3088 15.5093 17.8763 17.5936 22.0943 17.5936C26.3122 17.5936 29.8768 15.5093 29.8768 13.0436C29.8768 10.5755 26.3122 8.49007 22.0943 8.49007ZM22.0943 18.808C17.0482 18.808 13.0996 16.2749 13.0996 13.0436C13.0996 9.81219 17.0482 7.27913 22.0943 7.27913C27.1374 7.27913 31.0917 9.81219 31.0917 13.0436C31.0917 16.2749 27.1374 18.808 22.0943 18.808Z" fill="#2F585A"></path><path id="path1386" d="M22.096 10.9227C17.4626 10.9227 13.7031 8.61343 13.7031 5.76604V14.8627C13.7031 17.7112 17.4626 20.0205 22.096 20.0205C26.7295 20.0205 30.486 17.7112 30.486 14.8627V5.76604C30.486 8.61343 26.7295 10.9227 22.096 10.9227Z" fill="#75C9E8"></path><path id="path1388" d="M29.8768 8.69721V14.8625C29.8768 17.3305 26.3122 19.4126 22.0943 19.4126C17.8763 19.4126 14.3088 17.3305 14.3088 14.8625V8.69721C14.3432 8.73418 14.3862 8.76427 14.4177 8.80124C14.5495 8.94136 14.6928 9.07546 14.8418 9.20641C14.902 9.26028 14.9621 9.31272 15.0252 9.36315C15.2401 9.53794 15.4636 9.70243 15.7043 9.85917C15.71 9.86146 15.7158 9.8669 15.7158 9.8669C15.9565 10.0179 16.2115 10.1612 16.478 10.2956C16.561 10.3348 16.6442 10.3741 16.7244 10.4131C16.9279 10.5082 17.1428 10.5979 17.3577 10.6853C17.4465 10.7188 17.5324 10.7546 17.627 10.7881C17.9279 10.8945 18.2373 10.9953 18.5611 11.0813C18.564 11.0847 18.5697 11.0847 18.5697 11.0847C18.8878 11.1687 19.2231 11.2415 19.5612 11.3031C19.6672 11.3197 19.7675 11.3366 19.8735 11.3512C20.1314 11.3925 20.3893 11.426 20.6558 11.4506C20.7647 11.4618 20.8678 11.4733 20.9796 11.4822C21.3435 11.51 21.7132 11.5303 22.0943 11.5303C22.4725 11.5303 22.845 11.51 23.2089 11.4822C23.3178 11.4733 23.4238 11.4618 23.5299 11.4506C23.7963 11.426 24.06 11.3925 24.3179 11.3512C24.421 11.3366 24.5241 11.3197 24.6244 11.3031C24.9654 11.2415 25.2978 11.1687 25.6216 11.0847L25.6273 11.0813C25.9511 10.9953 26.2606 10.8945 26.5644 10.7881C26.6532 10.7546 26.7391 10.7188 26.8308 10.6853C27.0486 10.5979 27.2578 10.5082 27.4612 10.4131C27.5472 10.3741 27.6303 10.3348 27.7105 10.2956C27.9742 10.1612 28.2321 10.0179 28.4699 9.8669C28.4756 9.8646 28.4842 9.85917 28.4842 9.85917C28.7278 9.70243 28.9484 9.53794 29.1604 9.36315C29.2235 9.31272 29.2837 9.26028 29.3438 9.20641C29.4957 9.07546 29.6361 8.94136 29.7708 8.80124C29.8052 8.76427 29.8453 8.73418 29.8768 8.69721ZM22.0943 1.21238C26.3122 1.21238 29.8768 3.29642 29.8768 5.76586C29.8768 8.23044 26.3122 10.3156 22.0943 10.3156C17.8763 10.3156 14.3088 8.23044 14.3088 5.76586C14.3088 3.29642 17.8763 1.21238 22.0943 1.21238ZM22.0943 3.8147e-06C17.0482 3.8147e-06 13.0996 2.53306 13.0996 5.76586V14.8625C13.0996 18.095 17.0482 20.627 22.0943 20.627C27.1375 20.627 31.0917 18.095 31.0917 14.8625V5.76586C31.0917 2.53306 27.1375 3.8147e-06 22.0943 3.8147e-06Z" fill="#2F585A"></path><path id="path1390" d="M13.8751 24.7424C13.3393 23.9286 12.7003 23.302 11.9983 22.8991C11.4223 22.5687 10.8033 22.3896 10.1615 22.4097C7.3161 22.4959 5.12117 26.3219 5.26445 30.9559C5.40772 35.5864 7.83186 39.2688 10.6772 39.1829C11.3162 39.1625 11.9237 38.9444 12.4796 38.5771C13.153 38.135 13.7548 37.469 14.239 36.6251C15.133 35.0772 15.646 32.9594 15.5772 30.6358C15.5027 28.3165 14.8608 26.231 13.8751 24.7424Z" fill="white"></path><path id="path1392" d="M12.4564 37.8423C12.4564 37.8423 12.4535 37.8423 12.4507 37.8388C12.402 37.8053 12.359 37.7695 12.3131 37.7302C12.253 37.6855 12.1899 37.6374 12.1326 37.5869C12.0839 37.5457 12.0381 37.501 11.9951 37.456C11.9378 37.4059 11.8804 37.352 11.826 37.2973C11.783 37.2491 11.7372 37.1987 11.6913 37.1517C11.6397 37.0924 11.5853 37.0342 11.5366 36.9726C11.4907 36.9187 11.4478 36.8663 11.4076 36.8124C11.3561 36.7454 11.3073 36.6803 11.2586 36.6144C11.2157 36.5583 11.1784 36.4969 11.1383 36.4376C11.0925 36.3671 11.0466 36.2975 11.0007 36.227C10.9606 36.1634 10.9263 36.0984 10.8861 36.0345C10.8432 35.9617 10.8002 35.8869 10.7572 35.8072C10.7228 35.7436 10.6884 35.6763 10.654 35.6058C10.611 35.5287 10.5738 35.447 10.5337 35.3631C10.5021 35.2957 10.4735 35.223 10.4391 35.1525C10.4019 35.0685 10.3646 34.9823 10.3331 34.8929C10.3016 34.8201 10.2729 34.7473 10.2443 34.6745C10.2128 34.5851 10.1784 34.4931 10.1468 34.4003C10.121 34.3275 10.0953 34.2493 10.0723 34.173C10.0408 34.0779 10.0122 33.9828 9.98639 33.8854C9.96347 33.8106 9.94055 33.7309 9.91762 33.6538C9.88897 33.5553 9.86891 33.4524 9.84312 33.3504C9.82306 33.2733 9.80585 33.1937 9.78866 33.1166C9.76287 33.0103 9.74568 32.904 9.72563 32.7942C9.7113 32.718 9.6941 32.6409 9.67977 32.5612C9.65971 32.4472 9.64541 32.3317 9.63108 32.2177C9.61962 32.1449 9.60816 32.069 9.59956 31.9939C9.58237 31.8652 9.5709 31.7363 9.55944 31.6076C9.55371 31.5437 9.5451 31.479 9.53936 31.4119C9.52504 31.2193 9.51645 31.0222 9.51072 30.8242C9.50212 30.6248 9.50211 30.4302 9.50498 30.2331C9.50498 30.1672 9.51072 30.1021 9.51072 30.0351C9.51645 29.9084 9.51933 29.7797 9.52506 29.6511C9.53079 29.576 9.5365 29.4978 9.54223 29.4216C9.55369 29.3075 9.56229 29.192 9.57375 29.078C9.58234 28.9998 9.5938 28.9213 9.60526 28.843C9.61673 28.7344 9.63106 28.6247 9.64538 28.5218C9.65685 28.4399 9.67405 28.3616 9.68837 28.2834C9.70557 28.1791 9.72274 28.0762 9.74567 27.9734C9.76 27.8937 9.7772 27.8186 9.79439 27.7404C9.81732 27.6395 9.84024 27.5424 9.86603 27.4438C9.88322 27.3676 9.90327 27.2928 9.92619 27.2178C9.95198 27.1226 9.98064 27.0275 10.0064 26.9346C10.0294 26.8596 10.0551 26.7856 10.0781 26.7129C10.1096 26.6246 10.1411 26.5315 10.1727 26.4421C10.1984 26.3727 10.2271 26.3022 10.2529 26.2315C10.2872 26.1455 10.3245 26.0615 10.3589 25.9776C10.3875 25.9082 10.4191 25.8398 10.4506 25.7761C10.485 25.6922 10.5279 25.6137 10.5681 25.532C10.5967 25.4681 10.6311 25.4045 10.6655 25.3429C10.7085 25.2667 10.7486 25.1919 10.7944 25.1157C10.8288 25.0575 10.8632 24.9947 10.9005 24.94C10.9463 24.8672 10.9921 24.7967 11.038 24.7294C11.0752 24.6735 11.1125 24.6176 11.1526 24.5638C11.1985 24.4979 11.25 24.4363 11.3016 24.3735C11.3417 24.3231 11.3819 24.2706 11.4249 24.2236C11.4736 24.162 11.5309 24.1059 11.5824 24.0466C11.6254 24.0019 11.6684 23.9572 11.7085 23.9125C11.7687 23.8563 11.826 23.8061 11.8862 23.7557C11.9263 23.7165 11.9721 23.6772 12.0151 23.6402C12.018 23.6382 12.0209 23.6382 12.0237 23.6359C12.4277 23.9291 12.8174 24.3153 13.1613 24.7833C13.1298 24.8414 13.104 24.903 13.0782 24.9624C13.0295 25.0598 12.9865 25.1549 12.9407 25.2555C12.8805 25.3821 12.8289 25.5131 12.7745 25.6452C12.7344 25.7446 12.6942 25.8486 12.657 25.9529C12.6083 26.0873 12.5624 26.2237 12.5166 26.3636C12.4851 26.4699 12.4478 26.5765 12.4163 26.6882C12.379 26.8281 12.3418 26.9759 12.3045 27.1226C12.2759 27.2312 12.2501 27.341 12.2243 27.4516C12.1928 27.6037 12.1641 27.7573 12.1383 27.9141C12.1183 28.0224 12.0953 28.1344 12.0781 28.2476C12.0552 28.4086 12.0352 28.5743 12.0209 28.7387C12.0065 28.8453 11.9922 28.9548 11.9836 29.0634C11.9664 29.2494 11.9549 29.4327 11.9463 29.621C11.9435 29.7138 11.9349 29.8055 11.932 29.8972C11.9234 30.1806 11.9234 30.4626 11.932 30.748C11.9406 31.0334 11.9578 31.3168 11.9836 31.5964C11.9922 31.6916 12.0065 31.7813 12.018 31.8741C12.0352 32.0609 12.0552 32.2458 12.0839 32.4303C12.1011 32.5366 12.124 32.6429 12.144 32.7495C12.1698 32.9151 12.1985 33.0762 12.2329 33.2395C12.2587 33.3481 12.2845 33.4567 12.3103 33.5664C12.3475 33.7197 12.3876 33.8719 12.4278 34.0232C12.4593 34.1318 12.4937 34.2381 12.5252 34.3479C12.571 34.49 12.6169 34.6355 12.6656 34.7754C12.7057 34.8817 12.7458 34.9846 12.7831 35.0889C12.8404 35.2253 12.8919 35.3608 12.9493 35.4952C12.9922 35.5946 13.0409 35.6932 13.0868 35.7918C13.147 35.9227 13.21 36.0479 13.2759 36.1746C13.3275 36.2697 13.3762 36.3625 13.4307 36.4508C13.4622 36.5104 13.4908 36.5717 13.5252 36.6299C13.21 37.1182 12.849 37.5288 12.4564 37.8423ZM10.6598 38.5755C10.6311 38.5775 10.6053 38.5775 10.5824 38.5775C8.14676 38.5775 5.99769 35.1089 5.87161 30.936C5.80571 28.8072 6.24698 26.7968 7.12094 25.2801C7.93473 23.8563 9.02358 23.0505 10.1812 23.017C10.207 23.0147 10.2328 23.0147 10.2557 23.0147C10.4477 23.0147 10.6368 23.0359 10.8288 23.0806C10.8116 23.0987 10.7973 23.1176 10.7801 23.1345C10.5996 23.317 10.4277 23.5116 10.2672 23.7222C10.2529 23.7388 10.2414 23.7523 10.2299 23.7703C10.0638 23.9872 9.90902 24.2236 9.76288 24.4686C9.73995 24.5113 9.71416 24.556 9.68837 24.5973C9.54797 24.8414 9.41903 25.0965 9.29868 25.3618C9.28148 25.4088 9.25857 25.4569 9.23851 25.5074C9.11816 25.785 9.0064 26.0693 8.90898 26.3693C8.90325 26.3882 8.8975 26.4105 8.8889 26.434C8.79434 26.7275 8.70838 27.0352 8.63674 27.3453C8.62814 27.3822 8.61669 27.4215 8.60809 27.4584C8.53932 27.7739 8.47915 28.0986 8.43331 28.4287C8.42471 28.4871 8.41612 28.5465 8.40753 28.6078C8.36454 28.9382 8.33014 29.2717 8.31294 29.6118C8.31294 29.6657 8.31011 29.7216 8.30724 29.7754C8.29005 30.1336 8.28431 30.4938 8.29577 30.8612C8.30723 31.2271 8.33303 31.5853 8.37314 31.9434C8.37887 31.9973 8.38459 32.0532 8.39032 32.1079C8.43043 32.4472 8.48202 32.7773 8.54793 33.102C8.55939 33.1636 8.56799 33.2229 8.58231 33.281C8.65108 33.6091 8.72557 33.9281 8.8144 34.2381C8.82872 34.2751 8.84019 34.3109 8.85165 34.3498C8.94334 34.6556 9.04652 34.9545 9.15827 35.2399C9.16687 35.2622 9.17259 35.288 9.18405 35.3069C9.29867 35.6015 9.4276 35.8777 9.56514 36.1465C9.58807 36.1935 9.61099 36.2416 9.63678 36.2863C9.77146 36.5462 9.9176 36.7935 10.0723 37.0273C10.0981 37.0677 10.1239 37.109 10.1526 37.1482C10.3159 37.3855 10.4821 37.6127 10.6626 37.8199C10.6741 37.8345 10.6856 37.8477 10.6999 37.8592C10.8747 38.0626 11.0609 38.2509 11.2529 38.4242C11.2672 38.4377 11.2844 38.4578 11.3016 38.4712C11.0867 38.5363 10.8718 38.5698 10.6598 38.5755ZM14.2015 35.3161C14.19 35.2926 14.1785 35.2734 14.1728 35.251C14.0353 34.9579 13.9092 34.6522 13.7974 34.3367C13.7774 34.2828 13.763 34.2269 13.743 34.1708C13.6456 33.8765 13.5596 33.5742 13.4851 33.2641C13.4708 33.214 13.4593 33.1636 13.4478 33.1131C13.3705 32.7719 13.3103 32.4226 13.2616 32.0667C13.2501 31.9882 13.2415 31.9065 13.2329 31.8294C13.19 31.4621 13.1584 31.0904 13.1441 30.7122C13.1327 30.3351 13.1441 29.9623 13.1642 29.5929C13.1699 29.5124 13.1728 29.4305 13.1785 29.3522C13.2043 28.994 13.2415 28.6436 13.2988 28.3C13.3074 28.2442 13.3189 28.1937 13.3303 28.1379C13.3819 27.8301 13.4507 27.5278 13.5281 27.2312C13.5453 27.1731 13.5567 27.108 13.5739 27.0498C13.6656 26.7309 13.7688 26.4217 13.8863 26.1286C13.8977 26.1028 13.9092 26.0782 13.9178 26.0524C14.5482 27.3711 14.915 28.966 14.9694 30.6563C15.021 32.3486 14.7516 33.9604 14.2015 35.3161ZM16.1815 30.6205C16.107 28.2608 15.4709 26.0558 14.382 24.407C14.382 24.407 14.3791 24.407 14.3791 24.4047C13.786 23.5093 13.0868 22.8267 12.2988 22.3754C11.5996 21.9725 10.8661 21.7857 10.144 21.8023C8.54791 21.8528 7.10087 22.8714 6.06357 24.677C5.08645 26.3859 4.58789 28.6212 4.65666 30.9718C4.8114 35.9528 7.39887 39.7899 10.5767 39.7899C10.6139 39.7899 10.6569 39.7899 10.697 39.7865C11.4248 39.7653 12.1355 39.5303 12.8089 39.0882C12.8117 39.0882 12.8117 39.0882 12.8117 39.0847C13.5739 38.5867 14.2272 37.8592 14.7659 36.9299C14.7688 36.9279 14.7688 36.9245 14.7688 36.9245C15.7517 35.2118 16.2531 32.9733 16.1815 30.6205Z" fill="#2F585A"></path><path id="path1394" d="M27.5968 36.3872L30.0869 37.934L27.5968 39.0455V36.3872ZM31.4251 37.3351L27.5968 34.9599V32.3744L33.8521 36.2528L31.4251 37.3351ZM35.1903 35.6539L27.5968 30.9471V28.5877L37.3995 34.6691L35.1903 35.6539ZM38.0844 33.6673L28.2817 27.5871L38.0844 23.2104V33.6673ZM39.2965 22.276C39.2965 22.0677 39.1933 21.8751 39.0185 21.7654C38.8495 21.6548 38.6317 21.6367 38.4426 21.7207L26.7429 26.9458C26.7172 26.957 26.7028 26.9736 26.6799 26.9871C26.6599 26.996 26.6426 27.0072 26.6255 27.0186C26.5681 27.0633 26.5166 27.1137 26.4793 27.1751C26.4764 27.1751 26.4764 27.1774 26.4764 27.1774C26.4736 27.1842 26.4736 27.192 26.4707 27.1977C26.4392 27.2536 26.4163 27.3129 26.4048 27.3768C26.3991 27.3969 26.3962 27.4158 26.3934 27.4381C26.3905 27.4605 26.3848 27.4774 26.3848 27.4963V39.9802C26.3848 40.1874 26.4879 40.3776 26.6627 40.4894C26.7601 40.5544 26.8748 40.5868 26.9922 40.5868C27.0753 40.5868 27.1613 40.5699 27.2387 40.5341L35.4338 36.874C35.4338 36.874 35.4338 36.874 35.4367 36.874L38.9383 35.3092C38.944 35.3069 38.9498 35.3015 38.9555 35.298C38.9899 35.2811 39.0185 35.2622 39.0472 35.2399C39.0644 35.2287 39.0816 35.221 39.093 35.2063C39.1245 35.1817 39.1446 35.1502 39.1704 35.119C39.179 35.1055 39.1933 35.0943 39.2019 35.0797C39.2048 35.0777 39.2048 35.0777 39.2048 35.0754C39.2105 35.0685 39.2105 35.0608 39.2134 35.055C39.2449 35.0026 39.265 34.9399 39.2793 34.8782C39.2822 34.8559 39.285 34.837 39.2879 34.8146C39.2908 34.7943 39.2965 34.7754 39.2965 34.7553V22.276Z" fill="#2F585A"></path></g></svg>