<svg xmlns="http://www.w3.org/2000/svg" width="61" height="60" viewBox="0 0 61 60" fill="none"><g id="Frame 200"><rect width="60" height="60" transform="translate(0.5)" fill="white"></rect><g id="Group"><g id="Group_2"><g id="Group_3"><path id="Vector" d="M10.3046 20.9211C8.44372 21.4193 7.07031 23.1106 7.07031 25.1303C7.07031 27.1501 8.44372 28.8439 10.3046 29.3421C10.0272 28.1626 9.85753 26.7057 9.85753 25.1303C9.85753 23.5522 10.0245 22.098 10.3046 20.9211Z" fill="#76C5D4"></path></g><g id="Group_4"><path id="Vector_2" d="M20.6205 41.0272L18.1888 32.2427H12.8379L15.652 42.4033C16.0317 43.7714 17.459 44.5793 18.8243 44.1996C20.1924 43.8252 21.0003 42.3953 20.6205 41.0272Z" fill="#76C5D4"></path></g><g id="Group_5"><path id="Vector_3" d="M12.1357 18.0181C11.3843 18.0181 10.7192 19.1653 10.3045 20.9211C10.0271 22.1007 9.85742 23.5549 9.85742 25.1303C9.85742 26.7084 10.0244 28.1626 10.3045 29.3421C10.7192 31.0953 11.3843 32.2425 12.1357 32.2425H12.8385H18.1894H20.6723V18.0154L12.1357 18.0181Z" fill="white"></path></g><g id="Group_6"><path id="Vector_4" d="M21.1739 40.879L18.9415 32.8162H20.6757C20.9908 32.8162 21.244 32.5604 21.244 32.2453V18.0182C21.244 17.7031 20.9881 17.45 20.6757 17.45H12.1391C11.148 17.45 10.3563 18.5002 9.83658 20.4688C7.85725 21.1474 6.5 23.0164 6.5 25.1304C6.5 27.2444 7.85725 29.1133 9.83658 29.792C10.3563 31.7605 11.1454 32.8135 12.1391 32.8135H12.4084L15.1067 42.5568C15.4918 43.9518 16.7629 44.8674 18.1444 44.8674C18.419 44.8674 18.7018 44.8297 18.9819 44.7516C19.7898 44.528 20.463 44.0029 20.8777 43.2677C21.2897 42.5352 21.3975 41.6869 21.1739 40.879ZM7.63912 25.1304C7.63912 23.7543 8.38776 22.5101 9.54035 21.8449C9.49457 22.1412 9.45418 22.4508 9.41917 22.7632C9.41109 22.8521 9.40301 22.941 9.39493 23.0326C9.3707 23.283 9.34915 23.5361 9.33569 23.792C9.3303 23.8889 9.32491 23.9886 9.31953 24.0882C9.30337 24.4302 9.2926 24.7776 9.2926 25.1277C9.2926 25.4778 9.30337 25.8252 9.31953 26.1699C9.32491 26.2668 9.3303 26.3638 9.33569 26.4634C9.35184 26.7219 9.3707 26.9751 9.39493 27.2282C9.40301 27.3171 9.41109 27.406 9.41917 27.4948C9.45418 27.8072 9.49457 28.1142 9.54035 28.4131C8.38776 27.7507 7.63912 26.5065 7.63912 25.1304ZM10.8599 29.213C10.5771 28.0227 10.429 26.6115 10.429 25.1304C10.429 23.6519 10.5771 22.2435 10.8599 21.0478C11.2827 19.2569 11.8671 18.5864 12.1364 18.5864H20.1021V31.6717H18.1901H12.8392H12.1364C11.8671 31.6744 11.2827 31.0065 10.8599 29.213ZM19.884 42.7049C19.6174 43.1735 19.1892 43.5101 18.6749 43.6528C17.6085 43.9491 16.499 43.3216 16.2027 42.2525L13.5879 32.8135H17.7566L20.0725 41.178C20.2152 41.695 20.1479 42.239 19.884 42.7049Z" fill="#274242"></path></g><g id="Group_7"><path id="Vector_5" d="M20.6728 18.018C19.4152 18.018 18.3945 21.2038 18.3945 25.1329C18.3945 29.062 19.4125 32.2478 20.6728 32.2478C34.6304 32.2478 48.9488 40.6957 48.9488 40.6957V9.57544C48.9488 9.57544 34.6304 18.018 20.6728 18.018Z" fill="#76C5D4"></path></g><g id="Group_8"><path id="Vector_6" d="M48.9468 41.2586C48.8471 41.2586 48.7475 41.2344 48.6586 41.1805C48.5159 41.0997 34.3078 32.8161 20.6707 32.8161C18.8018 32.8161 17.8242 28.9489 17.8242 25.1303C17.8242 21.3116 18.8018 17.4471 20.6707 17.4471C34.3051 17.4471 48.5159 9.16348 48.6586 9.08C48.9279 8.91842 49.278 9.00997 49.4396 9.27927C49.5984 9.55396 49.5096 9.90136 49.2376 10.0602C49.0922 10.1464 34.6229 18.5863 20.6734 18.5863C20.0944 18.5863 18.966 20.8969 18.966 25.1303C18.966 29.3637 20.0917 31.6742 20.6734 31.6742C34.6256 31.6742 49.0949 40.1168 49.2376 40.2003C49.5096 40.3619 49.5984 40.7092 49.4396 40.9812C49.3345 41.1617 49.1433 41.2586 48.9468 41.2586Z" fill="#274242"></path></g><g id="Group_9"><path id="Vector_7" d="M48.9493 9.57275C46.7545 9.57275 44.891 14.0135 44.2285 20.1751C46.8757 20.2828 48.9924 22.4587 48.9924 25.1329C48.9924 27.807 46.8757 29.983 44.2285 30.0907C44.891 36.2523 46.7545 40.6957 48.9493 40.6957C51.6961 40.6957 53.9286 33.7289 53.9286 25.1356C53.9286 16.5395 51.6961 9.57275 48.9493 9.57275Z" fill="white"></path></g><g id="Group_10"><path id="Vector_8" d="M48.9931 25.1302C48.9931 22.456 46.8764 20.2801 44.2292 20.1724C44.0623 21.7289 43.9707 23.3959 43.9707 25.1302C43.9707 26.8672 44.0623 28.5314 44.2292 30.088C46.8764 29.9803 48.9931 27.8043 48.9931 25.1302Z" fill="#76C5D4"></path></g><g id="Group_11"><path id="Vector_9" d="M48.9506 9.00195C45.9318 9.00195 44.2406 14.7408 43.6643 20.1133C43.4893 21.7372 43.4004 23.423 43.4004 25.1303C43.4004 26.8377 43.4893 28.5262 43.6643 30.1474C44.2406 35.5172 45.9318 41.2587 48.9506 41.2587C52.5538 41.2587 54.5008 32.9481 54.5008 25.1303C54.5008 17.3126 52.5538 9.00195 48.9506 9.00195ZM45.0996 20.87C45.1804 20.8916 45.2585 20.9185 45.3366 20.94C45.3878 20.9562 45.439 20.9696 45.4874 20.9885C45.6032 21.0289 45.7136 21.072 45.8241 21.1232C45.8564 21.1393 45.8887 21.1555 45.9237 21.1716C46.0233 21.2201 46.1203 21.2659 46.2145 21.3224C46.2576 21.3467 46.3007 21.3763 46.3411 21.4005C46.4111 21.4436 46.4811 21.4867 46.5485 21.5352C46.5942 21.5675 46.6373 21.5998 46.6831 21.6348C46.745 21.6806 46.8043 21.7264 46.8635 21.7775C46.9066 21.8152 46.9497 21.8529 46.9901 21.8933C47.0467 21.9445 47.1005 21.993 47.1544 22.0468C47.1948 22.0899 47.2352 22.133 47.2729 22.1761C47.324 22.2327 47.3725 22.2865 47.4183 22.3431C47.456 22.3915 47.491 22.4346 47.5287 22.4831C47.5745 22.5397 47.6176 22.6016 47.658 22.6609C47.693 22.712 47.7226 22.7605 47.7549 22.809C47.7953 22.8709 47.8303 22.9382 47.868 23.0029C47.8949 23.054 47.9246 23.1025 47.9488 23.1564C47.9838 23.2237 48.0161 23.2937 48.0457 23.3637C48.0673 23.4176 48.0915 23.4688 48.1131 23.5253C48.1427 23.5953 48.1669 23.6707 48.1912 23.7461C48.2073 23.8 48.2289 23.8512 48.245 23.9077C48.2693 23.9858 48.2854 24.0693 48.3043 24.1474C48.315 24.2012 48.3312 24.2524 48.342 24.3063C48.3581 24.3978 48.3716 24.4894 48.3824 24.5836C48.3878 24.6294 48.3958 24.6725 48.4012 24.7183C48.4147 24.8583 48.4228 24.9984 48.4228 25.1411C48.4228 25.2838 48.4147 25.4239 48.4012 25.5639C48.3958 25.6097 48.3878 25.6528 48.3824 25.7012C48.3716 25.7901 48.3581 25.8817 48.342 25.9759C48.3312 26.0298 48.3177 26.0809 48.3043 26.1348C48.2854 26.2156 48.2693 26.2964 48.245 26.3745C48.2289 26.431 48.21 26.4822 48.1912 26.5388C48.1669 26.6115 48.14 26.6869 48.1131 26.7569C48.0915 26.8134 48.0673 26.8646 48.0457 26.9185C48.0161 26.9885 47.9865 27.0585 47.9515 27.1258C47.9246 27.1797 47.8949 27.2282 47.868 27.2793C47.833 27.344 47.7953 27.4113 47.7549 27.4732C47.7226 27.5244 47.6903 27.5702 47.658 27.6213C47.6176 27.6806 47.5745 27.7425 47.5287 27.7991C47.4937 27.8476 47.4587 27.8907 47.4183 27.9391C47.3698 27.9957 47.3213 28.0522 47.2729 28.1061C47.2325 28.1519 47.1948 28.1923 47.1544 28.2354C47.1032 28.2892 47.0467 28.3377 46.9901 28.3916C46.947 28.4293 46.9066 28.467 46.8635 28.5047C46.8043 28.5558 46.7424 28.6016 46.6804 28.6501C46.6373 28.6851 46.5942 28.7147 46.5512 28.747C46.4811 28.7982 46.4084 28.8413 46.3357 28.8871C46.2953 28.9113 46.2549 28.9382 46.2145 28.9598C46.1122 29.019 46.0072 29.0729 45.8995 29.124C45.8833 29.1321 45.8698 29.1402 45.8537 29.1483C45.7352 29.2048 45.6113 29.2506 45.4847 29.2964C45.439 29.3126 45.3905 29.326 45.3447 29.3395C45.2612 29.3664 45.1777 29.3933 45.0916 29.4122C45.035 29.4257 44.9785 29.4364 44.9219 29.4472C44.8573 29.4607 44.7953 29.4741 44.7334 29.4849C44.6014 28.0792 44.5341 26.6222 44.5341 25.1546C44.5341 23.6869 44.6014 22.23 44.7334 20.8242C44.7953 20.835 44.8546 20.8485 44.9138 20.8592C44.9812 20.8458 45.0404 20.8565 45.0996 20.87ZM48.9506 40.1222C47.4694 40.1222 45.6221 36.8556 44.8627 30.6025C44.9838 30.5836 45.1023 30.5567 45.2208 30.5325C45.2612 30.5244 45.307 30.5163 45.3474 30.5082C45.5171 30.4651 45.6813 30.4194 45.8429 30.3628C45.8779 30.3494 45.9129 30.3332 45.9479 30.3197C46.0718 30.2739 46.1984 30.2255 46.3169 30.1716C46.3734 30.1447 46.4273 30.1151 46.4838 30.0881C46.5781 30.0397 46.675 29.9939 46.7666 29.94C46.8258 29.905 46.8824 29.87 46.9416 29.8323C47.0251 29.7784 47.1113 29.73 47.1894 29.6707C47.2486 29.6276 47.3052 29.5872 47.3644 29.5415C47.4398 29.4849 47.5152 29.4284 47.5879 29.3664C47.6445 29.3179 47.6983 29.2695 47.7549 29.2183C47.8222 29.1564 47.8922 29.0917 47.9569 29.0271C48.0107 28.9732 48.0592 28.9194 48.1104 28.8655C48.1723 28.7982 48.2316 28.7255 48.2908 28.6555C48.3393 28.5989 48.3851 28.5397 48.4308 28.4804C48.4874 28.4077 48.5412 28.3323 48.5924 28.2569C48.6355 28.195 48.6759 28.1303 48.7163 28.0684C48.7648 27.9903 48.8132 27.9095 48.8563 27.8287C48.894 27.7641 48.929 27.6967 48.964 27.6294C49.0071 27.5459 49.0448 27.4598 49.0825 27.3736C49.1122 27.3063 49.1445 27.2362 49.1714 27.1689C49.2064 27.0774 49.236 26.9858 49.2683 26.8916C49.2899 26.8242 49.3168 26.7542 49.3357 26.6842C49.3653 26.5845 49.3895 26.4849 49.4111 26.3853C49.4272 26.3179 49.4461 26.2506 49.4595 26.1833C49.4811 26.0702 49.4946 25.9544 49.5107 25.8386C49.5188 25.782 49.5296 25.7228 49.535 25.6662C49.5511 25.4912 49.5619 25.3135 49.5619 25.133C49.5619 24.9553 49.5538 24.7748 49.535 24.5998C49.5296 24.5432 49.5188 24.484 49.5107 24.4275C49.4972 24.3117 49.4811 24.1959 49.4595 24.0828C49.4461 24.0154 49.4272 23.9481 49.4111 23.8808C49.3895 23.7811 49.3653 23.6815 49.3357 23.5818C49.3168 23.5118 49.2926 23.4445 49.2683 23.3745C49.236 23.2829 49.2064 23.1914 49.1687 23.0971C49.1418 23.0298 49.1122 22.9598 49.0798 22.8924C49.0421 22.809 49.0044 22.7228 48.9613 22.6366C48.9263 22.5693 48.8913 22.502 48.8536 22.4373C48.8079 22.3592 48.7621 22.2757 48.7136 22.1976C48.6732 22.1357 48.6301 22.0711 48.5897 22.0091C48.5386 21.9337 48.4847 21.8583 48.4281 21.7856C48.3824 21.7264 48.3366 21.6671 48.2881 21.6106C48.2289 21.5406 48.1669 21.4705 48.1077 21.4032C48.0565 21.3467 48.0054 21.2928 47.9542 21.239C47.8896 21.1743 47.8195 21.1097 47.7495 21.0477C47.6957 20.9966 47.6418 20.9481 47.5852 20.8996C47.5125 20.8404 47.4371 20.7811 47.359 20.7246C47.3025 20.6788 47.2459 20.6384 47.1867 20.5953C47.1059 20.5388 47.0224 20.4876 46.9389 20.4337C46.8797 20.3987 46.8231 20.361 46.7639 20.326C46.6696 20.2722 46.5754 20.2264 46.4811 20.1779C46.4246 20.151 46.3707 20.1214 46.3142 20.0944C46.1957 20.0406 46.0718 19.9948 45.9452 19.949C45.9102 19.9355 45.8752 19.9194 45.8375 19.9059C45.6759 19.8494 45.509 19.8009 45.342 19.7605C45.2962 19.7497 45.2505 19.7416 45.2074 19.7336C45.0916 19.7066 44.9785 19.6797 44.86 19.6662C45.6194 13.4131 47.4668 10.1438 48.9479 10.1438C51.0322 10.1438 53.3563 16.3 53.3563 25.133C53.359 33.9634 51.0349 40.1222 48.9506 40.1222Z" fill="#274242"></path></g></g></g></g></svg>