<svg xmlns="http://www.w3.org/2000/svg" width="60" height="60" viewBox="0 0 60 60" fill="none"><g id="Frame 196"><g id="Group"><g id="Group_2"><path id="Vector" d="M32.8984 28.4421C25.4084 28.4421 19.3379 33.4037 19.3379 39.5274C19.3379 42.5521 20.821 45.2902 23.2222 47.2881L23.1665 53.2712L29.428 50.2438C30.5371 50.4826 31.6992 50.6126 32.9011 50.6126C40.3884 50.6126 46.459 45.6511 46.459 39.5274C46.4563 33.4037 40.3858 28.4421 32.8984 28.4421Z" fill="#F7BE56"></path></g><g id="Group_3"><path id="Vector_2" d="M23.1638 53.8313C23.0577 53.8313 22.9542 53.7995 22.864 53.7437C22.7021 53.6403 22.6013 53.4598 22.6013 53.2635L22.657 47.5458C20.1524 45.3754 18.7754 42.5338 18.7754 39.5277C18.7754 33.1068 25.1113 27.8826 32.8958 27.8826C40.6856 27.8826 47.0188 33.1068 47.0188 39.5277C47.0188 45.9485 40.6829 51.1727 32.8958 51.1727C31.7496 51.1727 30.6114 51.0587 29.4997 50.8331L23.4079 53.7756C23.3283 53.8101 23.2461 53.8313 23.1638 53.8313ZM32.8958 29.0049C25.7295 29.0049 19.9004 33.725 19.9004 39.5277C19.9004 42.2791 21.2057 44.8819 23.5804 46.8586C23.7104 46.9673 23.7846 47.1292 23.782 47.2964L23.7342 52.372L29.1813 49.74C29.2954 49.6843 29.4227 49.671 29.5448 49.6949C30.6379 49.931 31.7655 50.0504 32.8984 50.0504C40.0674 50.0504 45.8991 45.3303 45.8991 39.5277C45.8991 33.725 40.0647 29.0049 32.8958 29.0049Z" fill="#703407"></path></g><g id="Group_4"><path id="Vector_3" d="M9.24219 17.731H37.934V36.8874H32.3649V42.1249L25.5912 36.8874H9.24219V17.731Z" fill="white"></path></g><g id="Group_5"><path id="Vector_4" d="M32.3656 42.6876C32.2409 42.6876 32.1215 42.6478 32.0207 42.5709L25.4009 37.4501H9.24023C8.9298 37.4501 8.67773 37.1981 8.67773 36.8876V17.7312C8.67773 17.4208 8.9298 17.1714 9.24023 17.1714H37.932C38.2424 17.1714 38.4945 17.4208 38.4945 17.7312V36.8876C38.4945 37.1981 38.2424 37.4501 37.932 37.4501H32.9227V42.1251C32.9227 42.34 32.8007 42.5337 32.6097 42.6293C32.5327 42.6691 32.4505 42.6876 32.3656 42.6876ZM9.80536 36.3252H25.5919C25.7166 36.3252 25.8387 36.3703 25.9369 36.4445L31.8057 40.9816V36.8876C31.8057 36.5799 32.0578 36.3252 32.3682 36.3252H37.3748V18.2937H9.80536V36.3252Z" fill="#703407"></path></g><g id="Group_6"><path id="Vector_5" d="M46.5586 6.39111H26.0174C23.7649 6.39111 21.9395 8.21653 21.9395 10.4665V21.4695C21.9395 23.7221 23.7649 25.5449 26.0174 25.5449H27.5085V30.7824L34.2822 25.5449H46.5586C48.8111 25.5449 50.6339 23.7194 50.6339 21.4695V10.4665C50.6339 8.21653 48.8111 6.39111 46.5586 6.39111Z" fill="#F7BE56"></path></g><g id="Group_7"><path id="Vector_6" d="M27.5105 31.3449C27.4256 31.3449 27.3407 31.3263 27.2611 31.2891C27.07 31.1936 26.948 31 26.948 30.7877V26.11H26.0141C23.459 26.11 21.3789 24.0299 21.3789 21.4722V10.4692C21.3789 7.91142 23.459 5.8313 26.0141 5.8313H46.5578C49.1129 5.8313 51.193 7.91142 51.193 10.4692V21.4722C51.193 24.0299 49.1129 26.11 46.5578 26.11H34.4725L27.8527 31.2308C27.7519 31.3051 27.6299 31.3449 27.5105 31.3449ZM26.0141 6.95361C24.0772 6.95361 22.5012 8.52963 22.5012 10.4665V21.4695C22.5012 23.4064 24.0799 24.985 26.0141 24.985H27.5105C27.8183 24.985 28.0703 25.2371 28.0703 25.5449V29.6388L33.9392 25.1018C34.0347 25.0275 34.1567 24.985 34.2814 24.985H46.5578C48.492 24.985 50.0707 23.4064 50.0707 21.4695V10.4665C50.0707 8.52963 48.492 6.95361 46.5578 6.95361H26.0141Z" fill="#703407"></path></g><g id="Group_8"><path id="Vector_7" d="M35.9163 12.1247H27.0254C26.7149 12.1247 26.4629 11.87 26.4629 11.5622C26.4629 11.2518 26.7149 10.9998 27.0254 10.9998H35.9163C36.2267 10.9998 36.4788 11.2518 36.4788 11.5622C36.4788 11.8727 36.2294 12.1247 35.9163 12.1247Z" fill="#703407"></path></g><g id="Group_9"><path id="Vector_8" d="M46.2441 12.125H39.6562C39.3458 12.125 39.0938 11.8703 39.0938 11.5625C39.0938 11.2521 39.3458 11 39.6562 11H46.2441C46.5546 11 46.8066 11.2521 46.8066 11.5625C46.8066 11.8729 46.5546 12.125 46.2441 12.125Z" fill="#703407"></path></g><g id="Group_10"><path id="Vector_9" d="M46.2454 16.6433H35.8554C35.545 16.6433 35.293 16.3913 35.293 16.0808C35.293 15.7731 35.545 15.521 35.8554 15.521H46.2454C46.5558 15.521 46.8079 15.7731 46.8079 16.0808C46.8079 16.3939 46.5558 16.6433 46.2454 16.6433Z" fill="#703407"></path></g><g id="Group_11"><path id="Vector_10" d="M32.2356 16.6433H27.0273C26.7169 16.6433 26.4648 16.3913 26.4648 16.0808C26.4648 15.7731 26.7169 15.521 27.0273 15.521H32.2356C32.5433 15.521 32.7981 15.7731 32.7981 16.0808C32.7981 16.3939 32.5433 16.6433 32.2356 16.6433Z" fill="#703407"></path></g><g id="Group_12"><path id="Vector_11" d="M41.3467 21.1643H27.0273C26.7169 21.1643 26.4648 20.9123 26.4648 20.6018C26.4648 20.2914 26.7169 20.042 27.0273 20.042H41.3467C41.6571 20.042 41.9092 20.2914 41.9092 20.6018C41.9092 20.9149 41.6571 21.1643 41.3467 21.1643Z" fill="#703407"></path></g></g></g></svg>