<svg xmlns="http://www.w3.org/2000/svg" width="61" height="60" viewBox="0 0 61 60" fill="none"><g id="Frame 131" clip-path="url(#clip0_295_8155)"><rect width="60" height="60" transform="translate(0.5)" fill="white"></rect><g id="Group"><g id="Group_2"><g id="Group_3"><g id="Group_4"><g id="Group_5"><path id="Vector" d="M43.7467 24.368C43.7467 16.141 36.6245 9.57809 28.2098 10.5076C21.8535 11.2102 16.7141 16.2959 15.954 22.6454C15.4104 27.1845 17.0492 31.3556 19.9594 34.2513C22.5331 36.8125 23.8715 40.3648 23.8715 43.996V45.6258H35.7265V43.9176C35.7265 40.2414 37.209 36.7404 39.7783 34.1108C42.2331 31.597 43.7467 28.1595 43.7467 24.368Z" fill="#FFD15C"></path></g></g></g><g id="Group_6"><g id="Group_7"><g id="Group_8"><g id="Group_9"><path id="Vector_2" d="M36.8071 46.6603V55.3431H22.7896V46.6603C22.7896 46.0884 23.2503 45.6277 23.8222 45.6277H35.769C36.341 45.6277 36.8071 46.0884 36.8071 46.6603Z" fill="#058789"></path></g></g></g><g id="Group_10"><g id="Group_11"><g id="Group_12"><path id="Vector_3" d="M33.6393 58.1165H25.9573L22.7896 55.3406H36.8071L33.6393 58.1165Z" fill="#058789"></path></g></g></g><g id="Group_13"><g id="Group_14"><g id="Group_15"><g id="Group_16"><path id="Vector_4" d="M37.3984 47.4762C37.3984 47.7815 37.1484 48.0315 36.8431 48.0315H22.7535C22.4482 48.0315 22.1982 47.7815 22.1982 47.4762C22.1982 47.1709 22.4482 46.9209 22.7535 46.9209H36.8435C37.1484 46.9209 37.3984 47.1709 37.3984 47.4762Z" fill="#243239"></path></g></g></g><g id="Group_17"><g id="Group_18"><g id="Group_19"><path id="Vector_5" d="M37.3984 50.5756C37.3984 50.8809 37.1484 51.1308 36.8431 51.1308H22.7535C22.4482 51.1308 22.1982 50.8809 22.1982 50.5756C22.1982 50.2702 22.4482 50.0203 22.7535 50.0203H36.8435C37.1484 50.0207 37.3984 50.2702 37.3984 50.5756Z" fill="#243239"></path></g></g></g><g id="Group_20"><g id="Group_21"><g id="Group_22"><path id="Vector_6" d="M37.3984 53.6754C37.3984 53.9807 37.1484 54.2307 36.8431 54.2307H22.7535C22.4482 54.2307 22.1982 53.9807 22.1982 53.6754C22.1982 53.3701 22.4482 53.1201 22.7535 53.1201H36.8435C37.1484 53.1201 37.3984 53.3701 37.3984 53.6754Z" fill="#243239"></path></g></g></g></g><g id="Group_23"><g id="Group_24"><g id="Group_25"><path id="Vector_7" d="M33.6262 58.1187C33.6262 58.7014 33.3875 59.2346 33.0042 59.6233C32.6156 60.0065 32.0882 60.2452 31.4996 60.2452H28.0968C26.9254 60.2452 25.9707 59.2905 25.9707 58.1191H33.6262V58.1187Z" fill="#243239"></path></g></g></g></g><g id="Group_26"><g id="Group_27"><g id="Group_28"><g id="Group_29"><g id="Group_30"><path id="Vector_8" d="M23.3199 28.6468L22.5229 28.8418L26.8442 46.4997L27.6412 46.3047L23.3199 28.6468Z" fill="#058789"></path></g></g></g><g id="Group_31"><g id="Group_32"><g id="Group_33"><g id="Group_34"><path id="Vector_9" d="M24.4541 28.4704C24.2515 27.6422 23.4161 27.1352 22.5879 27.3378C21.7597 27.5405 21.2526 28.3763 21.4552 29.2041C21.6579 30.0318 22.4933 30.5389 23.3215 30.3367C24.1497 30.134 24.6568 29.2982 24.4541 28.4704Z" fill="#058789"></path></g></g></g></g></g><g id="Group_35"><g id="Group_36"><g id="Group_37"><g id="Group_38"><path id="Vector_10" d="M36.266 28.6602L31.9482 46.3203L32.7453 46.5152L37.0631 28.855L36.266 28.6602Z" fill="#058789"></path></g></g></g><g id="Group_39"><g id="Group_40"><g id="Group_41"><g id="Group_42"><path id="Vector_11" d="M38.1417 29.2041C38.3443 28.3763 37.8372 27.5405 37.0095 27.3378C36.1817 27.1352 35.3459 27.6422 35.1432 28.4704C34.9406 29.2982 35.4477 30.134 36.2754 30.3367C37.1031 30.5389 37.939 30.0322 38.1417 29.2041Z" fill="#058789"></path></g></g></g></g></g></g><g id="Group_43"><g id="Group_44"><g id="Group_45"><path id="Vector_12" d="M30.7984 34.4205L29.3942 25.6476L28.5219 29.1397H25.9711C25.8014 29.1397 25.6631 29.0018 25.6631 28.8316C25.6631 28.6618 25.8009 28.5236 25.9711 28.5236H28.0409L29.5275 22.5776L30.8997 31.1532L31.5748 28.1417H33.6275C33.7977 28.1417 33.9355 28.2795 33.9355 28.4497C33.9355 28.62 33.7977 28.7578 33.6275 28.7578H32.067L30.7984 34.4205Z" fill="#F3705A"></path></g></g></g></g><g id="Group_46"><g id="Group_47"><g id="Group_48"><g id="Group_49"><path id="Vector_13" d="M53.9802 25.4141H50.8837C50.5437 25.4141 50.2681 25.1385 50.2681 24.7985C50.2681 24.4585 50.5441 24.1829 50.8837 24.1829H53.9802C54.3203 24.1829 54.5959 24.4585 54.5959 24.7985C54.5964 25.1381 54.3203 25.4141 53.9802 25.4141Z" fill="#FFD15C"></path></g></g></g><g id="Group_50"><g id="Group_51"><g id="Group_52"><path id="Vector_14" d="M8.70682 25.4141H5.61563C5.27561 25.4141 5 25.1385 5 24.7985C5 24.4585 5.27561 24.1829 5.61563 24.1829H8.70682C9.04683 24.1829 9.32245 24.4585 9.32245 24.7985C9.3229 25.1381 9.04683 25.4141 8.70682 25.4141Z" fill="#FFD15C"></path></g></g></g><g id="Group_53"><g id="Group_54"><g id="Group_55"><path id="Vector_15" d="M50.1679 19.9537C49.8954 19.9537 49.6468 19.7727 49.573 19.4975C49.4847 19.1692 49.6797 18.831 50.0084 18.7428L52.9961 17.9411C53.3352 17.8556 53.6631 18.0492 53.7504 18.3766C53.8387 18.7049 53.6437 19.0431 53.3149 19.1314L50.3273 19.933C50.2737 19.947 50.2201 19.9537 50.1679 19.9537Z" fill="#FFD15C"></path></g></g></g><g id="Group_56"><g id="Group_57"><g id="Group_58"><path id="Vector_16" d="M6.43449 31.6694C6.16203 31.6694 5.91345 31.4883 5.83959 31.2132C5.75132 30.8844 5.94632 30.5466 6.27507 30.4584L9.26267 29.6572C9.59953 29.5716 9.92918 29.7653 10.017 30.0927C10.1053 30.4214 9.91027 30.7592 9.58152 30.8475L6.59392 31.6486C6.54033 31.6626 6.48628 31.6694 6.43449 31.6694Z" fill="#FFD15C"></path></g></g></g><g id="Group_59"><g id="Group_60"><g id="Group_61"><path id="Vector_17" d="M48.062 14.865C47.8486 14.865 47.6419 14.7547 47.528 14.5574C47.3582 14.2629 47.4581 13.8864 47.7531 13.7157L50.4264 12.1706C50.7213 12.0003 51.0974 12.1016 51.2676 12.3953C51.4374 12.6898 51.3374 13.0663 51.0424 13.237L48.3692 14.7821C48.2723 14.8384 48.1665 14.865 48.062 14.865Z" fill="#FFD15C"></path></g></g></g><g id="Group_62"><g id="Group_63"><g id="Group_64"><path id="Vector_18" d="M8.857 37.5023C8.64354 37.5023 8.43681 37.392 8.32287 37.1948C8.15309 36.9002 8.25307 36.5237 8.54805 36.353L11.2213 34.8075C11.5172 34.6368 11.8932 34.7386 12.0626 35.0322C12.2328 35.3267 12.1324 35.7032 11.8374 35.8739L9.16412 37.4195C9.06684 37.4758 8.96103 37.5023 8.857 37.5023Z" fill="#FFD15C"></path></g></g></g><g id="Group_65"><g id="Group_66"><g id="Group_67"><path id="Vector_19" d="M44.7086 10.4982C44.5505 10.4982 44.3934 10.4379 44.2731 10.3176C44.0327 10.0776 44.0327 9.68757 44.2731 9.44663L46.4591 7.2602C46.6996 7.01971 47.0896 7.01971 47.3301 7.2602C47.5706 7.50023 47.5706 7.89022 47.3301 8.13116L45.1441 10.3176C45.0238 10.4383 44.8667 10.4982 44.7086 10.4982Z" fill="#FFD15C"></path></g></g></g><g id="Group_68"><g id="Group_69"><g id="Group_70"><path id="Vector_20" d="M12.6964 42.5104C12.5383 42.5104 12.3812 42.4501 12.2609 42.3298C12.0204 42.0893 12.0204 41.6998 12.2609 41.4588L14.4474 39.2724C14.6878 39.0319 15.0779 39.0319 15.3183 39.2724C15.5588 39.5129 15.5588 39.9024 15.3183 40.1434L13.1319 42.3298C13.0112 42.4505 12.854 42.5104 12.6964 42.5104Z" fill="#FFD15C"></path></g></g></g><g id="Group_71"><g id="Group_72"><g id="Group_73"><path id="Vector_21" d="M40.3409 7.14393C40.2369 7.14393 40.1306 7.11734 40.0329 7.06149C39.7388 6.89126 39.6384 6.51434 39.8081 6.21981L41.3542 3.54699C41.5258 3.25291 41.9004 3.15203 42.1963 3.32226C42.4904 3.49249 42.5909 3.86944 42.4206 4.16397L40.8746 6.83679C40.7602 7.03404 40.5535 7.14393 40.3409 7.14393Z" fill="#FFD15C"></path></g></g></g><g id="Group_74"><g id="Group_75"><g id="Group_76"><path id="Vector_22" d="M17.7039 46.3564C17.5999 46.3564 17.4941 46.3298 17.3968 46.2744C17.1023 46.1046 17.0014 45.7277 17.1716 45.4327L18.7167 42.754C18.887 42.4599 19.263 42.3577 19.558 42.5288C19.8521 42.6986 19.9534 43.0751 19.7832 43.3701L18.238 46.0488C18.1241 46.2465 17.9174 46.3564 17.7039 46.3564Z" fill="#FFD15C"></path></g></g></g><g id="Group_77"><g id="Group_78"><g id="Group_79"><path id="Vector_23" d="M35.2533 5.03823C35.2011 5.03823 35.1466 5.03148 35.0939 5.01707C34.7652 4.9288 34.5702 4.59149 34.6584 4.26274L35.4596 1.28052C35.5488 0.953118 35.8861 0.757665 36.2144 0.845483C36.5432 0.933752 36.7382 1.27106 36.6499 1.59981L35.8487 4.58203C35.7749 4.85674 35.5254 5.03823 35.2533 5.03823Z" fill="#FFD15C"></path></g></g></g><g id="Group_80"><g id="Group_81"><g id="Group_82"><path id="Vector_24" d="M29.7973 4.32246C29.4573 4.32246 29.1816 4.0464 29.1816 3.70639V0.615629C29.1816 0.275615 29.4573 0 29.7973 0C30.1373 0 30.4129 0.275615 30.4129 0.615629V3.70639C30.4133 4.0464 30.1373 4.32246 29.7973 4.32246Z" fill="#FFD15C"></path></g></g></g><g id="Group_83"><g id="Group_84"><g id="Group_85"><path id="Vector_25" d="M24.3387 5.03822C24.0667 5.03822 23.818 4.85762 23.7437 4.58246L22.9421 1.60027C22.8539 1.27196 23.0489 0.933731 23.3776 0.845913C23.705 0.757194 24.0432 0.951757 24.1319 1.28051L24.934 4.26273C25.0223 4.59103 24.8273 4.92924 24.4985 5.01705C24.4454 5.03147 24.3918 5.03822 24.3387 5.03822Z" fill="#FFD15C"></path></g></g></g><g id="Group_86"><g id="Group_87"><g id="Group_88"><path id="Vector_26" d="M41.8882 46.3565C41.6747 46.3565 41.468 46.2462 41.3541 46.0485L39.808 43.3698C39.6382 43.0753 39.7391 42.6988 40.0332 42.5285C40.33 42.3579 40.7051 42.4601 40.8745 42.7537L42.4205 45.4324C42.5907 45.7269 42.4894 46.1034 42.1953 46.2736C42.0985 46.3304 41.9927 46.3565 41.8882 46.3565Z" fill="#FFD15C"></path></g></g></g><g id="Group_89"><g id="Group_90"><g id="Group_91"><path id="Vector_27" d="M19.251 7.14409C19.0375 7.14409 18.8308 7.03373 18.7168 6.83648L17.1717 4.16366C17.0015 3.86913 17.1019 3.49266 17.3969 3.32198C17.6919 3.15085 18.0679 3.25351 18.2381 3.54669L19.7833 6.21951C19.9535 6.51403 19.8531 6.89053 19.5581 7.06122C19.4608 7.11796 19.355 7.14409 19.251 7.14409Z" fill="#FFD15C"></path></g></g></g><g id="Group_92"><g id="Group_93"><g id="Group_94"><path id="Vector_28" d="M46.8946 42.5104C46.7365 42.5104 46.5794 42.4501 46.4591 42.3298L44.2731 40.1434C44.0327 39.9029 44.0327 39.5129 44.2731 39.2724C44.5136 39.0319 44.9036 39.0319 45.1441 39.2724L47.3301 41.4588C47.5706 41.6993 47.5706 42.0889 47.3301 42.3298C47.2098 42.4505 47.0527 42.5104 46.8946 42.5104Z" fill="#FFD15C"></path></g></g></g><g id="Group_95"><g id="Group_96"><g id="Group_97"><path id="Vector_29" d="M14.8828 10.4982C14.7248 10.4982 14.5676 10.4379 14.4474 10.3176L12.2609 8.13116C12.0204 7.89067 12.0204 7.50068 12.2609 7.2602C12.5014 7.01971 12.8909 7.01971 13.1319 7.2602L15.3183 9.44663C15.5588 9.68712 15.5588 10.0767 15.3183 10.3176C15.1981 10.4383 15.0409 10.4982 14.8828 10.4982Z" fill="#FFD15C"></path></g></g></g><g id="Group_98"><g id="Group_99"><g id="Group_100"><path id="Vector_30" d="M50.7347 37.5024C50.6307 37.5024 50.5244 37.4759 50.4276 37.42L47.7543 35.8744C47.4593 35.7042 47.3589 35.3277 47.5291 35.0327C47.6989 34.7387 48.0754 34.6369 48.3704 34.808L51.0436 36.3536C51.3386 36.5238 51.439 36.9003 51.2688 37.1953C51.1549 37.3921 50.9477 37.5024 50.7347 37.5024Z" fill="#FFD15C"></path></g></g></g><g id="Group_101"><g id="Group_102"><g id="Group_103"><path id="Vector_31" d="M11.5286 14.8652C11.4242 14.8652 11.3188 14.8387 11.2215 14.7828L8.54825 13.2377C8.25327 13.0674 8.15284 12.6909 8.32307 12.396C8.49241 12.1023 8.86754 12.0006 9.16432 12.1712L11.8376 13.7164C12.1326 13.8866 12.233 14.2631 12.0628 14.5581C11.9488 14.7549 11.7421 14.8652 11.5286 14.8652Z" fill="#FFD15C"></path></g></g></g><g id="Group_104"><g id="Group_105"><g id="Group_106"><path id="Vector_32" d="M9.42209 19.9535C9.36985 19.9535 9.31626 19.9468 9.26267 19.9328L6.27507 19.1312C5.94632 19.0429 5.75132 18.7052 5.83959 18.3764C5.92786 18.049 6.262 17.8545 6.59436 17.9409L9.58198 18.7426C9.91074 18.8308 10.1057 19.1686 10.0175 19.4973C9.94315 19.7725 9.69365 19.9535 9.42209 19.9535Z" fill="#FFD15C"></path></g></g></g><g id="Group_107"><g id="Group_108"><g id="Group_109"><path id="Vector_33" d="M53.1555 31.6696C53.1033 31.6696 53.0497 31.6628 52.9961 31.6489L50.0084 30.8477C49.6797 30.7594 49.4847 30.4221 49.573 30.0929C49.6622 29.7655 49.9949 29.5719 50.3277 29.6574L53.3154 30.4586C53.6441 30.5469 53.8391 30.8842 53.7509 31.2134C53.6766 31.4886 53.4275 31.6696 53.1555 31.6696Z" fill="#FFD15C"></path></g></g></g></g></g></g><defs><clipPath id="clip0_295_8155"><rect width="60" height="60" fill="white" transform="translate(0.5)"></rect></clipPath></defs></svg>