<svg xmlns="http://www.w3.org/2000/svg" width="61" height="60" viewBox="0 0 61 60" fill="none"><g id="Frame 130"><rect width="60" height="60" transform="translate(0.5)" fill="white"></rect><g id="Group"><g id="Group_2"><g id="Group_3"><g id="Group_4"><g id="Group_5"><path id="Vector" d="M16.2619 58.5518H12.4087L15.3286 50.5903H19.1809L16.2619 58.5518Z" fill="#058789"></path></g></g></g><g id="Group_6"><g id="Group_7"><g id="Group_8"><path id="Vector_2" d="M44.7383 58.5518H48.5906L45.6716 50.5903H41.8193L44.7383 58.5518Z" fill="#058789"></path></g></g></g></g><g id="Group_9"><g id="Group_10"><g id="Group_11"><g id="Group_12"><path id="Vector_3" d="M30.5008 57.5272C44.5472 57.5272 55.9341 46.1404 55.9341 32.0939C55.9341 18.0475 44.5472 6.66064 30.5008 6.66064C16.4544 6.66064 5.06738 18.0475 5.06738 32.0939C5.06738 46.1404 16.4544 57.5272 30.5008 57.5272Z" fill="#243239"></path></g></g></g><g id="Group_13"><g id="Group_14"><g id="Group_15"><path id="Vector_4" d="M30.5002 53.6559C42.4087 53.6559 52.0623 44.0022 52.0623 32.0937C52.0623 20.1852 42.4087 10.5315 30.5002 10.5315C18.5917 10.5315 8.93799 20.1852 8.93799 32.0937C8.93799 44.0022 18.5917 53.6559 30.5002 53.6559Z" fill="white"></path></g></g></g><g id="Group_16"><g id="Group_17"><g id="Group_18"><g id="Group_19"><path id="Vector_5" d="M50.2613 32.735H47.7303C47.377 32.735 47.0894 32.4483 47.0894 32.0941C47.0894 31.7399 47.3761 31.4531 47.7303 31.4531H50.2613C50.6155 31.4531 50.9023 31.7399 50.9023 32.0941C50.9023 32.4483 50.6155 32.735 50.2613 32.735Z" fill="#243239"></path></g></g></g><g id="Group_20"><g id="Group_21"><g id="Group_22"><path id="Vector_6" d="M13.2655 32.735H10.7392C10.3859 32.735 10.0981 32.4483 10.0981 32.0941C10.0981 31.7399 10.385 31.4531 10.7392 31.4531H13.2655C13.6197 31.4531 13.9065 31.7399 13.9065 32.0941C13.9065 32.4483 13.6197 32.735 13.2655 32.735Z" fill="#243239"></path></g></g></g><g id="Group_23"><g id="Group_24"><g id="Group_25"><path id="Vector_7" d="M47.1469 28.2728C46.8629 28.2728 46.6043 28.0845 46.5274 27.7987C46.4356 27.4566 46.639 27.1052 46.9792 27.0134L49.4202 26.3583C49.7688 26.2693 50.1155 26.4689 50.2064 26.811C50.2983 27.153 50.0949 27.5044 49.7529 27.5962L47.3118 28.2512C47.2565 28.2662 47.2012 28.2728 47.1469 28.2728Z" fill="#243239"></path></g></g></g><g id="Group_26"><g id="Group_27"><g id="Group_28"><path id="Vector_8" d="M11.4091 37.8468C11.1251 37.8468 10.8665 37.6584 10.7896 37.3717C10.6978 37.0296 10.9012 36.6783 11.2432 36.5865L13.6843 35.9324C14.03 35.8387 14.3768 36.0439 14.4686 36.385C14.5605 36.727 14.3571 37.0784 14.0151 37.1702L11.574 37.8243C11.5187 37.8403 11.4634 37.8468 11.4091 37.8468Z" fill="#243239"></path></g></g></g><g id="Group_29"><g id="Group_30"><g id="Group_31"><path id="Vector_9" d="M45.4241 24.115C45.2039 24.115 44.9884 24.0007 44.8704 23.7945C44.6914 23.4881 44.7973 23.0964 45.1037 22.9193L47.288 21.6571C47.585 21.4799 47.9852 21.583 48.1623 21.8913C48.3412 22.1977 48.2354 22.5894 47.929 22.7665L45.7446 24.0288C45.6444 24.0878 45.5347 24.115 45.4241 24.115Z" fill="#243239"></path></g></g></g><g id="Group_32"><g id="Group_33"><g id="Group_34"><path id="Vector_10" d="M13.3864 42.6128C13.1662 42.6128 12.9506 42.4976 12.8307 42.2923C12.6536 41.9859 12.7585 41.5942 13.0659 41.4171L15.2512 40.1549C15.5501 39.9777 15.9456 40.0808 16.1274 40.3891C16.3045 40.6955 16.1995 41.0873 15.8921 41.2644L13.7069 42.5266C13.6066 42.5856 13.496 42.6128 13.3864 42.6128Z" fill="#243239"></path></g></g></g><g id="Group_35"><g id="Group_36"><g id="Group_37"><path id="Vector_11" d="M42.6842 20.5475C42.5202 20.5475 42.3571 20.4847 42.2315 20.36C41.9813 20.1108 41.9795 19.7041 42.2297 19.4539L44.0149 17.6669C44.2651 17.4167 44.6708 17.4167 44.921 17.6669C45.1712 17.9162 45.1731 18.3228 44.9229 18.573L43.1377 20.36C43.0122 20.4847 42.8472 20.5475 42.6842 20.5475Z" fill="#243239"></path></g></g></g><g id="Group_38"><g id="Group_39"><g id="Group_40"><path id="Vector_12" d="M16.5236 46.7049C16.3605 46.7049 16.1947 46.6421 16.07 46.5175C15.8217 46.2673 15.8217 45.8616 16.07 45.6114L17.857 43.8244C18.1072 43.5742 18.5149 43.5742 18.7651 43.8244C19.0134 44.0746 19.0134 44.4803 18.7651 44.7305L16.9781 46.5175C16.8525 46.6431 16.6866 46.7049 16.5236 46.7049Z" fill="#243239"></path></g></g></g><g id="Group_41"><g id="Group_42"><g id="Group_43"><path id="Vector_13" d="M39.1158 17.805C39.0053 17.805 38.8956 17.7778 38.7953 17.7188C38.488 17.5407 38.383 17.15 38.562 16.8436L39.8252 14.6592C40.0023 14.3499 40.3977 14.2487 40.6995 14.4249C41.0068 14.603 41.1118 14.9937 40.9328 15.3002L39.6696 17.4845C39.5515 17.6906 39.3361 17.805 39.1158 17.805Z" fill="#243239"></path></g></g></g><g id="Group_44"><g id="Group_45"><g id="Group_46"><path id="Vector_14" d="M20.6173 49.848C20.5068 49.848 20.399 49.8209 20.2968 49.7618C19.9895 49.5847 19.8845 49.193 20.0616 48.8866L21.3248 46.6985C21.5048 46.393 21.8917 46.289 22.201 46.4642C22.5083 46.6413 22.6133 47.033 22.4361 47.3394L21.1731 49.5276C21.0522 49.7328 20.8376 49.848 20.6173 49.848Z" fill="#243239"></path></g></g></g><g id="Group_47"><g id="Group_48"><g id="Group_49"><path id="Vector_15" d="M34.9588 16.0839C34.9035 16.0839 34.8482 16.0774 34.792 16.0624C34.4519 15.9705 34.2475 15.6192 34.3394 15.2771L34.9935 12.8407C35.0872 12.4996 35.4339 12.2953 35.7797 12.3881C36.1198 12.4799 36.3232 12.8313 36.2323 13.1733L35.5782 15.6107C35.5014 15.8956 35.2427 16.0839 34.9588 16.0839Z" fill="#243239"></path></g></g></g><g id="Group_50"><g id="Group_51"><g id="Group_52"><path id="Vector_16" d="M25.3836 51.8225C25.3283 51.8225 25.274 51.8159 25.2187 51.8009C24.8766 51.7091 24.6734 51.3577 24.7652 51.0157L25.4193 48.5746C25.513 48.2335 25.8681 48.0292 26.2036 48.122C26.5456 48.2138 26.749 48.5652 26.6571 48.9073L26.003 51.3484C25.9262 51.6332 25.6676 51.8225 25.3836 51.8225Z" fill="#243239"></path></g></g></g><g id="Group_53"><g id="Group_54"><g id="Group_55"><path id="Vector_17" d="M30.4988 15.5002C30.1456 15.5002 29.8579 15.2135 29.8579 14.8592V12.3338C29.8579 11.9796 30.1446 11.6929 30.4988 11.6929C30.8531 11.6929 31.1399 11.9796 31.1399 12.3338V14.8592C31.1399 15.2125 30.8531 15.5002 30.4988 15.5002Z" fill="#243239"></path></g></g></g><g id="Group_56"><g id="Group_57"><g id="Group_58"><path id="Vector_18" d="M30.4988 52.4959C30.1456 52.4959 29.8579 52.2092 29.8579 51.8549V49.3248C29.8579 48.9706 30.1446 48.6838 30.4988 48.6838C30.8531 48.6838 31.1399 48.9706 31.1399 49.3248V51.8549C31.1399 52.2092 30.8531 52.4959 30.4988 52.4959Z" fill="#243239"></path></g></g></g><g id="Group_59"><g id="Group_60"><g id="Group_61"><path id="Vector_19" d="M35.612 51.8223C35.328 51.8223 35.0694 51.634 34.9925 51.3472L34.3385 48.9061C34.2466 48.5641 34.45 48.2127 34.792 48.1208C35.1322 48.0271 35.4864 48.2324 35.5764 48.5735L36.2305 51.0146C36.3223 51.3566 36.1189 51.708 35.7769 51.7998C35.7216 51.8148 35.6673 51.8223 35.612 51.8223Z" fill="#243239"></path></g></g></g><g id="Group_62"><g id="Group_63"><g id="Group_64"><path id="Vector_20" d="M26.0377 16.084C25.7538 16.084 25.4952 15.8957 25.4183 15.6098L24.7642 13.1725C24.6724 12.8305 24.8758 12.479 25.2169 12.3872C25.5674 12.2935 25.9122 12.4987 26.0031 12.8398L26.6572 15.2762C26.749 15.6183 26.5456 15.9697 26.2045 16.0615C26.1483 16.0774 26.093 16.084 26.0377 16.084Z" fill="#243239"></path></g></g></g><g id="Group_65"><g id="Group_66"><g id="Group_67"><path id="Vector_21" d="M40.3796 49.848C40.1594 49.848 39.9438 49.7328 39.8239 49.5276L38.5607 47.3394C38.3836 47.033 38.4885 46.6413 38.7959 46.4642C39.106 46.289 39.4931 46.393 39.6721 46.6985L40.9352 48.8866C41.1123 49.193 41.0064 49.5847 40.7 49.7618C40.5997 49.8209 40.4883 49.848 40.3796 49.848Z" fill="#243239"></path></g></g></g><g id="Group_68"><g id="Group_69"><g id="Group_70"><path id="Vector_22" d="M21.8798 17.8055C21.6596 17.8055 21.4441 17.6911 21.326 17.485L20.0628 15.3006C19.8848 14.9942 19.9897 14.6034 20.2962 14.4254C20.5951 14.2492 20.9915 14.3504 21.1704 14.6597L22.4336 16.8441C22.6117 17.1505 22.5067 17.5412 22.2003 17.7192C22.1 17.7783 21.9903 17.8055 21.8798 17.8055Z" fill="#243239"></path></g></g></g><g id="Group_71"><g id="Group_72"><g id="Group_73"><path id="Vector_23" d="M44.4703 46.7049C44.3073 46.7049 44.1414 46.6421 44.0168 46.5175L42.2316 44.7305C41.9814 44.4803 41.9833 44.0736 42.2335 43.8244C42.4837 43.5742 42.8894 43.5742 43.1396 43.8244L44.9248 45.6114C45.175 45.8616 45.1732 46.2682 44.923 46.5175C44.7974 46.6431 44.6334 46.7049 44.4703 46.7049Z" fill="#243239"></path></g></g></g><g id="Group_74"><g id="Group_75"><g id="Group_76"><path id="Vector_24" d="M18.3106 20.5475C18.1475 20.5475 17.9817 20.4847 17.857 20.36L16.07 18.573C15.8217 18.3228 15.8217 17.9171 16.07 17.6669C16.3202 17.4167 16.7269 17.4167 16.9781 17.6669L18.7651 19.4539C19.0134 19.7041 19.0134 20.1098 18.7651 20.36C18.6395 20.4847 18.4736 20.5475 18.3106 20.5475Z" fill="#243239"></path></g></g></g><g id="Group_77"><g id="Group_78"><g id="Group_79"><path id="Vector_25" d="M47.6077 42.613C47.4972 42.613 47.3875 42.5859 47.2872 42.5269L45.1029 41.2646C44.7956 41.0875 44.6906 40.6958 44.8696 40.3894C45.0467 40.0811 45.4421 39.978 45.7439 40.1551L47.9282 41.4173C48.2356 41.5944 48.3405 41.9862 48.1615 42.2926C48.0434 42.4978 47.8279 42.613 47.6077 42.613Z" fill="#243239"></path></g></g></g><g id="Group_80"><g id="Group_81"><g id="Group_82"><path id="Vector_26" d="M15.5717 24.115C15.4621 24.115 15.3514 24.0878 15.2512 24.0288L13.0659 22.7665C12.7585 22.5894 12.6536 22.1977 12.8307 21.8913C13.0097 21.583 13.4033 21.4799 13.7069 21.6571L15.8921 22.9193C16.1995 23.0964 16.3045 23.4881 16.1274 23.7945C16.0074 23.9998 15.7919 24.115 15.5717 24.115Z" fill="#243239"></path></g></g></g><g id="Group_83"><g id="Group_84"><g id="Group_85"><path id="Vector_27" d="M13.8497 28.2725C13.7944 28.2725 13.7391 28.2659 13.6848 28.2509L11.2437 27.5959C10.9016 27.5041 10.6983 27.1527 10.7901 26.8107C10.882 26.4696 11.2305 26.269 11.5763 26.358L14.0174 27.0131C14.3576 27.1049 14.5609 27.4563 14.47 27.7984C14.3913 28.0842 14.1327 28.2725 13.8497 28.2725Z" fill="#243239"></path></g></g></g><g id="Group_86"><g id="Group_87"><g id="Group_88"><path id="Vector_28" d="M49.5874 37.8468C49.5321 37.8468 49.4769 37.8402 49.4226 37.8252L46.9814 37.1711C46.6393 37.0793 46.4361 36.7279 46.5279 36.3859C46.6198 36.0448 46.9795 35.8405 47.3122 35.9333L49.7533 36.5874C50.0953 36.6792 50.2986 37.0306 50.2068 37.3726C50.129 37.6584 49.8704 37.8468 49.5874 37.8468Z" fill="#243239"></path></g></g></g></g><g id="Group_89"><g id="Group_90"><g id="Group_91"><g id="Group_92"><g id="Group_93"><path id="Vector_29" d="M25.4099 43.1254C25.2759 43.1676 25.124 43.1545 24.9928 43.0777C24.7445 42.9324 24.662 42.6129 24.8063 42.3655L30.7062 32.3125C30.8552 32.0651 31.171 31.9826 31.4184 32.126C31.6667 32.2713 31.7483 32.5908 31.6039 32.8382L25.7041 42.8921C25.6357 43.0083 25.5289 43.0889 25.4099 43.1254Z" fill="#E3A72F"></path></g></g></g></g><g id="Group_94"><g id="Group_95"><g id="Group_96"><g id="Group_97"><path id="Vector_30" d="M43.7962 29.1892L31.3095 33.0725C31.035 33.1578 30.7436 33.0041 30.6583 32.7305C30.573 32.4559 30.7267 32.1645 31.0003 32.0792L43.4869 28.1959C43.7615 28.1106 44.053 28.2643 44.1382 28.5379C44.2235 28.8125 44.0708 29.1039 43.7962 29.1892Z" fill="#D54B1A"></path></g></g></g></g><g id="Group_98"><g id="Group_99"><g id="Group_100"><g id="Group_101"><path id="Vector_31" d="M31.3097 33.0726C31.1635 33.1185 30.9987 33.0988 30.8619 33.0051L18.558 24.5985C18.3209 24.4374 18.26 24.1141 18.423 23.876C18.5833 23.6418 18.9075 23.5781 19.1455 23.7411L31.4494 32.1477C31.6864 32.3089 31.7474 32.6321 31.5843 32.8702C31.5169 32.9704 31.4184 33.0388 31.3097 33.0726Z" fill="#D54B1A"></path></g></g></g></g></g></g><g id="Group_102"><g id="Group_103"><g id="Group_104"><g id="Group_105"><path id="Vector_32" d="M22.8722 4.46618L5.49959 16.9031C2.06519 12.1062 3.16343 5.43136 7.96034 1.99696C12.7573 -1.43743 19.4378 -0.331671 22.8722 4.46618Z" fill="#F77C5B"></path></g></g></g><g id="Group_106"><g id="Group_107"><g id="Group_108"><path id="Vector_33" d="M38.1279 4.46618L55.5005 16.9031C58.9349 12.1062 57.8367 5.43136 53.0398 1.99696C48.2429 -1.43743 41.5623 -0.331671 38.1279 4.46618Z" fill="#F77C5B"></path></g></g></g></g></g></g></svg>