<svg xmlns="http://www.w3.org/2000/svg" width="61" height="60" viewBox="0 0 61 60" fill="none"><path d="M12.9628 57.3413C18.1393 59.9195 29.6751 59.9059 34.786 57.2992C35.6466 56.8615 36.1503 56.0432 36.1503 55.1803V48.8209C36.1503 47.8669 37.5828 47.7733 38.1525 47.7733C38.296 47.7733 38.3854 47.7799 38.3854 47.7799C38.3854 47.7799 38.6848 47.7907 39.1711 47.7907C41.2878 47.7907 46.989 47.5722 47.5003 45.2508C48.1285 42.4005 47.4153 36.7129 47.4153 36.7129C47.4153 36.7129 50.0787 35.8212 52.317 34.7012C54.5489 33.5882 53.1761 31.9153 53.1761 31.9153C47.6671 24.4863 47.5587 22.6082 47.5587 22.6082C45.3269 6.20648 29.831 5.05519 25.5103 5.05519C24.8019 5.05519 24.2463 5.07988 23.9614 5.07988C20.7947 5.07988 1.452 5.78235 1.35771 22.8827C1.35771 22.9248 1.35449 22.9628 1.35449 23.0076C1.35449 37.4332 7.79225 38.859 10.1482 43.348C12.5772 47.9785 12.1553 52.9091 11.7725 55.1598C11.6278 56.0255 12.0795 56.9064 12.9628 57.3413Z" fill="#F0BD5E"></path><path d="M13.386 56.7058C18.3268 59.1615 29.4943 59.1413 34.3501 56.6661C34.9356 56.3673 35.2958 55.7963 35.2958 55.1808V48.8214C35.2958 47.9585 36.0485 47.0358 38.1527 47.0358C38.3291 47.0358 38.4424 47.0466 38.4565 47.0466C38.4581 47.0466 38.7192 47.0574 39.1713 47.0574C42.6857 47.0574 46.3674 46.4555 46.6631 45.1152C47.2615 42.401 46.5753 36.8491 46.5656 36.7962C46.5249 36.4633 46.7465 36.1494 47.1072 36.0284C47.1322 36.02 49.7372 35.1436 51.8905 34.0657C52.3627 33.8294 52.6411 33.5574 52.7185 33.2585C52.8333 32.8058 52.4856 32.3424 52.4808 32.3396C46.9859 24.9325 46.7199 22.8585 46.7058 22.6466C44.5779 7.01034 29.9444 5.79363 25.5104 5.79363C25.0857 5.79363 24.7158 5.80059 24.431 5.8072C24.2355 5.80999 24.0784 5.81416 23.9615 5.81416C20.3464 5.81416 2.30235 6.64188 2.20927 22.8857C2.20927 22.8968 2.20766 22.966 2.20766 22.9726C2.20605 33.2543 5.52869 36.7649 8.19816 39.5838C9.24822 40.6927 10.2398 41.7365 10.9244 43.0454C13.4005 47.7668 13.0479 52.7318 12.618 55.265C12.5189 55.8495 12.8291 56.4271 13.386 56.7058ZM23.8266 60C19.5357 60 15.2419 59.3288 12.5346 57.9792C11.3761 57.4017 10.731 56.2246 10.9325 55.0556C11.3338 52.6761 11.6691 48.0319 9.37111 43.6501C8.77758 42.5193 7.89756 41.5911 6.87933 40.5159C4.0366 37.5164 0.5 33.7762 0.5 23.0081C0.5 22.9946 0.504833 22.9253 0.504833 22.9142C0.607179 4.86292 21.5725 4.34346 23.9615 4.34346C24.0655 4.34346 24.2122 4.33963 24.3866 4.33546C24.684 4.3285 25.0684 4.3191 25.5104 4.3191C30.3002 4.3191 46.1075 5.63324 48.4058 22.5242C48.4199 22.6223 48.733 24.5602 53.8959 31.5188C53.9539 31.5881 54.6591 32.485 54.3851 33.5709C54.2025 34.2915 53.6517 34.8892 52.7435 35.3419C51.0987 36.1668 49.2589 36.8589 48.3269 37.1904C48.4905 38.714 48.8733 42.9692 48.3394 45.3897C47.735 48.1189 42.3364 48.5295 39.1713 48.5295C38.6612 48.5295 38.3481 48.5145 38.3481 48.5145C38.307 48.5145 38.2441 48.5117 38.1527 48.5117C37.6776 48.5117 37.0055 48.6053 37.0055 48.8214V55.1808C37.0055 56.3182 36.3189 57.3731 35.2189 57.9371C32.5196 59.3111 28.1751 60 23.8266 60Z" fill="#7A4720"></path><path d="M36.7735 24.4735C36.7735 30.7049 30.9264 35.7527 23.7142 35.7527C16.5008 35.7527 10.6533 30.7049 10.6533 24.4735C10.6533 18.2449 16.5008 13.1971 23.7142 13.1971C30.9264 13.1971 36.7735 18.2449 36.7735 24.4735Z" fill="white"></path><path d="M30.8968 24.4732C30.8968 27.8996 27.683 30.6803 23.7149 30.6803C19.7483 30.6803 16.5312 27.8996 16.5312 24.4732C16.5312 21.0496 19.7483 18.2731 23.7149 18.2731C27.683 18.2731 30.8968 21.0496 30.8968 24.4732Z" fill="#F0BD5E"></path><path d="M28.1048 0.733989H19.3252V7.10424C19.3252 8.52031 20.6646 9.67578 22.2997 9.67578H25.1299C26.7639 9.67578 28.1048 8.52031 28.1048 7.10424V0.733989Z" fill="white"></path><path d="M56.2141 49.5484C54.8482 49.5484 53.7369 48.6188 53.6535 47.4543C54.9961 47.8158 55.8539 47.9991 56.0143 48.0346C56.0836 48.0482 56.1513 48.0548 56.2174 48.0548C56.603 48.0548 56.9511 47.8251 57.0454 47.4922C57.1554 47.0952 56.8737 46.6985 56.4156 46.6008C56.3765 46.5938 55.5203 46.4105 54.1257 46.0271C54.5947 45.4631 55.3535 45.0908 56.2141 45.0908C57.6373 45.0908 58.7942 46.0897 58.7942 47.3182C58.7942 48.5429 57.6373 49.5484 56.2141 49.5484ZM23.7147 35.0186C16.9828 35.0186 11.5052 30.2874 11.5052 24.4732C11.5052 19.5329 15.4766 15.3807 20.803 14.25V18.0146C17.8108 19.0246 15.6781 21.5401 15.6781 24.4732C15.6781 28.3004 19.284 31.414 23.7147 31.414C24.5991 31.414 25.4493 31.2849 26.2455 31.0553C27.0168 32.114 27.8589 33.1185 28.7639 34.059C27.2215 34.6678 25.5186 35.0186 23.7147 35.0186ZM23.7147 19.011C27.2041 19.011 30.0436 21.4601 30.0436 24.4732C30.0436 27.4932 27.2041 29.9423 23.7147 29.9423C20.2236 29.9423 17.3841 27.4932 17.3841 24.4732C17.3841 21.4601 20.2236 19.011 23.7147 19.011ZM24.9203 13.989V17.6259C24.527 17.5702 24.1257 17.5351 23.7147 17.5351C23.3041 17.5351 22.9028 17.5702 22.5091 17.6259V13.989C22.9056 13.9549 23.3069 13.9347 23.7147 13.9347C24.1225 13.9347 24.5238 13.9549 24.9203 13.989ZM23.7147 12.4626C23.3069 12.4626 22.9072 12.4873 22.5091 12.5145V10.3956C22.5675 10.3998 22.6239 10.4092 22.6852 10.4092H24.7442C24.8038 10.4092 24.8623 10.3998 24.9203 10.3956V12.5145C24.5238 12.4873 24.1225 12.4626 23.7147 12.4626ZM20.1797 6.77365V1.47189H27.2501V6.77365C27.2501 7.96426 26.1247 8.93742 24.7442 8.93742H22.6852C21.3051 8.93742 20.1797 7.96426 20.1797 6.77365ZM35.9225 24.4732C35.9225 28.1915 33.6782 31.4561 30.3035 33.3346C29.4062 32.4265 28.5705 31.4561 27.8102 30.4328C30.1633 29.2259 31.7513 27.0092 31.7513 24.4732C31.7513 21.5401 29.6189 19.0246 26.6267 18.0146V14.25C31.9544 15.3807 35.9225 19.5329 35.9225 24.4732ZM56.2141 43.6159C54.5996 43.6159 53.2066 44.4057 52.4777 45.5473C47.3072 43.9816 38.1089 40.543 31.4604 34.4518C35.1763 32.2908 37.6274 28.6264 37.6274 24.4732C37.6274 18.7104 32.9053 13.8885 26.6267 12.7305V10.0056C28.0023 9.40747 28.9561 8.19389 28.9561 6.77365V0.737766C28.9561 0.329994 28.5737 -0.000205994 28.1047 -0.000205994H19.3251C18.8544 -0.000205994 18.4732 0.329994 18.4732 0.737766V6.77365C18.4732 8.19389 19.4274 9.40747 20.803 10.0056V12.7305C14.5244 13.8885 9.80078 18.7104 9.80078 24.4732C9.80078 31.1016 16.0431 36.4903 23.7147 36.4903C25.9498 36.4903 28.0576 36.0199 29.9272 35.2061C36.8984 41.7785 46.5658 45.3667 51.974 46.9772C51.9599 47.0886 51.9317 47.2027 51.9317 47.3182C51.9317 49.3595 53.8549 51.0164 56.2141 51.0164C58.5786 51.0164 60.5002 49.3595 60.5002 47.3182C60.5002 45.2797 58.5786 43.6159 56.2141 43.6159Z" fill="#7A4720"></path></svg>