<svg xmlns="http://www.w3.org/2000/svg" width="60" height="60" viewBox="0 0 60 60" fill="none"><rect width="60" height="60" fill="white"></rect><path d="M56.8903 27.2771L51.1277 20.6551V24.7431H31.6296V10.9193H35.7146L29.0927 5.15674L22.4707 10.9193H26.5557V19.6692H7.89933V15.5842L2.13672 22.2062L7.89933 28.8282V24.7431H26.5557V33.3753H15.21V29.2902L9.4474 35.9122L15.21 42.5342V38.4492H26.5557V53.7887L29.0927 51.9168L31.6296 53.7887V43.5202H42.9753V47.6052L48.7379 40.9832L42.9753 34.3612V38.4492H31.6296V29.8141H51.1277V33.8991L56.8903 27.2771Z" fill="#AA8FA2"></path><path d="M31.6298 54.4096C31.4973 54.4096 31.3678 54.3684 31.2619 54.2889L29.0928 52.6908L26.9267 54.2889C26.7383 54.4272 26.4852 54.4508 26.2763 54.3448C26.0643 54.2389 25.9319 54.024 25.9319 53.7915V39.076H15.8312V42.54C15.8312 42.799 15.6693 43.0315 15.4279 43.1227C15.1837 43.214 14.91 43.1433 14.7393 42.9462L8.97665 36.3242C8.77358 36.0887 8.77358 35.7414 8.97665 35.506L14.7393 28.884C14.91 28.6897 15.1837 28.6191 15.4279 28.7103C15.6693 28.7986 15.8312 29.0311 15.8312 29.2931V32.7571H25.9319V25.367H8.52047V28.831C8.52047 29.09 8.3586 29.3254 8.11726 29.4137C7.87299 29.505 7.59929 29.4343 7.42858 29.2371L1.66598 22.6151C1.4629 22.3826 1.4629 22.0324 1.66598 21.7999L7.42858 15.1779C7.59929 14.9807 7.87299 14.9101 8.11726 15.0013C8.36154 15.0926 8.52047 15.3251 8.52047 15.5841V19.0481H25.9319V11.5432H22.4708C22.2118 11.5432 21.9793 11.3813 21.8881 11.137C21.7968 10.8928 21.8645 10.619 22.0617 10.4513L28.6837 4.68574C28.9192 4.48561 29.2665 4.48561 29.5019 4.68574L36.1239 10.4513C36.3211 10.622 36.3888 10.8928 36.3005 11.137C36.2092 11.3813 35.9767 11.5432 35.7177 11.5432H32.2537V24.1161H50.5069V20.6521C50.5069 20.3931 50.6687 20.1606 50.913 20.0723C51.1543 19.9811 51.431 20.0488 51.5988 20.2459L57.3614 26.8679C57.5644 27.1034 57.5644 27.4507 57.3614 27.6861L51.5988 34.3081C51.4281 34.5024 51.1543 34.5701 50.913 34.4847C50.6687 34.3935 50.5069 34.161 50.5069 33.899V30.4379H32.2537V37.8251H42.3545V34.3611C42.3545 34.1021 42.5163 33.8696 42.7606 33.7784C43.0049 33.6901 43.2786 33.7578 43.4493 33.955L49.2119 40.577C49.415 40.8124 49.415 41.1597 49.2119 41.3951L43.4493 48.0171C43.2786 48.2114 43.0049 48.282 42.7606 48.1908C42.5193 48.0995 42.3545 47.87 42.3545 47.608V44.144H32.2537V53.7886C32.2537 54.0211 32.1213 54.2359 31.9123 54.3419C31.8211 54.386 31.7239 54.4096 31.6298 54.4096ZM29.0928 51.2928C29.2223 51.2928 29.3518 51.334 29.4607 51.4164L31.0029 52.5554V43.523C31.0029 43.1787 31.2825 42.8991 31.6268 42.8991H42.9725C43.3168 42.8991 43.5964 43.1787 43.5964 43.523V45.9422L47.911 40.9831L43.5964 36.0239V38.4461C43.5964 38.7905 43.3168 39.0671 42.9725 39.0671H31.6268C31.2825 39.0671 31.0029 38.7905 31.0029 38.4461V29.811C31.0029 29.4667 31.2825 29.1871 31.6268 29.1871H51.1249C51.4693 29.1871 51.7489 29.4667 51.7489 29.811V32.2303L56.0634 27.2711L51.7489 22.315V24.7342C51.7489 25.0785 51.4693 25.3581 51.1249 25.3581H31.6268C31.2825 25.3581 31.0029 25.0785 31.0029 24.7342V10.9134C31.0029 10.572 31.2825 10.2894 31.6268 10.2894H34.0461L29.0899 5.97481L24.1307 10.2894H26.5529C26.8972 10.2894 27.1739 10.572 27.1739 10.9134V19.6632C27.1739 20.0076 26.8943 20.2871 26.5529 20.2871H7.89654C7.5522 20.2871 7.2726 20.0076 7.2726 19.6632V17.244L2.958 22.2031L7.2726 27.1623V24.7401C7.2726 24.3987 7.5522 24.1191 7.89654 24.1191H26.5529C26.8972 24.1191 27.1739 24.3987 27.1739 24.7401V33.3752C27.1739 33.7195 26.8943 33.9991 26.5529 33.9991H15.2072C14.8629 33.9991 14.5862 33.7195 14.5862 33.3752V30.9559L10.2716 35.9151L14.5862 40.8742V38.452C14.5862 38.1077 14.8658 37.831 15.2072 37.831H26.5529C26.8972 37.831 27.1739 38.1077 27.1739 38.452V52.5583L28.719 51.4194C28.8309 51.334 28.9604 51.2928 29.0928 51.2928Z" fill="#3D2139"></path><path d="M29.0976 49.2119C28.9269 49.2119 28.7679 49.1442 28.6561 49.0324C28.5384 48.9117 28.4766 48.7499 28.4766 48.5909C28.4766 48.432 28.5384 48.2672 28.6561 48.1495C28.8857 47.9199 29.3036 47.9199 29.5331 48.1495C29.6509 48.2672 29.7186 48.4232 29.7186 48.5909C29.7186 48.7528 29.6509 48.9117 29.5331 49.0265C29.4213 49.1442 29.2565 49.2119 29.0976 49.2119Z" fill="#3D2139"></path><path d="M28.4736 43.3138C28.4736 42.9695 28.7473 42.6899 29.0976 42.6899C29.439 42.6899 29.7186 42.9695 29.7186 43.3138C29.7186 43.6552 29.439 43.9348 29.0976 43.9348C28.7473 43.9348 28.4736 43.6552 28.4736 43.3138ZM28.4736 38.0368C28.4736 37.6895 28.7473 37.4129 29.0976 37.4129C29.439 37.4129 29.7186 37.6895 29.7186 38.0368C29.7186 38.3782 29.439 38.6578 29.0976 38.6578C28.7473 38.6578 28.4736 38.3782 28.4736 38.0368ZM28.4736 32.7598C28.4736 32.4125 28.7473 32.1359 29.0976 32.1359C29.439 32.1359 29.7186 32.4125 29.7186 32.7598C29.7186 33.1012 29.439 33.3838 29.0976 33.3838C28.7473 33.3838 28.4736 33.1012 28.4736 32.7598ZM28.4736 27.4828C28.4736 27.1414 28.7473 26.8589 29.0976 26.8589C29.439 26.8589 29.7186 27.1414 29.7186 27.4828C29.7186 27.8242 29.439 28.1068 29.0976 28.1068C28.7473 28.1068 28.4736 27.8242 28.4736 27.4828Z" fill="#3D2139"></path><path d="M29.0976 22.8301C28.9269 22.8301 28.7679 22.7624 28.6561 22.6476C28.5384 22.5299 28.4766 22.368 28.4766 22.2061C28.4766 22.0384 28.5384 21.8854 28.6561 21.7647C28.8857 21.5351 29.3036 21.5351 29.5331 21.7647C29.6509 21.8795 29.7186 22.0413 29.7186 22.2061C29.7186 22.371 29.6509 22.5299 29.5331 22.6476C29.4213 22.7624 29.2565 22.8301 29.0976 22.8301Z" fill="#3D2139"></path><path d="M23.1714 22.206C23.1714 21.8646 23.451 21.585 23.7924 21.585C24.1367 21.585 24.4163 21.8646 24.4163 22.206C24.4163 22.5503 24.1367 22.8299 23.7924 22.8299C23.451 22.8299 23.1714 22.5503 23.1714 22.206ZM17.8738 22.206C17.8738 21.8646 18.1475 21.585 18.4977 21.585C18.8391 21.585 19.1217 21.8646 19.1217 22.206C19.1217 22.5503 18.8421 22.8299 18.4977 22.8299C18.1504 22.8299 17.8738 22.5503 17.8738 22.206ZM12.5732 22.206C12.5732 21.8646 12.8528 21.585 13.1972 21.585C13.5415 21.585 13.8182 21.8646 13.8182 22.206C13.8182 22.5503 13.5386 22.8299 13.1972 22.8299C12.8528 22.8299 12.5732 22.5503 12.5732 22.206Z" fill="#3D2139"></path><path d="M7.90224 22.8301C7.73448 22.8301 7.5785 22.7624 7.46077 22.6476C7.34305 22.5299 7.28125 22.368 7.28125 22.2061C7.28125 22.0384 7.34305 21.8854 7.46077 21.7647C7.69033 21.5351 8.10826 21.5351 8.33782 21.7647C8.45849 21.8854 8.52617 22.0413 8.52617 22.2061C8.52617 22.371 8.45849 22.5299 8.33782 22.6417C8.22598 22.7624 8.06411 22.8301 7.90224 22.8301Z" fill="#3D2139"></path></svg>