<svg xmlns="http://www.w3.org/2000/svg" width="48" height="15" viewBox="0 0 48 15" fill="none"><path d="M6.38153 14.7631C3.14118 14.7631 0.5 12.1219 0.5 8.87542C0.5 5.63507 3.14118 3 6.38153 3C9.62189 3 12.257 5.63507 12.257 8.87542C12.257 12.128 9.62189 14.7631 6.38153 14.7631ZM6.38153 5.58615C4.56571 5.58615 3.09226 7.06572 3.09226 8.87542C3.09226 10.6912 4.56571 12.1708 6.38153 12.1708C8.19735 12.1708 9.67081 10.6912 9.67081 8.87542C9.67081 7.06572 8.19735 5.58615 6.38153 5.58615Z" fill="#3F232C"></path><path d="M24.1323 14.7631C20.898 14.7631 18.2568 12.1219 18.2568 8.87542C18.2568 5.63507 20.898 3 24.1323 3C27.3787 3 30.0138 5.63507 30.0138 8.87542C30.0138 12.128 27.3787 14.7631 24.1323 14.7631ZM24.1323 5.58615C22.3164 5.58615 20.843 7.06572 20.843 8.87542C20.843 10.6912 22.3164 12.1708 24.1323 12.1708C25.9481 12.1708 27.4276 10.6912 27.4276 8.87542C27.4276 7.06572 25.9481 5.58615 24.1323 5.58615Z" fill="#3F232C"></path><path d="M41.8952 14.7631C38.6549 14.7631 36.0137 12.1219 36.0137 8.87542C36.0137 5.63507 38.6549 3 41.8952 3C45.1356 3 47.7767 5.63507 47.7767 8.87542C47.7767 12.128 45.1356 14.7631 41.8952 14.7631ZM41.8952 5.58615C40.0794 5.58615 38.6059 7.06572 38.6059 8.87542C38.6059 10.6912 40.0794 12.1708 41.8952 12.1708C43.711 12.1708 45.1845 10.6912 45.1845 8.87542C45.1845 7.06572 43.711 5.58615 41.8952 5.58615Z" fill="#3F232C"></path></svg>