<svg xmlns="http://www.w3.org/2000/svg" width="57" height="48" viewBox="0 0 57 48" fill="none"><path d="M20.8117 30.0878C22.0211 30.3478 23.3637 30.8503 24.852 31.6454C25.6456 33.1322 26.1461 34.4724 26.4081 35.6798C28.8669 47.1042 9.73153 46.767 9.73153 46.767C9.73153 46.767 9.39286 27.6361 20.8117 30.0878Z" fill="#75C9E8"></path><path d="M42.9758 30.4956C41.1192 32.3501 38.3487 33.4418 35.4139 34.5995C32.4156 35.7814 29.317 37.0027 27.1703 39.1459C27.1493 39.169 27.1218 39.184 27.0952 39.2015C27.3262 38.0808 27.3031 36.8619 27.02 35.5504C26.7426 34.2484 26.1975 32.8352 25.4083 31.3506C25.3794 31.2986 25.3447 31.2524 25.3042 31.2084C25.3007 31.2084 25.2986 31.206 25.2986 31.2039C25.2545 31.1599 25.2025 31.1217 25.1483 31.0942C23.6635 30.2992 22.2482 29.7561 20.9427 29.4766C19.6336 29.1959 18.4147 29.1725 17.2975 29.4038C17.3147 29.3784 17.3286 29.3482 17.3496 29.3251C19.3887 27.2893 20.6135 24.2162 21.7978 21.2445C22.9415 18.3734 24.1258 15.4041 26.0055 13.5229C28.27 11.2584 31.2834 10.012 34.4896 10.012C37.6959 10.012 40.7078 11.2584 42.9722 13.5229C47.6529 18.2024 47.653 25.8163 42.9758 30.4956ZM25.7872 39.2417C24.8558 38.9587 23.6174 38.2192 22.3175 37.147C23.2708 35.9547 24.1454 34.6146 24.8768 33.1126C25.3078 34.06 25.6163 34.9668 25.7988 35.8139C26.0668 37.0639 26.0552 38.2056 25.7872 39.2417ZM24.6319 41.5213C21.2663 45.6137 12.7372 46.084 10.365 46.1336C10.3674 45.9511 10.3745 45.7258 10.3861 45.4753C11.9365 44.9378 17.2801 42.8292 21.5088 38.1039C22.7798 39.1551 24.1409 40.0297 25.3504 40.4121C25.154 40.8016 24.9174 41.1749 24.6319 41.5213ZM17.2534 30.7035C17.7734 30.5671 18.32 30.5015 18.8917 30.5015C19.4602 30.5015 20.0589 30.5671 20.6791 30.7002C21.7226 30.923 22.8513 31.3471 24.0424 31.9363C23.3113 33.5805 22.3905 35.034 21.3645 36.3094C21.1657 36.1224 20.9622 35.9317 20.7637 35.7317C18.9358 33.9041 17.6462 32.0034 17.2534 30.7035ZM14.975 31.8706C15.3252 31.5852 15.6973 31.3471 16.0878 31.1483C16.6388 32.8987 18.2254 34.9645 19.8797 36.6191C20.097 36.8365 20.321 37.0488 20.5499 37.2627C16.8952 41.3122 12.3444 43.3782 10.4656 44.1025C10.7371 40.6052 11.6881 34.5776 14.975 31.8706ZM4.57312 36.7347C4.87718 35.9376 5.59562 35.1091 6.51993 35.0559C6.88728 35.0384 7.22478 35.1691 7.38065 35.3886C7.52292 35.5886 7.55753 35.9142 7.47678 36.2899C7.30346 37.1044 6.69089 37.8264 5.91683 38.1305C5.40277 38.3313 4.81684 38.3523 4.28207 38.2021C4.31668 37.688 4.39979 37.1911 4.57312 36.7347ZM43.8596 12.6391C41.3582 10.1333 38.0307 8.75792 34.4896 8.75792C30.9483 8.75792 27.6208 10.1333 25.1194 12.6391C23.0593 14.6992 21.8265 17.7886 20.633 20.7789C19.4984 23.6326 18.32 26.5845 16.4655 28.4426C16.0786 28.8283 15.9085 29.3136 15.8878 29.8602C15.2871 30.1258 14.713 30.4666 14.1779 30.9058C9.61763 34.6572 9.14969 43.6287 9.10799 46.1336C6.29011 46.0239 5.3948 44.776 4.88872 43.5376C4.43795 42.4249 4.34566 41.1749 4.28769 39.883C4.28207 39.7502 4.27616 39.6174 4.27054 39.4878C4.96946 39.6209 5.70329 39.5597 6.37323 39.2961C7.54954 38.8341 8.43923 37.7838 8.70129 36.5498C8.85746 35.8255 8.7498 35.1576 8.40315 34.6666C7.99882 34.0946 7.25139 33.7654 6.4519 33.808C4.96591 33.8902 3.85231 35.1115 3.40391 36.2899C3.25602 36.6791 3.16138 37.0754 3.09778 37.4777C2.50859 36.848 2.11786 35.8716 1.91348 34.5128C1.5899 32.4018 1.75169 30.5532 2.39648 29.0167C3.15545 27.205 4.63434 25.7261 6.06709 24.2969L6.59062 23.7713C8.32595 22.015 9.98971 20.0531 10.4171 17.5993C10.4772 17.2571 10.2497 16.9347 9.90867 16.8735C9.57148 16.8158 9.24435 17.0412 9.18312 17.3855C8.8134 19.4985 7.29191 21.2815 5.69736 22.8896L5.18094 23.4096C3.6639 24.9266 2.09834 26.4957 1.24117 28.5337C0.509713 30.2841 0.316865 32.3616 0.675052 34.7012C0.981183 36.7172 1.67655 38.0784 2.79962 38.8699C2.86677 38.9161 2.93598 38.961 3.00756 39.0051C3.00756 39.3148 3.02266 39.6254 3.03774 39.9409C3.10133 41.3447 3.2019 42.7139 3.73104 44.0103C4.66896 46.315 6.50397 47.3931 9.49872 47.3931C9.57592 47.3931 9.65459 47.3931 9.73327 47.3931C9.76787 47.3931 9.84507 47.3931 9.96663 47.3931C11.6916 47.3931 21.6014 47.1772 25.5953 42.3187C26.0321 41.7872 26.3729 41.214 26.6388 40.6132C27.1851 40.5937 27.6693 40.4204 28.0576 40.0332C30.0183 38.0713 32.9933 36.8997 35.8736 35.7643C38.7956 34.611 41.8205 33.4187 43.8596 31.3793C49.0265 26.2127 49.0265 17.8037 43.8596 12.6391Z" fill="#2F585A"></path><path d="M48.7288 38.1537C48.5694 38.1537 48.4076 38.0925 48.2863 37.9712L44.1212 33.8037C43.8763 33.5597 43.8763 33.1648 44.1212 32.9187C44.3673 32.6735 44.7601 32.6735 45.005 32.9187L49.1737 37.0847C49.4165 37.3299 49.4165 37.7251 49.1737 37.9712C49.0488 38.0925 48.8906 38.1537 48.7288 38.1537Z" fill="#2F585A"></path><path d="M23.1386 12.5604C22.9768 12.5604 22.8186 12.5004 22.6973 12.3756L18.5286 8.21071C18.286 7.96521 18.286 7.56887 18.5286 7.32337C18.7747 7.08084 19.1698 7.08084 19.4159 7.32337L23.5811 11.4918C23.826 11.7343 23.826 12.133 23.5811 12.3756C23.4598 12.5004 23.3004 12.5604 23.1386 12.5604Z" fill="#2F585A"></path><path d="M33.8523 45.296C33.5056 45.296 33.2246 45.0165 33.2246 44.6687V38.5023C33.2246 38.158 33.5056 37.8785 33.8523 37.8785C34.1977 37.8785 34.4784 38.158 34.4784 38.5023V44.6687C34.4784 45.0165 34.1977 45.296 33.8523 45.296Z" fill="#2F585A"></path><path d="M33.8523 7.41809C33.5056 7.41809 33.2246 7.14006 33.2246 6.794V0.627012C33.2246 0.277994 33.5056 -3.62396e-05 33.8523 -3.62396e-05C34.1977 -3.62396e-05 34.4784 0.277994 34.4784 0.627012V6.794C34.4784 7.14006 34.1977 7.41809 33.8523 7.41809Z" fill="#2F585A"></path><path d="M17.9959 23.2747H11.8286C11.4831 23.2747 11.2021 22.9951 11.2021 22.6485C11.2021 22.3007 11.4831 22.0212 11.8286 22.0212H17.9959C18.3425 22.0212 18.622 22.3007 18.622 22.6485C18.622 22.9951 18.3425 23.2747 17.9959 23.2747Z" fill="#2F585A"></path><path d="M55.8744 23.2748H49.7068C49.3637 23.2748 49.083 22.9953 49.083 22.6486C49.083 22.3008 49.3637 22.0213 49.7068 22.0213H55.8744C56.221 22.0213 56.5005 22.3008 56.5005 22.6486C56.5005 22.9953 56.221 23.2748 55.8744 23.2748Z" fill="#2F585A"></path><path d="M26.288 35.3597C24.6509 36.9948 19.5038 31.8473 21.1421 30.209C23.2241 28.127 24.6127 23.3011 26.7134 21.2005C29.3476 18.5663 26.9384 24.8205 29.3106 27.1879C31.6792 29.5598 37.9319 27.153 35.2977 29.7852C33.1986 31.8843 28.4638 33.1854 26.288 35.3597Z" fill="#75C9E8"></path><path d="M27.4429 21.3738C27.3657 21.4409 27.2699 21.5276 27.1578 21.642C26.1755 22.6217 25.3112 24.3431 24.4736 26.0048C23.599 27.7425 22.6957 29.5423 21.5829 30.6538C21.4362 30.7993 21.4096 31.0537 21.5042 31.4048C21.866 32.7544 23.7436 34.6317 25.0918 34.9958C25.4455 35.0881 25.6996 35.063 25.8463 34.9151C27.0131 33.748 28.8307 32.8375 30.5835 31.9629C32.2067 31.1519 33.8879 30.3107 34.856 29.3403C34.9716 29.227 35.0583 29.1323 35.1207 29.0536C34.8143 29.0247 34.3694 29.0167 34.0148 29.0111C32.3995 28.9901 30.1907 28.959 28.8641 27.6324C27.539 26.3073 27.51 24.0946 27.4834 22.4829C27.4811 22.1271 27.4754 21.6823 27.4429 21.3738ZM25.4686 36.3014C25.2606 36.3014 25.0282 36.2724 24.7685 36.2032C22.9867 35.7273 20.7719 33.511 20.2948 31.7284C20.0233 30.715 20.364 30.1028 20.6991 29.7677C21.666 28.8008 22.5247 27.0929 23.3564 25.4407C24.2381 23.6903 25.1474 21.8822 26.2716 20.7556C26.7821 20.2451 27.3888 19.7564 28.001 20.0046C28.7059 20.29 28.7174 21.1543 28.7369 22.4658C28.7579 23.8636 28.7845 25.7817 29.7514 26.7463C30.7163 27.7147 32.6341 27.7401 34.0322 27.7596C35.3434 27.7803 36.2065 27.7919 36.4931 28.4967C36.7416 29.1093 36.2506 29.7156 35.7386 30.2276C34.6273 31.3391 32.8559 32.2265 31.1437 33.0801C29.4764 33.9156 27.7549 34.7764 26.7301 35.8024C26.4816 36.0494 26.0773 36.3014 25.4686 36.3014Z" fill="#2F585A"></path></svg>