<svg xmlns="http://www.w3.org/2000/svg" width="60" height="60" viewBox="0 0 60 60" fill="none"><rect width="60" height="60" fill="white"></rect><path d="M53.0619 16.4991C48.4114 8.4718 39.7453 3.05176 29.7942 3.05176C19.8431 3.05176 11.1808 8.46806 6.52648 16.4991C4.23669 20.4587 2.89941 25.042 2.89941 29.9503C2.89941 34.8548 4.23295 39.4381 6.52648 43.3977C11.1808 51.4287 19.8431 56.8451 29.7942 56.8451C29.7942 56.8451 29.9548 56.7143 30.2387 56.4603C29.9548 56.7106 29.7942 56.8451 29.7942 56.8451C39.7416 56.8451 48.4076 51.4325 53.0619 43.3977C55.3555 39.4381 56.6927 34.8548 56.6927 29.9503C56.6927 25.042 55.3555 20.4587 53.0619 16.4991Z" fill="#D9B1B5"></path><path d="M57.4771 29.9465C57.4771 25.1017 56.1846 20.3166 53.7454 16.1031C48.7998 7.56402 39.6219 2.25977 29.7941 2.25977C19.9663 2.25977 10.7885 7.56402 5.84281 16.1031C3.39987 20.3204 2.10742 25.1054 2.10742 29.9465C2.10742 34.7838 3.39987 39.5726 5.84281 43.7898C10.7885 52.3252 19.9663 57.6294 29.7941 57.6294C39.6219 57.6294 48.7998 52.3252 53.7454 43.7898C56.1884 39.5726 57.4771 34.7875 57.4771 29.9465ZM51.6499 15.7109H41.1049C40.9106 15.3561 40.7164 15.0087 40.5109 14.6687C40.4848 14.6239 40.4587 14.5828 40.4325 14.538C40.1972 14.1495 39.9656 13.7685 39.7265 13.395C39.6555 13.2829 39.5846 13.1709 39.5136 13.0625C39.2671 12.6853 39.0168 12.3117 38.7703 11.9456C38.7516 11.9195 38.7329 11.8934 38.7142 11.8672C38.449 11.4787 38.1726 11.1014 37.9036 10.7354C37.8327 10.6383 37.7654 10.5449 37.6907 10.4515C37.4554 10.1377 37.2238 9.83142 36.9922 9.53632C36.9474 9.48029 36.9138 9.43173 36.8689 9.37944C36.6037 9.03578 36.3348 8.70707 36.0733 8.38956C36.0061 8.31112 35.9463 8.24013 35.8828 8.15795C35.6587 7.89647 35.4457 7.64246 35.2291 7.39592C35.1768 7.33616 35.1282 7.28014 35.0759 7.22037C34.8257 6.93275 34.5754 6.65633 34.3326 6.38738C34.2803 6.32761 34.2318 6.27533 34.1757 6.21556C33.974 5.99891 33.7835 5.79346 33.593 5.59175C33.537 5.53572 33.4847 5.47967 33.4324 5.42364C33.212 5.19205 32.9991 4.97541 32.7936 4.76623C32.7451 4.71767 32.7077 4.68404 32.6629 4.63921C32.4985 4.47485 32.3454 4.3217 32.196 4.17602C32.1362 4.11999 32.0802 4.06396 32.0241 4.01167C31.9943 3.98179 31.9644 3.94816 31.9382 3.92575C39.9207 4.59811 47.2384 8.95734 51.6499 15.7109ZM30.5823 4.83719C30.6794 4.92684 30.7765 5.01648 30.8774 5.11733C30.9073 5.14348 30.9334 5.16591 30.9596 5.19579C31.1314 5.36388 31.3182 5.54691 31.5049 5.73741C31.561 5.79344 31.617 5.84949 31.673 5.90552C31.8411 6.07735 32.0204 6.26037 32.2034 6.45088C32.2445 6.49197 32.2781 6.52934 32.323 6.57416C32.5396 6.79829 32.76 7.03733 32.9916 7.28387C33.0514 7.3511 33.1111 7.41461 33.1746 7.48558C33.3764 7.70597 33.5781 7.93382 33.7873 8.16915C33.8358 8.22518 33.8769 8.27374 33.9254 8.32604C34.1682 8.60619 34.4185 8.89756 34.6688 9.20012C34.736 9.27483 34.7958 9.34953 34.8593 9.42424C35.0759 9.68571 35.2926 9.95467 35.5167 10.2348C35.569 10.3021 35.6176 10.3618 35.6699 10.4291C35.9276 10.7615 36.1928 11.1015 36.4506 11.4526C36.5141 11.531 36.5701 11.6132 36.6299 11.6916C36.854 11.9905 37.0706 12.3005 37.2948 12.6105C37.3508 12.689 37.4031 12.7674 37.4591 12.8459C37.7169 13.2194 37.9783 13.6004 38.2286 13.9926C38.2846 14.0748 38.3332 14.1644 38.3892 14.2466C38.6021 14.5791 38.8076 14.9153 39.013 15.2589C39.0728 15.356 39.1326 15.4532 39.1924 15.5503C39.226 15.6063 39.2559 15.6624 39.282 15.7184H30.586L30.5823 4.83719ZM30.5823 17.291H40.1486C40.2905 17.5562 40.425 17.8251 40.552 18.0904C40.6454 18.2846 40.75 18.4788 40.8359 18.6693C41.0227 19.0653 41.1945 19.4575 41.3626 19.8497C41.4224 19.9879 41.4821 20.1261 41.5419 20.2606C41.7586 20.7948 41.9565 21.3215 42.1396 21.8519C42.1732 21.9453 42.1993 22.0461 42.2292 22.1433C42.3712 22.5691 42.5056 22.9986 42.6289 23.4245C42.6812 23.6075 42.7223 23.7906 42.7709 23.9699C42.8568 24.3098 42.9427 24.6459 43.0136 24.9821C43.0622 25.1876 43.0958 25.393 43.1369 25.5985C43.1967 25.9085 43.2527 26.2185 43.2975 26.5286C43.3349 26.7452 43.361 26.9582 43.3835 27.1748C43.4208 27.4699 43.4544 27.765 43.4768 28.0601C43.4955 28.2805 43.5104 28.5009 43.5217 28.7212C43.5329 28.8632 43.5329 29.0089 43.5403 29.1508H30.5786L30.5823 17.291ZM30.5823 30.7346H43.5441C43.4059 34.5559 42.2666 38.5416 40.1486 42.6057H30.5823V30.7346ZM29.0022 30.7346V42.6057H19.4359C19.2977 42.3367 19.1632 42.064 19.0325 41.7988C18.9391 41.6046 18.8382 41.4141 18.7523 41.2273C18.5618 40.8314 18.39 40.4317 18.2219 40.032C18.1621 39.9013 18.1023 39.7668 18.0463 39.6361C17.8297 39.1019 17.6317 38.5715 17.4487 38.041C17.415 37.9514 17.3889 37.858 17.3627 37.7721C17.2171 37.3351 17.0788 36.9055 16.9593 36.4685C16.907 36.2854 16.8697 36.1061 16.8211 35.9231C16.7352 35.5832 16.6456 35.2433 16.5746 34.9108C16.5298 34.7016 16.4961 34.4999 16.4551 34.2907C16.3953 33.9844 16.3392 33.6707 16.2907 33.3643C16.2571 33.144 16.2309 32.9348 16.2085 32.7144C16.1712 32.4193 16.1338 32.1242 16.1151 31.8328C16.0927 31.6087 16.0778 31.3921 16.0666 31.168C16.0591 31.026 16.0554 30.884 16.0516 30.7384L29.0022 30.7346ZM16.0479 29.1546C16.1861 25.337 17.3217 21.3476 19.4396 17.2872H29.0059V29.1546H16.0479ZM28.0833 5.72994C28.2738 5.54317 28.4568 5.36015 28.6287 5.19206C28.6623 5.16218 28.6922 5.13228 28.7183 5.10613C28.8192 5.00901 28.9125 4.92311 29.0022 4.83719V15.7109H20.3062C20.3399 15.6549 20.3697 15.5988 20.3996 15.5428C20.4594 15.4457 20.5191 15.3448 20.5789 15.2477C20.7844 14.9078 20.9861 14.5753 21.1953 14.2466C21.255 14.1607 21.3073 14.0673 21.3671 13.9814C21.6173 13.5929 21.8714 13.2157 22.1254 12.8459C22.1889 12.7599 22.2486 12.6703 22.3084 12.5881C22.525 12.2855 22.738 11.9867 22.9546 11.6916C23.0181 11.6094 23.0779 11.5198 23.1414 11.4376C23.3991 11.0902 23.6606 10.7541 23.9183 10.4253C23.9744 10.3506 24.0304 10.2871 24.0865 10.2124C24.3031 9.94348 24.5123 9.67827 24.7252 9.428C24.7924 9.34582 24.8597 9.26363 24.9269 9.18892C25.1734 8.89009 25.4237 8.60246 25.6665 8.32604C25.7151 8.26627 25.7599 8.21398 25.8122 8.15795C26.0176 7.92262 26.2194 7.70223 26.4173 7.48185C26.4808 7.41461 26.5406 7.34737 26.6004 7.28013C26.8319 7.0336 27.0523 6.79079 27.269 6.56667C27.3138 6.52558 27.3474 6.48823 27.3885 6.44714C27.5715 6.25664 27.7471 6.07735 27.9152 5.90552C27.9712 5.84576 28.031 5.78971 28.0833 5.72994ZM27.65 3.92951C27.6164 3.96313 27.579 4.00048 27.5491 4.03036C27.5006 4.07519 27.4558 4.11626 27.4109 4.16109C27.2429 4.32544 27.0673 4.49727 26.8843 4.68031C26.8581 4.71019 26.8319 4.73635 26.8058 4.7625C26.5929 4.97541 26.3762 5.19954 26.1446 5.4386C26.0961 5.48716 26.0513 5.53572 26.0027 5.58802C25.8047 5.7972 25.6067 6.01011 25.3976 6.23423C25.349 6.29026 25.3042 6.33508 25.2556 6.39111C25.0128 6.65633 24.7588 6.93648 24.5048 7.23157C24.4563 7.2876 24.4114 7.34363 24.3629 7.39966C24.1425 7.64619 23.9258 7.90767 23.7054 8.16915C23.6419 8.24759 23.5784 8.31859 23.5149 8.39329C23.2497 8.7108 22.9845 9.03952 22.7155 9.37944C22.6707 9.43547 22.6296 9.49149 22.5886 9.54752C22.357 9.84262 22.1291 10.1414 21.8975 10.4477C21.8228 10.5449 21.7518 10.6457 21.6771 10.7428C21.4082 11.1089 21.1392 11.4825 20.8703 11.8672C20.8516 11.9008 20.8292 11.9307 20.8068 11.9606C20.564 12.3192 20.3174 12.6815 20.0746 13.0588C19.9999 13.1709 19.929 13.2829 19.8542 13.3987C19.6189 13.7685 19.3873 14.1458 19.1557 14.5305C19.1259 14.5791 19.0997 14.6202 19.0736 14.6687C18.8718 15.0087 18.6739 15.3561 18.4796 15.7072H7.93835C12.3498 8.95734 19.6675 4.59814 27.65 3.92951ZM6.98957 17.291H17.6541C17.5981 17.403 17.5533 17.5151 17.4972 17.6272C17.3964 17.8438 17.2955 18.0567 17.1984 18.2734C17.0415 18.6133 16.8921 18.9532 16.7464 19.2894C16.6568 19.5098 16.5671 19.719 16.4812 19.9394C16.3467 20.2868 16.2197 20.6341 16.0927 20.9741C16.018 21.1795 15.9433 21.3775 15.8723 21.5792C15.7416 21.9714 15.6258 22.3636 15.51 22.7521C15.4652 22.9015 15.4166 23.0547 15.3755 23.2078C15.2261 23.7457 15.0954 24.2836 14.9833 24.8215C14.9609 24.9224 14.9459 25.0307 14.9273 25.1315C14.8414 25.5611 14.7629 25.9944 14.6957 26.4277C14.6695 26.6108 14.6508 26.7938 14.6284 26.9768C14.5836 27.328 14.5463 27.6791 14.5164 28.0227C14.5014 28.2245 14.4902 28.4187 14.479 28.6204C14.4678 28.7997 14.4491 28.9753 14.4417 29.1546H3.69497C3.82945 25.0158 4.95752 20.9367 6.98957 17.291ZM3.70244 30.7346H14.4491C14.4566 30.9139 14.4753 31.0932 14.4865 31.2688C14.4977 31.4705 14.5089 31.6685 14.5238 31.8665C14.5537 32.2176 14.5948 32.5687 14.6359 32.9161C14.6583 33.0991 14.677 33.2822 14.7032 33.4615C14.7704 33.8948 14.8451 34.3243 14.9347 34.7614C14.9534 34.8622 14.9684 34.9668 14.9908 35.0677C15.1028 35.6056 15.2336 36.1435 15.383 36.6851C15.4241 36.8345 15.4726 36.9877 15.5174 37.1408C15.6295 37.5293 15.749 37.9215 15.8798 38.31C15.9508 38.5117 16.0255 38.7134 16.1002 38.9189C16.2235 39.2625 16.3504 39.6099 16.4887 39.9536C16.5746 40.1702 16.668 40.3831 16.7576 40.6035C16.8995 40.9397 17.049 41.2796 17.2021 41.6158C17.303 41.8362 17.4038 42.0491 17.5084 42.2658C17.5607 42.3741 17.6055 42.4899 17.6616 42.602H6.99704C4.95752 38.9525 3.82944 34.8809 3.70244 30.7346ZM7.94208 44.1858H18.4834C18.6851 44.5444 18.883 44.8918 19.0885 45.2391C19.1221 45.2914 19.152 45.34 19.1781 45.3923C19.4135 45.7808 19.6525 46.1655 19.8916 46.5465C19.9588 46.6474 20.0224 46.752 20.0896 46.8528C20.3548 47.2637 20.6275 47.6709 20.9001 48.0594C20.9188 48.0892 20.9412 48.1154 20.9599 48.1415C21.2214 48.5151 21.4829 48.8737 21.7443 49.2285C21.8078 49.3145 21.8713 49.4041 21.9386 49.49C22.215 49.8598 22.4914 50.2222 22.7716 50.5733C22.779 50.577 22.7828 50.5845 22.7865 50.592C23.0592 50.9356 23.3319 51.2681 23.6008 51.593C23.6643 51.6677 23.7241 51.7387 23.7876 51.8134C24.3292 52.4597 24.8559 53.0573 25.3602 53.6027C25.42 53.6699 25.4723 53.7297 25.532 53.7932C26.0251 54.3274 26.492 54.8055 26.9179 55.235C26.9702 55.2873 27.015 55.3321 27.0635 55.3807C27.2653 55.5824 27.4558 55.7692 27.6388 55.9448C27.6425 55.9448 27.6463 55.9522 27.65 55.9522C27.6537 55.956 27.6575 55.9635 27.6612 55.9635C19.6712 55.2948 12.3498 50.9356 7.94208 44.1858ZM29.0022 55.0595C27.0598 53.2179 23.2871 49.307 20.3062 44.1858H29.0022V55.0595ZM31.5087 54.1555C31.3144 54.3498 31.1276 54.5365 30.9558 54.7046C30.9334 54.727 30.9185 54.7457 30.8961 54.7644C30.7877 54.869 30.6831 54.9661 30.5823 55.0632V44.1895H39.2782C39.2484 44.2455 39.2185 44.2978 39.1886 44.3501C39.1289 44.451 39.0691 44.5556 39.0056 44.6564C38.8039 44.9926 38.6021 45.3251 38.393 45.6463C38.3369 45.736 38.2809 45.8293 38.2211 45.919C37.9709 46.3037 37.7169 46.681 37.4628 47.0545C37.3993 47.1405 37.3396 47.2264 37.2761 47.3123C37.0632 47.6149 36.854 47.9099 36.6374 48.2013C36.5701 48.2872 36.5066 48.3769 36.4431 48.4628C36.1854 48.8064 35.9276 49.1426 35.6736 49.4676C35.6138 49.546 35.5578 49.6133 35.4981 49.688C35.2851 49.9532 35.0759 50.2147 34.863 50.4687C34.7958 50.5471 34.7285 50.633 34.6613 50.7115C34.411 51.0066 34.1645 51.2942 33.9254 51.5706C33.8731 51.6304 33.8209 51.6864 33.7686 51.7462C33.5668 51.9778 33.3689 52.1982 33.1746 52.4148C33.1074 52.4821 33.0476 52.5493 32.9841 52.6203C32.7525 52.8668 32.5321 53.1096 32.3155 53.33C32.2781 53.3711 32.2371 53.4084 32.2034 53.4458C32.0167 53.64 31.8374 53.8231 31.6656 53.9949C31.617 54.0472 31.561 54.1032 31.5087 54.1555ZM52.3783 42.9979C48.0788 50.4201 40.3802 55.2537 31.9382 55.9597C31.9793 55.9186 32.0241 55.8775 32.0652 55.8364C32.0951 55.8103 32.1213 55.7842 32.1474 55.758C32.3267 55.5862 32.5172 55.3957 32.7115 55.2014C32.7339 55.179 32.7563 55.1566 32.7787 55.1342C32.9991 54.9138 33.2232 54.6822 33.466 54.4319C33.4959 54.3983 33.5295 54.361 33.5594 54.3311C33.7648 54.1144 33.974 53.8903 34.1907 53.6512C34.2429 53.5952 34.2915 53.5429 34.3438 53.4869C34.5978 53.2105 34.8556 52.9228 35.1208 52.624C35.132 52.6091 35.1395 52.5978 35.1507 52.5866C35.3972 52.3027 35.6512 52.0077 35.9052 51.7014C35.9724 51.6229 36.0322 51.5482 36.0994 51.4698C36.3385 51.1784 36.585 50.8796 36.8278 50.5658C36.8577 50.5284 36.8913 50.4874 36.9175 50.45C37.1864 50.1063 37.4629 49.7478 37.7356 49.3817C37.8028 49.2995 37.8625 49.2099 37.9298 49.124C38.1539 48.8177 38.3706 48.5113 38.5947 48.1938C38.6582 48.1079 38.718 48.0183 38.7815 47.9286C39.0504 47.5401 39.3193 47.1405 39.5808 46.7333C39.6294 46.6549 39.6742 46.5801 39.7228 46.5017C39.9432 46.158 40.1598 45.8069 40.3727 45.4521C40.4437 45.3363 40.511 45.2167 40.5819 45.1009C40.8359 44.6676 41.0899 44.2269 41.3327 43.7749C41.639 43.2034 41.9267 42.6281 42.1956 42.0603C42.289 41.8661 42.3674 41.6718 42.4571 41.4739C42.6252 41.1003 42.797 40.7268 42.9501 40.3533C43.0435 40.1217 43.1294 39.8938 43.2153 39.6622C43.3461 39.326 43.4768 38.9861 43.5964 38.6499C43.6786 38.4109 43.7533 38.1681 43.8317 37.929C43.9325 37.604 44.0409 37.279 44.1305 36.9578C44.2052 36.715 44.2613 36.4685 44.3248 36.2257C44.4032 35.9081 44.4854 35.5906 44.5564 35.2769C44.6124 35.0341 44.6535 34.7838 44.702 34.541C44.7618 34.231 44.8178 33.9209 44.8627 33.6109C44.9038 33.3681 44.9336 33.1178 44.9598 32.875C45.0009 32.5687 45.0308 32.2624 45.0569 31.9561C45.0793 31.717 45.0943 31.4705 45.1092 31.2277C45.1167 31.0671 45.1353 30.9065 45.1391 30.7421H55.8858C55.7551 35.0303 54.5485 39.2551 52.3783 42.9979ZM45.1391 29.1546C45.1353 28.9753 45.1167 28.796 45.1055 28.6204C45.0943 28.4187 45.0831 28.2245 45.0644 28.0227C45.0382 27.6716 44.9971 27.3205 44.9561 26.9731C44.9336 26.7901 44.915 26.607 44.8851 26.4277C44.8216 25.9944 44.7431 25.5611 44.6572 25.1203C44.6385 25.0232 44.6236 24.9224 44.6049 24.8252C44.4929 24.2836 44.3584 23.7457 44.2127 23.2041C44.1716 23.0584 44.1231 22.909 44.082 22.7633C43.9662 22.3711 43.8466 21.9714 43.7122 21.5792C43.6449 21.3775 43.574 21.1832 43.4993 20.9853C43.376 20.6341 43.2452 20.283 43.1033 19.9319C43.0248 19.719 42.9352 19.5135 42.8493 19.3006C42.6999 18.9532 42.5467 18.6058 42.3898 18.2584C42.2927 18.0493 42.1956 17.8476 42.0985 17.6384C42.0425 17.5226 41.9939 17.4068 41.9379 17.291H52.6024C54.6307 20.9404 55.7625 25.012 55.8858 29.1583L45.1391 29.1546Z" fill="#4C3037"></path><path d="M50.4121 52.1012L52.433 54.122C53.5536 55.2389 55.3652 55.2389 56.4821 54.122C57.599 53.0014 57.599 51.1897 56.4821 50.0728L54.4613 48.052C54.4613 50.2932 52.6496 52.1012 50.4121 52.1012Z" fill="#D9B1B5"></path><path d="M48.2764 41.866C51.3656 36.9353 50.7717 30.3498 46.4834 26.0616C41.4967 21.0748 33.4133 21.0748 28.4266 26.0616C23.4398 31.0483 23.4398 39.1317 28.4266 44.1185C32.7148 48.4067 39.2966 49.0044 44.2273 45.9115L50.4131 52.0972C52.6543 52.0972 54.4622 50.2893 54.4622 48.0481L48.2764 41.866Z" fill="white"></path><path d="M57.0394 49.5162L55.0186 47.4953L49.2586 41.7353C52.2507 36.4348 51.384 29.8456 47.0361 25.5014C41.7505 20.2195 33.1479 20.2158 27.8623 25.5014C25.2998 28.0638 23.8916 31.4705 23.8916 35.0901C23.8916 38.7134 25.3036 42.1164 27.8623 44.6751C30.492 47.3048 33.9435 48.6645 37.4361 48.6645C39.7147 48.6645 42.0045 48.0781 44.0963 46.8939L49.8525 52.6539L51.8734 54.6747C52.5868 55.3845 53.5207 55.7393 54.4545 55.7393C55.3884 55.7393 56.326 55.3845 57.0394 54.6747C58.4626 53.2553 58.4626 50.9356 57.0394 49.5162ZM28.9829 43.5582C26.723 41.2983 25.4791 38.2913 25.4791 35.0901C25.4791 31.8889 26.723 28.8819 28.9829 26.6182C31.3175 24.2836 34.3843 23.1144 37.4548 23.1144C40.5253 23.1144 43.5883 24.2836 45.9267 26.6182C49.8974 30.589 50.5884 36.6814 47.6113 41.4403L47.6076 41.444C47.1257 42.2098 46.5617 42.9232 45.9267 43.5582C45.2879 44.1932 44.5782 44.7573 43.8124 45.2354L43.8087 45.2392C39.0461 48.2237 32.9536 47.5289 28.9829 43.5582ZM45.7324 45.8144C45.8333 45.736 45.9379 45.6538 46.035 45.5716C46.3786 45.2952 46.7111 45.0075 47.0211 44.6938C47.0286 44.69 47.0361 44.6863 47.0435 44.6788C47.051 44.6714 47.0547 44.6639 47.0622 44.6564C47.3723 44.3427 47.6636 44.0102 47.94 43.6703C48.0185 43.5769 48.0932 43.4798 48.1716 43.3827C48.2463 43.2893 48.321 43.1959 48.3957 43.1025L53.6439 48.3507C53.6365 48.4217 53.6328 48.4927 53.6215 48.5674C53.6066 48.6458 53.5954 48.728 53.5767 48.8065C53.5431 48.9297 53.5058 49.0455 53.4647 49.165C53.4385 49.2397 53.4124 49.3107 53.3862 49.3817C53.3302 49.505 53.263 49.617 53.1957 49.7365C53.1584 49.7926 53.1285 49.8486 53.0949 49.9047C52.9865 50.0615 52.8633 50.2109 52.7288 50.3492C52.7213 50.3566 52.7101 50.3641 52.7101 50.3641C52.5719 50.5023 52.4225 50.6219 52.2656 50.7339C52.2096 50.775 52.1535 50.8012 52.0938 50.831C51.9817 50.9057 51.8659 50.9692 51.7427 51.0253C51.6717 51.0589 51.6007 51.0813 51.526 51.1037C51.4102 51.1485 51.2907 51.1859 51.1674 51.2158C51.089 51.2344 51.0068 51.2457 50.9283 51.2606C50.8536 51.2718 50.7864 51.2755 50.7117 51.283L45.4635 46.031C45.5531 45.9601 45.6428 45.8854 45.7324 45.8144ZM55.9188 53.5616C55.112 54.3722 53.8009 54.3684 52.9903 53.5616L52.0415 52.6091C52.0751 52.5979 52.1125 52.5792 52.1461 52.5642C52.2395 52.5269 52.3366 52.4858 52.43 52.4447C52.4935 52.4148 52.5532 52.3849 52.613 52.3588C52.7064 52.3102 52.796 52.2617 52.8857 52.2019C52.9417 52.172 52.9977 52.1384 53.05 52.1048C53.1434 52.0413 53.2368 51.9778 53.3264 51.9068C53.3713 51.8732 53.4124 51.8433 53.4572 51.8097C53.5842 51.7051 53.7075 51.593 53.8307 51.4772C53.9465 51.3577 54.0548 51.2345 54.1632 51.1037C54.2005 51.0589 54.2304 51.0141 54.2603 50.9692C54.3313 50.8833 54.3948 50.7899 54.4583 50.6966C54.4956 50.6405 54.5292 50.5845 54.5591 50.5285C54.6152 50.4426 54.6637 50.3529 54.7123 50.2633C54.7422 50.1998 54.7758 50.1362 54.8019 50.0727C54.843 49.9831 54.8804 49.8897 54.914 49.7963C54.9289 49.759 54.9513 49.7216 54.9663 49.6842L55.9151 50.6368C56.7294 51.4399 56.7294 52.7547 55.9188 53.5616Z" fill="#4C3037"></path><path d="M37.4531 43.7375C42.2289 43.7375 46.1005 39.8659 46.1005 35.09C46.1005 30.3142 42.2289 26.4426 37.4531 26.4426C32.6772 26.4426 28.8057 30.3142 28.8057 35.09C28.8057 39.8659 32.6772 43.7375 37.4531 43.7375Z" fill="#D9B1B5"></path><path d="M38.0009 29C34.6922 29 32 31.6903 32 35.0009C32 38.3097 34.6922 41 38.0009 41C41.3097 41 44 38.3097 44 35.0009C44.0019 31.6903 41.3097 29 38.0009 29ZM35.234 37.9622C35.2396 37.9173 35.2527 37.8688 35.262 37.8239C35.2788 37.7324 35.2975 37.639 35.3218 37.5493C35.3368 37.4951 35.3573 37.4409 35.3741 37.3886C35.4021 37.3045 35.4283 37.2223 35.4619 37.142C35.4844 37.0859 35.5105 37.0318 35.5367 36.9776C35.5722 36.901 35.6095 36.8244 35.6488 36.7515C35.6805 36.6973 35.7123 36.6432 35.744 36.5908C35.787 36.5199 35.8337 36.4507 35.8804 36.3835C35.9178 36.333 35.9552 36.2826 35.9944 36.234C36.0448 36.1705 36.0971 36.1088 36.1513 36.049C36.1924 36.0023 36.2354 35.9556 36.2802 35.9127C36.3363 35.8566 36.3961 35.8024 36.4559 35.752C36.5026 35.7128 36.5493 35.6716 36.5979 35.6343C36.6184 35.6175 36.6408 35.6044 36.6614 35.5894C36.6688 35.595 36.6782 35.6007 36.6857 35.6063C37.078 35.9239 37.5301 36.0995 37.9953 36.0995C38.4587 36.0995 38.9127 35.9239 39.305 35.6063C39.3125 35.6007 39.3218 35.595 39.3293 35.5894C39.3517 35.6063 39.3741 35.6193 39.3947 35.6343C39.4414 35.6698 39.4881 35.7109 39.5348 35.7482C39.5946 35.8006 39.6562 35.8547 39.7123 35.9108C39.7571 35.9538 39.7982 36.0005 39.8412 36.0453C39.8954 36.1051 39.9496 36.1667 39.9981 36.2321C40.0374 36.2807 40.0747 36.3312 40.1121 36.3835C40.1588 36.4489 40.2036 36.518 40.2466 36.5871C40.2802 36.6413 40.3139 36.6955 40.3438 36.7496C40.3849 36.8225 40.4204 36.8991 40.4577 36.9738C40.4839 37.028 40.51 37.0841 40.5343 37.1401C40.568 37.2205 40.5941 37.3027 40.6221 37.3849C40.639 37.439 40.6595 37.4932 40.6745 37.5474C40.7006 37.639 40.7174 37.7324 40.7342 37.822C40.7436 37.8669 40.7548 37.9155 40.7623 37.9603C40.7828 38.0986 40.794 38.2368 40.794 38.3751C40.794 39.5708 39.9832 40.0565 37.9972 40.0565C36.0093 40.0565 35.1985 39.5689 35.1985 38.3751C35.2041 38.2405 35.2153 38.1023 35.234 37.9622ZM39.0023 34.8178C38.4176 35.4512 37.5824 35.4512 36.9995 34.8178C36.6446 34.4348 36.4334 33.8968 36.4334 33.3774C36.4334 32.4339 37.1378 31.666 38.0009 31.666C38.8641 31.666 39.5684 32.4339 39.5684 33.3774C39.5703 33.8968 39.3573 34.4348 39.0023 34.8178Z" fill="#4C3037"></path><path d="M37.4501 44.5334C32.2429 44.5334 28.0107 40.2975 28.0107 35.0941C28.0107 29.887 32.2467 25.6548 37.4501 25.6548C42.6572 25.6548 46.8857 29.8907 46.8857 35.0941C46.8894 40.2975 42.6572 44.5334 37.4501 44.5334ZM37.4501 27.2349C33.117 27.2349 29.5908 30.7573 29.5908 35.0941C29.5908 39.4272 33.117 42.9496 37.4501 42.9496C41.7794 42.9496 45.3093 39.4272 45.3093 35.0941C45.3093 30.7573 41.7794 27.2349 37.4501 27.2349Z" fill="#4C3037"></path></svg>