<svg xmlns="http://www.w3.org/2000/svg" width="60" height="60" viewBox="0 0 60 60" fill="none"><g id="Frame 200"><rect width="60" height="60" fill="white"></rect><g id="Group"><g id="Group_2"><path id="Vector" d="M37.4277 9.24122L38.9322 11.5955L36.4964 13.1519C43.6926 14.3772 49.1719 20.6397 49.1719 28.1843C49.1719 36.6084 42.3413 43.4415 33.9173 43.4415C25.4934 43.4415 18.6628 36.6084 18.6628 28.1843C18.6628 21.4228 23.0675 15.6865 29.1643 13.6904L29.6461 16.2423L31.8027 13.0802L33.2948 10.8915L30.775 9.17699L27.944 7.24512L28.4109 9.72048C20.4513 12.0896 14.6484 19.4563 14.6484 28.1868C14.6484 38.8317 23.275 47.4584 33.9173 47.4584C44.5597 47.4584 53.1862 38.8317 53.1862 28.1868C53.1862 18.7424 46.3927 10.8915 37.4277 9.24122Z" fill="#94D0B7"></path></g><g id="Group_3"><path id="Vector_2" d="M33.9196 47.9773C23.0055 47.9773 14.127 39.0986 14.127 28.1844C14.127 19.6541 19.7322 11.9785 27.8128 9.35743L27.4324 7.34157C27.3929 7.13406 27.4843 6.92408 27.6597 6.80797C27.8375 6.69186 28.0673 6.69433 28.2427 6.81291L33.591 10.4642C33.7071 10.5407 33.7862 10.6618 33.8109 10.7977C33.8381 10.9335 33.8059 11.0744 33.7294 11.1905L30.0806 16.5389C29.9596 16.7143 29.7471 16.8032 29.5396 16.7563C29.3346 16.7143 29.174 16.5512 29.1345 16.3437L28.7664 14.3872C23.0129 16.529 19.1888 22.0034 19.1888 28.1869C19.1888 36.312 25.797 42.9204 33.9196 42.9204C42.0422 42.9204 48.6529 36.312 48.6529 28.1869C48.6529 20.9832 43.5046 14.8788 36.4122 13.6683C36.1997 13.6337 36.0318 13.4707 35.9873 13.2582C35.9428 13.0457 36.0367 12.8308 36.2195 12.7122L38.2131 11.4375L36.9903 9.52295C36.8791 9.35002 36.8816 9.12274 36.9977 8.94981C37.1138 8.77935 37.3213 8.69289 37.5263 8.72995C46.9063 10.4543 53.7147 18.6412 53.7147 28.1869C53.7097 39.0987 44.8312 47.9773 33.9196 47.9773ZM28.6947 8.38903L28.927 9.62424C28.9788 9.8861 28.8207 10.1455 28.5638 10.2196C20.6809 12.5665 15.1744 19.953 15.1744 28.1844C15.1744 38.5206 23.5835 46.9323 33.9196 46.9323C44.2581 46.9323 52.6672 38.523 52.6672 28.1844C52.6672 19.5602 46.8001 12.107 38.549 10.0195L39.3766 11.314C39.5323 11.5561 39.4606 11.8797 39.2161 12.0353L37.8549 12.9049C44.7917 14.6737 49.6978 20.9066 49.6978 28.1844C49.6978 36.8827 42.6202 43.9629 33.9196 43.9629C25.2214 43.9629 18.1413 36.8852 18.1413 28.1844C18.1413 21.3463 22.5065 15.3235 29.0011 13.194C29.1444 13.1446 29.3 13.1643 29.4309 13.2409C29.5618 13.3175 29.6508 13.4459 29.6804 13.5966L29.9275 14.9084L32.5708 11.0324L28.6947 8.38903Z" fill="#253F31"></path></g><g id="Group_4"><path id="Vector_3" d="M28.6562 22.9397C28.6562 26.2129 31.3119 28.8687 34.5851 28.8687C37.8584 28.8687 40.514 26.2129 40.514 22.9397C40.514 19.6664 37.8584 17.0132 34.5851 17.0132C31.3119 17.0132 28.6562 19.6664 28.6562 22.9397Z" fill="#94D0B7"></path></g><g id="Group_5"><path id="Vector_4" d="M34.5854 29.3924C31.0281 29.3924 28.1328 26.4996 28.1328 22.9422C28.1328 19.3873 31.0281 16.4919 34.5854 16.4919C38.1403 16.4919 41.0356 19.3873 41.0356 22.9422C41.0356 26.4996 38.1403 29.3924 34.5854 29.3924ZM34.5854 17.5345C31.6037 17.5345 29.1802 19.9604 29.1802 22.9397C29.1802 25.9215 31.6037 28.345 34.5854 28.345C37.5647 28.345 39.9906 25.9215 39.9906 22.9397C39.9906 19.9604 37.5647 17.5345 34.5854 17.5345Z" fill="#253F31"></path></g><g id="Group_6"><path id="Vector_5" d="M34.5859 22.4184C33.8102 22.4184 33.4322 22.0898 33.4322 21.4179C33.4322 20.8645 33.9485 20.4173 34.5859 20.4173C35.2232 20.4173 35.7395 20.867 35.7395 21.4179C35.7395 21.7069 35.9742 21.9416 36.2632 21.9416C36.5498 21.9416 36.7845 21.7069 36.7845 21.4179C36.7845 20.4569 36.0681 19.6565 35.1096 19.4366V19.0562C35.1096 18.7671 34.8749 18.5349 34.5859 18.5349C34.2968 18.5349 34.0621 18.7671 34.0621 19.0562V19.4366C33.1012 19.6565 32.3848 20.4569 32.3848 21.4179C32.3848 22.406 32.9628 23.4634 34.5859 23.4634C35.3616 23.4634 35.7395 23.7919 35.7395 24.4639C35.7395 25.0148 35.2232 25.4619 34.5859 25.4619C33.9485 25.4619 33.4322 25.0123 33.4322 24.4639C33.4322 24.1748 33.1975 23.9401 32.9085 23.9401C32.6194 23.9401 32.3848 24.1748 32.3848 24.4639C32.3848 25.4249 33.1012 26.2253 34.0621 26.4451V26.8231C34.0621 27.1122 34.2968 27.3469 34.5859 27.3469C34.8749 27.3469 35.1096 27.1122 35.1096 26.8231V26.4451C36.0681 26.2253 36.7845 25.4249 36.7845 24.4639C36.7845 23.4757 36.2064 22.4184 34.5859 22.4184Z" fill="#253F31"></path></g><g id="Group_7"><g id="Group_8"><path id="Vector_6" d="M45.2623 31.1068C44.1926 30.1458 40.2005 32.2333 31.532 35.1064C32.7153 34.642 33.1328 33.9651 33.1748 33.2907C33.3625 30.2372 30.7686 30.3879 30.7686 30.3879C17.9178 30.6028 26.947 27.5593 11.3046 27.3493C10.3263 27.3345 9.52344 28.125 9.52344 29.1008V37.9523C9.52344 38.686 9.92858 39.358 10.5808 39.689C14.19 41.5146 26.7765 46.1812 44.5286 34.1306C44.5286 34.1306 46.8631 32.5446 45.2623 31.1068Z" fill="#94D0B7"></path></g><g id="Group_9"><path id="Vector_7" d="M7.87561 26.7046C6.97639 26.7046 6.24023 27.4408 6.24023 28.34V38.4069C6.24023 39.3061 6.97639 40.0423 7.87561 40.0423C8.77482 40.0423 9.50853 39.3061 9.50853 38.4069V28.34C9.50853 27.4408 8.77482 26.7046 7.87561 26.7046Z" fill="#94D0B7"></path></g></g><g id="Group_10"><path id="Vector_8" d="M45.6114 30.719C44.6479 29.8519 42.6444 30.5856 38.2521 32.1889C36.9329 32.6706 35.3815 33.2388 33.5979 33.8564C33.6548 33.6686 33.6844 33.4908 33.6968 33.3228C33.7635 32.179 33.4917 31.2896 32.8815 30.677C32.0095 29.8074 30.7916 29.8667 30.7619 29.8667C24.7145 29.9704 23.6843 29.3652 22.4887 28.6636C21.1127 27.8558 19.5539 26.9417 11.3127 26.8306C10.7346 26.8133 10.2208 27.0257 9.80084 27.3913C9.4451 26.6799 8.71882 26.1858 7.87395 26.1858C6.6857 26.1858 5.71484 27.1542 5.71484 28.3449V38.4143C5.71484 39.6026 6.6857 40.571 7.87395 40.571C8.61259 40.571 9.26477 40.1979 9.65509 39.6297C9.85025 39.8422 10.08 40.025 10.3468 40.1609C12.0637 41.0305 16.0064 42.6313 21.6809 42.6313C27.6616 42.6313 35.5668 40.8526 44.8258 34.5679C44.9715 34.469 46.2586 33.5575 46.3401 32.3346C46.3698 31.9196 46.266 31.3069 45.6114 30.719ZM8.98563 38.4094C8.98563 39.022 8.4866 39.5185 7.87395 39.5185C7.25883 39.5185 6.76229 39.022 6.76229 38.4094V28.34C6.76229 27.7248 7.25883 27.2283 7.87395 27.2283C8.4866 27.2283 8.98563 27.7248 8.98563 28.34V38.4094ZM44.2354 33.6983C26.6661 45.6279 14.2154 40.944 10.8186 39.2221C10.3443 38.98 10.0454 38.4958 10.0454 37.9523V29.1009C10.0454 28.7723 10.1763 28.461 10.411 28.2263C10.6432 27.9966 10.952 27.8706 11.2806 27.8706C11.2855 27.8706 11.2929 27.8706 11.2979 27.8706C19.2648 27.9768 20.6977 28.8192 21.96 29.5604C23.2891 30.3385 24.4328 31.0105 30.7965 30.9092C30.8015 30.9092 31.6118 30.8771 32.1478 31.4181C32.5307 31.8109 32.7037 32.4285 32.6518 33.2536C32.6147 33.8317 32.1923 34.2764 31.3647 34.6074C31.3598 34.6099 31.3548 34.6123 31.3548 34.6123C31.3474 34.6148 31.3425 34.6197 31.3351 34.6222H31.3277C29.5292 35.3238 26.2091 35.3683 21.4536 34.7532C21.167 34.7211 20.9052 34.9162 20.8706 35.2052C20.8311 35.4918 21.0336 35.7537 21.3227 35.7907C23.5608 36.0798 25.505 36.2255 27.1429 36.2255C29.1117 36.2255 30.6384 36.0155 31.7081 35.598C31.713 35.598 31.718 35.5956 31.7229 35.5931C34.47 34.6815 36.7674 33.844 38.6128 33.1696C41.8539 31.9863 44.4157 31.05 44.9122 31.4947C45.1889 31.7442 45.3149 31.9937 45.2976 32.258C45.2556 32.8707 44.517 33.5081 44.2354 33.6983Z" fill="#253F31"></path></g></g></g></svg>