<svg xmlns="http://www.w3.org/2000/svg" width="61" height="60" viewBox="0 0 61 60" fill="none"><g id="Frame 186"><rect width="60" height="60" transform="translate(0.5)" fill="white"></rect><g id="Group"><g id="Group_2"><g id="Group_3"><path id="Vector" d="M53.6098 29.9979C53.6098 42.7635 43.2638 53.1095 30.4983 53.1095C17.7369 53.1095 7.38672 42.7635 7.38672 29.9979C7.38672 17.2324 17.7369 6.88635 30.4983 6.88635C43.2638 6.88635 53.6098 17.2324 53.6098 29.9979Z" fill="#AA8FA2"></path></g><g id="Group_4"><path id="Vector_2" d="M30.4979 54C17.2661 54 6.5 43.2339 6.5 29.9979C6.5 16.7661 17.2661 6 30.4979 6C43.7297 6 54.5 16.7661 54.5 29.9979C54.5 43.2297 43.7297 54 30.4979 54ZM30.4979 7.77683C18.2448 7.77683 8.27686 17.7448 8.27686 29.9979C8.27686 42.251 18.2448 52.2189 30.4979 52.2189C42.751 52.2189 52.719 42.251 52.719 29.9979C52.719 17.7448 42.751 7.77683 30.4979 7.77683Z" fill="#3D2139"></path></g><g id="Group_5"><path id="Vector_3" d="M16.3613 33.7573C18.029 40.0162 23.7124 44.6368 30.4963 44.6368C37.2802 44.6368 42.972 40.0162 44.6312 33.7573H16.3613Z" fill="white"></path></g><g id="Group_6"><path id="Vector_4" d="M30.4963 45.5274C23.4729 45.5274 17.3065 40.7807 15.5044 33.9842C15.433 33.7195 15.4918 33.4339 15.6598 33.2155C15.8279 32.9928 16.0883 32.8668 16.3613 32.8668H44.6355C44.9085 32.8668 45.1731 32.9928 45.3412 33.2155C45.5092 33.4339 45.5679 33.7153 45.4965 33.9842C43.6861 40.7807 37.5238 45.5274 30.4963 45.5274ZM17.5711 34.6479C19.5118 40.0582 24.6701 43.7463 30.4963 43.7463C36.3267 43.7463 41.4808 40.0582 43.4256 34.6479H17.5711Z" fill="#3D2139"></path></g><g id="Group_7"><path id="Vector_5" d="M26.2995 26.2007C25.808 26.2007 25.409 25.7975 25.409 25.3102C25.409 23.0629 23.5775 21.2314 21.3302 21.2314C19.0829 21.2314 17.2515 23.0629 17.2515 25.3102C17.2515 25.7975 16.8524 26.2007 16.3609 26.2007C15.8737 26.2007 15.4746 25.7975 15.4746 25.3102C15.4746 22.08 18.1 19.4546 21.3302 19.4546C24.5604 19.4546 27.1858 22.08 27.1858 25.3102C27.1858 25.7975 26.7867 26.2007 26.2995 26.2007Z" fill="#3D2139"></path></g><g id="Group_8"><path id="Vector_6" d="M44.6354 26.2006C44.1439 26.2006 43.7449 25.7973 43.7449 25.3101C43.7449 23.0628 41.9176 21.2313 39.6661 21.2313C37.4188 21.2313 35.5916 23.0628 35.5916 25.3101C35.5916 25.7973 35.1925 26.2006 34.701 26.2006C34.2096 26.2006 33.8105 25.7973 33.8105 25.3101C33.8105 22.0798 36.4359 19.4545 39.6661 19.4545C42.8964 19.4545 45.526 22.0798 45.526 25.3101C45.526 25.7973 45.1269 26.2006 44.6354 26.2006Z" fill="#3D2139"></path></g></g></g></g></svg>