<svg xmlns="http://www.w3.org/2000/svg" width="61" height="60" viewBox="0 0 61 60" fill="none"><path d="M53.4519 54.0972H7.54785V8.80539C7.54785 4.38445 10.7535 0.797764 14.7034 0.797764H46.296C50.2459 0.797764 53.4519 4.38445 53.4519 8.80539V54.0972Z" fill="#BC55A7"></path><path d="M8.26226 53.2981H52.7397V9.83783C52.7397 5.29185 49.4351 1.59631 45.372 1.59631H15.6282C11.5652 1.59631 8.26226 5.29185 8.26226 9.83783V53.2981ZM53.4523 54.8916H7.5483C7.15378 54.8916 6.83398 54.5383 6.83398 54.0969V9.83783C6.83398 4.41354 10.7788 -0.000247955 15.6282 -0.000247955H45.372C50.2201 -0.000247955 54.1622 4.41354 54.1622 9.83783V54.0969C54.1622 54.5383 53.8468 54.8916 53.4523 54.8916Z" fill="#4A2D48"></path><path d="M53.4524 16.5663H7.54845L1.21289 24.2929C1.21289 27.309 3.39959 29.7556 6.09525 29.7556C8.79091 29.7556 10.9763 27.309 10.9763 24.2929C10.9763 27.309 13.1592 29.7556 15.8586 29.7556C18.5543 29.7556 20.7369 27.309 20.7369 24.2929C20.7369 27.309 22.9223 29.7556 25.6179 29.7556C28.3149 29.7556 30.5003 27.309 30.5003 24.2929C30.5003 27.309 32.6833 29.7556 35.3813 29.7556C38.0783 29.7556 40.2636 27.309 40.2636 24.2929C40.2636 27.309 42.4463 29.7556 45.1419 29.7556C47.8376 29.7556 50.027 27.309 50.027 24.2929C50.027 27.309 52.2096 29.7556 54.9053 29.7556C57.601 29.7556 59.7863 27.309 59.7863 24.2929L53.4524 16.5663Z" fill="white"></path><path d="M54.905 28.9567C52.8513 28.9567 51.1406 27.284 50.8026 25.0917H59.0078C58.6698 27.284 56.9604 28.9567 54.905 28.9567ZM45.1417 28.9567C43.0879 28.9567 41.381 27.284 41.0393 25.0917H49.2444C48.9065 27.284 47.1998 28.9567 45.1417 28.9567ZM35.381 28.9567C33.3273 28.9567 31.6176 27.284 31.2759 25.0917H39.4851C39.1458 27.284 37.4364 28.9567 35.381 28.9567ZM25.6176 28.9567C23.5639 28.9567 21.8546 27.284 21.5166 25.0917H29.7217C29.3824 27.284 27.6731 28.9567 25.6176 28.9567ZM15.8583 28.9567C13.8006 28.9567 12.0936 27.284 11.7559 25.0917H19.9611C19.6191 27.284 17.9137 28.9567 15.8583 28.9567ZM6.09499 28.9567C4.04126 28.9567 2.33055 27.284 1.99258 25.0917H10.1977C9.85975 27.284 8.1504 28.9567 6.09499 28.9567ZM7.85956 17.3605H53.1364L58.1662 23.5H2.83414L7.85956 17.3605ZM60.4909 24.2487C60.4869 24.1768 60.4737 24.1018 60.4515 24.028C60.4435 24.0103 60.4408 23.9885 60.4344 23.9708C60.4054 23.8928 60.366 23.8194 60.3095 23.7572L53.9743 16.0245C53.84 15.86 53.6494 15.7688 53.4522 15.7688H7.54819C7.35093 15.7688 7.15601 15.86 7.02203 16.0245L0.688178 23.7572C0.638022 23.8194 0.598632 23.8928 0.565644 23.9708C0.559248 23.9885 0.555209 24.0103 0.549823 24.028C0.52626 24.0988 0.513141 24.1768 0.509102 24.2487C0.506745 24.2679 0.5 24.2781 0.5 24.2928C0.5 27.7428 3.01154 30.5529 6.09499 30.5529C8.19247 30.5529 10.0173 29.2553 10.976 27.3428C11.9333 29.2553 13.7612 30.5529 15.8583 30.5529C17.9531 30.5529 19.7793 29.2553 20.7366 27.3428C21.6967 29.2553 23.5242 30.5529 25.6176 30.5529C27.7165 30.5529 29.5403 29.2553 30.5 27.3428C31.4574 29.2553 33.2852 30.5529 35.381 30.5529C37.4758 30.5529 39.3033 29.2553 40.2634 27.3428C41.2207 29.2553 43.0482 30.5529 45.1417 30.5529C47.2392 30.5529 49.0667 29.2553 50.0227 27.3428C50.98 29.2553 52.8079 30.5529 54.905 30.5529C57.9885 30.5529 60.5 27.7428 60.5 24.2928C60.5 24.2781 60.4909 24.2679 60.4909 24.2487Z" fill="#4A2D48"></path><path d="M35.3979 54.0972H25.6016V34.8655H35.3979V54.0972Z" fill="white"></path><path d="M26.3146 53.2981H34.6854V35.658H26.3146V53.2981ZM35.398 54.8916H25.6017C25.2071 54.8916 24.8877 54.5383 24.8877 54.0969V34.8652C24.8877 34.4238 25.2071 34.0663 25.6017 34.0663H35.398C35.7925 34.0663 36.1106 34.4238 36.1106 34.8652V54.0969C36.1106 54.5383 35.7925 54.8916 35.398 54.8916Z" fill="#4A2D48"></path><path d="M48.5939 47.6897H40.5137V34.8653H48.5939V47.6897Z" fill="white"></path><path d="M20.4865 47.6897H12.4062V34.8653H20.4865V47.6897Z" fill="white"></path><path d="M13.1196 46.8955V40.3413H19.7746V46.8955H13.1196ZM19.7746 35.6582V38.7447H13.1196V35.6582H19.7746ZM20.4872 34.0665H12.407C12.0124 34.0665 11.6943 34.424 11.6943 34.8654V47.6898C11.6943 48.1312 12.0124 48.489 12.407 48.489H20.4872C20.8777 48.489 21.1998 48.1312 21.1998 47.6898V34.8654C21.1998 34.424 20.8777 34.0665 20.4872 34.0665Z" fill="#4A2D48"></path><path d="M41.2253 46.8955V40.3413H47.8803V46.8955H41.2253ZM47.8803 35.6582V38.7447H41.2253V35.6582H47.8803ZM48.5929 34.0665H40.5127C40.1208 34.0665 39.8027 34.424 39.8027 34.8654V47.6898C39.8027 48.1312 40.1208 48.489 40.5127 48.489H48.5929C48.9874 48.489 49.3032 48.1312 49.3032 47.6898V34.8654C49.3032 34.424 48.9874 34.0665 48.5929 34.0665Z" fill="#4A2D48"></path><path d="M48.5937 11.2064H12.407C12.0124 11.2064 11.6943 10.8505 11.6943 10.4136C11.6943 9.9722 12.0124 9.61476 12.407 9.61476H48.5937C48.9882 9.61476 49.304 9.9722 49.304 10.4136C49.304 10.8505 48.9882 11.2064 48.5937 11.2064Z" fill="#4A2D48"></path><path d="M28.4424 44.8239C28.4424 45.2578 28.1266 45.6125 27.7388 45.6125C27.3483 45.6125 27.0312 45.2578 27.0312 44.8239C27.0312 44.387 27.3483 44.0367 27.7388 44.0367C28.1266 44.0367 28.4424 44.387 28.4424 44.8239Z" fill="#4A2D48"></path></svg>