<svg xmlns="http://www.w3.org/2000/svg" width="60" height="60" viewBox="0 0 60 60" fill="none"><rect width="60" height="60" fill="white"></rect><path d="M47.9783 41.6336C45.2626 38.9142 41.5667 38.199 39.7296 40.0397C34.0114 45.758 25.5085 44.3384 19.3002 38.1264C13.0882 31.9143 11.6614 23.4113 17.3868 17.693C19.2239 15.8559 18.5087 12.1672 15.793 9.44781C15.2811 8.93589 14.7365 8.49658 14.181 8.13715C11.7558 6.55055 9.03647 6.36174 7.54792 7.85395C-0.697172 16.0992 2.00037 32.1612 13.6364 43.7975C25.2689 55.4301 41.3343 58.1277 49.5758 49.8861C51.4128 48.0453 50.6976 44.353 47.9783 41.6336Z" fill="#94D0B7"></path><path d="M45.9702 43.6413C47.0449 44.7196 47.3281 46.1791 46.6019 46.9052C45.8758 47.6313 44.4127 47.3518 43.338 46.2735C42.2634 45.1952 41.9802 43.7356 42.7063 43.0095C43.4324 42.2834 44.8919 42.5666 45.9702 43.6413Z" fill="white"></path><path d="M45.5296 48.0776C44.6256 48.0776 43.6199 47.6455 42.7922 46.8141C41.3944 45.4163 41.1148 43.5065 42.1604 42.4645C43.2024 41.4225 45.1121 41.6985 46.5099 43.0963C47.138 43.7244 47.5628 44.4941 47.7116 45.2602C47.8786 46.1206 47.6681 46.9194 47.1416 47.4494C46.7168 47.8742 46.1505 48.0776 45.5296 48.0776ZM43.7724 43.3758C43.5473 43.3758 43.3694 43.4412 43.246 43.5537C42.8793 43.9204 43.0754 44.9298 43.8777 45.7358C44.6837 46.5381 45.6894 46.7306 46.0561 46.3675C46.4264 46.0008 46.2303 44.9915 45.4243 44.1891C44.8798 43.6409 44.2408 43.3758 43.7724 43.3758Z" fill="#253F31"></path><path d="M48.5194 41.0926C45.5096 38.0792 41.3235 37.3603 39.1887 39.4951C36.6183 42.0656 33.3689 43.202 29.7891 42.7918C26.3364 42.396 22.8038 40.5444 19.8449 37.5818C16.8823 34.6191 15.0307 31.0865 14.6313 27.6374C14.2211 24.0576 15.3575 20.8045 17.9279 18.234C20.0627 16.1028 19.3475 11.9167 16.3341 8.90322C13.3207 5.88977 9.13463 5.17452 6.99983 7.30935L6.9962 7.31297C2.8319 11.481 1.18723 17.6531 2.37807 24.6784C3.55075 31.6202 7.35564 38.602 13.092 44.3384C18.8247 50.0749 25.8064 53.8798 32.7481 55.0525C34.2402 55.303 35.6961 55.4301 37.0975 55.4301C42.3074 55.4301 46.8348 53.7128 50.1205 50.427C52.2553 48.2886 51.5328 44.1024 48.5194 41.0926ZM40.6737 40.2648C40.7027 40.2467 40.7318 40.2285 40.7572 40.2104C41.2255 39.9308 41.7919 39.7928 42.4164 39.7928C43.5891 39.7928 44.9578 40.2685 46.214 41.1507C46.2212 41.1543 46.2285 41.1616 46.2321 41.1653C46.4173 41.2923 46.5988 41.4339 46.7731 41.5791C46.8094 41.6082 46.8384 41.6372 46.8747 41.6626C47.0672 41.8224 47.2523 41.993 47.4302 42.1746C49.801 44.5454 50.5308 47.8275 49.0241 49.3379C47.5174 50.8446 44.2389 50.1112 41.8645 47.7404C39.4901 45.3695 38.7603 42.0874 40.2707 40.5807C40.3941 40.4609 40.5321 40.3556 40.6737 40.2648ZM8.08177 8.39493C8.0854 8.39493 8.0854 8.39493 8.08177 8.39493C8.6191 7.86122 9.37424 7.60343 10.2347 7.60343C11.8031 7.60343 13.7165 8.453 15.2486 9.98514C17.3108 12.0474 18.1313 14.7921 17.3216 16.4659C17.3144 16.4804 17.3107 16.4949 17.3035 16.5131C17.2526 16.6038 17.1982 16.6982 17.1365 16.7854C17.1219 16.8071 17.111 16.8326 17.0965 16.8507C17.0203 16.956 16.9331 17.0577 16.846 17.1484C15.3393 18.6551 12.0573 17.9254 9.68284 15.5546C8.47385 14.3456 7.65698 12.9078 7.38831 11.4955C7.1378 10.1993 7.38106 9.09564 8.08177 8.39493ZM33.0022 53.5313C26.3764 52.413 19.6888 48.7606 14.1739 43.2492C8.65901 37.7343 5.01025 31.0502 3.8884 24.417C3.04247 19.4067 3.72868 14.8938 5.81264 11.3394C5.83079 11.4882 5.84894 11.6298 5.87798 11.7823C6.20837 13.4887 7.17048 15.2097 8.59368 16.6329C10.438 18.4736 12.718 19.4575 14.6967 19.4575C14.7984 19.4575 14.8928 19.4394 14.9872 19.4321C13.4006 21.8973 12.7543 24.7438 13.1029 27.8044C13.5422 31.5985 15.5499 35.4542 18.7557 38.6601C21.9652 41.8696 25.8173 43.8773 29.6112 44.313C32.6718 44.6652 35.5109 44.0189 37.9725 42.4396C37.8745 44.4837 38.8547 46.8944 40.7826 48.8223C42.38 50.4198 44.3151 51.371 46.0905 51.5961C42.5398 53.691 38.0197 54.3808 33.0022 53.5313Z" fill="#253F31"></path><path d="M13.7817 11.4555C14.8564 12.5301 15.1396 13.9897 14.4134 14.7194C13.6873 15.4419 12.2242 15.1624 11.1495 14.0841C10.0749 13.0094 9.79169 11.5499 10.5178 10.8201C11.2439 10.094 12.7034 10.3772 13.7817 11.4555Z" fill="white"></path><path d="M13.3389 15.8887C13.1501 15.8887 12.9577 15.8705 12.7652 15.8306C11.9992 15.6817 11.2332 15.257 10.6051 14.6252C9.20727 13.2274 8.93134 11.3177 9.97332 10.2757C10.5034 9.74562 11.2985 9.53868 12.1662 9.70569C12.9323 9.85455 13.6983 10.2793 14.3264 10.9111C14.9545 11.5355 15.3829 12.3052 15.5281 13.0713C15.6988 13.9318 15.4882 14.7305 14.9581 15.2642C14.5479 15.6709 13.9779 15.8887 13.3389 15.8887ZM11.5889 11.187C11.411 11.187 11.2041 11.2233 11.0589 11.3649C10.6958 11.7316 10.8882 12.7373 11.6942 13.5433C12.0972 13.9499 12.5982 14.2331 13.0593 14.3239C13.2263 14.3565 13.6366 14.4074 13.8726 14.175C14.1049 13.9463 14.0541 13.5288 14.0214 13.3618C13.9343 12.9007 13.6475 12.4033 13.2409 11.9966C12.8342 11.59 12.3368 11.3068 11.8721 11.216C11.8068 11.2015 11.7015 11.187 11.5889 11.187Z" fill="#253F31"></path><path d="M35.848 17.9834H54.3132C55.9216 17.9834 57.2322 19.2868 57.2322 20.8988V30.8795C57.2322 32.4915 55.9252 33.7985 54.3132 33.7985H53.2458V38.3623L48.4026 33.7985H35.848C34.2396 33.7985 32.9326 32.4951 32.9326 30.8795V20.8988C32.9326 19.2904 34.2396 17.9834 35.848 17.9834Z" fill="#94D0B7"></path><path d="M42.0397 23.7273V31H40.7222V23.7273H42.0397ZM45.9308 31H43.4664V23.7273H45.9806C46.7026 23.7273 47.3229 23.8729 47.8414 24.1641C48.3622 24.4529 48.7623 24.8684 49.0416 25.4105C49.321 25.9527 49.4607 26.6013 49.4607 27.3565C49.4607 28.1141 49.3198 28.7652 49.0381 29.3097C48.7587 29.8542 48.3551 30.272 47.8271 30.5632C47.3016 30.8544 46.6695 31 45.9308 31ZM44.7838 29.8601H45.8669C46.3735 29.8601 46.7961 29.7678 47.1347 29.5831C47.4732 29.3961 47.7277 29.1179 47.8982 28.7486C48.0686 28.3769 48.1539 27.9129 48.1539 27.3565C48.1539 26.8002 48.0686 26.3385 47.8982 25.9716C47.7277 25.6023 47.4756 25.3265 47.1418 25.1442C46.8103 24.9595 46.3984 24.8672 45.906 24.8672H44.7838V29.8601Z" fill="#253F31"></path><path d="M53.247 39.1319C53.0545 39.1319 52.8658 39.0593 52.7169 38.9213L48.0988 34.5682H35.8491C33.816 34.5682 32.1641 32.9162 32.1641 30.8794V20.8987C32.1641 18.8692 33.816 17.2136 35.8491 17.2136H54.3144C56.3475 17.2136 57.9994 18.8692 57.9994 20.8987V30.8794C57.9994 32.9162 56.3475 34.5682 54.3144 34.5682H54.013V38.3622C54.013 38.6708 53.8315 38.9467 53.5519 39.0702C53.4539 39.1137 53.3486 39.1319 53.247 39.1319ZM35.8491 18.753C34.6655 18.753 33.7035 19.7188 33.7035 20.8987V30.8794C33.7035 32.0666 34.6655 33.0288 35.8491 33.0288H48.4037C48.5998 33.0288 48.785 33.105 48.9302 33.2393L52.4809 36.5832V33.7984C52.4809 33.3737 52.8258 33.0288 53.2506 33.0288H54.318C55.5016 33.0288 56.4673 32.0666 56.4673 30.8794V20.8987C56.4673 19.7188 55.5016 18.753 54.318 18.753H35.8491Z" fill="#253F31"></path><path d="M48.0963 5.77686H29.6275C28.0191 5.77686 26.7121 7.08027 26.7121 8.69228V11.0086L22.1484 13.6844L26.7121 16.3639V18.6766C26.7121 20.285 28.0155 21.592 29.6275 21.592H48.0963C49.7047 21.592 51.0117 20.2886 51.0117 18.6766V8.69228C51.0117 7.08027 49.7083 5.77686 48.0963 5.77686Z" fill="#94D0B7"></path><path d="M32.9742 17V9.72727H37.7043V10.8317H34.2916V12.8061H37.4593V13.9105H34.2916V15.8956H37.7327V17H32.9742ZM45.0249 9.72727V17H43.8531L40.4262 12.0462H40.3659V17H39.0484V9.72727H40.2274L43.6507 14.6847H43.7146V9.72727H45.0249Z" fill="#253F31"></path><path d="M48.0961 22.3582H29.6272C27.5941 22.3582 25.9422 20.7063 25.9422 18.6731V16.7996L21.7633 14.3417C21.5273 14.2037 21.3857 13.9532 21.3857 13.6773C21.3857 13.405 21.5273 13.1508 21.7633 13.0129L25.9422 10.5549V8.68149C25.9422 6.65195 27.5941 5 29.6272 5H48.0961C50.1292 5 51.7775 6.65195 51.7775 8.68149V18.6658C51.7775 20.7062 50.1292 22.3582 48.0961 22.3582ZM23.6694 13.6846L27.104 15.7032C27.3363 15.8412 27.4815 16.0917 27.4815 16.3676V18.6803C27.4815 19.8639 28.4436 20.826 29.6272 20.826H48.0961C49.2797 20.826 50.2418 19.8639 50.2418 18.6803V8.69603C50.2418 7.51607 49.2797 6.5503 48.0961 6.5503H29.6272C28.4436 6.5503 27.4815 7.51607 27.4815 8.69603V11.0124C27.4815 11.2847 27.3363 11.5352 27.104 11.6732L23.6694 13.6846Z" fill="#253F31"></path></svg>