<svg xmlns="http://www.w3.org/2000/svg" width="60" height="60" viewBox="0 0 60 60" fill="none"><rect width="60" height="60" fill="white"></rect><path d="M52.9133 30.2135C52.9133 25.3128 50.0989 19.396 44.7457 16.042C42.2429 17.3668 38.865 17.9453 35.1333 17.9453C31.4047 17.9453 28.0237 17.3698 25.524 16.042C20.1678 19.396 17.3563 25.3158 17.3563 30.2135C17.3563 37.5031 16.9307 47.5623 35.1333 47.5623C53.3359 47.5623 52.9133 37.5001 52.9133 30.2135Z" fill="#E66673"></path><path d="M42.7772 7.86248C41.3685 9.27424 39.0905 9.27424 37.6818 7.86248C36.2701 6.45372 33.9951 6.45372 32.5864 7.86248C31.1777 9.27424 28.8997 9.27424 27.491 7.86248C26.0793 6.45372 23.8043 6.45372 22.3926 7.86248C22.3926 9.89169 23.4866 11.7531 25.3029 13.2008C26.1961 13.1528 27.461 13.7373 29.2984 14.2768C30.815 14.7204 32.7213 15.1371 35.1341 15.1371C37.5529 15.1371 39.4562 14.7204 40.9729 14.2768C42.8102 13.7343 44.0751 13.1528 44.9653 13.2008C46.7816 11.7531 47.8756 9.89169 47.8756 7.86248C46.4669 6.45372 44.186 6.45372 42.7772 7.86248Z" fill="#E66673"></path><path d="M28.1533 28.4903C28.1533 32.4618 31.3724 35.684 35.3439 35.684C39.3183 35.684 42.5374 32.4618 42.5374 28.4903C42.5374 24.5188 39.3183 21.2966 35.3439 21.2966C31.3724 21.2966 28.1533 24.5188 28.1533 28.4903Z" fill="white"></path><path d="M35.3475 36.3192C31.0343 36.3192 27.5215 32.8093 27.5215 28.4931C27.5215 24.1769 31.0343 20.667 35.3475 20.667C39.6636 20.667 43.1734 24.1769 43.1734 28.4931C43.1734 32.8093 39.6636 36.3192 35.3475 36.3192ZM35.3475 21.9319C31.7327 21.9319 28.7863 24.8723 28.7863 28.4901C28.7863 32.1079 31.7297 35.0513 35.3475 35.0513C38.9652 35.0513 41.9055 32.1079 41.9055 28.4901C41.9055 24.8723 38.9652 21.9319 35.3475 21.9319Z" fill="#3F232C"></path><path d="M35.3492 27.8576C34.4081 27.8576 33.9495 27.462 33.9495 26.6467C33.9495 25.9753 34.5789 25.4327 35.3492 25.4327C36.1225 25.4327 36.749 25.9783 36.749 26.6467C36.749 26.9944 37.0367 27.2791 37.3844 27.2791C37.735 27.2791 38.0198 26.9944 38.0198 26.6467C38.0198 25.4807 37.1506 24.5065 35.9846 24.2398V23.7812C35.9846 23.4305 35.6999 23.1458 35.3492 23.1458C35.0016 23.1458 34.7168 23.4305 34.7168 23.7812V24.2398C33.5508 24.5065 32.6816 25.4807 32.6816 26.6467C32.6816 27.8456 33.38 29.1285 35.3492 29.1285C36.2904 29.1285 36.749 29.5271 36.749 30.3424C36.749 31.0108 36.1225 31.5533 35.3492 31.5533C34.5789 31.5533 33.9495 31.0078 33.9495 30.3424C33.9495 29.9917 33.6648 29.707 33.3141 29.707C32.9664 29.707 32.6816 29.9917 32.6816 30.3424C32.6816 31.5084 33.5508 32.4795 34.7168 32.7463V33.2049C34.7168 33.5556 35.0016 33.8403 35.3492 33.8403C35.6999 33.8403 35.9846 33.5556 35.9846 33.2049V32.7463C37.1506 32.4795 38.0198 31.5084 38.0198 30.3424C38.0168 29.1375 37.3185 27.8576 35.3492 27.8576Z" fill="#3F232C"></path><path d="M43.2989 16.6777C43.8055 16.4859 44.294 16.2791 44.7436 16.0393C44.8395 15.9883 44.9444 15.9464 45.0403 15.8924C45.0403 15.8924 46.8567 14.8313 45.9545 13.7013C45.6847 13.3686 45.3611 13.2248 44.9654 13.2008C44.0752 13.1528 42.8104 13.7373 40.973 14.2768C39.4564 14.7204 37.55 15.1371 35.1342 15.1371C32.7184 15.1371 30.8151 14.7204 29.2985 14.2768C27.4611 13.7343 26.1963 13.1528 25.3031 13.2008C24.9074 13.2248 24.5837 13.3686 24.317 13.7013C23.4118 14.8343 25.2312 15.8924 25.2312 15.8924C25.3241 15.9434 25.429 15.9883 25.5279 16.0393C28.0277 17.3641 31.4086 17.9426 35.1372 17.9426C37.0855 17.9426 38.9348 17.7778 40.6133 17.442L40.5144 17.472C43.5717 21.1558 43.8804 24.1681 45.1752 24.1531C46.6229 24.1352 46.0774 21.9591 46.0774 21.9591C45.5948 20.2176 44.6207 18.4342 43.2989 16.6777Z" fill="white"></path><path d="M53.5478 30.6963V30.2137C53.5478 25.7566 51.1679 19.7799 45.8927 16.0542C46.2613 15.7424 46.6989 15.2599 46.8158 14.6574C46.9028 14.1808 46.7769 13.7162 46.4502 13.3056C46.3573 13.1887 46.2584 13.0868 46.1475 12.9969C47.6761 11.5012 48.5093 9.70576 48.5093 7.85938C48.5093 7.69153 48.4434 7.53268 48.3205 7.41278C46.669 5.75824 43.9804 5.75824 42.3289 7.41278C41.7654 7.97629 41.0221 8.28201 40.2278 8.28201C39.4365 8.28201 38.6902 7.97329 38.1297 7.41278C36.4752 5.75824 33.7896 5.75824 32.1351 7.41278C31.5746 7.97629 30.8282 8.28201 30.037 8.28201C29.2427 8.28201 28.4993 7.97329 27.9389 7.41278C26.2843 5.75824 23.5988 5.75824 21.9442 7.41278C21.8274 7.53268 21.7614 7.69453 21.7614 7.85938C21.7614 9.70576 22.5946 11.5012 24.1233 12.9969C24.0154 13.0838 23.9135 13.1857 23.8205 13.3056C23.4938 13.7162 23.368 14.1808 23.4549 14.6574C23.5688 15.2599 24.0064 15.7365 24.375 16.0542C19.1028 19.7769 16.7229 25.7536 16.7229 30.2137L16.7199 30.6993C16.7169 34.9076 16.7079 40.15 20.3496 43.7948C23.308 46.7562 28.1456 48.1979 35.1353 48.1979C42.125 48.1979 46.9597 46.7592 49.9211 43.7948C53.5598 40.147 53.5538 34.9076 53.5478 30.6963ZM23.0353 8.13214C24.2012 7.155 25.9456 7.21496 27.0397 8.30899C27.8429 9.11229 28.907 9.5529 30.037 9.5529C31.1699 9.5529 32.231 9.11229 33.0343 8.30899C34.1912 7.15201 36.0765 7.15201 37.2335 8.30899C38.0338 9.11229 39.0978 9.5529 40.2278 9.5529C41.3607 9.5529 42.4218 9.11229 43.2251 8.30899C44.3221 7.21496 46.0635 7.155 47.2325 8.13214C47.1426 9.72674 46.2673 11.2884 44.7387 12.5652C44.6728 12.5682 44.5978 12.5832 44.5289 12.5892C44.4689 12.5952 44.412 12.6012 44.3491 12.6102C44.1992 12.6342 44.0434 12.6672 43.8815 12.7031C43.8395 12.7151 43.8006 12.7211 43.7586 12.7331C43.5668 12.784 43.363 12.841 43.1502 12.9069C43.1322 12.9129 43.1112 12.9189 43.0902 12.9249C42.8534 12.9999 42.6046 13.0838 42.3409 13.1707C41.8793 13.3266 41.3637 13.4974 40.7883 13.6653C39.5713 14.025 37.6561 14.5015 35.1293 14.5015C32.6056 14.5015 30.6933 14.025 29.4704 13.6653C28.9009 13.4974 28.3854 13.3266 27.9179 13.1707C27.6631 13.0868 27.4233 13.0059 27.1955 12.9339C27.1476 12.9189 27.1056 12.9069 27.0576 12.892C26.8718 12.835 26.695 12.784 26.5211 12.7361C26.4672 12.7241 26.4162 12.7121 26.3623 12.7001C26.2094 12.6612 26.0595 12.6312 25.9186 12.6102C25.8557 12.6012 25.7988 12.5952 25.7388 12.5892C25.6669 12.5832 25.589 12.5682 25.523 12.5652C24.0004 11.2884 23.1252 9.72974 23.0353 8.13214ZM42.8864 17.5019C42.9493 17.4809 43.0093 17.4599 43.0692 17.439C44.2471 19.0725 45.0534 20.6461 45.458 22.1148C45.557 22.5015 45.5959 23.1939 45.4101 23.4307C45.3861 23.4607 45.3442 23.5146 45.1643 23.5176H45.1613C44.8886 23.5176 44.445 22.6484 44.0134 21.8121C43.4798 20.766 42.7695 19.3902 41.6245 17.8676C41.6755 17.8556 41.7264 17.8436 41.7774 17.8316C41.9422 17.7866 42.0981 17.7417 42.26 17.6937C42.4728 17.6308 42.6856 17.5708 42.8864 17.5019ZM43.2341 16.0212C43.1142 16.0302 42.9943 16.0602 42.8924 16.1381C42.8864 16.1441 42.8834 16.1531 42.8744 16.1591C40.7882 16.9084 38.1566 17.3071 35.1324 17.3071C34.1762 17.3071 33.253 17.2651 32.3778 17.1902C31.8503 17.1422 31.3468 17.0763 30.8522 17.0013C28.88 16.7046 27.1715 16.195 25.8167 15.4787C25.7658 15.4517 25.7178 15.4277 25.6669 15.4038C25.6219 15.3828 25.58 15.3618 25.547 15.3438C25.2982 15.1969 24.7647 14.7803 24.6987 14.4206C24.6868 14.3457 24.6867 14.2438 24.8066 14.0969C24.9475 13.9201 25.0974 13.8481 25.3342 13.8331C25.4031 13.8271 25.4931 13.8421 25.568 13.8481C26.0506 13.8901 26.707 14.0999 27.5192 14.3727C27.9958 14.5345 28.5263 14.7084 29.1138 14.8822C30.4086 15.2659 32.4408 15.7724 35.1293 15.7724C37.8179 15.7724 39.8501 15.2659 41.148 14.8822C41.7354 14.7084 42.2659 14.5345 42.7425 14.3727C43.6837 14.0609 44.442 13.8091 44.9155 13.8331H44.9276C45.1673 13.8481 45.3142 13.9201 45.4551 14.0969C45.575 14.2468 45.5779 14.3457 45.563 14.4206C45.5 14.7773 44.9665 15.1969 44.7237 15.3378C44.6818 15.3618 44.6428 15.3828 44.5979 15.4007C44.5439 15.4277 44.4959 15.4517 44.448 15.4757C44.0763 15.6795 43.6627 15.8563 43.2341 16.0212ZM49.0189 42.8986C46.3123 45.6082 41.7684 46.93 35.1324 46.93C28.4963 46.93 23.9524 45.6112 21.2459 42.8986C17.9758 39.6224 17.9818 34.8806 17.9878 30.6993V30.2137C17.9878 25.9605 20.3317 20.2025 25.556 16.7735C25.6669 16.8305 25.7898 16.8755 25.9037 16.9294C26.0476 16.9923 26.1944 17.0613 26.3413 17.1242C26.5271 17.1992 26.7189 17.2711 26.9108 17.34C27.0636 17.397 27.2165 17.4539 27.3753 17.5079C27.5762 17.5738 27.789 17.6338 27.9958 17.6937C28.1606 17.7447 28.3165 17.7896 28.4843 17.8346C28.7031 17.8916 28.931 17.9395 29.1587 17.9905C29.3296 18.0294 29.4974 18.0684 29.6713 18.1014C29.911 18.1493 30.1598 18.1853 30.4056 18.2273C30.5825 18.2542 30.7503 18.2872 30.9301 18.3082C31.1939 18.3472 31.4697 18.3711 31.7424 18.4011C31.9163 18.4191 32.0811 18.4431 32.2579 18.4581C32.5637 18.485 32.8844 18.503 33.2021 18.521C33.355 18.53 33.5018 18.545 33.6547 18.551C34.1343 18.572 34.6228 18.5809 35.1234 18.5809C35.6269 18.5809 36.1155 18.572 36.592 18.551C36.7479 18.545 36.8918 18.53 37.0476 18.521C37.3623 18.503 37.6831 18.485 37.9918 18.4581C38.1686 18.4431 38.3335 18.4191 38.5043 18.4011C38.7801 18.3711 39.0588 18.3442 39.3226 18.3082C39.4994 18.2842 39.6673 18.2512 39.8411 18.2273C39.973 18.2063 40.1019 18.1823 40.2338 18.1613C41.5376 19.7919 42.3079 21.2876 42.8774 22.3966C43.5878 23.7874 44.1063 24.7915 45.1493 24.7915C45.1553 24.7915 45.1613 24.7915 45.1673 24.7915C45.8267 24.7855 46.2044 24.4708 46.4052 24.213C47.0347 23.3977 46.7439 22.0669 46.675 21.7941C46.2494 20.2505 45.4461 18.6259 44.2801 16.9654C44.3041 16.9534 44.3281 16.9414 44.3491 16.9324C44.466 16.8784 44.5859 16.8335 44.6998 16.7765C49.9241 20.2085 52.265 25.9634 52.265 30.2167L52.2679 30.7023C52.2829 34.8806 52.2889 39.6224 49.0189 42.8986Z" fill="#3F232C"></path><path d="M56.6902 39.6944C55.3923 38.5255 50.5487 41.0612 40.0312 44.5442C41.4669 43.9807 41.9734 43.1594 42.0244 42.3411C42.2522 38.6394 39.105 38.8222 39.105 38.8222C23.513 39.083 34.4682 35.3902 15.4892 35.1384C14.3023 35.1204 13.3252 36.0766 13.3252 37.2636V48.0031C13.3252 48.8903 13.8168 49.7056 14.611 50.1073C18.9901 52.3223 34.2614 57.9873 55.8 43.3632C55.8 43.3632 58.6264 41.4389 56.6902 39.6944Z" fill="#E66673"></path><path d="M57.1124 39.2237C55.9404 38.1687 53.5127 39.0589 48.1835 41.0072C46.5799 41.5917 44.6976 42.281 42.5335 43.0304C42.6054 42.8026 42.6414 42.5838 42.6534 42.38C42.7374 40.9952 42.4076 39.9161 41.6673 39.1728C40.6092 38.1117 39.1286 38.1866 39.0956 38.1896C31.7552 38.3185 30.5083 37.5782 29.0576 36.7299C27.3881 35.7498 25.4969 34.6408 15.4949 34.5059C14.7335 34.5029 14.0442 34.7786 13.5106 35.3062C12.9801 35.8277 12.6924 36.5231 12.6924 37.2665V48.006C12.6924 49.145 13.3158 50.1701 14.3229 50.6796C16.4061 51.7317 21.1897 53.677 28.0746 53.677C35.331 53.677 44.9224 51.5189 56.1562 43.8936C56.3331 43.7707 57.8947 42.6677 57.9936 41.184C58.0326 40.6805 57.9067 39.9341 57.1124 39.2237ZM55.4459 42.8386C34.1291 57.3098 19.0257 51.6298 14.9014 49.5407C14.3229 49.2469 13.9632 48.6564 13.9632 48V37.2605C13.9632 36.8588 14.1221 36.4812 14.4069 36.1994C14.6886 35.9176 15.0632 35.7648 15.4619 35.7648C15.4679 35.7648 15.4739 35.7648 15.4829 35.7648C25.1492 35.8967 26.8876 36.9158 28.4192 37.815C30.0318 38.7621 31.4195 39.5834 39.1436 39.4515C39.1526 39.4515 40.1237 39.4126 40.7681 40.063C41.2417 40.5366 41.4545 41.2889 41.3886 42.299C41.3466 43.0004 40.8371 43.5369 39.83 43.9416C39.824 43.9416 39.818 43.9446 39.812 43.9446C39.806 43.9506 39.8 43.9566 39.794 43.9596C39.788 43.9596 39.782 43.9596 39.782 43.9596C37.6 44.8108 33.5716 44.8618 27.8018 44.1184C27.4601 44.0675 27.1364 44.3162 27.0914 44.6669C27.0465 45.0116 27.2922 45.3324 27.6429 45.3743C30.3585 45.728 32.7173 45.9049 34.7046 45.9049C37.0904 45.9049 38.9458 45.6501 40.2436 45.1435C40.2496 45.1405 40.2586 45.1375 40.2646 45.1345C43.5976 44.0315 46.382 43.0124 48.618 42.1971C52.5535 40.7614 55.6617 39.6254 56.2642 40.1649C56.5999 40.4676 56.7527 40.7674 56.7317 41.0911C56.6838 41.8314 55.7846 42.6018 55.4459 42.8386Z" fill="#3F232C"></path><path d="M6.84997 33.3098H5.65404C3.99353 33.3098 2.63574 34.6676 2.63574 36.3282V48.3805C2.63574 50.0411 3.99353 51.3989 5.65404 51.3989H6.84997C8.51347 51.3989 9.87126 50.0411 9.87126 48.3805V36.3282C9.87126 34.6676 8.51047 33.3098 6.84997 33.3098Z" fill="#E66673"></path><path d="M6.84965 52.0316H5.65372C3.63953 52.0316 2 50.392 2 48.3778V36.3254C2 34.3112 3.63953 32.6716 5.65372 32.6716H6.84965C8.86683 32.6716 10.5034 34.3112 10.5034 36.3254V48.3778C10.5004 50.392 8.86683 52.0316 6.84965 52.0316ZM5.65072 33.9455C4.3379 33.9455 3.26785 35.0126 3.26785 36.3284V48.3808C3.26785 49.6937 4.33491 50.7637 5.65072 50.7637H6.84663C8.15945 50.7637 9.23247 49.6937 9.23247 48.3808V36.3284C9.23247 35.0156 8.16245 33.9455 6.84663 33.9455H5.65072Z" fill="#3F232C"></path><path d="M6.25059 44.733C6.08274 44.733 5.92687 44.6641 5.80698 44.5412C5.68709 44.4273 5.61816 44.2595 5.61816 44.0976C5.61816 43.9238 5.68709 43.7619 5.80698 43.648C6.04077 43.4142 6.4724 43.4142 6.70019 43.648C6.82308 43.7619 6.89203 43.9267 6.89203 44.0976C6.89203 44.2625 6.82308 44.4273 6.70019 44.5412C6.58629 44.6641 6.41844 44.733 6.25059 44.733Z" fill="#3F232C"></path><path d="M6.25059 48.4137C6.08274 48.4137 5.92687 48.3448 5.80698 48.2279C5.68709 48.108 5.61816 47.9431 5.61816 47.7783C5.61816 47.6134 5.68709 47.4486 5.80698 47.3287C6.04077 47.0949 6.4724 47.0949 6.70019 47.3287C6.82308 47.4486 6.89203 47.6164 6.89203 47.7783C6.89203 47.9461 6.82308 48.108 6.70019 48.2279C6.58629 48.3418 6.41844 48.4137 6.25059 48.4137Z" fill="#3F232C"></path></svg>