<svg xmlns="http://www.w3.org/2000/svg" width="61" height="60" viewBox="0 0 61 60" fill="none"><g id="Frame 190"><g id="Group"><g id="Group_2"><path id="Vector" d="M7.58691 45.5202C7.58691 47.9267 9.5551 49.8949 11.9616 49.8949H50.0104C52.4169 49.8949 54.3851 47.9267 54.3851 45.5202V15.9974H7.58691V45.5202Z" fill="#D9B1B5"></path></g><g id="Group_3"><path id="Vector_2" d="M50.0103 50.4916H11.9615C9.21848 50.4916 6.9873 48.2604 6.9873 45.5174V15.9946C6.9873 15.6638 7.25595 15.3979 7.58681 15.3979H54.3878C54.7187 15.3979 54.9873 15.6638 54.9873 15.9946V45.5174C54.9873 48.2604 52.7561 50.4916 50.0103 50.4916ZM8.18349 16.5941V45.5203C8.18349 47.6016 9.8802 49.2983 11.9615 49.2983H50.0103C52.0944 49.2983 53.7883 47.6016 53.7883 45.5203V16.5941H8.18349Z" fill="#4C3037"></path></g><g id="Group_4"><path id="Vector_3" d="M50.0104 10.469H11.9616C9.5551 10.469 7.58691 12.44 7.58691 14.8465V15.9946H54.3879V14.8465C54.3879 12.44 52.4197 10.469 50.0104 10.469Z" fill="white"></path></g><g id="Group_5"><path id="Vector_4" d="M54.3878 16.5941H7.58681C7.25595 16.5941 6.9873 16.3255 6.9873 15.9946V14.8465C6.9873 12.1035 9.22131 9.87231 11.9615 9.87231H50.0103C52.7533 9.87231 54.9845 12.1035 54.9845 14.8465V15.9946C54.9873 16.3255 54.7187 16.5941 54.3878 16.5941ZM8.18349 15.3979H53.7883V14.8465C53.7883 12.7652 52.0944 11.0685 50.0103 11.0685H11.9615C9.8802 11.0685 8.18349 12.7652 8.18349 14.8465V15.3979Z" fill="#4C3037"></path></g><g id="Group_6"><path id="Vector_5" d="M11.6112 13.8313C11.45 13.8313 11.3002 13.7663 11.187 13.6588C11.0739 13.5457 11.0117 13.3902 11.0117 13.2347C11.0117 13.0791 11.0711 12.9236 11.187 12.8133C11.4161 12.5899 11.8092 12.5899 12.0326 12.8133C12.1457 12.9236 12.2107 13.082 12.2107 13.2347C12.2107 13.393 12.1457 13.5457 12.0326 13.6532C11.9223 13.7663 11.7668 13.8313 11.6112 13.8313Z" fill="#4C3037"></path></g><g id="Group_7"><path id="Vector_6" d="M14.1904 13.2346C14.1904 12.9066 14.4591 12.6351 14.7899 12.6351C15.118 12.6351 15.3866 12.9066 15.3866 13.2346C15.3866 13.5627 15.118 13.8341 14.7899 13.8341C14.4591 13.8313 14.1904 13.5627 14.1904 13.2346Z" fill="#4C3037"></path></g><g id="Group_8"><path id="Vector_7" d="M17.9735 13.8313C17.818 13.8313 17.6625 13.7663 17.5494 13.6588C17.4362 13.5457 17.374 13.3902 17.374 13.2347C17.374 13.0791 17.4334 12.9236 17.5494 12.8133C17.7784 12.5899 18.1715 12.5899 18.4005 12.8133C18.508 12.9236 18.5759 13.082 18.5759 13.2347C18.5759 13.393 18.5108 13.5457 18.4005 13.6532C18.2846 13.7663 18.1291 13.8313 17.9735 13.8313Z" fill="#4C3037"></path></g><g id="Group_9"><path id="Vector_8" d="M17.9208 26.6896C17.7596 26.6896 17.6097 26.6246 17.4966 26.5114C17.3807 26.3983 17.3213 26.2485 17.3213 26.0901C17.3213 25.9261 17.3807 25.7734 17.4966 25.6659C17.7172 25.4453 18.1244 25.4453 18.345 25.6659C18.4524 25.7734 18.5175 25.9289 18.5175 26.0901C18.5175 26.2485 18.4524 26.3955 18.345 26.5114C18.2319 26.6246 18.0763 26.6896 17.9208 26.6896Z" fill="#4C3037"></path></g><g id="Group_10"><path id="Vector_9" d="M15.0572 26.09C15.0572 25.7535 15.3259 25.4849 15.6539 25.4849C15.9847 25.4849 16.2534 25.7535 16.2534 26.09C16.2534 26.4181 15.9847 26.6895 15.6539 26.6895C15.3259 26.6895 15.0572 26.4209 15.0572 26.09ZM12.7949 26.09C12.7949 25.7535 13.0664 25.4849 13.3944 25.4849C13.7225 25.4849 13.9939 25.7535 13.9939 26.09C13.9939 26.4181 13.7225 26.6895 13.3944 26.6895C13.0664 26.6895 12.7949 26.4209 12.7949 26.09Z" fill="#4C3037"></path></g><g id="Group_11"><path id="Vector_10" d="M11.1309 26.6895C10.9753 26.6895 10.8198 26.6245 10.7067 26.5114C10.5992 26.4039 10.5342 26.2484 10.5342 26.09C10.5342 25.926 10.5992 25.7733 10.7067 25.6658C10.9357 25.4396 11.3345 25.4453 11.5579 25.6658C11.6653 25.7733 11.7332 25.9288 11.7332 26.09C11.7332 26.2484 11.6681 26.3954 11.5579 26.5114C11.4419 26.6245 11.2892 26.6895 11.1309 26.6895Z" fill="#4C3037"></path></g><g id="Group_12"><path id="Vector_11" d="M10.5342 23.8305C10.5342 23.494 10.8028 23.231 11.1309 23.231C11.4617 23.231 11.7304 23.494 11.7304 23.8305C11.7304 24.1586 11.4617 24.4272 11.1309 24.4272C10.8028 24.4272 10.5342 24.1586 10.5342 23.8305ZM10.5342 21.5654C10.5342 21.2318 10.8028 20.9659 11.1309 20.9659C11.4617 20.9659 11.7304 21.2318 11.7304 21.5654C11.7304 21.8963 11.4617 22.165 11.1309 22.165C10.8028 22.165 10.5342 21.8963 10.5342 21.5654Z" fill="#4C3037"></path></g><g id="Group_13"><path id="Vector_12" d="M11.1309 19.9027C10.9753 19.9027 10.8198 19.8377 10.7067 19.7246C10.5992 19.6171 10.5342 19.4587 10.5342 19.306C10.5342 19.1477 10.5992 18.995 10.7067 18.8819C10.9301 18.6613 11.3288 18.6613 11.5579 18.8819C11.6653 18.995 11.7332 19.1477 11.7332 19.306C11.7332 19.4616 11.6681 19.6171 11.5579 19.7246C11.4419 19.8348 11.2892 19.9027 11.1309 19.9027Z" fill="#4C3037"></path></g><g id="Group_14"><path id="Vector_13" d="M15.0572 19.3032C15.0572 18.9696 15.3259 18.7037 15.6539 18.7037C15.9847 18.7037 16.2534 18.9696 16.2534 19.3032C16.2534 19.6313 15.9847 19.9027 15.6539 19.9027C15.3259 19.9027 15.0572 19.6313 15.0572 19.3032ZM12.7949 19.3032C12.7949 18.9696 13.0664 18.7037 13.3944 18.7037C13.7225 18.7037 13.9939 18.9696 13.9939 19.3032C13.9939 19.6313 13.7225 19.9027 13.3944 19.9027C13.0664 19.9027 12.7949 19.6313 12.7949 19.3032Z" fill="#4C3037"></path></g><g id="Group_15"><path id="Vector_14" d="M17.9208 19.9027C17.7653 19.9027 17.6097 19.8377 17.4966 19.7246C17.3807 19.6171 17.3213 19.4587 17.3213 19.306C17.3213 19.1477 17.3807 18.995 17.4966 18.8819C17.7228 18.6613 18.1244 18.6613 18.345 18.8819C18.4524 18.995 18.5175 19.1505 18.5175 19.306C18.5175 19.4616 18.4524 19.6171 18.345 19.7246C18.2319 19.8348 18.0763 19.9027 17.9208 19.9027Z" fill="#4C3037"></path></g><g id="Group_16"><path id="Vector_15" d="M17.3213 23.8305C17.3213 23.494 17.5899 23.231 17.918 23.231C18.2488 23.231 18.5146 23.494 18.5146 23.8305C18.5146 24.1586 18.246 24.4272 17.918 24.4272C17.5899 24.4272 17.3213 24.1586 17.3213 23.8305ZM17.3213 21.5654C17.3213 21.2318 17.5899 20.9659 17.918 20.9659C18.2488 20.9659 18.5146 21.2318 18.5146 21.5654C18.5146 21.8963 18.246 22.165 17.918 22.165C17.5899 22.165 17.3213 21.8963 17.3213 21.5654Z" fill="#4C3037"></path></g><g id="Group_17"><path id="Vector_16" d="M17.9177 29.4778H11.1309V36.2646H17.9177V29.4778Z" fill="white"></path></g><g id="Group_18"><path id="Vector_17" d="M17.9177 36.8641H11.1309C10.8 36.8641 10.5342 36.5927 10.5342 36.2646V29.4806C10.5342 29.1497 10.8028 28.8811 11.1309 28.8811H17.9177C18.2486 28.8811 18.5172 29.1497 18.5172 29.4806V36.2646C18.5172 36.5927 18.2514 36.8641 17.9177 36.8641ZM11.7304 35.6651H17.321V30.0744H11.7304V35.6651Z" fill="#4C3037"></path></g><g id="Group_19"><path id="Vector_18" d="M17.9177 39.6525H11.1309V46.4393H17.9177V39.6525Z" fill="white"></path></g><g id="Group_20"><path id="Vector_19" d="M17.9177 47.0388H11.1309C10.8 47.0388 10.5342 46.773 10.5342 46.4421V39.6553C10.5342 39.3272 10.8028 39.0586 11.1309 39.0586H17.9177C18.2486 39.0586 18.5172 39.3272 18.5172 39.6553V46.4421C18.5172 46.773 18.2514 47.0388 17.9177 47.0388ZM11.7304 45.8426H17.321V40.252H11.7304V45.8426Z" fill="#4C3037"></path></g><g id="Group_21"><path id="Vector_20" d="M50.8435 19.3004H44.0566V26.0873H50.8435V19.3004Z" fill="white"></path></g><g id="Group_22"><path id="Vector_21" d="M50.8434 26.6868H44.0565C43.7257 26.6868 43.457 26.4181 43.457 26.0873V19.3004C43.457 18.9724 43.7257 18.7037 44.0565 18.7037H50.8434C51.1742 18.7037 51.4429 18.9724 51.4429 19.3004V26.0873C51.4429 26.4209 51.1742 26.6868 50.8434 26.6868ZM44.6532 25.4906H50.2439V19.8999H44.6532V25.4906Z" fill="#4C3037"></path></g><g id="Group_23"><path id="Vector_22" d="M50.8417 36.8641C50.6833 36.8641 50.5306 36.7991 50.4147 36.686C50.3072 36.5757 50.2422 36.4202 50.2422 36.2675C50.2422 36.1035 50.3072 35.9564 50.4147 35.8433C50.6437 35.6227 51.0368 35.6227 51.2659 35.8433C51.3733 35.9564 51.4384 36.1063 51.4384 36.2675C51.4384 36.423 51.3733 36.5757 51.2659 36.686C51.1499 36.7991 51.0029 36.8641 50.8417 36.8641Z" fill="#4C3037"></path></g><g id="Group_24"><path id="Vector_23" d="M47.9809 36.2675C47.9809 35.931 48.2496 35.668 48.5804 35.668C48.9085 35.668 49.1771 35.931 49.1771 36.2675C49.1771 36.5955 48.9085 36.8642 48.5804 36.8642C48.2496 36.8642 47.9809 36.5955 47.9809 36.2675ZM45.7158 36.2675C45.7158 35.931 45.9873 35.668 46.3153 35.668C46.6518 35.668 46.9148 35.931 46.9148 36.2675C46.9148 36.5955 46.6518 36.8642 46.3153 36.8642C45.9873 36.8642 45.7158 36.5955 45.7158 36.2675Z" fill="#4C3037"></path></g><g id="Group_25"><path id="Vector_24" d="M44.0507 36.8641C43.8951 36.8641 43.7396 36.7991 43.6322 36.686C43.519 36.5757 43.4512 36.4202 43.4512 36.2675C43.4512 36.1035 43.5162 35.9564 43.6322 35.8433C43.8527 35.6227 44.2543 35.6227 44.4777 35.8433C44.5908 35.9507 44.6502 36.1063 44.6502 36.2675C44.6502 36.423 44.5908 36.5757 44.4777 36.686C44.3674 36.7991 44.2119 36.8641 44.0507 36.8641Z" fill="#4C3037"></path></g><g id="Group_26"><path id="Vector_25" d="M43.457 34.0024C43.457 33.6687 43.7257 33.4057 44.0537 33.4057C44.3902 33.4057 44.6532 33.6687 44.6532 34.0024C44.6532 34.3333 44.3902 34.6019 44.0537 34.6019C43.7257 34.6019 43.457 34.3333 43.457 34.0024ZM43.457 31.7401C43.457 31.4121 43.7257 31.1406 44.0537 31.1406C44.3902 31.1406 44.6532 31.4121 44.6532 31.7401C44.6532 32.0682 44.3902 32.3396 44.0537 32.3396C43.7257 32.3396 43.457 32.071 43.457 31.7401Z" fill="#4C3037"></path></g><g id="Group_27"><path id="Vector_26" d="M44.0507 30.0802C43.8951 30.0802 43.7396 30.0152 43.6322 29.8992C43.519 29.7918 43.4512 29.6362 43.4512 29.4835C43.4512 29.3195 43.5162 29.1725 43.6322 29.0594C43.8584 28.8388 44.2543 28.8388 44.4777 29.0594C44.5908 29.1725 44.6502 29.3223 44.6502 29.4835C44.6502 29.6391 44.5908 29.7918 44.4777 29.8992C44.3674 30.0123 44.2119 30.0802 44.0507 30.0802Z" fill="#4C3037"></path></g><g id="Group_28"><path id="Vector_27" d="M47.9809 29.4806C47.9809 29.1441 48.2496 28.8811 48.5804 28.8811C48.9085 28.8811 49.1771 29.1441 49.1771 29.4806C49.1771 29.8086 48.9085 30.0801 48.5804 30.0801C48.2496 30.0801 47.9809 29.8086 47.9809 29.4806ZM45.7158 29.4806C45.7158 29.1441 45.9873 28.8811 46.3153 28.8811C46.6518 28.8811 46.9148 29.1441 46.9148 29.4806C46.9148 29.8086 46.6518 30.0801 46.3153 30.0801C45.9873 30.0801 45.7158 29.8086 45.7158 29.4806Z" fill="#4C3037"></path></g><g id="Group_29"><path id="Vector_28" d="M50.8417 30.0802C50.6833 30.0802 50.5306 30.0152 50.4147 29.8992C50.3072 29.7918 50.2422 29.6362 50.2422 29.4835C50.2422 29.3195 50.3072 29.1725 50.4147 29.0594C50.6381 28.8388 51.0368 28.8388 51.2659 29.0594C51.3733 29.1725 51.4384 29.3223 51.4384 29.4835C51.4384 29.6391 51.3733 29.7918 51.2659 29.8992C51.1499 30.0123 51.0029 30.0802 50.8417 30.0802Z" fill="#4C3037"></path></g><g id="Group_30"><path id="Vector_29" d="M50.2422 34.0024C50.2422 33.6687 50.5108 33.4057 50.8417 33.4057C51.1697 33.4057 51.4384 33.6687 51.4384 34.0024C51.4384 34.3333 51.1697 34.6019 50.8417 34.6019C50.5108 34.6019 50.2422 34.3333 50.2422 34.0024ZM50.2422 31.7401C50.2422 31.4121 50.5108 31.1406 50.8417 31.1406C51.1697 31.1406 51.4384 31.4121 51.4384 31.7401C51.4384 32.0682 51.1697 32.3396 50.8417 32.3396C50.5108 32.3396 50.2422 32.071 50.2422 31.7401Z" fill="#4C3037"></path></g><g id="Group_31"><path id="Vector_30" d="M50.8435 39.6525H44.0566V46.4393H50.8435V39.6525Z" fill="white"></path></g><g id="Group_32"><path id="Vector_31" d="M50.8434 47.0388H44.0565C43.7257 47.0388 43.457 46.773 43.457 46.4421V39.6553C43.457 39.3272 43.7257 39.0586 44.0565 39.0586H50.8434C51.1742 39.0586 51.4429 39.3272 51.4429 39.6553V46.4421C51.4429 46.773 51.1742 47.0388 50.8434 47.0388ZM44.6532 45.8426H50.2439V40.252H44.6532V45.8426Z" fill="#4C3037"></path></g><g id="Group_33"><path id="Vector_32" d="M39.8172 19.8999H22.1601C21.8292 19.8999 21.5605 19.6313 21.5605 19.3004C21.5605 18.9724 21.8292 18.7037 22.1601 18.7037H39.8172C40.148 18.7037 40.4138 18.9724 40.4138 19.3004C40.4138 19.6313 40.148 19.8999 39.8172 19.8999Z" fill="#4C3037"></path></g><g id="Group_34"><path id="Vector_33" d="M39.8179 24.4245H28.744C28.4132 24.4245 28.1445 24.1558 28.1445 23.8249C28.1445 23.4969 28.4132 23.2283 28.744 23.2283H39.8179C40.1488 23.2283 40.4146 23.4969 40.4146 23.8249C40.4146 24.1558 40.1488 24.4245 39.8179 24.4245Z" fill="#4C3037"></path></g><g id="Group_35"><path id="Vector_34" d="M25.4497 24.4245H22.1581C21.8272 24.4245 21.5586 24.1558 21.5586 23.8249C21.5586 23.4969 21.8272 23.2283 22.1581 23.2283H25.4497C25.7806 23.2283 26.0492 23.4969 26.0492 23.8249C26.0492 24.1558 25.7834 24.4245 25.4497 24.4245Z" fill="#4C3037"></path></g><g id="Group_36"><path id="Vector_35" d="M30.2392 28.9462H22.1601C21.8292 28.9462 21.5605 28.6776 21.5605 28.3467C21.5605 28.0158 21.8292 27.7472 22.1601 27.7472H30.2392C30.5701 27.7472 30.8387 28.0158 30.8387 28.3467C30.8387 28.6776 30.5701 28.9462 30.2392 28.9462Z" fill="#4C3037"></path></g><g id="Group_37"><path id="Vector_36" d="M39.8166 28.9462H33.5303C33.1994 28.9462 32.9336 28.6776 32.9336 28.3467C32.9336 28.0158 33.2022 27.7472 33.5303 27.7472H39.8166C40.1475 27.7472 40.4133 28.0158 40.4133 28.3467C40.4133 28.6776 40.1475 28.9462 39.8166 28.9462Z" fill="#4C3037"></path></g><g id="Group_38"><path id="Vector_37" d="M39.8172 33.4707H22.1601C21.8292 33.4707 21.5605 33.2021 21.5605 32.8712C21.5605 32.5404 21.8292 32.2717 22.1601 32.2717H39.8172C40.148 32.2717 40.4138 32.5404 40.4138 32.8712C40.4138 33.2021 40.148 33.4707 39.8172 33.4707Z" fill="#4C3037"></path></g><g id="Group_39"><path id="Vector_38" d="M39.8171 37.9925H29.9394C29.6086 37.9925 29.3428 37.7238 29.3428 37.393C29.3428 37.0621 29.6114 36.7935 29.9394 36.7935H39.8171C40.148 36.7935 40.4138 37.0621 40.4138 37.393C40.4138 37.7238 40.148 37.9925 39.8171 37.9925Z" fill="#4C3037"></path></g><g id="Group_40"><path id="Vector_39" d="M26.6479 37.9925H22.1601C21.8292 37.9925 21.5605 37.7238 21.5605 37.393C21.5605 37.0621 21.8292 36.7935 22.1601 36.7935H26.6479C26.9787 36.7935 27.2474 37.0621 27.2474 37.393C27.2474 37.7238 26.9759 37.9925 26.6479 37.9925Z" fill="#4C3037"></path></g><g id="Group_41"><path id="Vector_40" d="M39.8172 42.517H22.1601C21.8292 42.517 21.5605 42.2484 21.5605 41.9175C21.5605 41.5866 21.8292 41.318 22.1601 41.318H39.8172C40.148 41.318 40.4138 41.5866 40.4138 41.9175C40.4138 42.2484 40.148 42.517 39.8172 42.517Z" fill="#4C3037"></path></g><g id="Group_42"><path id="Vector_41" d="M35.6263 47.0388H22.1601C21.8292 47.0388 21.5605 46.773 21.5605 46.4422C21.5605 46.1113 21.8292 45.8427 22.1601 45.8427H35.6263C35.9572 45.8427 36.223 46.1113 36.223 46.4422C36.2258 46.773 35.9572 47.0388 35.6263 47.0388Z" fill="#4C3037"></path></g></g></g></svg>