<svg xmlns="http://www.w3.org/2000/svg" width="61" height="60" viewBox="0 0 61 60" fill="none"><g id="Frame 191"><g id="Group"><g id="Group_2"><path id="Vector" d="M52.078 10.5524H8.9241C7.88974 10.5524 7.05078 11.3887 7.05078 12.4257V39.2878C7.05078 40.3195 7.88713 41.1585 8.9241 41.1585H52.078C53.1097 41.1585 53.9513 40.3221 53.9513 39.2878V12.4257C53.9513 11.3887 53.1097 10.5524 52.078 10.5524Z" fill="#E66673"></path><path id="Vector_2" d="M34.931 41.1584H26.0699L23.0059 46.5048H37.995L34.931 41.1584Z" fill="white"></path><path id="Vector_3" d="M46.1549 46.5048H14.8479C14.1913 46.5048 13.6572 47.0415 13.6572 47.6954C13.6572 48.352 14.1913 48.8861 14.8479 48.8861H46.1549C46.8088 48.8861 47.3455 48.352 47.3455 47.6954C47.3455 47.0415 46.8088 46.5048 46.1549 46.5048Z" fill="#E66673"></path><path id="Vector_4" d="M52.0769 10H8.92306C7.58647 10 6.5 11.0865 6.5 12.4257V39.2877C6.5 40.6243 7.58647 41.7108 8.92306 41.7108H25.1185L22.6876 45.9524H14.8478C13.8864 45.9524 13.1048 46.7367 13.1048 47.6955C13.1048 48.6569 13.8864 49.4385 14.8478 49.4385H46.1522C47.1136 49.4385 47.8952 48.6569 47.8952 47.6955C47.8952 46.7367 47.1136 45.9524 46.1522 45.9524H38.315L35.8815 41.7108H52.0769C53.4135 41.7108 54.5 40.6243 54.5 39.2877V12.4257C54.5 11.0865 53.4135 10 52.0769 10ZM46.7931 47.6955C46.7931 48.0498 46.5065 48.3364 46.1522 48.3364H14.8478C14.4935 48.3364 14.2069 48.0498 14.2069 47.6955C14.2069 47.3437 14.4935 47.0571 14.8478 47.0571H23.0054H37.9946H46.1522C46.5039 47.0571 46.7931 47.3437 46.7931 47.6955ZM37.0409 45.9524H23.9564L26.3899 41.7108H34.6101L37.0409 45.9524ZM53.3979 39.2877C53.3979 40.0147 52.8039 40.6087 52.0769 40.6087H34.9305H26.0695H8.92306C8.19614 40.6087 7.60211 40.0147 7.60211 39.2877V12.4257C7.60211 11.6961 8.19614 11.1047 8.92306 11.1047H52.0769C52.8039 11.1047 53.3979 11.6961 53.3979 12.4257V39.2877Z" fill="#3F232C"></path><path id="Vector_5" d="M50.7173 13.7856H10.2861V36.4972H50.7173V13.7856Z" fill="white"></path><path id="Vector_6" d="M34.5449 39.3816H26.4576C26.1528 39.3816 25.9053 39.134 25.9053 38.8292C25.9053 38.5244 26.1528 38.2769 26.4576 38.2769H34.5449C34.8471 38.2769 35.0973 38.5244 35.0973 38.8292C35.0947 39.134 34.8471 39.3816 34.5449 39.3816Z" fill="#3F232C"></path><path id="Vector_7" d="M40.3691 17.6964H30.4424V27.6231H40.3691V17.6964Z" fill="#E66673"></path><path id="Vector_8" d="M40.3687 28.1756H30.4394C30.1372 28.1756 29.8896 27.9281 29.8896 27.6232V17.6965C29.8896 17.3917 30.1372 17.1442 30.4394 17.1442H40.3687C40.6709 17.1442 40.9211 17.3917 40.9211 17.6965V27.6232C40.9211 27.9281 40.6709 28.1756 40.3687 28.1756ZM30.9917 27.0735H39.8164V18.2489H30.9917V27.0735Z" fill="#3F232C"></path><path id="Vector_9" d="M45.3326 33.1389H35.4059C35.101 33.1389 34.8535 32.8913 34.8535 32.5865V22.6598C34.8535 22.3549 35.101 22.1074 35.4059 22.1074H45.3326C45.6374 22.1074 45.8849 22.3549 45.8849 22.6598V32.5865C45.8849 32.8913 45.6374 33.1389 45.3326 33.1389ZM35.9582 32.0341H44.7828V23.2095H35.9582V32.0341Z" fill="#3F232C"></path><path id="Vector_10" d="M33.5841 22.6624C33.5841 24.3976 32.1772 25.8046 30.442 25.8046C28.7067 25.8046 27.2998 24.3976 27.2998 22.6624C27.2998 20.9246 28.7067 19.5203 30.442 19.5203C32.1772 19.5203 33.5841 20.9246 33.5841 22.6624Z" fill="white"></path><path id="Vector_11" d="M30.4419 26.3543C28.4071 26.3543 26.75 24.6973 26.75 22.6624C26.75 20.625 28.4071 18.9679 30.4419 18.9679C32.4794 18.9679 34.1364 20.625 34.1364 22.6624C34.1364 24.6973 32.482 26.3543 30.4419 26.3543ZM30.4419 20.0674C29.0141 20.0674 27.8521 21.2294 27.8521 22.6598C27.8521 24.0876 29.0141 25.2496 30.4419 25.2496C31.8723 25.2496 33.0343 24.0876 33.0343 22.6598C33.0343 21.232 31.8723 20.0674 30.4419 20.0674Z" fill="#3F232C"></path><path id="Vector_12" d="M42.4395 30.1296L45.3315 25.1194L48.2235 30.1296H42.4395Z" fill="#E66673"></path><path id="Vector_13" d="M48.2235 30.6819H42.4368C42.2414 30.6819 42.0564 30.5777 41.96 30.4058C41.861 30.2364 41.861 30.0254 41.96 29.856L44.852 24.8431C44.9484 24.6738 45.1308 24.5696 45.3288 24.5696C45.5268 24.5696 45.7092 24.6738 45.8082 24.8431L48.7003 29.856C48.7993 30.0254 48.7993 30.2364 48.7003 30.4058C48.6039 30.5777 48.4241 30.6819 48.2235 30.6819ZM43.3956 29.5772H47.2699L45.3314 26.2214L43.3956 29.5772Z" fill="#3F232C"></path><path id="Vector_14" d="M18.5115 18.9523C18.5115 18.9523 15.8331 21.0444 12.6883 21.2346V20.6979H10.2861V24.6243H12.6883V24.0876C15.8331 24.2778 18.5115 26.37 18.5115 26.37L24.7958 22.6624L18.5115 18.9523Z" fill="#E66673"></path><path id="Vector_15" d="M23.8852 29.1813C23.8018 29.1813 23.7184 29.1631 23.6351 29.124C23.3641 28.9859 23.2547 28.655 23.3901 28.384L26.3968 22.415C26.5349 22.144 26.8658 22.0346 27.1368 22.1701C27.4077 22.3081 27.5172 22.639 27.3817 22.91L24.3776 28.8791C24.2812 29.0719 24.0884 29.1813 23.8852 29.1813Z" fill="#3F232C"></path><path id="Vector_16" d="M26.8912 23.2122C26.688 23.2122 26.4952 23.1028 26.3988 22.91L23.3921 16.9409C23.2566 16.67 23.366 16.3391 23.637 16.201C23.9106 16.0629 24.2415 16.1749 24.3796 16.4459L27.3836 22.4149C27.5217 22.6859 27.4123 23.0168 27.1387 23.1549C27.058 23.194 26.972 23.2122 26.8912 23.2122Z" fill="#3F232C"></path><path id="Vector_17" d="M27.8339 21.3779H25.2676V23.9417H27.8339V21.3779Z" fill="#E66673"></path><path id="Vector_18" d="M27.8335 24.4967H25.2672C24.965 24.4967 24.7148 24.2492 24.7148 23.9443V21.378C24.7148 21.0758 24.965 20.8282 25.2672 20.8282H27.8335C28.1384 20.8282 28.3833 21.0758 28.3833 21.378V23.9443C28.3833 24.2492 28.1384 24.4967 27.8335 24.4967ZM25.8195 23.392H27.2838V21.9277H25.8195V23.392Z" fill="#3F232C"></path><path id="Vector_19" d="M50.7179 13.2334H10.2867C9.98189 13.2334 9.73438 13.4835 9.73438 13.7857V20.6954V24.6218V36.4974C9.73438 36.7996 9.98189 37.0497 10.2867 37.0497H50.7179C51.0201 37.0497 51.2677 36.7996 51.2677 36.4974V13.7857C51.265 13.4835 51.0201 13.2334 50.7179 13.2334ZM10.8391 21.2503H12.1366V24.0746H10.8391V21.2503ZM50.1656 35.945H10.8391V25.1767H12.6889C12.9677 25.1767 13.1892 24.9657 13.2257 24.6947C15.9093 25.0673 18.1499 26.7869 18.1708 26.8051C18.2698 26.8807 18.3896 26.9224 18.5121 26.9224C18.6085 26.9224 18.7023 26.8963 18.7909 26.8468L25.0778 23.1367C25.2445 23.0377 25.3488 22.8605 25.3488 22.6625C25.3488 22.4645 25.2472 22.2847 25.0778 22.1857L18.7909 18.4781C18.5955 18.3635 18.3506 18.3791 18.1708 18.5172C18.1473 18.5381 15.9093 20.2577 13.2257 20.6276C13.1892 20.3567 12.9677 20.1456 12.6889 20.1456H10.8391V14.3381H50.1656V35.945ZM19.153 23.2122H22.7798L18.5434 25.7108C17.78 25.1819 15.7034 23.8844 13.2413 23.5874V21.7375C15.7034 21.4379 17.78 20.143 18.5434 19.6115L22.7798 22.1101H19.153C18.8482 22.1101 18.6007 22.3576 18.6007 22.6625C18.6007 22.9647 18.8482 23.2122 19.153 23.2122Z" fill="#3F232C"></path><path id="Vector_20" d="M18.6597 21.5656C19.2616 21.5656 19.754 22.058 19.754 22.6624C19.754 23.2643 19.2642 23.7567 18.6597 23.7567C18.0552 23.7567 17.5654 23.2669 17.5654 22.6624C17.5654 22.0554 18.0526 21.5656 18.6597 21.5656Z" fill="white"></path><path id="Vector_21" d="M18.6603 24.3065C17.751 24.3065 17.0137 23.5665 17.0137 22.6598C17.0137 21.7505 17.751 21.0132 18.6603 21.0132C19.567 21.0132 20.3069 21.7505 20.3069 22.6598C20.3069 23.5665 19.5644 24.3065 18.6603 24.3065ZM18.6603 22.1179C18.3607 22.1179 18.1158 22.3628 18.1158 22.6624C18.1158 22.9595 18.3607 23.2044 18.6603 23.2044C18.9573 23.2044 19.2022 22.9595 19.2022 22.6624C19.2022 22.3602 18.9573 22.1179 18.6603 22.1179Z" fill="#3F232C"></path></g></g></g></svg>