<svg xmlns="http://www.w3.org/2000/svg" width="61" height="60" viewBox="0 0 61 60" fill="none"><path d="M57.4712 0.83606H3.52881C2.23586 0.83606 1.19043 2.10833 1.19043 3.68582V44.5539C1.19043 46.1234 2.23586 47.3997 3.52881 47.3997H57.4712C58.7641 47.3997 59.8128 46.1274 59.8128 44.5539V3.68582C59.8128 2.1123 58.7641 0.83606 57.4712 0.83606Z" fill="#94D0B7"></path><path d="M55.7714 5.75842H5.23242V40.3086H55.7714V5.75842Z" fill="white"></path><path d="M55.7678 41.1453H5.2321C4.85106 41.1453 4.54492 40.7688 4.54492 40.305V5.75488C4.54492 5.29115 4.85431 4.91858 5.2321 4.91858H55.7711C56.1522 4.91858 56.4583 5.29115 56.4583 5.75488V40.305C56.4583 40.7727 56.1489 41.1453 55.7678 41.1453ZM5.92255 39.4687H55.0807V6.5991H5.92255V39.4687Z" fill="#253F31"></path><path d="M50.065 55.5291H10.9346V59.1557H50.065V55.5291Z" fill="#94D0B7"></path><path d="M28.8926 44.6927H25.4469C25.0659 44.6927 24.7598 44.3161 24.7598 43.8524C24.7598 43.3887 25.0692 43.0161 25.4469 43.0161H28.8926C29.2737 43.0161 29.5831 43.3887 29.5831 43.8524C29.5831 44.3161 29.2737 44.6927 28.8926 44.6927Z" fill="#253F31"></path><path d="M35.5531 44.6927H32.1074C31.7264 44.6927 31.417 44.3161 31.417 43.8524C31.417 43.3887 31.7264 43.0161 32.1074 43.0161H35.5531C35.9342 43.0161 36.2436 43.3887 36.2436 43.8524C36.2436 44.3161 35.9342 44.6927 35.5531 44.6927Z" fill="#253F31"></path><path d="M22.9099 55.5292H18.79L22.239 47.396H26.3588L22.9099 55.5292Z" fill="#94D0B7"></path><path d="M38.0931 55.5292H42.213L38.7673 47.396H34.6475L38.0931 55.5292Z" fill="#94D0B7"></path><path d="M57.4712 0H3.52882C1.85809 0 0.5 1.65676 0.5 3.69005V44.5581C0.5 46.5914 1.85809 48.2442 3.52882 48.2442H21.1058L18.3701 54.6968H10.9348C10.5537 54.6968 10.2443 55.0773 10.2443 55.5371V59.1637C10.2443 59.6235 10.5537 60 10.9348 60H50.0652C50.4463 60 50.7557 59.6235 50.7557 59.1637V55.5371C50.7557 55.0773 50.4463 54.6968 50.0652 54.6968H42.6332L39.8975 48.2442H57.4712C59.1419 48.2442 60.5 46.5914 60.5 44.5581V3.69005C60.5 1.65279 59.1419 0 57.4712 0ZM22.656 48.2362H25.2256L22.4899 54.6889H19.9203L22.656 48.2362ZM34.2274 48.2362L36.9631 54.6889H24.0434L26.7791 48.2362H34.2274ZM49.378 58.3155H11.6252V56.3694H18.7934H22.9133H38.0965H42.2163H49.3813L49.378 58.3155ZM41.083 54.6889H38.5134L35.7776 48.2362H38.344L41.083 54.6889ZM59.1224 44.5541C59.1224 45.6599 58.3831 46.5636 57.4712 46.5636H38.7641H34.6443H26.3557H22.2359H3.52557C2.61692 46.5636 1.87437 45.6599 1.87437 44.5541V3.68606C1.87437 2.58023 2.61692 1.67656 3.52557 1.67656H57.4679C58.3798 1.67656 59.1191 2.58023 59.1191 3.68606L59.1224 44.5541Z" fill="#253F31"></path><path d="M22.4801 19.7265C22.5387 19.2786 22.5745 18.8189 22.5745 18.3472C22.5745 17.8795 22.5387 17.4237 22.4801 16.9719L20.1059 16.5121C20.0375 16.2584 19.9495 16.0087 19.8518 15.7709L21.262 13.4047C20.8191 12.6556 20.2817 11.9976 19.6629 11.4586L17.7186 13.1787C17.5232 13.0598 17.318 12.9488 17.1063 12.8696L16.7286 9.98017C16.3605 9.90487 15.9828 9.86523 15.5985 9.86523C15.2142 9.86523 14.8364 9.90883 14.4683 9.98017L14.0906 12.8696C13.8821 12.9528 13.6769 13.0598 13.4783 13.1748L11.534 11.4586C10.9217 11.9976 10.3811 12.6556 9.93487 13.4047L11.3483 15.7709C11.2506 16.0087 11.1627 16.2544 11.0943 16.5121L8.72335 16.9719C8.66147 17.4197 8.62891 17.8795 8.62891 18.3472C8.62891 18.8189 8.66147 19.2747 8.72335 19.7265L11.0943 20.1823C11.1627 20.4399 11.2506 20.6857 11.3483 20.9275L9.93487 23.2937C10.3778 24.0428 10.9184 24.7007 11.534 25.2398L13.4783 23.5196C13.6769 23.6425 13.8789 23.7455 14.0906 23.8288L14.4683 26.7182C14.8331 26.7935 15.2142 26.8292 15.5985 26.8292C15.9828 26.8292 16.3605 26.7895 16.7286 26.7182L17.1063 23.8288C17.3148 23.7455 17.52 23.6385 17.7186 23.5196L19.6629 25.2398C20.2785 24.7007 20.8191 24.0428 21.262 23.2937L19.8518 20.9275C19.9495 20.6897 20.0375 20.4439 20.1059 20.1823L22.4801 19.7265Z" fill="#94D0B7"></path><path d="M15.605 27.6656C15.1848 27.6656 14.768 27.626 14.3641 27.5428C14.071 27.4873 13.843 27.2058 13.7974 26.8491L13.4946 24.5543L11.9476 25.9177C11.7066 26.1357 11.3809 26.1357 11.1399 25.9217C10.4625 25.3271 9.86975 24.6098 9.38448 23.7814C9.21187 23.492 9.21187 23.0917 9.38774 22.8024L10.5081 20.9197L8.62239 20.555C8.32928 20.4956 8.1013 20.2181 8.05245 19.8654C7.98406 19.366 7.94824 18.8547 7.94824 18.3474C7.94824 17.844 7.98406 17.3327 8.05245 16.8333C8.1013 16.4766 8.32928 16.1991 8.62239 16.1436L10.5081 15.779L9.38774 13.8963C9.21187 13.607 9.21187 13.2106 9.38448 12.9173C9.86975 12.0929 10.4592 11.3715 11.1399 10.777C11.3809 10.563 11.7066 10.5669 11.9476 10.777L13.4946 12.1444L13.7974 9.84951C13.843 9.49279 14.071 9.2114 14.3641 9.15195C15.1848 8.98548 16.0316 8.98548 16.8523 9.15195C17.1454 9.2114 17.3734 9.49279 17.419 9.84951L17.7186 12.1444L19.2656 10.777C19.5066 10.5669 19.829 10.5669 20.0733 10.777C20.754 11.3676 21.3467 12.0889 21.832 12.9173C22.0046 13.2106 22.0013 13.607 21.8287 13.8963L20.7084 15.779L22.5941 16.1436C22.8872 16.1991 23.1184 16.4805 23.1673 16.8372C23.2356 17.3485 23.2715 17.8559 23.2715 18.3474C23.2715 18.8388 23.2356 19.3501 23.1673 19.8614C23.1184 20.2181 22.8904 20.4956 22.5941 20.555L20.7084 20.9197L21.8287 22.8024C22.0046 23.0917 22.0046 23.4881 21.8287 23.7814C21.3434 24.6098 20.7507 25.3311 20.0733 25.9217C19.8323 26.1317 19.5066 26.1317 19.2656 25.9177L17.7186 24.5543L17.419 26.8491C17.3734 27.2058 17.1454 27.4873 16.8523 27.5428C16.442 27.626 16.0218 27.6656 15.605 27.6656ZM15.0741 25.9613C15.4259 25.997 15.7841 25.997 16.1358 25.9613L16.4322 23.6981C16.4745 23.3929 16.6504 23.1353 16.8947 23.0362C17.0738 22.9609 17.2464 22.8737 17.4157 22.7746C17.647 22.6319 17.9238 22.6597 18.1322 22.846L19.6564 24.1936C19.9267 23.9161 20.1775 23.6109 20.4055 23.2819L19.2982 21.4231C19.1484 21.1734 19.1256 20.8365 19.2396 20.555C19.321 20.3529 19.3991 20.1428 19.4578 19.9209C19.5392 19.6276 19.7509 19.4096 20.0016 19.358L21.8613 18.9974C21.8776 18.7794 21.8841 18.5653 21.8841 18.3513C21.8841 18.1373 21.8743 17.9272 21.8613 17.7053L20.0016 17.3446C19.7476 17.297 19.5359 17.083 19.4578 16.7817C19.3991 16.5637 19.321 16.3537 19.2396 16.1476C19.1256 15.8701 19.1484 15.5372 19.2982 15.2796L20.4055 13.4246C20.1775 13.0957 19.9267 12.7905 19.6564 12.513L18.1322 13.8606C17.9238 14.0429 17.6502 14.0707 17.4223 13.9359C17.2529 13.8369 17.0803 13.7417 16.9012 13.6704C16.6569 13.5753 16.4778 13.3176 16.4387 13.0085L16.1423 10.7413C15.7906 10.7057 15.4356 10.7057 15.0806 10.7413L14.7843 13.0085C14.7419 13.3176 14.566 13.5753 14.3185 13.6704C14.1362 13.7417 13.9635 13.8369 13.7942 13.9359C13.5662 14.0707 13.2926 14.0429 13.0875 13.8606L11.56 12.513C11.2897 12.7905 11.0389 13.0957 10.811 13.4246L11.9183 15.2796C12.0681 15.5332 12.0909 15.8701 11.9736 16.1555C11.889 16.3577 11.8173 16.5677 11.7587 16.7778C11.6773 17.075 11.4656 17.297 11.2116 17.3446L9.35192 17.7053C9.33564 17.9232 9.32912 18.1373 9.32912 18.3513C9.32912 18.5693 9.33564 18.7834 9.35192 18.9974L11.2116 19.358C11.4656 19.4096 11.6773 19.6236 11.7587 19.9248C11.8173 20.1389 11.889 20.345 11.9704 20.5471C12.0876 20.8285 12.0648 21.1654 11.915 21.4231L10.8077 23.2819C11.0357 23.6109 11.2865 23.9161 11.5568 24.1936L13.0842 22.846C13.2959 22.6597 13.5727 22.6319 13.804 22.7746C13.9635 22.8737 14.1329 22.9609 14.3185 23.0362C14.5628 23.1353 14.7387 23.3929 14.781 23.6981L15.0741 25.9613Z" fill="#253F31"></path><path d="M17.8785 18.3466C17.8785 19.8765 16.8591 21.1132 15.6053 21.1132C14.3481 21.1132 13.332 19.8726 13.332 18.3466C13.332 16.8167 14.3514 15.5801 15.6053 15.5801C16.8624 15.5801 17.8785 16.8207 17.8785 18.3466Z" fill="white"></path><path d="M15.6053 21.9579C13.9704 21.9579 12.6416 20.3408 12.6416 18.3511C12.6416 16.3654 13.9704 14.7443 15.6053 14.7443C17.2402 14.7443 18.569 16.3654 18.569 18.3511C18.569 20.3368 17.2402 21.9579 15.6053 21.9579ZM15.6053 16.4209C14.7325 16.4209 14.0225 17.2849 14.0225 18.3471C14.0225 19.4133 14.7325 20.2734 15.6053 20.2734C16.4781 20.2734 17.1913 19.4094 17.1913 18.3471C17.1913 17.2849 16.4781 16.4209 15.6053 16.4209Z" fill="#253F31"></path><path d="M36.2659 28.9529C36.3278 28.505 36.3603 28.0453 36.3603 27.5776C36.3603 27.1099 36.3278 26.6501 36.2659 26.1982L33.8949 25.7424C33.8265 25.4888 33.7386 25.2391 33.6409 24.9973L35.0511 22.6311C34.6082 21.882 34.0675 21.224 33.452 20.685L31.5077 22.4052C31.309 22.2863 31.1071 22.1792 30.8954 22.096L30.5176 19.2066C30.1496 19.1313 29.7718 19.0956 29.3875 19.0956C29.0032 19.0956 28.6254 19.1352 28.2574 19.2066L27.8764 22.096C27.6647 22.1792 27.4628 22.2862 27.2673 22.4012L25.323 20.685C24.7075 21.224 24.1669 21.882 23.7239 22.6311L25.1374 24.9973C25.0397 25.2391 24.9518 25.4848 24.8834 25.7424L22.5124 26.1982C22.4538 26.6461 22.418 27.1059 22.418 27.5776C22.418 28.0453 22.4505 28.5011 22.5124 28.9529L24.8834 29.4127C24.955 29.6664 25.0397 29.916 25.1374 30.1539L23.7239 32.5201C24.1669 33.2692 24.7075 33.9272 25.323 34.4662L27.2673 32.746C27.4628 32.8689 27.6647 32.9719 27.8764 33.0552L28.2574 35.9446C28.6222 36.0199 29 36.0556 29.3875 36.0556C29.7718 36.0556 30.1496 36.016 30.5176 35.9446L30.8954 33.0552C31.1039 32.9719 31.309 32.8649 31.5077 32.746L33.452 34.4662C34.0675 33.9272 34.6082 33.2692 35.0511 32.5201L33.6409 30.1539C33.7386 29.916 33.8265 29.6703 33.8949 29.4127L36.2659 28.9529Z" fill="#94D0B7"></path><path d="M29.3911 36.8925C28.971 36.8925 28.5541 36.8528 28.1503 36.7736C27.8572 36.7141 27.6259 36.4327 27.5836 36.076L27.2807 33.7811L25.7337 35.1485C25.4927 35.3625 25.167 35.3625 24.926 35.1485C24.2486 34.5579 23.6559 33.8366 23.1706 33.0121C22.998 32.7188 22.998 32.3185 23.1739 32.0292L24.2942 30.1465L22.4085 29.7819C22.1154 29.7224 21.8842 29.4489 21.8386 29.0922C21.7669 28.5928 21.7344 28.0815 21.7344 27.5782C21.7344 27.0708 21.7669 26.5595 21.8386 26.0601C21.8874 25.7034 22.1154 25.4299 22.4085 25.3704L24.2942 25.0058L23.1739 23.1271C22.998 22.8338 22.998 22.4374 23.1706 22.1441C23.6559 21.3197 24.2454 20.5984 24.926 20.0038C25.167 19.7938 25.4927 19.7938 25.7337 20.0078L27.2807 21.3712L27.5836 19.0764C27.6292 18.7196 27.8572 18.4422 28.1503 18.3788C28.971 18.2123 29.8178 18.2123 30.6385 18.3788C30.9316 18.4422 31.1596 18.7196 31.2051 19.0764L31.5048 21.3712L33.0517 20.0078C33.2927 19.7938 33.6152 19.7938 33.8562 20.0038C34.5368 20.5984 35.1296 21.3197 35.6149 22.1441C35.7875 22.4374 35.7842 22.8338 35.6116 23.1271L34.4913 25.0058L36.3769 25.3704C36.67 25.4299 36.9013 25.7074 36.9501 26.0641C37.0185 26.5754 37.0544 27.0827 37.0544 27.5782C37.0544 28.0696 37.0185 28.577 36.9501 29.0883C36.9013 29.445 36.67 29.7224 36.3769 29.7819L34.4913 30.1505L35.6116 32.0292C35.7875 32.3185 35.7875 32.7188 35.6149 33.0121C35.1296 33.8366 34.5368 34.5579 33.8594 35.1485C33.6184 35.3625 33.2927 35.3586 33.0517 35.1485L31.508 33.7811L31.2084 36.076C31.1628 36.4327 30.9316 36.7141 30.6417 36.7736C30.2281 36.8528 29.8112 36.8925 29.3911 36.8925ZM28.8602 35.1881C29.212 35.2238 29.5702 35.2238 29.922 35.1881L30.2183 32.925C30.2574 32.6198 30.4365 32.3621 30.6808 32.2631C30.8599 32.1877 31.0325 32.1005 31.2019 32.0015C31.4331 31.8588 31.7067 31.8865 31.9184 32.0688L33.4426 33.4164C33.7129 33.139 33.9637 32.8338 34.1916 32.5048L33.0843 30.6459C32.9345 30.3962 32.9117 30.0633 33.0257 29.7779C33.1071 29.5757 33.182 29.3657 33.2439 29.1477C33.3253 28.8504 33.537 28.6324 33.791 28.5849L35.6507 28.2202C35.667 28.0022 35.6735 27.7882 35.6735 27.5782C35.6735 27.3641 35.667 27.1501 35.6507 26.9321L33.791 26.5714C33.537 26.5199 33.3253 26.3058 33.2439 26.0046C33.182 25.7866 33.1104 25.5765 33.0257 25.3704C32.9117 25.093 32.9345 24.7601 33.0843 24.5064L34.1916 22.6515C33.9637 22.3185 33.7129 22.0133 33.4426 21.7359L31.9184 23.0835C31.7132 23.2658 31.4396 23.2975 31.2084 23.1588C31.039 23.0597 30.8664 22.9646 30.6873 22.8972C30.4431 22.7981 30.2639 22.5405 30.2216 22.2313L29.9252 19.9681C29.5735 19.9285 29.2152 19.9285 28.8635 19.9681L28.5671 22.2313C28.5248 22.5405 28.3489 22.7981 28.1014 22.8972C27.919 22.9685 27.7464 23.0597 27.5771 23.1588C27.3491 23.2935 27.0755 23.2658 26.8703 23.0835L25.3429 21.7359C25.0726 22.0133 24.8218 22.3185 24.5938 22.6515L25.7012 24.5064C25.851 24.7561 25.8738 25.093 25.7565 25.3784C25.6718 25.5805 25.6002 25.7906 25.5448 26.0007C25.4634 26.2979 25.2517 26.5199 24.9977 26.5714L23.1381 26.9321C23.1218 27.1461 23.1153 27.3602 23.1153 27.5782C23.1153 27.7922 23.1218 28.0062 23.1381 28.2202L24.9977 28.5849C25.2517 28.6324 25.4634 28.8504 25.5448 29.1517C25.6035 29.3617 25.6751 29.5718 25.7565 29.7739C25.8738 30.0514 25.851 30.3883 25.7012 30.6459L24.5938 32.5048C24.8218 32.8338 25.0759 33.139 25.3429 33.4164L26.8703 32.0688C27.082 31.8825 27.3589 31.8548 27.5901 32.0015C27.7497 32.1005 27.919 32.1877 28.1047 32.2631C28.3489 32.3621 28.5248 32.6198 28.5671 32.925L28.8602 35.1881Z" fill="#253F31"></path><path d="M51.8473 34.7646V11.3004C52.1795 11.237 52.4401 10.9041 52.4401 10.4839C52.4401 10.0202 52.1307 9.64368 51.7529 9.64368H50.5674C50.1864 9.64368 49.8802 10.0202 49.8802 10.4839C49.8802 10.9041 50.1408 11.237 50.473 11.3004V34.7646C50.1342 34.8161 49.8672 35.157 49.8672 35.5811C49.8672 36.0448 50.1766 36.4213 50.5544 36.4213H51.7692C52.1502 36.4213 52.4563 36.0448 52.4563 35.5811C52.4531 35.157 52.186 34.8161 51.8473 34.7646Z" fill="#253F31"></path><path d="M46.6592 34.7646V11.3004C46.9946 11.237 47.2519 10.9041 47.2519 10.4839C47.2519 10.0202 46.9458 9.64368 46.5647 9.64368H45.3792C44.9982 9.64368 44.6888 10.0202 44.6888 10.4839C44.6888 10.9041 44.9494 11.237 45.2848 11.3004V34.7646C44.9461 34.8161 44.6758 35.157 44.6758 35.5811C44.6758 36.0448 44.9852 36.4213 45.3662 36.4213H46.5778C46.9588 36.4213 47.2682 36.0448 47.2682 35.5811C47.2682 35.157 47.0011 34.8161 46.6592 34.7646Z" fill="#253F31"></path><path d="M41.4743 34.7646V11.3004C41.8065 11.237 42.067 10.9041 42.067 10.4839C42.067 10.0202 41.7576 9.64368 41.3798 9.64368H40.1944C39.8133 9.64368 39.5072 10.0202 39.5072 10.4839C39.5072 10.9041 39.7677 11.237 40.0999 11.3004V34.7646C39.7612 34.8161 39.4941 35.157 39.4941 35.5811C39.4941 36.0448 39.8035 36.4213 40.1846 36.4213H41.3961C41.7772 36.4213 42.0866 36.0448 42.0866 35.5811C42.08 35.157 41.813 34.8161 41.4743 34.7646Z" fill="#253F31"></path><path d="M31.6676 27.578C31.6676 29.108 30.6482 30.3446 29.3943 30.3446C28.1372 30.3446 27.1211 29.104 27.1211 27.578C27.1211 26.0481 28.1405 24.8154 29.3943 24.8154C30.6482 24.8115 31.6676 26.0481 31.6676 27.578Z" fill="white"></path><path d="M29.3914 31.1853C27.7565 31.1853 26.4277 29.5682 26.4277 27.5824C26.4277 25.5927 27.7565 23.9756 29.3914 23.9756C31.0263 23.9756 32.3551 25.5927 32.3551 27.5824C32.3551 29.5642 31.0263 31.1853 29.3914 31.1853ZM29.3914 25.6482C28.5186 25.6482 27.8086 26.5162 27.8086 27.5785C27.8086 28.6407 28.5186 29.5007 29.3914 29.5007C30.2675 29.5007 30.9775 28.6367 30.9775 27.5785C30.9775 26.5162 30.2675 25.6482 29.3914 25.6482Z" fill="#253F31"></path><path d="M52.7193 21.5855C52.7193 22.6398 52.0191 23.4919 51.156 23.4919C50.293 23.4919 49.5928 22.6398 49.5928 21.5855C49.5928 20.5351 50.293 19.6869 51.156 19.6869C52.0191 19.6829 52.7193 20.5351 52.7193 21.5855Z" fill="#94D0B7"></path><path d="M51.1567 24.3276C49.9159 24.3276 48.9062 23.095 48.9062 21.5849C48.9062 20.0748 49.9159 18.8461 51.1567 18.8461C52.4008 18.8461 53.4104 20.0787 53.4104 21.5849C53.4104 23.099 52.4008 24.3276 51.1567 24.3276ZM51.1567 20.5187C50.6747 20.5187 50.2839 20.9983 50.2839 21.5809C50.2839 22.1715 50.6747 22.6471 51.1567 22.6471C51.6387 22.6471 52.0295 22.1715 52.0295 21.5809C52.0295 20.9983 51.6387 20.5187 51.1567 20.5187Z" fill="#253F31"></path><path d="M47.5347 27.3478C47.5347 28.4021 46.8345 29.2503 45.9715 29.2503C45.1084 29.2503 44.4082 28.3981 44.4082 27.3478C44.4082 26.2974 45.1084 25.4492 45.9715 25.4492C46.8345 25.4453 47.5347 26.2974 47.5347 27.3478Z" fill="#94D0B7"></path><path d="M45.9715 30.0912C44.7306 30.0912 43.7178 28.8625 43.7178 27.3484C43.7178 25.8383 44.7306 24.6096 45.9715 24.6096C47.2123 24.6096 48.2252 25.8423 48.2252 27.3484C48.2252 28.8625 47.2123 30.0912 45.9715 30.0912ZM45.9715 26.2862C45.4895 26.2862 45.0954 26.7618 45.0954 27.3484C45.0954 27.935 45.4895 28.4146 45.9715 28.4146C46.4535 28.4146 46.8443 27.939 46.8443 27.3484C46.8443 26.7618 46.4535 26.2862 45.9715 26.2862Z" fill="#253F31"></path><path d="M42.3463 15.3944C42.3463 16.4487 41.646 17.2969 40.783 17.2969C39.9199 17.2969 39.2197 16.4448 39.2197 15.3944C39.2197 14.3441 39.9199 13.4919 40.783 13.4919C41.646 13.4959 42.3463 14.3481 42.3463 15.3944Z" fill="#94D0B7"></path><path d="M40.783 18.1412C39.5422 18.1412 38.5293 16.9086 38.5293 15.3984C38.5293 13.8883 39.5422 12.6597 40.783 12.6597C42.0238 12.6597 43.0367 13.8923 43.0367 15.3984C43.0367 16.9086 42.0238 18.1412 40.783 18.1412ZM40.783 14.3362C40.301 14.3362 39.9102 14.8118 39.9102 15.3984C39.9102 15.9851 40.301 16.4647 40.783 16.4647C41.265 16.4647 41.6591 15.989 41.6591 15.3984C41.6558 14.8118 41.265 14.3362 40.783 14.3362Z" fill="#253F31"></path></svg>