<svg xmlns="http://www.w3.org/2000/svg" width="60" height="60" viewBox="0 0 60 60" fill="none"><g id="Frame 205"><rect width="60" height="60" fill="white"></rect><g id="Group"><g id="Group_2"><g id="Group_3"><path id="Vector" d="M30.3928 7.23582H24.2184C23.1051 7.23582 22.1914 6.32524 22.1914 5.20886V4.68809C22.1914 3.57171 23.1051 2.66113 24.2184 2.66113H30.3928C31.506 2.66113 32.4197 3.57171 32.4197 4.68809V5.20886C32.4197 6.32524 31.506 7.23582 30.3928 7.23582Z" fill="#BA4D9B"></path></g><g id="Group_4"><path id="Vector_2" d="M30.131 7.89687H24.4773C22.8527 7.89687 21.5273 6.57467 21.5273 4.94687C21.5273 3.3222 22.8527 2 24.4773 2H30.131C31.7557 2 33.0779 3.3222 33.0779 4.94687C33.0779 6.57779 31.7588 7.89687 30.131 7.89687ZM24.4805 3.32218C23.5824 3.32218 22.8527 4.0519 22.8527 4.94687C22.8527 5.84809 23.5824 6.57778 24.4805 6.57778H30.1341C31.0322 6.57778 31.7619 5.84809 31.7619 4.94687C31.7619 4.0519 31.0322 3.32218 30.1341 3.32218H24.4805Z" fill="#3A1A35"></path></g><g id="Group_5"><path id="Vector_3" d="M46.953 6.9458H7.6582V53.7216H46.953V6.9458Z" fill="#BA4D9B"></path></g><g id="Group_6"><path id="Vector_4" d="M46.9528 54.3827H7.658C7.29315 54.3827 7 54.0865 7 53.7216V6.94582C7 6.58097 7.29315 6.28784 7.658 6.28784H46.9528C47.3145 6.28784 47.6139 6.58097 47.6139 6.94582V53.7216C47.6139 54.0865 47.3145 54.3827 46.9528 54.3827ZM8.31909 53.0636H46.2917V7.60691H8.31909V53.0636Z" fill="#3A1A35"></path></g><g id="Group_7"><path id="Vector_5" d="M42.2756 10.0267H12.3359V49.3215H42.2756V10.0267Z" fill="white"></path></g><g id="Group_8"><path id="Vector_6" d="M42.2754 49.9795H12.3357C11.9709 49.9795 11.6777 49.6833 11.6777 49.3184V10.0267C11.6777 9.6619 11.9709 9.36877 12.3357 9.36877H42.2754C42.6371 9.36877 42.9365 9.6619 42.9365 10.0267V49.3184C42.9365 49.6833 42.6371 49.9795 42.2754 49.9795ZM12.9968 48.6604H41.6143V10.6878H12.9968V48.6604Z" fill="#3A1A35"></path></g><g id="Group_9"><path id="Vector_7" d="M34.5221 5.60791H20.084V11.221H34.5221V5.60791Z" fill="white"></path></g><g id="Group_10"><path id="Vector_8" d="M34.5231 11.8822H20.0849C19.7201 11.8822 19.4238 11.5859 19.4238 11.2211V5.60799C19.4238 5.24626 19.7201 4.9469 20.0849 4.9469H34.5231C34.8879 4.9469 35.1842 5.24626 35.1842 5.60799V11.2211C35.1842 11.5859 34.8879 11.8822 34.5231 11.8822ZM20.746 10.5631H33.8651V6.26908H20.746V10.5631Z" fill="#3A1A35"></path></g><g id="Group_11"><path id="Vector_9" d="M53.5063 46.1064C53.5063 39.9102 48.4794 34.8802 42.277 34.8802C36.0776 34.8802 31.0508 39.9071 31.0508 46.1064C31.0508 50.3381 33.3927 54.0209 36.851 55.9356C36.2398 55.0968 35.878 54.0677 35.878 52.8734C35.878 50.3568 37.4435 47.569 39.6856 46.2842C38.8623 45.3923 38.3416 44.1325 38.3416 42.8633C38.3416 40.5308 40.1003 38.6379 42.2739 38.6379C44.4443 38.6379 46.2061 40.5308 46.2061 42.8633C46.2061 44.1294 45.6854 45.3923 44.8621 46.2842C47.1042 47.569 48.6697 50.3599 48.6697 52.8734C48.6697 54.0739 48.311 55.0999 47.6967 55.9356C51.1613 54.024 53.5063 50.3412 53.5063 46.1064Z" fill="#BA4D9B"></path></g><g id="Group_12"><path id="Vector_10" d="M44.8708 46.2842C45.6941 45.3924 46.2148 44.1325 46.2148 42.8633C46.2148 40.5308 44.4561 38.6379 42.2825 38.6379C40.1121 38.6379 38.3502 40.5308 38.3502 42.8633C38.3502 44.1294 38.871 45.3924 39.6943 46.2842C37.4522 47.569 35.8867 50.36 35.8867 52.8734C35.8867 54.0708 36.2453 55.0999 36.8597 55.9356C38.4688 56.8244 40.3148 57.3327 42.2825 57.3327C44.2502 57.3327 46.0994 56.8244 47.7054 55.9356C48.3166 55.0968 48.6784 54.0677 48.6784 52.8734C48.6752 50.36 47.1098 47.569 44.8708 46.2842Z" fill="white"></path></g><g id="Group_13"><path id="Vector_11" d="M42.2818 34.2223C35.727 34.2223 30.3945 39.5547 30.3945 46.1096C30.3945 50.4348 32.7489 54.4201 36.5377 56.5156C38.2903 57.4855 40.2767 58 42.2818 58C44.2869 58 46.2702 57.4886 48.0228 56.5156C51.8147 54.4201 54.1691 50.4348 54.1691 46.1096C54.166 39.5547 48.8367 34.2223 42.2818 34.2223ZM37.3236 55.4398C37.2581 55.3462 37.2019 55.2495 37.1458 55.1529C37.0959 55.0687 37.046 54.9876 37.0024 54.9034C36.94 54.7787 36.8933 54.6477 36.8434 54.5167C36.8122 54.4357 36.7747 54.3546 36.7498 54.2704C36.703 54.1207 36.675 53.9648 36.6438 53.8151C36.6313 53.7402 36.6064 53.6685 36.597 53.5968C36.5596 53.3629 36.5409 53.126 36.5409 52.8796C36.5409 52.599 36.5658 52.3121 36.6063 52.0314C36.6188 51.9347 36.6469 51.8381 36.6656 51.7445C36.703 51.5543 36.7373 51.3672 36.7903 51.177C36.8215 51.0647 36.8621 50.9556 36.9026 50.8433C36.9587 50.6749 37.0117 50.5065 37.0803 50.3443C37.1302 50.229 37.1864 50.1167 37.2394 50.0013C37.3111 49.8485 37.3891 49.6926 37.4701 49.5461C37.5356 49.4307 37.6042 49.3215 37.6728 49.2124C37.7602 49.072 37.8506 48.9286 37.9473 48.7914C38.0252 48.6854 38.1094 48.5856 38.1874 48.4795C38.2903 48.3517 38.3963 48.2238 38.5086 48.1053C38.5959 48.0087 38.6894 47.9151 38.783 47.8247C38.8984 47.7124 39.0137 47.6033 39.1354 47.5004C39.2351 47.4193 39.3349 47.3351 39.441 47.2603C39.5002 47.2166 39.5595 47.1823 39.6187 47.1386C39.6312 47.148 39.6405 47.1542 39.653 47.1636C40.4326 47.8278 41.3463 48.1927 42.2818 48.1927C43.2173 48.1927 44.131 47.8309 44.9106 47.1667C44.92 47.1574 44.9325 47.1511 44.9449 47.1417C45.0073 47.1823 45.0665 47.2197 45.1258 47.2634C45.2256 47.3382 45.3254 47.4193 45.4252 47.5004C45.5468 47.6033 45.6684 47.7124 45.7838 47.8247C45.8742 47.9151 45.9677 48.0087 46.0551 48.1022C46.1642 48.2239 46.2702 48.3517 46.3763 48.4795C46.4573 48.5824 46.5415 48.6822 46.6164 48.7914C46.713 48.9286 46.8035 49.072 46.8939 49.2155C46.9594 49.3246 47.0311 49.4306 47.0935 49.5429C47.1746 49.6957 47.2525 49.8516 47.3243 50.0044C47.3804 50.1167 47.4334 50.229 47.4833 50.3443C47.5488 50.5096 47.6049 50.678 47.6641 50.8464C47.7016 50.9555 47.7421 51.0647 47.7733 51.177C47.8263 51.3672 47.8606 51.5543 47.898 51.7476C47.9167 51.8412 47.9448 51.9378 47.9573 52.0314C48.0009 52.3152 48.0197 52.6021 48.0197 52.8796C48.0197 53.126 48.0009 53.3629 47.9666 53.5968C47.9573 53.6748 47.9323 53.7496 47.9167 53.8245C47.8856 53.9773 47.8575 54.1269 47.8138 54.2735C47.7858 54.3608 47.7484 54.445 47.7172 54.5292C47.6673 54.6571 47.6236 54.7849 47.5612 54.9065C47.5176 54.9907 47.4677 55.0718 47.4178 55.156C47.3586 55.2527 47.3055 55.3493 47.2401 55.4429C44.1934 57.0582 40.3609 57.0582 37.3236 55.4398ZM44.3836 45.8383C43.7724 46.4994 43.024 46.8611 42.2787 46.8611C41.5334 46.8611 40.785 46.4994 40.1738 45.8383C39.4441 45.0431 39.0044 43.933 39.0044 42.8665C39.0044 40.9019 40.4731 39.3021 42.2787 39.3021C44.0842 39.3021 45.553 40.9019 45.553 42.8665C45.553 43.933 45.1164 45.0431 44.3836 45.8383ZM49.2233 54.0708C49.2358 54.0147 49.2389 53.9585 49.2483 53.9024C49.2576 53.84 49.267 53.7777 49.2764 53.7153C49.3138 53.4409 49.3387 53.1602 49.3387 52.8702C49.3387 52.5771 49.3138 52.2809 49.2764 51.9846C49.2701 51.9503 49.2701 51.9191 49.2639 51.8879C49.2233 51.6042 49.1672 51.3235 49.0955 51.046C49.083 50.9992 49.0737 50.9556 49.0581 50.9088C48.9864 50.6344 48.8959 50.3631 48.793 50.0949C48.7743 50.045 48.7556 50.0013 48.7369 49.9545C48.6277 49.6864 48.5092 49.4213 48.3783 49.1625C48.3564 49.1251 48.3346 49.0876 48.3159 49.0471C48.1724 48.782 48.0197 48.5232 47.8575 48.2737C47.845 48.255 47.8325 48.2363 47.8201 48.2207C47.6486 47.9713 47.4708 47.7312 47.2806 47.4973C47.265 47.4817 47.2494 47.4598 47.2369 47.4442C47.0467 47.2166 46.8409 47.0014 46.632 46.7987C46.6008 46.7706 46.5696 46.7395 46.5384 46.7114C46.3357 46.5149 46.1174 46.3403 45.896 46.172C45.8742 46.1564 45.8555 46.1345 45.8305 46.1189C45.8492 46.0971 45.8586 46.069 45.8773 46.0472C46.0176 45.8383 46.1486 45.6169 46.264 45.3861C46.2765 45.3612 46.2827 45.3393 46.2952 45.3175C46.3981 45.0992 46.4916 44.8716 46.5665 44.6439C46.5821 44.5971 46.5977 44.5566 46.6133 44.5098C46.685 44.2697 46.7442 44.0265 46.791 43.7802C46.7972 43.7271 46.8035 43.6803 46.8128 43.6273C46.8503 43.3716 46.8752 43.1159 46.8752 42.8602C46.8752 40.1659 44.8171 37.9768 42.2818 37.9768C39.7466 37.9768 37.6884 40.1659 37.6884 42.8602C37.6884 43.1159 37.7134 43.3716 37.7477 43.6273C37.757 43.6803 37.7633 43.7271 37.7726 43.7802C37.8163 44.0265 37.8724 44.2697 37.9473 44.5098C37.9628 44.5566 37.9784 44.5972 37.994 44.6408C38.0689 44.8716 38.1624 45.0961 38.2653 45.3175C38.2778 45.3425 38.284 45.3643 38.2965 45.3861C38.4088 45.6138 38.5429 45.8383 38.6832 46.0472C38.7019 46.0721 38.7113 46.1002 38.7269 46.1189C38.705 46.1377 38.6863 46.1563 38.6645 46.175C38.4431 46.3403 38.2248 46.5149 38.0221 46.7114C37.9878 46.7426 37.9566 46.7738 37.9286 46.8019C37.7196 47.0045 37.5138 47.2166 37.3236 47.4442C37.3111 47.4598 37.2955 47.4817 37.2799 47.5004C37.0897 47.728 36.9119 47.965 36.7436 48.2145C36.728 48.2332 36.7155 48.2519 36.703 48.2706C36.5377 48.5201 36.3849 48.7789 36.2477 49.044C36.2259 49.0845 36.2041 49.1219 36.1822 49.1593C36.0513 49.4182 35.9328 49.6832 35.8236 49.9514C35.8049 49.9982 35.7862 50.0419 35.7675 50.0918C35.6646 50.36 35.5742 50.6312 35.5025 50.9056C35.4869 50.9524 35.4775 50.9961 35.465 51.0429C35.3964 51.3235 35.3372 51.6042 35.2966 51.8848C35.2904 51.9191 35.2904 51.9503 35.2842 51.9815C35.2467 52.2777 35.2218 52.574 35.2218 52.8671C35.2218 53.1572 35.2467 53.4378 35.2842 53.7122C35.2935 53.7746 35.3029 53.8338 35.3122 53.8962C35.3216 53.9554 35.3247 54.0084 35.3372 54.0646C33.0639 52.0781 31.7167 49.1905 31.7167 46.1033C31.7167 40.2782 36.4567 35.5382 42.2818 35.5382C48.107 35.5382 52.85 40.2782 52.85 46.1033C52.8469 49.1937 51.4998 52.0844 49.2233 54.0708Z" fill="#3A1A35"></path></g><g id="Group_14"><path id="Vector_12" d="M22.307 15.6368H16.1514C15.7865 15.6368 15.4902 15.3374 15.4902 14.9757C15.4902 14.6108 15.7865 14.3146 16.1514 14.3146H22.307C22.6688 14.3146 22.965 14.6108 22.965 14.9757C22.965 15.3374 22.6719 15.6368 22.307 15.6368Z" fill="#3A1A35"></path></g><g id="Group_15"><path id="Vector_13" d="M17.8852 19.5939H16.1514C15.7865 19.5939 15.4902 19.2977 15.4902 18.9328C15.4902 18.568 15.7865 18.2717 16.1514 18.2717H17.8852C18.25 18.2717 18.5431 18.568 18.5431 18.9328C18.5431 19.3008 18.2531 19.5939 17.8852 19.5939Z" fill="#3A1A35"></path></g><g id="Group_16"><path id="Vector_14" d="M38.4602 19.5939H21.4306C21.0658 19.5939 20.7695 19.2977 20.7695 18.9328C20.7695 18.568 21.0658 18.2717 21.4306 18.2717H38.4602C38.825 18.2717 39.1212 18.568 39.1212 18.9328C39.1212 19.3008 38.825 19.5939 38.4602 19.5939Z" fill="#3A1A35"></path></g><g id="Group_17"><path id="Vector_15" d="M17.8852 27.5178H16.1514C15.7865 27.5178 15.4902 27.2216 15.4902 26.8567C15.4902 26.4919 15.7865 26.1987 16.1514 26.1987H17.8852C18.25 26.1987 18.5431 26.4919 18.5431 26.8567C18.5431 27.2216 18.2531 27.5178 17.8852 27.5178Z" fill="#3A1A35"></path></g><g id="Group_18"><path id="Vector_16" d="M38.4602 27.5178H21.4306C21.0658 27.5178 20.7695 27.2216 20.7695 26.8567C20.7695 26.4919 21.0658 26.1987 21.4306 26.1987H38.4602C38.825 26.1987 39.1212 26.4919 39.1212 26.8567C39.1212 27.2216 38.825 27.5178 38.4602 27.5178Z" fill="#3A1A35"></path></g><g id="Group_19"><path id="Vector_17" d="M17.8852 35.4353H16.1514C15.7865 35.4353 15.4902 35.1391 15.4902 34.7743C15.4902 34.4094 15.7865 34.1132 16.1514 34.1132H17.8852C18.25 34.1132 18.5431 34.4094 18.5431 34.7743C18.5431 35.1391 18.2531 35.4353 17.8852 35.4353Z" fill="#3A1A35"></path></g><g id="Group_20"><path id="Vector_18" d="M33.4551 35.4353H21.4306C21.0658 35.4353 20.7695 35.1391 20.7695 34.7743C20.7695 34.4094 21.0658 34.1132 21.4306 34.1132H33.4551C33.8169 34.1132 34.1131 34.4094 34.1131 34.7743C34.1131 35.1391 33.82 35.4353 33.4551 35.4353Z" fill="#3A1A35"></path></g><g id="Group_21"><path id="Vector_19" d="M29.317 39.3956H21.4306C21.0658 39.3956 20.7695 39.0994 20.7695 38.7377C20.7695 38.3728 21.0658 38.0765 21.4306 38.0765H29.317C29.6819 38.0765 29.9781 38.3728 29.9781 38.7377C29.9781 39.0994 29.685 39.3956 29.317 39.3956Z" fill="#3A1A35"></path></g><g id="Group_22"><path id="Vector_20" d="M28.051 43.3592H21.4306C21.0658 43.3592 20.7695 43.063 20.7695 42.6981C20.7695 42.3333 21.0658 42.037 21.4306 42.037H28.051C28.4127 42.037 28.7121 42.3333 28.7121 42.6981C28.7121 43.063 28.4127 43.3592 28.051 43.3592Z" fill="#3A1A35"></path></g><g id="Group_23"><path id="Vector_21" d="M31.1039 31.4781H21.4306C21.0658 31.4781 20.7695 31.1787 20.7695 30.817C20.7695 30.4521 21.0658 30.1559 21.4306 30.1559H31.1039C31.4687 30.1559 31.765 30.4521 31.765 30.817C31.7618 31.1787 31.4687 31.4781 31.1039 31.4781Z" fill="#3A1A35"></path></g><g id="Group_24"><path id="Vector_22" d="M28.051 23.5542H21.4306C21.0658 23.5542 20.7695 23.2611 20.7695 22.8962C20.7695 22.5314 21.0658 22.2351 21.4306 22.2351H28.051C28.4127 22.2351 28.7121 22.5314 28.7121 22.8962C28.7121 23.2611 28.4127 23.5542 28.051 23.5542Z" fill="#3A1A35"></path></g><g id="Group_25"><path id="Vector_23" d="M35.8113 23.5542H31.1025C30.7376 23.5542 30.4414 23.2611 30.4414 22.8962C30.4414 22.5314 30.7376 22.2351 31.1025 22.2351H35.8113C36.173 22.2351 36.4692 22.5314 36.4692 22.8962C36.4692 23.2611 36.1761 23.5542 35.8113 23.5542Z" fill="#3A1A35"></path></g><g id="Group_26"><path id="Vector_24" d="M34.8828 15.6366H26.1357C25.7708 15.6366 25.4746 15.3373 25.4746 14.9756C25.4746 14.6107 25.7708 14.3145 26.1357 14.3145H34.8828C35.2476 14.3145 35.5439 14.6107 35.5439 14.9756C35.5408 15.3373 35.2476 15.6366 34.8828 15.6366Z" fill="#3A1A35"></path></g></g></g></g></svg>