<svg xmlns="http://www.w3.org/2000/svg" width="61" height="60" viewBox="0 0 61 60" fill="none"><g id="Frame 188"><g id="Group"><g id="Group_2"><path id="Vector" d="M7.0179 35.579C6.92219 35.579 6.82649 35.552 6.74059 35.498C6.49764 35.3434 6.42646 35.0244 6.58352 34.7814C8.54926 31.6893 18.427 16.2259 19.7793 15.3228C21.3695 14.2577 23.669 15.6713 23.7672 15.7327C24.0101 15.8848 24.0838 16.2038 23.9316 16.4468C23.7795 16.6898 23.4604 16.7658 23.215 16.6112C22.7095 16.2996 21.2125 15.61 20.356 16.1842C19.4136 16.8493 11.9433 28.2854 7.45719 35.3361C7.35903 35.4931 7.18969 35.579 7.0179 35.579Z" fill="#253F31"></path></g><g id="Group_3"><path id="Vector_2" d="M53.9691 35.579C53.7973 35.579 53.628 35.4931 53.5298 35.3361C49.0437 28.2854 41.5759 16.8517 40.631 16.1842C39.6101 15.4995 37.7916 16.6014 37.7744 16.6112C37.529 16.7658 37.21 16.6898 37.0578 16.4468C36.9032 16.2038 36.9793 15.8848 37.2223 15.7327C37.318 15.6713 39.6199 14.2577 41.2102 15.3228C42.56 16.2259 52.4377 31.6893 54.4059 34.7814C54.5605 35.0244 54.4869 35.3434 54.2464 35.498C54.1605 35.552 54.0648 35.579 53.9691 35.579Z" fill="#253F31"></path></g><g id="Group_4"><path id="Vector_3" d="M10.2064 27.1638H26.941C26.9533 27.1638 26.9655 27.1761 26.9655 27.1884V34.7986C26.9655 40.2197 22.7494 44.8457 17.3332 45.0273C11.6691 45.2138 7.01855 40.681 7.01855 35.0587V30.3517C7.01855 28.5921 8.44684 27.1638 10.2064 27.1638Z" fill="white"></path></g><g id="Group_5"><path id="Vector_4" d="M50.7889 27.1638H34.0543C34.042 27.1638 34.0322 27.1761 34.0322 27.1884V34.7986C34.0322 40.2197 38.2459 44.8457 43.6622 45.0273C49.3262 45.2138 53.9768 40.681 53.9768 35.0587V30.3517C53.9768 28.5921 52.5485 27.1638 50.7889 27.1638Z" fill="white"></path></g><g id="Group_6"><path id="Vector_5" d="M21.712 35.5889C21.712 38.1952 19.599 40.3081 16.9903 40.3081C14.384 40.3081 12.2686 38.1952 12.2686 35.5889C12.2686 32.9802 14.3816 30.8672 16.9903 30.8672C19.599 30.8672 21.712 32.9826 21.712 35.5889Z" fill="#94D0B7"></path></g><g id="Group_7"><path id="Vector_6" d="M16.991 40.8284C14.1001 40.8284 11.749 38.4774 11.749 35.5889C11.749 32.698 14.1001 30.3469 16.991 30.3469C19.8795 30.3469 22.2305 32.698 22.2305 35.5889C22.2305 38.4774 19.8795 40.8284 16.991 40.8284ZM16.991 31.385C14.6743 31.385 12.7871 33.2722 12.7871 35.5889C12.7871 37.9031 14.6743 39.7903 16.991 39.7903C19.3052 39.7903 21.1924 37.9031 21.1924 35.5889C21.1924 33.2722 19.3077 31.385 16.991 31.385Z" fill="#253F31"></path></g><g id="Group_8"><path id="Vector_7" d="M34.0258 34.2562L34.0233 27.1638H26.9727V34.2562C26.9727 32.3101 28.5507 30.7296 30.4992 30.7296C32.4453 30.7321 34.0258 32.3101 34.0258 34.2562Z" fill="#94D0B7"></path></g><g id="Group_9"><path id="Vector_8" d="M50.7893 26.646H34.0572C34.0498 26.646 34.0449 26.6484 34.04 26.6509C34.0351 26.6484 34.0302 26.646 34.0228 26.646H26.9722C26.9648 26.646 26.9624 26.6484 26.955 26.6509C26.9501 26.6484 26.9452 26.646 26.9403 26.646H10.2057C8.16387 26.646 6.5 28.3099 6.5 30.3541V35.0611C6.5 37.93 7.63626 40.6099 9.69771 42.6026C11.6733 44.5119 14.2501 45.5524 16.9888 45.5524C17.1091 45.5524 17.2318 45.55 17.3521 45.5451C22.9401 45.3586 27.4851 40.5387 27.4851 34.7985V34.293C27.4875 34.2807 27.4924 34.2685 27.4924 34.2562C27.4924 32.5972 28.8422 31.2474 30.5012 31.2474C32.1602 31.2474 33.5099 32.5972 33.5099 34.2562C33.5099 34.2685 33.5148 34.2807 33.5173 34.293V34.7985C33.5173 40.5387 38.0647 45.3586 43.6503 45.5451C43.7705 45.55 43.8932 45.5524 44.011 45.5524C46.7474 45.5524 49.3266 44.5119 51.3022 42.6026C53.3636 40.6074 54.4999 37.93 54.4999 35.0611V30.3541C54.495 28.3074 52.8336 26.646 50.7893 26.646ZM26.4445 34.7985C26.4445 39.9841 22.3486 44.3401 17.3153 44.507C14.7286 44.6003 12.277 43.6505 10.4192 41.8541C8.559 40.0552 7.53563 37.6453 7.53563 35.0587V30.3517C7.53563 28.8792 8.73323 27.6841 10.2032 27.6841H26.4421L26.4445 34.7985ZM30.4963 30.2118C29.306 30.2118 28.2311 30.7296 27.4875 31.5542V27.6841H33.5026V31.5518C32.7639 30.7296 31.689 30.2118 30.4963 30.2118ZM53.4569 35.0587C53.4569 37.6453 52.4335 40.0552 50.5733 41.8541C48.7156 43.6505 46.2639 44.5953 43.6773 44.507C38.6439 44.3401 34.548 39.9841 34.548 34.7985V27.6841H50.7868C52.2568 27.6841 53.4544 28.8792 53.4544 30.3517L53.4569 35.0587Z" fill="#253F31"></path></g><g id="Group_10"><path id="Vector_9" d="M16.7148 33.0906C16.7148 34.4722 17.8339 35.5913 19.2156 35.5913C20.5973 35.5913 21.7163 34.4722 21.7163 33.0906C21.7163 31.7089 20.5973 30.5898 19.2156 30.5898C17.8339 30.5898 16.7148 31.7089 16.7148 33.0906Z" fill="white"></path></g><g id="Group_11"><path id="Vector_10" d="M19.2153 36.1067C17.549 36.1067 16.1992 34.752 16.1992 33.0906C16.1992 31.4242 17.5514 30.072 19.2153 30.072C20.8792 30.072 22.2314 31.4267 22.2314 33.0906C22.2314 34.752 20.8768 36.1067 19.2153 36.1067ZM19.2153 31.1101C18.1257 31.1101 17.2349 31.996 17.2349 33.0906C17.2349 34.1802 18.1232 35.071 19.2153 35.071C20.305 35.071 21.1958 34.1827 21.1958 33.0906C21.1933 31.996 20.305 31.1101 19.2153 31.1101Z" fill="#253F31"></path></g><g id="Group_12"><path id="Vector_11" d="M48.7242 35.5889C48.7242 38.1952 46.6112 40.3081 44.0049 40.3081C41.3962 40.3081 39.2832 38.1952 39.2832 35.5889C39.2832 32.9802 41.3962 30.8672 44.0049 30.8672C46.6112 30.8672 48.7242 32.9826 48.7242 35.5889Z" fill="#94D0B7"></path></g><g id="Group_13"><path id="Vector_12" d="M44.0032 40.8284C41.1147 40.8284 38.7637 38.4774 38.7637 35.5889C38.7637 32.698 41.1147 30.3469 44.0032 30.3469C46.8941 30.3469 49.2452 32.698 49.2452 35.5889C49.2452 38.4774 46.8941 40.8284 44.0032 40.8284ZM44.0032 31.385C41.689 31.385 39.8042 33.2722 39.8042 35.5889C39.8042 37.9031 41.689 39.7903 44.0032 39.7903C46.3199 39.7903 48.2071 37.9031 48.2071 35.5889C48.2071 33.2722 46.3223 31.385 44.0032 31.385Z" fill="#253F31"></path></g><g id="Group_14"><path id="Vector_13" d="M43.7266 33.0906C43.7266 34.4722 44.8456 35.5913 46.2273 35.5913C47.609 35.5913 48.7256 34.4722 48.7256 33.0906C48.7256 31.7089 47.609 30.5898 46.2273 30.5898C44.8456 30.5898 43.7266 31.7089 43.7266 33.0906Z" fill="white"></path></g><g id="Group_15"><path id="Vector_14" d="M46.2275 36.1067C44.5636 36.1067 43.209 34.752 43.209 33.0906C43.209 31.4242 44.5661 30.072 46.2275 30.072C47.8914 30.072 49.2436 31.4267 49.2436 33.0906C49.2436 34.752 47.889 36.1067 46.2275 36.1067ZM46.2275 31.1101C45.1354 31.1101 44.2471 31.996 44.2471 33.0906C44.2471 34.1802 45.133 35.071 46.2275 35.071C47.3172 35.071 48.208 34.1827 48.208 33.0906C48.2055 31.996 47.3172 31.1101 46.2275 31.1101Z" fill="#253F31"></path></g></g></g></svg>