<svg xmlns="http://www.w3.org/2000/svg" width="61" height="60" viewBox="0 0 61 60" fill="none"><g id="Frame 189"><g id="Group"><g id="Group_2"><path id="Vector" d="M50.2907 46.0067H10.706C8.68255 46.0067 7.02539 44.3496 7.02539 42.3261V18.2065C7.02539 16.183 8.68255 14.5259 10.706 14.5259H50.2907C52.3167 14.5259 53.9738 16.183 53.9738 18.2065V42.3261C53.9738 44.3496 52.3167 46.0067 50.2907 46.0067Z" fill="white"></path><path id="Vector_2" d="M14.8525 46.5324C14.5609 46.5324 14.3242 46.2982 14.3242 46.0066V14.5283C14.3242 14.2367 14.5609 14 14.8525 14C15.144 14 15.3808 14.2367 15.3808 14.5283V46.0066C15.3808 46.2982 15.144 46.5324 14.8525 46.5324Z" fill="#3F232C"></path><path id="Vector_3" d="M22.6758 46.5324C22.3842 46.5324 22.1475 46.2982 22.1475 46.0066V14.5283C22.1475 14.2367 22.3842 14 22.6758 14C22.9673 14 23.204 14.2367 23.204 14.5283V46.0066C23.204 46.2982 22.9698 46.5324 22.6758 46.5324Z" fill="#3F232C"></path><path id="Vector_4" d="M30.5004 46.5324C30.2088 46.5324 29.9746 46.2982 29.9746 46.0066V14.5283C29.9746 14.2367 30.2088 14 30.5004 14C30.792 14 31.0287 14.2367 31.0287 14.5283V46.0066C31.0287 46.2982 30.792 46.5324 30.5004 46.5324Z" fill="#3F232C"></path><path id="Vector_5" d="M38.3237 46.5324C38.0346 46.5324 37.7979 46.2982 37.7979 46.0066V14.5283C37.7979 14.2367 38.0346 14 38.3237 14C38.6152 14 38.8519 14.2367 38.8519 14.5283V46.0066C38.8519 46.2982 38.6152 46.5324 38.3237 46.5324Z" fill="#3F232C"></path><path id="Vector_6" d="M46.1469 46.5324C45.8553 46.5324 45.6211 46.2982 45.6211 46.0066V14.5283C45.6211 14.2367 45.8553 14 46.1469 14C46.4385 14 46.6752 14.2367 46.6752 14.5283V46.0066C46.6752 46.2982 46.4409 46.5324 46.1469 46.5324Z" fill="#3F232C"></path><path id="Vector_7" d="M53.9742 19.5745H7.02832V40.9629H53.9742V19.5745Z" fill="#E66673"></path><path id="Vector_8" d="M49.8176 14H11.1824C8.60071 14 6.5 16.1032 6.5 18.6824V19.572V40.9604V41.8501C6.5 44.4317 8.60071 46.53 11.1824 46.53H49.8176C52.3993 46.53 54.5 44.4317 54.5 41.8501V40.9604V19.572V18.6824C54.5 16.1032 52.3993 14 49.8176 14ZM11.1824 15.0566H49.8176C51.8187 15.0566 53.4459 16.6813 53.4459 18.6824V19.0462H7.5566V18.6824C7.5566 16.6838 9.18134 15.0566 11.1824 15.0566ZM53.4459 40.4346H7.5566V20.1028H53.4459V40.4346ZM49.8176 45.4783H11.1824C9.18134 45.4783 7.5566 43.8511 7.5566 41.8526V41.4887H53.4459V41.8526C53.4459 43.8511 51.8187 45.4783 49.8176 45.4783Z" fill="#3F232C"></path><path id="Vector_9" d="M38.7213 30.2674C38.7213 34.8102 35.0407 38.4933 30.4979 38.4933C25.9575 38.4933 22.2744 34.8102 22.2744 30.2674C22.2744 25.7271 25.9575 22.0439 30.4979 22.0439C35.0407 22.0439 38.7213 25.7246 38.7213 30.2674Z" fill="white"></path><path id="Vector_10" d="M30.4978 39.0167C25.6734 39.0167 21.7461 35.0918 21.7461 30.2649C21.7461 25.4405 25.6709 21.5132 30.4978 21.5132C35.3247 21.5132 39.2496 25.4405 39.2496 30.2649C39.2496 35.0918 35.3247 39.0167 30.4978 39.0167ZM30.4978 22.5723C26.2565 22.5723 22.8027 26.0236 22.8027 30.2674C22.8027 34.5112 26.2565 37.965 30.4978 37.965C34.7416 37.965 38.1955 34.5112 38.1955 30.2674C38.1955 26.0236 34.7416 22.5723 30.4978 22.5723Z" fill="#3F232C"></path><path id="Vector_11" d="M27.8008 25.6548L35.7875 30.2674L27.8008 34.88V25.6548Z" fill="#E66673"></path><path id="Vector_12" d="M27.8012 35.406C27.7115 35.406 27.6193 35.3811 27.5395 35.3362C27.3776 35.2415 27.2754 35.0696 27.2754 34.8777V25.655C27.2754 25.4681 27.3776 25.2912 27.5395 25.199C27.699 25.1043 27.9034 25.1043 28.0653 25.199L36.0521 29.8115C36.2165 29.9038 36.3187 30.0782 36.3187 30.2676C36.3187 30.457 36.2165 30.6314 36.0521 30.7261L28.0653 35.3387C27.9831 35.3811 27.8909 35.406 27.8012 35.406ZM28.3295 26.5695V33.9656L34.7338 30.2676L28.3295 26.5695Z" fill="#3F232C"></path></g></g></g></svg>