<svg xmlns="http://www.w3.org/2000/svg" width="64" height="64" viewBox="0 0 64 64" fill="none"><g id="Group"><g id="Group_2"><path id="Vector" d="M60.7695 0.89209H3.23098C1.85183 0.89209 0.736694 2.24918 0.736694 3.93183V47.5244C0.736694 49.1986 1.84836 50.5642 3.23098 50.5642H60.7695C62.1486 50.5642 63.2707 49.2028 63.2707 47.5244V3.93183C63.2672 2.25341 62.1486 0.89209 60.7695 0.89209Z" fill="#D9B1B5"></path><path id="Vector_2" d="M52.8699 59.2312H11.1342C10.2588 59.2312 9.54663 60.1021 9.54663 61.1633C9.54663 62.2287 10.2588 63.0996 11.1342 63.0996H52.8733C53.7488 63.0996 54.4644 62.2287 54.4644 61.1633C54.4609 60.1021 53.7453 59.2312 52.8699 59.2312Z" fill="#D9B1B5"></path><path id="Vector_3" d="M58.9559 6.14307H5.05115V42.9966H58.9559V6.14307Z" fill="white"></path><path id="Vector_4" d="M30.2857 47.6724H26.6103C26.2038 47.6724 25.8738 47.2707 25.8738 46.7761C25.8738 46.2814 26.2038 45.884 26.6103 45.884H30.2857C30.6921 45.884 31.0221 46.2814 31.0221 46.7761C31.0221 47.2707 30.6921 47.6724 30.2857 47.6724Z" fill="#4C3037"></path><path id="Vector_5" d="M37.39 47.6724H33.7146C33.3082 47.6724 32.9781 47.2707 32.9781 46.7761C32.9781 46.2814 33.3082 45.884 33.7146 45.884H37.39C37.7965 45.884 38.1265 46.2814 38.1265 46.7761C38.1265 47.2707 37.7965 47.6724 37.39 47.6724Z" fill="#4C3037"></path><path id="Vector_6" d="M26.4017 50.5642H22.0072V59.2353H26.4017V50.5642Z" fill="#D9B1B5"></path><path id="Vector_7" d="M41.9962 50.5642H37.6017V59.2353H41.9962V50.5642Z" fill="#D9B1B5"></path><path id="Vector_8" d="M60.7693 0H3.23074C1.44862 0 0 1.76721 0 3.93605V47.5286C0 49.6975 1.44862 51.4604 3.23074 51.4604H21.2708V58.3475H11.1304C9.84857 58.3475 8.80639 59.6158 8.80639 61.1716C8.80639 62.7317 9.84857 64 11.1304 64H52.8696C54.1514 64 55.1936 62.7317 55.1936 61.1716C55.1936 59.6158 54.1514 58.3475 52.8696 58.3475H42.7292V51.4604H60.7658C62.5514 51.4604 64 49.6975 64 47.5286V3.93183C64 1.76721 62.5514 0 60.7693 0ZM22.7438 51.452H25.6653V58.339H22.7438V51.452ZM36.8652 51.452V58.339H27.1383V51.452H36.8652ZM53.7242 61.1632C53.7242 61.7381 53.342 62.2032 52.8696 62.2032H11.1339C10.6615 62.2032 10.2793 61.7381 10.2793 61.1632C10.2793 60.5924 10.6615 60.1274 11.1339 60.1274H22.0107H26.4052H37.6052H41.9997H52.8765C53.342 60.1274 53.7242 60.5966 53.7242 61.1632ZM41.2562 58.339H38.3347V51.452H41.2562V58.339ZM62.534 47.5244C62.534 48.7039 61.742 49.6679 60.7693 49.6679H41.9962H37.6017H26.4018H22.0073H3.23074C2.26152 49.6679 1.46948 48.7039 1.46948 47.5244V3.93183C1.46948 2.75228 2.26152 1.78836 3.23074 1.78836H60.7693C61.742 1.78836 62.534 2.75228 62.534 3.93183V47.5244Z" fill="#4C3037"></path><path id="Vector_9" d="M29.0385 42.9922L12.4923 19.156L5.05115 28.7023V42.9922H29.0385Z" fill="#D9B1B5"></path><path id="Vector_10" d="M23.89 14.4504C23.89 16.5051 22.5247 18.1709 20.8329 18.1709C19.1446 18.1709 17.7759 16.5051 17.7759 14.4504C17.7759 12.3957 19.1446 10.73 20.8329 10.73C22.5247 10.7342 23.89 12.3957 23.89 14.4504Z" fill="#D9B1B5"></path><path id="Vector_11" d="M20.8366 19.0672C18.7453 19.0672 17.0431 16.9998 17.0431 14.4504C17.0431 11.9053 18.7453 9.83374 20.8366 9.83374C22.9314 9.83374 24.6301 11.9053 24.6301 14.4504C24.6267 16.9998 22.9279 19.0672 20.8366 19.0672ZM20.8366 11.6263C19.5582 11.6263 18.516 12.8989 18.516 14.4547C18.516 16.0105 19.5582 17.2831 20.8366 17.2831C22.115 17.2831 23.1607 16.0105 23.1607 14.4547C23.1607 12.8947 22.115 11.6263 20.8366 11.6263Z" fill="#4C3037"></path><path id="Vector_12" d="M55.5965 14.0532L52.675 10.4934L46.283 18.2725L44.7128 16.3573V23.739H50.7782L49.208 21.8323L55.5965 14.0532Z" fill="#D9B1B5"></path><path id="Vector_13" d="M50.7785 24.6351H44.713C44.3066 24.6351 43.9766 24.2335 43.9766 23.7388V16.3571C43.9766 15.9978 44.1572 15.6723 44.4316 15.5327C44.7095 15.3974 45.0222 15.4693 45.2341 15.7272L46.2832 17.0082L52.1542 9.86328C52.4425 9.5166 52.908 9.5166 53.1929 9.86328L56.1179 13.4231C56.2568 13.5922 56.3368 13.8205 56.3368 14.0572C56.3368 14.294 56.2603 14.5181 56.1179 14.6872L50.247 21.8321L51.2996 23.1131C51.5115 23.3668 51.5705 23.7515 51.4594 24.0855C51.3447 24.4195 51.0773 24.6351 50.7785 24.6351ZM45.4495 22.8468H49.0033L48.6872 22.4621C48.4023 22.1111 48.4023 21.5446 48.6872 21.1937L54.5581 14.053L52.6718 11.7573L46.8043 18.9065C46.516 19.2532 46.0505 19.2532 45.7622 18.9065L45.446 18.5218L45.4495 22.8468Z" fill="#4C3037"></path><path id="Vector_14" d="M36.2503 26.4954L39.7624 38.405H32.7382L36.2503 26.4954Z" fill="#D9B1B5"></path><g id="Group_3"><path id="Vector_15" d="M58.9522 5.25098H5.05092C4.64447 5.25098 4.31445 5.65261 4.31445 6.14303V28.7024V42.9965C4.31445 43.4912 4.64447 43.8928 5.05092 43.8928H29.0383H58.9522C59.3587 43.8928 59.6887 43.4912 59.6887 42.9965V6.14303C59.6887 5.64838 59.3587 5.25098 58.9522 5.25098ZM5.78738 42.1044V29.0575L12.4642 20.4963L27.4542 42.1044H5.78738ZM58.2192 42.1044H53.0292L52.7721 41.7366C52.5081 41.3604 52.0426 41.3138 51.7334 41.6352C51.6153 41.762 51.5458 41.9269 51.5111 42.1044H36.9832V39.3057H39.7623C39.9985 39.3057 40.2278 39.1661 40.3633 38.9252C40.5023 38.6842 40.537 38.3798 40.4536 38.1092L36.9415 26.1996C36.8373 25.8445 36.5593 25.6034 36.2502 25.6034C35.9375 25.6034 35.6596 25.8445 35.5589 26.1996L32.0432 38.1092C31.9668 38.3798 31.9946 38.6884 32.1336 38.9252C32.2691 39.1661 32.4949 39.3057 32.7346 39.3057H35.5137V42.1044H29.3788L21.1977 30.3132L21.2185 30.292C21.5173 29.9581 21.5416 29.3916 21.2672 29.028C21.0031 28.6686 20.555 28.639 20.2528 28.9476L13.0583 18.5769C12.9228 18.3824 12.7248 18.2683 12.5198 18.2598C12.3149 18.2471 12.1064 18.3528 11.964 18.5346L5.79085 26.4575V7.03508H58.2262V42.1044H58.2192ZM33.7802 37.5173L36.2502 29.1506L38.7167 37.5173H33.7802Z" fill="#4C3037"></path><path id="Vector_16" d="M29.5838 20.7417C29.761 20.7417 29.9382 20.6656 30.0771 20.5091L31.1853 19.2831C31.484 18.9533 31.5084 18.3868 31.2339 18.019C30.963 17.6512 30.4974 17.6258 30.1987 17.9556L29.0905 19.1774C28.7883 19.5114 28.7674 20.0779 29.0384 20.4415C29.1843 20.6402 29.3858 20.7417 29.5838 20.7417Z" fill="#4C3037"></path><path id="Vector_17" d="M26.2592 24.4071C26.4364 24.4071 26.617 24.331 26.756 24.1745L27.8607 22.9527C28.1629 22.6187 28.1838 22.0522 27.9128 21.6886C27.6418 21.3208 27.1728 21.2912 26.8741 21.6252L25.7694 22.847C25.4671 23.1768 25.4428 23.7433 25.7173 24.1111C25.8597 24.3098 26.0577 24.4071 26.2592 24.4071Z" fill="#4C3037"></path><path id="Vector_18" d="M22.9383 28.0767C23.1155 28.0767 23.2926 27.9963 23.435 27.8441L24.5398 26.6181C24.842 26.2883 24.8628 25.7218 24.5919 25.354C24.3174 24.9861 23.8519 24.965 23.5497 25.2905L22.445 26.5166C22.1462 26.8464 22.1219 27.4129 22.3963 27.7807C22.5388 27.9794 22.7368 28.0767 22.9383 28.0767Z" fill="#4C3037"></path><path id="Vector_19" d="M33.3805 16.8563C33.5264 17.0508 33.7279 17.1481 33.9259 17.1481C34.0961 17.1481 34.2664 17.0762 34.4053 16.9325C34.7145 16.6154 34.7527 16.0488 34.4852 15.6726L34.0058 14.9919C33.8773 14.8101 33.6932 14.696 33.4952 14.679C33.2971 14.6621 33.1026 14.7509 32.9567 14.9116L32.4113 15.5162C32.1091 15.8459 32.0882 16.4124 32.3592 16.7803C32.6267 17.1354 33.0818 17.1692 33.3805 16.8563Z" fill="#4C3037"></path><path id="Vector_20" d="M47.0784 36.38C47.2278 36.5872 47.4327 36.6929 47.6412 36.6929C47.8114 36.6929 47.9816 36.621 48.1171 36.4773C48.4297 36.1602 48.4645 35.5936 48.197 35.2174L47.2833 33.911C47.0193 33.5347 46.5538 33.4882 46.2481 33.8137C45.9355 34.1351 45.9007 34.7016 46.1647 35.0736L47.0784 36.38Z" fill="#4C3037"></path><path id="Vector_21" d="M49.8229 40.2909C49.9688 40.4981 50.1773 40.6037 50.3822 40.6037C50.5524 40.6037 50.7227 40.5319 50.8616 40.3881C51.1708 40.0668 51.209 39.5003 50.9415 39.1283L50.0279 37.8219C49.7639 37.4456 49.2983 37.3991 48.9892 37.7246C48.68 38.0417 48.6418 38.6082 48.9093 38.9845L49.8229 40.2909Z" fill="#4C3037"></path><path id="Vector_22" d="M38.8521 24.6564C38.998 24.8635 39.2064 24.9692 39.4114 24.9692C39.5816 24.9692 39.7518 24.8974 39.8908 24.7536C40.2 24.4323 40.2382 23.87 39.9707 23.4895L39.0571 22.1873C38.7931 21.8111 38.3241 21.7646 38.0184 22.0901C37.7092 22.4072 37.671 22.9737 37.9384 23.35L38.8521 24.6564Z" fill="#4C3037"></path><path id="Vector_23" d="M44.3373 32.4736C44.4832 32.6807 44.6917 32.7822 44.8966 32.7822C45.0669 32.7822 45.2371 32.7103 45.376 32.5708C45.6852 32.2495 45.7234 31.683 45.4559 31.3067L44.5423 30.0003C44.2783 29.6241 43.8128 29.5776 43.5036 29.9031C43.1944 30.2244 43.1562 30.7909 43.4237 31.1672L44.3373 32.4736Z" fill="#4C3037"></path><path id="Vector_24" d="M36.1114 20.7457C36.2573 20.9529 36.4623 21.0586 36.6672 21.0586C36.8409 21.0586 37.0111 20.9867 37.1466 20.843C37.4593 20.5259 37.494 19.9594 37.2265 19.5831L36.3129 18.2767C36.0489 17.9004 35.5834 17.8539 35.2776 18.1795C34.965 18.5008 34.9303 19.0673 35.1943 19.4436L36.1114 20.7457Z" fill="#4C3037"></path><path id="Vector_25" d="M41.5964 28.5628C41.7423 28.77 41.9507 28.8757 42.1522 28.8757C42.3259 28.8757 42.4961 28.8038 42.6316 28.66C42.9408 28.3387 42.979 27.7722 42.715 27.396L41.7979 26.0938C41.5338 25.7133 41.0684 25.671 40.7592 25.9966C40.45 26.3136 40.4118 26.8802 40.6758 27.2564L41.5964 28.5628Z" fill="#4C3037"></path></g></g></g></svg>