<svg xmlns="http://www.w3.org/2000/svg" width="60" height="60" viewBox="0 0 60 60" fill="none"><g id="Frame 195"><g id="Group"><g id="Group_2"><path id="Vector" d="M30.4645 34.0415C31.1212 33.5712 31.7493 33.0464 32.3372 32.4556C32.9251 31.8677 33.4527 31.2368 33.9231 30.583L30.8746 26.3816C31.0897 25.9514 31.2675 25.5069 31.4166 25.0595L36.5442 24.2451C36.8138 22.6277 36.8138 20.97 36.5471 19.3555L31.4195 18.541C31.2675 18.0908 31.0868 17.6434 30.8746 17.2189L33.9231 13.0147C33.4556 12.358 32.9222 11.73 32.3372 11.1421C31.7464 10.5542 31.1183 10.0236 30.4673 9.55616L26.2603 12.6046C25.833 12.3895 25.3884 12.2089 24.9411 12.0569L24.1209 6.92638C22.5063 6.66254 20.8516 6.65967 19.2313 6.92925L18.4197 12.0598C17.9694 12.2089 17.5249 12.3867 17.1005 12.6046L12.8963 9.55616C12.2395 10.0265 11.6115 10.5542 11.0265 11.1421C10.4357 11.7328 9.908 12.3609 9.44055 13.0147L12.489 17.2161C12.274 17.6434 12.0933 18.0879 11.9499 18.5353L6.8165 19.3526C6.54979 20.9701 6.55266 22.6276 6.81363 24.2422L11.947 25.0567C12.0933 25.5098 12.2768 25.9514 12.489 26.3787L9.44055 30.583C9.908 31.2397 10.4386 31.862 11.0293 32.4499C11.6144 33.0378 12.2424 33.5712 12.8963 34.0387L17.1005 30.9902C17.5278 31.2024 17.9723 31.3859 18.4225 31.5322L19.237 36.6627C20.8544 36.9294 22.5092 36.9265 24.1266 36.6598L24.9411 31.5293C25.3884 31.3802 25.8358 31.2024 26.2631 30.9902L30.4645 34.0415Z" fill="#76C5D4"></path></g><g id="Group_3"><path id="Vector_2" d="M21.674 37.4715C20.8251 37.4715 19.9763 37.4026 19.136 37.265C18.8779 37.222 18.6743 37.0184 18.6341 36.7603L17.8742 31.9882C17.6362 31.8993 17.3953 31.8018 17.1601 31.6928L13.2484 34.5291C13.0391 34.684 12.7523 34.684 12.54 34.532C11.8604 34.0444 11.2036 33.4881 10.5957 32.8772C9.98482 32.2693 9.43135 31.6154 8.94382 30.9328C8.78896 30.7235 8.79183 30.4339 8.94382 30.2245L11.7801 26.3128C11.6711 26.0748 11.5736 25.8339 11.4847 25.5987L6.7098 24.8388C6.45169 24.7957 6.24807 24.5921 6.20505 24.334C5.92975 22.6449 5.93261 20.9328 6.20792 19.2494C6.25094 18.9913 6.45456 18.7906 6.71266 18.7504L11.4847 17.9904C11.5736 17.7467 11.6711 17.5086 11.7801 17.2764L8.94382 13.3675C8.78896 13.1582 8.78896 12.8714 8.94095 12.6592C9.43708 11.968 9.99056 11.3113 10.5899 10.7091C11.1922 10.1097 11.846 9.55332 12.54 9.06006C12.7523 8.90806 13.0391 8.90806 13.2484 9.06292L17.1572 11.8992C17.3895 11.7931 17.6304 11.6956 17.8713 11.6038L18.6284 6.83463C18.6714 6.57366 18.8693 6.37293 19.1303 6.32991C20.8108 6.04887 22.5229 6.04887 24.2178 6.32418C24.4759 6.37007 24.6766 6.5708 24.7168 6.8289L25.4796 11.6038C25.732 11.6956 25.9671 11.7931 26.1937 11.8992L30.1054 9.06292C30.3176 8.90806 30.6044 8.90806 30.8166 9.06006C31.5049 9.55332 32.1616 10.1068 32.7639 10.7091C33.3661 11.3113 33.9196 11.9652 34.4128 12.6592C34.5648 12.8685 34.5648 13.1553 34.41 13.3675L31.5737 17.2792C31.677 17.5086 31.7745 17.7467 31.8691 17.9933L36.6411 18.7533C36.8992 18.7934 37.1029 18.9942 37.1459 19.2551C37.4241 20.9471 37.4241 22.6592 37.143 24.3426C37.0971 24.6007 36.8964 24.8015 36.6383 24.8416L31.8662 25.5987C31.7745 25.8511 31.6798 26.0863 31.5737 26.3128L34.4128 30.2245C34.5648 30.4367 34.5677 30.7235 34.4128 30.9357C33.9052 31.6412 33.3518 32.2979 32.7667 32.883C32.1788 33.4709 31.5221 34.0244 30.8166 34.532C30.6044 34.6868 30.3176 34.6868 30.1054 34.5291L26.1966 31.6928C25.9671 31.7961 25.732 31.8907 25.4825 31.9853L24.7225 36.7574C24.6795 37.0184 24.4787 37.2191 24.2206 37.2621C23.3775 37.4026 22.5258 37.4715 21.674 37.4715ZM19.7641 36.1293C21.0345 36.2985 22.3222 36.3014 23.5955 36.1265L24.3411 31.4347C24.3784 31.211 24.5332 31.0246 24.7512 30.9558C25.2043 30.8038 25.6115 30.6375 25.993 30.4453C26.1937 30.345 26.4375 30.365 26.621 30.497L30.4639 33.2873C30.9858 32.8916 31.4705 32.47 31.9121 32.0284C32.3538 31.5867 32.7782 31.1021 33.1711 30.5801L30.3836 26.7372C30.2488 26.5566 30.2287 26.3128 30.3291 26.1092C30.5155 25.7306 30.6847 25.3206 30.8424 24.8617C30.9112 24.6495 31.0977 24.4918 31.3214 24.4545L36.0102 23.7117C36.1851 22.4413 36.1851 21.1565 36.0131 19.8803L31.3214 19.1347C31.1005 19.1003 30.9141 18.9425 30.8424 18.7275C30.6904 18.2829 30.5212 17.8614 30.3291 17.4828C30.2287 17.2792 30.2488 17.0383 30.3807 16.8548L33.1711 13.009C32.7839 12.4986 32.3624 12.0139 31.9092 11.5637C31.459 11.1105 30.9743 10.6861 30.4639 10.3018L26.6181 13.0922C26.4375 13.2241 26.1937 13.2442 25.9901 13.1438C25.6115 12.9574 25.2072 12.7882 24.7454 12.6276C24.5332 12.5559 24.3784 12.3724 24.3411 12.1487L23.5897 7.46556C22.3164 7.29349 21.0288 7.29349 19.7583 7.46556L19.0156 12.1573C18.9812 12.381 18.8234 12.5674 18.6055 12.6391C18.1753 12.7796 17.7566 12.9488 17.3666 13.1496C17.1658 13.2499 16.9221 13.2299 16.7385 13.0979L12.8928 10.3076C12.3823 10.6947 11.8977 11.1163 11.4474 11.5694C10.9972 12.0196 10.5699 12.5043 10.1856 13.0148L12.9788 16.8605C13.1136 17.044 13.1308 17.2849 13.0276 17.4914C12.8326 17.8843 12.6576 18.2973 12.5171 18.7275C12.4483 18.9425 12.2619 19.1031 12.0382 19.1375L7.34359 19.886C7.17152 21.1536 7.1715 22.4413 7.3407 23.7146L12.0353 24.4631C12.2619 24.4975 12.4483 24.6552 12.5171 24.876C12.649 25.2861 12.8182 25.702 13.0276 26.1149C13.1279 26.3157 13.1079 26.5594 12.9788 26.743L10.1884 30.5801C10.5756 31.082 10.9972 31.5667 11.4532 32.0226C11.9091 32.4786 12.3938 32.9059 12.8957 33.2873L16.7414 30.497C16.9221 30.365 17.1658 30.345 17.3694 30.4453C17.7681 30.6432 18.1868 30.8153 18.6112 30.9558C18.8263 31.0246 18.9869 31.2139 19.0213 31.4376L19.7641 36.1293Z" fill="#274242"></path></g><g id="Group_4"><path id="Vector_3" d="M25.4864 25.6013C23.3872 27.7005 19.9802 27.7005 17.8781 25.5984C15.7789 23.4992 15.7789 20.0922 17.8781 17.9901C19.9774 15.8908 23.3872 15.8908 25.4864 17.993C27.5885 20.0951 27.5914 23.502 25.4864 25.6013Z" fill="white"></path></g><g id="Group_5"><path id="Vector_4" d="M21.6861 27.784C21.6832 27.784 21.6832 27.784 21.6861 27.784C20.083 27.784 18.5802 27.1617 17.4474 26.0318C15.113 23.6974 15.113 19.8975 17.4446 17.566C19.779 15.2316 23.5817 15.2316 25.9132 17.566C27.046 18.693 27.6683 20.1986 27.6683 21.7989C27.6683 23.3991 27.0432 24.9018 25.9132 26.0346C24.7862 27.1617 23.2835 27.784 21.6861 27.784ZM21.6803 17.0268C20.4558 17.0268 19.2341 17.4914 18.3049 18.4206C16.4466 20.2789 16.4466 23.3102 18.3049 25.1714C19.2054 26.0719 20.407 26.5709 21.6832 26.5709C22.9565 26.5709 24.1553 26.0719 25.0586 25.1743C25.9591 24.2738 26.4552 23.075 26.4552 21.7989C26.4552 20.5227 25.9591 19.3239 25.0557 18.4206C24.1266 17.4914 22.9049 17.0268 21.6803 17.0268Z" fill="#274242"></path></g><g id="Group_6"><path id="Vector_5" d="M34.7946 36.6023C35.8901 36.8518 37.0286 36.9895 38.2015 36.9895C39.3716 36.9895 40.513 36.8518 41.6056 36.6023C48.3565 35.0537 53.3923 29.0141 53.3923 21.7987C53.3895 13.4075 46.5899 6.60791 38.2015 6.60791C29.8103 6.60791 23.0107 13.4075 23.0107 21.7987C23.0107 29.017 28.0466 35.0537 34.7946 36.6023Z" fill="#76C5D4"></path></g><g id="Group_7"><path id="Vector_6" d="M38.2012 37.5976C37.0168 37.5947 35.8237 37.4599 34.6623 37.1932C27.444 35.5385 22.4053 29.2092 22.4053 21.7988C22.4053 17.5774 24.0485 13.6112 27.031 10.6258C30.0136 7.64328 33.9826 6 38.204 6C46.9136 6 53.9999 13.0892 53.9999 21.7988C54.0028 29.2063 48.9641 35.5385 41.7458 37.1932C40.5757 37.4599 39.3856 37.5947 38.2012 37.5976ZM34.929 36.0088C36.0073 36.2554 37.1085 36.3816 38.2012 36.3816C39.2938 36.3816 40.395 36.2554 41.4705 36.0088C48.1324 34.4802 52.7868 28.6385 52.784 21.7988C52.7811 13.7546 46.2425 7.21596 38.2012 7.2131C34.3067 7.2131 30.6416 8.73016 27.8885 11.4833C25.1325 14.2392 23.6183 17.9014 23.6183 21.7988C23.6155 28.6385 28.2699 34.4831 34.929 36.0088Z" fill="#274242"></path></g><g id="Group_8"><path id="Vector_7" d="M34.793 46.2642V49.6654C34.793 51.5438 36.3158 53.0695 38.1999 53.0695C40.0783 53.0695 41.604 51.5467 41.604 49.6625V46.2642C39.7199 48.1454 36.6771 48.1454 34.793 46.2642Z" fill="white"></path></g><g id="Group_9"><path id="Vector_8" d="M38.1977 53.6746C35.9866 53.6746 34.1885 51.8736 34.1885 49.6654V46.2642C34.1885 46.0175 34.3376 45.7967 34.5642 45.7049C34.7907 45.6103 35.0517 45.6619 35.2238 45.8369C36.8641 47.4773 39.5341 47.4773 41.1745 45.8369C41.3465 45.6619 41.6075 45.6103 41.834 45.7049C42.0635 45.7967 42.2097 46.0175 42.2097 46.2642V49.6625C42.2097 50.7351 41.791 51.7446 41.0368 52.4988C40.2768 53.2559 39.2702 53.6746 38.1977 53.6746ZM35.4016 47.503V49.6625C35.4016 51.2025 36.6576 52.4615 38.1977 52.4615C38.949 52.4615 39.6516 52.1661 40.1765 51.6413C40.707 51.1108 40.9966 50.4082 40.9966 49.6625V47.5059C39.2817 48.5383 37.1165 48.5355 35.4016 47.503Z" fill="#274242"></path></g><g id="Group_10"><path id="Vector_9" d="M38.1971 36.9896C37.0299 36.9868 35.8885 36.8491 34.793 36.5996V46.2613C36.6743 48.1425 39.7199 48.1425 41.6012 46.2613V36.5996C40.5085 36.852 39.37 36.9896 38.1971 36.9896Z" fill="#76C5D4"></path></g><g id="Group_11"><path id="Vector_10" d="M38.2005 48.2774C36.8125 48.2774 35.4216 47.7497 34.3634 46.6915C34.2515 46.5796 34.1855 46.4219 34.1855 46.2641V36.6025C34.1855 36.419 34.2716 36.2412 34.415 36.1264C34.5612 36.0117 34.7476 35.9687 34.9312 36.0117C36.0037 36.2584 37.105 36.3817 38.1976 36.3845C39.2931 36.3845 40.3944 36.2584 41.4698 36.0117C41.6533 35.9687 41.8397 36.0117 41.9831 36.1293C42.1294 36.2411 42.2126 36.419 42.2126 36.6025V46.2641C42.2126 46.4247 42.1495 46.5796 42.0348 46.6915C40.9765 47.7497 39.5856 48.2774 38.2005 48.2774ZM35.4015 46.0032C36.9903 47.417 39.405 47.4199 40.9966 46.0032V37.3452C40.0703 37.5116 39.1325 37.5948 38.1976 37.5948C37.2656 37.5948 36.3249 37.5116 35.3986 37.3452L35.4015 46.0032Z" fill="#274242"></path></g><g id="Group_12"><path id="Vector_11" d="M43.5525 21.796C43.5525 19.1891 44.7627 16.869 46.6469 15.3548C46.3601 14.982 46.059 14.6178 45.7177 14.2765C43.6414 12.2003 40.9227 11.1621 38.2012 11.1621V32.4327C40.9227 32.4327 43.6414 31.3945 45.7206 29.3154C46.059 28.977 46.363 28.6099 46.6469 28.2371C44.7627 26.7229 43.5525 24.4028 43.5525 21.796Z" fill="white"></path></g><g id="Group_13"><path id="Vector_12" d="M38.2018 33.0407C38.0412 33.0407 37.8863 32.9776 37.7745 32.86C37.6598 32.7453 37.5967 32.5905 37.5967 32.4327V11.1622C37.5967 10.9987 37.6598 10.8467 37.7745 10.7349C37.8863 10.6201 38.0412 10.5542 38.2018 10.5542C41.2044 10.5571 44.0263 11.7243 46.1485 13.8464C46.4726 14.1705 46.7851 14.5318 47.1293 14.985C47.33 15.2459 47.287 15.6187 47.0289 15.8252C45.205 17.2907 44.1611 19.4616 44.1611 21.7931C44.1611 24.1218 45.205 26.2956 47.0289 27.7611C47.287 27.9675 47.33 28.3404 47.1321 28.6042C46.7851 29.0573 46.4754 29.4187 46.1485 29.7456C44.0263 31.8706 41.2044 33.0378 38.2018 33.0407ZM38.8098 11.7874V31.8075C41.2589 31.6613 43.5388 30.6375 45.291 28.8852C45.466 28.7132 45.6351 28.5268 45.813 28.3146C43.9833 26.6369 42.948 24.291 42.948 21.7931C42.948 19.2953 43.9833 16.9523 45.8101 15.2746C45.6352 15.0653 45.466 14.876 45.291 14.7068C43.5388 12.9546 41.256 11.9336 38.8098 11.7874Z" fill="#274242"></path></g><g id="Group_14"><path id="Vector_13" d="M30.6788 14.2765C30.3863 14.5662 30.1225 14.8759 29.873 15.1885C31.8805 16.6941 33.1853 19.0887 33.1853 21.796C33.1853 24.5003 31.8805 26.8949 29.8701 28.4034C30.1225 28.716 30.3892 29.0257 30.6788 29.3154C32.758 31.3945 35.4796 32.4327 38.2011 32.4327V11.1621C35.4796 11.1621 32.7551 12.2031 30.6788 14.2765Z" fill="white"></path></g><g id="Group_15"><path id="Vector_14" d="M38.1996 33.0405C35.197 33.0405 32.3751 31.8704 30.2529 29.7482C29.9661 29.4614 29.688 29.146 29.3983 28.7789C29.2951 28.6498 29.2492 28.4864 29.2693 28.3258C29.2922 28.1623 29.3754 28.0189 29.5073 27.9157C31.4603 26.4531 32.5787 24.2219 32.5787 21.7958C32.5787 19.3696 31.4574 17.1384 29.5102 15.6759C29.3782 15.5783 29.2922 15.4292 29.2721 15.2658C29.2492 15.1023 29.2979 14.9417 29.3983 14.8127C29.688 14.4456 29.9661 14.133 30.2529 13.8462C32.3751 11.724 35.1999 10.554 38.1996 10.554C38.5352 10.554 38.8105 10.8264 38.8105 11.1619V32.4325C38.8105 32.768 38.538 33.0405 38.1996 33.0405ZM30.7319 28.4864C30.858 28.6298 30.9842 28.7617 31.1104 28.8879C32.8569 30.6372 35.1425 31.6639 37.5945 31.8102V11.79C35.1425 11.9362 32.8598 12.9572 31.1104 14.7123C30.9842 14.8356 30.858 14.9675 30.7319 15.1109C32.6848 16.8 33.7918 19.2033 33.7918 21.8015C33.7947 24.394 32.6848 26.7972 30.7319 28.4864Z" fill="#274242"></path></g><g id="Group_16"><path id="Vector_15" d="M33.1854 21.7957C33.1854 19.0913 31.8805 16.6967 29.8731 15.1882C26.8045 19.0483 26.8045 24.5402 29.8702 28.4002C31.8805 26.8975 33.1854 24.5029 33.1854 21.7957Z" fill="white"></path></g><g id="Group_17"><path id="Vector_16" d="M29.8733 29.0083C29.6927 29.0083 29.5149 28.9309 29.3973 28.7789C26.128 24.6664 26.128 18.9251 29.3973 14.8126C29.6009 14.5574 29.9737 14.5086 30.2376 14.7065C32.4974 16.4014 33.7937 18.9853 33.7937 21.7986C33.7937 24.6091 32.4974 27.1958 30.2347 28.8907C30.1228 28.9681 29.9967 29.0083 29.8733 29.0083ZM29.9795 16.0573C27.5533 19.5158 27.5533 24.0757 29.9795 27.5314C31.6399 26.0774 32.5777 24.0183 32.5777 21.7957C32.5777 19.5732 31.6399 17.5141 29.9795 16.0573Z" fill="#274242"></path></g><g id="Group_18"><path id="Vector_17" d="M46.6481 15.3547C44.7639 16.8689 43.5537 19.189 43.5537 21.7958C43.5537 24.4027 44.7639 26.7228 46.6481 28.237C49.5503 24.44 49.5503 19.1489 46.6481 15.3547Z" fill="white"></path></g><g id="Group_19"><path id="Vector_18" d="M46.6486 28.8451C46.511 28.8451 46.3791 28.7963 46.2701 28.7103C44.1594 27.0126 42.9463 24.4918 42.9463 21.796C42.9463 19.0974 44.1594 16.5766 46.2672 14.8817C46.3963 14.7785 46.5597 14.7326 46.7203 14.7527C46.8838 14.7727 47.0301 14.8559 47.1304 14.985C50.1932 18.997 50.1932 24.5979 47.1333 28.6071C47.0329 28.7361 46.8838 28.8193 46.7232 28.8394C46.7003 28.8422 46.6744 28.8451 46.6486 28.8451ZM46.5454 16.2554C45.0226 17.6979 44.1623 19.6824 44.1623 21.7989C44.1623 23.9125 45.0226 25.8998 46.5454 27.3452C48.7737 23.9927 48.7737 19.6021 46.5454 16.2554Z" fill="#274242"></path></g><g id="Group_20"><path id="Vector_19" d="M48.8242 22.4037H27.5709C27.2353 22.4037 26.9629 22.1342 26.9629 21.7986C26.9629 21.4631 27.2353 21.1907 27.5709 21.1907H48.8242C49.1598 21.1907 49.4322 21.4631 49.4322 21.7986C49.4322 22.1342 49.1598 22.4037 48.8242 22.4037Z" fill="#274242"></path></g></g></g></svg>