<svg xmlns="http://www.w3.org/2000/svg" width="60" height="60" viewBox="0 0 60 60" fill="none"><g id="Frame 204"><rect width="60" height="60" fill="white"></rect><g id="Group"><g id="Group_2"><path id="Vector" d="M2.57617 43.3176C2.57617 44.5213 3.55494 45.5001 4.76169 45.5001H55.1079C56.3116 45.5001 57.2904 44.5244 57.2904 43.3176V38.7733H2.57617V43.3176Z" fill="#BA4D9B"></path></g><g id="Group_3"><path id="Vector_2" d="M55.1067 46.1415H4.7605C3.20114 46.1415 1.93359 44.874 1.93359 43.3146V38.7733C1.93359 38.4177 2.22237 38.1289 2.57497 38.1289H57.2892C57.6448 38.1289 57.9336 38.4177 57.9336 38.7733V43.3146C57.9336 44.874 56.666 46.1415 55.1067 46.1415ZM3.21938 39.4147V43.3146C3.21938 44.1627 3.91243 44.8557 4.7605 44.8557H55.1067C55.9548 44.8557 56.6478 44.1627 56.6478 43.3146V39.4147H3.21938Z" fill="#3A1A35"></path></g><g id="Group_4"><path id="Vector_3" d="M35.106 45.4971H24.768L21.1934 51.7345H38.6806L35.106 45.4971Z" fill="white"></path></g><g id="Group_5"><path id="Vector_4" d="M38.677 52.3789H21.1898C20.9618 52.3789 20.749 52.2573 20.6335 52.0598C20.518 51.8622 20.518 51.616 20.6335 51.4153L24.2082 45.181C24.3237 44.9803 24.5365 44.8588 24.7675 44.8588H35.1054C35.3364 44.8588 35.5492 44.9803 35.6647 45.181L39.2394 51.4153C39.3549 51.616 39.3519 51.8591 39.2394 52.0598C39.1208 52.2573 38.9081 52.3789 38.677 52.3789ZM22.3023 51.0901H37.5676L34.7285 46.1415H25.1383L22.3023 51.0901Z" fill="#3A1A35"></path></g><g id="Group_6"><path id="Vector_5" d="M48.1921 51.7345H11.6704C10.9044 51.7345 10.2812 52.4336 10.2812 53.2969V54.8532H49.5813V53.2969C49.5813 52.4367 48.9581 51.7345 48.1921 51.7345Z" fill="#BA4D9B"></path></g><g id="Group_7"><path id="Vector_6" d="M49.5831 55.4946H10.2831C9.92745 55.4946 9.63867 55.2058 9.63867 54.8502V53.2908C9.63867 52.078 10.5506 51.087 11.6722 51.087H48.194C49.3156 51.087 50.2275 52.075 50.2275 53.2908V54.8502C50.2275 55.2088 49.9387 55.4946 49.5831 55.4946ZM10.9275 54.2118H48.9417V53.2939C48.9417 52.7984 48.5982 52.3789 48.194 52.3789H11.6722C11.2679 52.3789 10.9245 52.7984 10.9245 53.2939L10.9275 54.2118Z" fill="#3A1A35"></path></g><g id="Group_8"><path id="Vector_7" d="M34.6518 42.7797H25.2167C24.861 42.7797 24.5723 42.4909 24.5723 42.1353C24.5723 41.7796 24.861 41.4908 25.2167 41.4908H34.6518C35.0075 41.4908 35.2932 41.7796 35.2932 42.1353C35.2932 42.4909 35.0044 42.7797 34.6518 42.7797Z" fill="#3A1A35"></path></g><g id="Group_9"><path id="Vector_8" d="M51.0195 12.5318L47.4783 17.2463L43.9401 15.3192L40.0797 17.8907L37.6145 16.1763L33.2192 20.5717L28.8208 19.0701L24.316 22.1797L19.5984 20.3589L16.273 23.6843L14.13 21.055L11.1268 26.3623L7.5886 25.2923L2.57617 29.0433V34.5664L7.5886 31.0282L11.1268 32.7973L14.1817 28.6147L16.7563 30.1437L21.1912 26.8608L25.2187 30.7121L28.0183 28.7758L31.2343 30.7121L34.6539 26.0401L38.6784 29.2591L42.4932 26.0401L44.7456 26.8608L49.5848 22.6752L51.9831 24.4321L57.2904 21.055V9.74438L53.6975 13.6017L51.0195 12.5318Z" fill="#BA4D9B"></path></g><g id="Group_10"><path id="Vector_9" d="M2.57497 35.2108C2.47466 35.2108 2.37435 35.1865 2.28012 35.1409C2.06735 35.0284 1.93359 34.8126 1.93359 34.5694V29.0493C1.93359 28.8487 2.03086 28.6542 2.18893 28.5326L7.19832 24.7816C7.36247 24.6601 7.57524 24.6205 7.76978 24.6813L10.8155 25.6054L13.5634 20.745C13.6668 20.5595 13.8583 20.4379 14.068 20.4227C14.2777 20.3984 14.4875 20.4896 14.6212 20.6568L16.3174 22.7329L19.1382 19.9121C19.3206 19.7297 19.5881 19.6719 19.8251 19.7662L24.2266 21.4654L28.4487 18.5503C28.6159 18.4348 28.8317 18.4044 29.0232 18.4713L33.0417 19.8422L37.1544 15.7295C37.3763 15.5106 37.7228 15.4772 37.9751 15.6565L40.0816 17.1186L43.5772 14.7902C43.7748 14.6565 44.0331 14.6443 44.2429 14.7598L47.2917 16.4225L50.4955 12.1518C50.6718 11.9177 50.9788 11.8357 51.2493 11.942L53.52 12.8509L56.812 9.31272C56.9943 9.12122 57.274 9.05435 57.5202 9.15162C57.7664 9.24585 57.9275 9.48294 57.9275 9.75043V21.0641C57.9275 21.283 57.8151 21.4897 57.6296 21.6052L52.3193 24.9853C52.0944 25.1282 51.8056 25.116 51.5928 24.9579L49.611 23.5019L45.1578 27.3532C44.9815 27.5082 44.7353 27.5508 44.5165 27.4718L42.6227 26.7726L39.0937 29.7485C38.8566 29.943 38.5161 29.9491 38.276 29.7606L34.7743 26.9611L31.7498 31.089C31.5522 31.3595 31.1844 31.4325 30.8987 31.2622L28.0384 29.5418L25.5823 31.244C25.33 31.4173 24.9926 31.3899 24.7707 31.1802L21.1352 27.6997L17.1381 30.6604C16.9314 30.8154 16.6487 30.8276 16.4268 30.6969L14.3568 29.4688L11.6454 33.1803C11.4599 33.4356 11.1195 33.5146 10.8368 33.3748L7.64212 31.779L2.94885 35.0953C2.83638 35.1713 2.70568 35.2108 2.57497 35.2108ZM3.21938 29.3655V33.3262L7.21351 30.5023C7.40501 30.3655 7.66036 30.3473 7.87313 30.4507L10.925 31.9796L13.6607 28.2378C13.8552 27.9672 14.22 27.8943 14.5057 28.0615L16.7125 29.3716L20.8039 26.344C21.0562 26.1586 21.4058 26.1799 21.6307 26.3988L25.2783 29.8853L27.6432 28.2469C27.8499 28.104 28.1235 28.0949 28.3393 28.2256L31.0537 29.861L34.1268 25.6601C34.2302 25.5203 34.3852 25.4261 34.5585 25.4048C34.7348 25.3805 34.908 25.4291 35.0448 25.5385L38.659 28.4262L42.0695 25.5507C42.2458 25.4017 42.489 25.3592 42.7048 25.4382L44.6016 26.1252L49.158 22.1858C49.386 21.9912 49.7173 21.976 49.9605 22.1523L52.0032 23.6509L56.6417 20.6994V11.3736L54.1614 14.0394C53.979 14.234 53.6993 14.2948 53.4531 14.2005L51.2311 13.3099L47.9908 17.6323C47.7993 17.8907 47.4467 17.9636 47.1671 17.8117L43.9693 16.0699L40.4311 18.4257C40.2123 18.5746 39.9235 18.5716 39.7077 18.4196L37.6833 17.0122L33.6678 21.0246C33.4946 21.2009 33.2362 21.2587 33.0052 21.1796L28.9168 19.7844L24.6795 22.7086C24.5032 22.8302 24.2813 22.8575 24.0807 22.7815L19.7552 21.1097L16.7247 24.1372C16.597 24.2649 16.4207 24.3378 16.2383 24.3257C16.0559 24.3166 15.8888 24.2315 15.7733 24.0916L14.223 22.1918L11.6849 26.6845C11.5359 26.9459 11.2289 27.0705 10.9371 26.9824L7.71203 26.0066L3.21938 29.3655Z" fill="#3A1A35"></path></g><g id="Group_11"><path id="Vector_10" d="M49.5848 22.6751L44.7456 26.8607L42.4932 26.04L38.6784 29.259L34.6539 26.04L31.2343 30.712L28.0183 28.7757L25.2187 30.712L21.1912 26.8607L16.7563 30.1436L14.1817 28.6146L11.1268 32.7972L7.5886 31.0281L2.57617 34.5663V38.7702H57.2904V21.0549L51.9831 24.432L49.5848 22.6751Z" fill="white"></path></g><g id="Group_12"><path id="Vector_11" d="M57.2892 39.4148H2.57497C2.21933 39.4148 1.93359 39.126 1.93359 38.7734V34.5634C1.93359 34.3567 2.03391 34.1592 2.20413 34.0406L7.21656 30.4994C7.40806 30.3626 7.66339 30.3443 7.87617 30.4477L10.928 31.9767L13.6637 28.2348C13.8583 27.9643 14.223 27.8913 14.5087 28.0585L16.7156 29.3686L20.807 26.3411C21.0592 26.1557 21.4088 26.1769 21.6338 26.3958L25.2814 29.8823L27.6462 28.2439C27.8529 28.1011 28.1265 28.092 28.3423 28.2227L31.0568 29.858L34.1299 25.6572C34.2332 25.5173 34.3882 25.4231 34.5615 25.4018C34.7378 25.3775 34.9111 25.4262 35.0479 25.5356L38.662 28.4233L42.0726 25.5477C42.2489 25.3988 42.492 25.3563 42.7078 25.4353L44.6046 26.1222L49.1611 22.1828C49.3891 21.9883 49.7204 21.9731 49.9636 22.1494L52.0062 23.6479L56.9457 20.508C57.1463 20.3803 57.3925 20.3742 57.5992 20.4867C57.8059 20.5961 57.9336 20.815 57.9336 21.0521V38.7704C57.9336 39.129 57.6479 39.4148 57.2892 39.4148ZM3.21938 38.132H56.6478V22.2284L52.3284 24.9793C52.1035 25.1222 51.8147 25.11 51.6019 24.952L49.6201 23.496L45.1669 27.3472C44.9906 27.5023 44.7444 27.5448 44.5256 27.4658L42.6227 26.7727L39.0937 29.7486C38.8566 29.9431 38.5161 29.9492 38.276 29.7607L34.7743 26.9612L31.7498 31.0891C31.5522 31.3596 31.1844 31.4326 30.8987 31.2623L28.0384 29.5419L25.5823 31.2441C25.33 31.4174 24.9926 31.39 24.7707 31.1803L21.1352 27.6998L17.1381 30.6605C16.9314 30.8155 16.6487 30.8277 16.4268 30.697L14.3568 29.4689L11.6454 33.1804C11.4599 33.4357 11.1195 33.5147 10.8368 33.3749L7.64212 31.7791L3.21938 34.9039V38.132Z" fill="#3A1A35"></path></g><g id="Group_13"><path id="Vector_12" d="M55.1079 5.92957H4.76169C3.55494 5.92957 2.57617 6.90832 2.57617 8.11508V29.0463L7.5886 25.2953L11.1268 26.3684L14.13 21.0611L16.276 23.6874L19.6014 20.362L24.319 22.1858L28.8238 19.0762L33.2192 20.5778L37.6146 16.1824L40.0797 17.8968L43.9401 15.3222L47.4783 17.2524L51.0195 12.5348L53.7005 13.6078L57.2934 9.74739V8.11814C57.2904 6.90835 56.3146 5.92957 55.1079 5.92957Z" fill="white"></path></g><g id="Group_14"><path id="Vector_13" d="M2.57497 29.6877C2.4777 29.6877 2.38043 29.6634 2.28924 29.6208C2.07038 29.5114 1.93359 29.2895 1.93359 29.0463V8.1151C1.93359 6.55574 3.20114 5.28516 4.7605 5.28516H55.1067C56.666 5.28516 57.9336 6.55574 57.9336 8.1151V9.74437C57.9336 9.90548 57.8728 10.0605 57.7603 10.1821L54.1644 14.0455C53.982 14.2401 53.7024 14.3009 53.4561 14.2066L51.2341 13.316L47.9938 17.6384C47.8023 17.8968 47.4497 17.9697 47.1701 17.8178L43.9724 16.076L40.4342 18.4318C40.2153 18.5807 39.9265 18.5777 39.7107 18.4257L37.6863 17.0183L33.6709 21.0307C33.4976 21.207 33.2392 21.2648 33.0082 21.1857L28.9199 19.7905L24.6826 22.7147C24.5063 22.8363 24.2844 22.8636 24.0837 22.7876L19.7583 21.1158L16.7277 24.1433C16.6 24.271 16.4237 24.344 16.2414 24.3318C16.059 24.3227 15.8918 24.2376 15.7763 24.0977L14.2261 22.1979L11.6879 26.6906C11.539 26.952 11.232 27.0766 10.9402 26.9885L7.71506 26.0127L2.96405 29.5722C2.84854 29.6452 2.7148 29.6877 2.57497 29.6877ZM4.7605 6.57399C3.91243 6.57399 3.21938 7.26703 3.21938 8.1151V27.7606L7.20136 24.7786C7.3655 24.657 7.57828 24.6175 7.77282 24.6783L10.8186 25.6024L13.5664 20.7419C13.6698 20.5565 13.8613 20.4349 14.071 20.4197C14.2808 20.3954 14.4905 20.4866 14.6242 20.6538L16.3204 22.7299L19.1412 19.9091C19.3236 19.7267 19.5911 19.6689 19.8282 19.7631L24.2296 21.4623L28.4518 18.5473C28.6189 18.4318 28.8348 18.4014 29.0263 18.4683L33.0447 19.8391L37.1574 15.7265C37.3793 15.5076 37.7258 15.4742 37.9781 15.6535L40.0846 17.1156L43.5802 14.7872C43.7778 14.6535 44.0362 14.6413 44.2459 14.7568L47.2947 16.4195L50.4985 12.1488C50.6748 11.9147 50.9819 11.8326 51.2524 11.939L53.523 12.8479L56.6448 9.49208V8.11816C56.6448 7.27009 55.9517 6.57703 55.1037 6.57703L4.7605 6.57399Z" fill="#3A1A35"></path></g><g id="Group_15"><path id="Vector_14" d="M23.9898 10.5165H6.83082C6.47518 10.5165 6.18945 10.2277 6.18945 9.87512C6.18945 9.51948 6.47822 9.23071 6.83082 9.23071H23.9898C24.3455 9.23071 24.6342 9.51948 24.6342 9.87512C24.6342 10.2277 24.3485 10.5165 23.9898 10.5165Z" fill="#3A1A35"></path></g><g id="Group_16"><path id="Vector_15" d="M23.9934 14.1641H17.3182C16.9626 14.1641 16.6738 13.8753 16.6738 13.5196C16.6738 13.164 16.9626 12.8752 17.3182 12.8752H23.9934C24.349 12.8752 24.6378 13.164 24.6378 13.5196C24.6378 13.8753 24.352 14.1641 23.9934 14.1641Z" fill="#3A1A35"></path></g><g id="Group_17"><path id="Vector_16" d="M13.5138 14.1641H6.83864C6.483 14.1641 6.19727 13.8753 6.19727 13.5196C6.19727 13.164 6.48604 12.8752 6.83864 12.8752H13.5138C13.8694 12.8752 14.1551 13.164 14.1551 13.5196C14.1582 13.8753 13.8694 14.1641 13.5138 14.1641Z" fill="#3A1A35"></path></g><g id="Group_18"><path id="Vector_17" d="M19.4412 17.8086H6.83864C6.483 17.8086 6.19727 17.5198 6.19727 17.1642C6.19727 16.8085 6.48604 16.5198 6.83864 16.5198H19.4412C19.7968 16.5198 20.0825 16.8085 20.0825 17.1642C20.0825 17.5198 19.7968 17.8086 19.4412 17.8086Z" fill="#3A1A35"></path></g><g id="Group_19"><path id="Vector_18" d="M52.7312 39.4147C52.3756 39.4147 52.0898 39.1259 52.0898 38.7733V27.338C52.0898 26.9824 52.3786 26.6936 52.7312 26.6936C53.0869 26.6936 53.3756 26.9824 53.3756 27.338V38.7733C53.3756 39.1289 53.0899 39.4147 52.7312 39.4147Z" fill="#3A1A35"></path></g><g id="Group_20"><path id="Vector_19" d="M48.1707 39.4147C47.815 39.4147 47.5293 39.1259 47.5293 38.7733V28.6268C47.5293 28.2712 47.8181 27.9824 48.1707 27.9824C48.5263 27.9824 48.8151 28.2712 48.8151 28.6268V38.7733C48.8151 39.1289 48.5294 39.4147 48.1707 39.4147Z" fill="#3A1A35"></path></g><g id="Group_21"><path id="Vector_20" d="M43.6121 39.4148C43.2564 39.4148 42.9707 39.126 42.9707 38.7734V29.9127C42.9707 29.5571 43.2595 29.2683 43.6121 29.2683C43.9677 29.2683 44.2565 29.5571 44.2565 29.9127V38.7734C44.2565 39.129 43.9708 39.4148 43.6121 39.4148Z" fill="#3A1A35"></path></g><g id="Group_22"><path id="Vector_21" d="M39.0515 39.4146C38.6959 39.4146 38.4102 39.1259 38.4102 38.7733V32.4872C38.4102 32.1316 38.6989 31.8428 39.0515 31.8428C39.4072 31.8428 39.6959 32.1316 39.6959 32.4872V38.7733C39.6959 39.1289 39.4102 39.4146 39.0515 39.4146Z" fill="#3A1A35"></path></g><g id="Group_23"><path id="Vector_22" d="M34.4929 39.4146C34.1373 39.4146 33.8516 39.1259 33.8516 38.7733V31.1984C33.8516 30.8458 34.1403 30.557 34.4929 30.557C34.8486 30.557 35.1373 30.8458 35.1373 31.1984V38.7733C35.1373 39.1289 34.8516 39.4146 34.4929 39.4146Z" fill="#3A1A35"></path></g><g id="Group_24"><path id="Vector_23" d="M29.9324 39.4147C29.5768 39.4147 29.291 39.126 29.291 38.7734V33.1317C29.291 32.7761 29.5798 32.4873 29.9324 32.4873C30.288 32.4873 30.5768 32.7761 30.5768 33.1317V38.7734C30.5768 39.129 30.2911 39.4147 29.9324 39.4147Z" fill="#3A1A35"></path></g><g id="Group_25"><path id="Vector_24" d="M25.3738 39.4147C25.0182 39.4147 24.7324 39.126 24.7324 38.7734V33.7731C24.7324 33.4174 25.0212 33.1287 25.3738 33.1287C25.7294 33.1287 26.0182 33.4174 26.0182 33.7731V38.7734C26.0182 39.129 25.7325 39.4147 25.3738 39.4147Z" fill="#3A1A35"></path></g><g id="Group_26"><path id="Vector_25" d="M20.8133 39.4146C20.4576 39.4146 20.1719 39.1259 20.1719 38.7733V31.1984C20.1719 30.8458 20.4607 30.557 20.8133 30.557C21.1689 30.557 21.4577 30.8458 21.4577 31.1984V38.7733C21.4577 39.1289 21.1719 39.4146 20.8133 39.4146Z" fill="#3A1A35"></path></g><g id="Group_27"><path id="Vector_26" d="M16.2527 39.4147C15.8971 39.4147 15.6113 39.126 15.6113 38.7734V33.1317C15.6113 32.7761 15.9001 32.4873 16.2527 32.4873C16.6083 32.4873 16.8971 32.7761 16.8971 33.1317V38.7734C16.8971 39.129 16.6114 39.4147 16.2527 39.4147Z" fill="#3A1A35"></path></g><g id="Group_28"><path id="Vector_27" d="M11.6941 39.4147C11.3385 39.4147 11.0527 39.1259 11.0527 38.7733V35.7032C11.0527 35.3476 11.3415 35.0588 11.6941 35.0588C12.0498 35.0588 12.3385 35.3476 12.3385 35.7032V38.7733C12.3385 39.129 12.0528 39.4147 11.6941 39.4147Z" fill="#3A1A35"></path></g><g id="Group_29"><path id="Vector_28" d="M7.13357 39.4147C6.77792 39.4147 6.49219 39.1259 6.49219 38.7733V35.0589C6.49219 34.7032 6.78096 34.4144 7.13357 34.4144C7.48921 34.4144 7.77797 34.7032 7.77797 35.0589V38.7733C7.77797 39.129 7.49225 39.4147 7.13357 39.4147Z" fill="#3A1A35"></path></g><g id="Group_30"><path id="Vector_29" d="M48.1645 19.4987C49.4236 19.4987 50.4443 18.478 50.4443 17.219C50.4443 15.9599 49.4236 14.9392 48.1645 14.9392C46.9054 14.9392 45.8848 15.9599 45.8848 17.219C45.8848 18.478 46.9054 19.4987 48.1645 19.4987Z" fill="white"></path></g><g id="Group_31"><path id="Vector_30" d="M48.1633 20.143C46.5523 20.143 45.2422 18.8329 45.2422 17.2188C45.2422 15.6078 46.5523 14.2947 48.1633 14.2947C49.7743 14.2947 51.0875 15.6078 51.0875 17.2188C51.0845 18.8329 49.7743 20.143 48.1633 20.143ZM48.1633 15.5835C47.2605 15.5835 46.528 16.3161 46.528 17.2188C46.528 18.1216 47.2605 18.8572 48.1633 18.8572C49.0661 18.8572 49.8017 18.1216 49.8017 17.2188C49.8017 16.3161 49.0631 15.5835 48.1633 15.5835Z" fill="#3A1A35"></path></g><g id="Group_32"><path id="Vector_31" d="M33.3403 23.736C34.5994 23.736 35.6201 22.7153 35.6201 21.4563C35.6201 20.1972 34.5994 19.1765 33.3403 19.1765C32.0812 19.1765 31.0605 20.1972 31.0605 21.4563C31.0605 22.7153 32.0812 23.736 33.3403 23.736Z" fill="white"></path></g><g id="Group_33"><path id="Vector_32" d="M33.3382 24.3774C31.7272 24.3774 30.4141 23.0673 30.4141 21.4563C30.4141 19.8452 31.7272 18.5321 33.3382 18.5321C34.9493 18.5321 36.2624 19.8452 36.2624 21.4563C36.2594 23.0673 34.9493 24.3774 33.3382 24.3774ZM33.3382 19.8209C32.4354 19.8209 31.7029 20.5535 31.7029 21.4563C31.7029 22.3591 32.4354 23.0916 33.3382 23.0916C34.241 23.0916 34.9736 22.3591 34.9736 21.4563C34.9736 20.5535 34.238 19.8209 33.3382 19.8209Z" fill="#3A1A35"></path></g><g id="Group_34"><path id="Vector_33" d="M17.3227 26.2833C18.5818 26.2833 19.6025 25.2626 19.6025 24.0035C19.6025 22.7444 18.5818 21.7238 17.3227 21.7238C16.0637 21.7238 15.043 22.7444 15.043 24.0035C15.043 25.2626 16.0637 26.2833 17.3227 26.2833Z" fill="white"></path></g><g id="Group_35"><path id="Vector_34" d="M17.3206 26.9277C15.7096 26.9277 14.3965 25.6176 14.3965 24.0035C14.3965 22.3955 15.7096 21.0824 17.3206 21.0824C18.9317 21.0824 20.2418 22.3955 20.2418 24.0035C20.2418 25.6176 18.9317 26.9277 17.3206 26.9277ZM17.3206 22.3682C16.4179 22.3682 15.6823 23.1007 15.6823 24.0035C15.6823 24.9063 16.4179 25.6419 17.3206 25.6419C18.2234 25.6419 18.956 24.9063 18.956 24.0035C18.956 23.1007 18.2204 22.3682 17.3206 22.3682Z" fill="#3A1A35"></path></g></g></g></svg>