<svg xmlns="http://www.w3.org/2000/svg" width="64" height="64" viewBox="0 0 64 64" fill="none"><path d="M33.8005 5.79419H4.98694C2.68581 5.79419 0.803772 7.81584 0.803772 10.2886V58.4352C0.803772 60.912 2.68581 62.9337 4.98694 62.9337H40.0638C42.365 62.9337 44.2432 60.912 44.2432 58.4352V17.0261L33.8005 5.79419Z" fill="#D9B1B5"></path><path d="M40.0638 63.7991H4.98691C2.23623 63.7991 -0.00012207 61.392 -0.00012207 58.4313V10.2846C-0.00012207 7.32803 2.23623 4.9209 4.98691 4.9209H33.8005C34.0177 4.9209 34.2196 5.01522 34.372 5.17514L44.807 16.4111C44.9556 16.5711 45.0394 16.7966 45.0394 17.0221V58.4313C45.0432 61.392 42.8145 63.7991 40.0638 63.7991ZM4.98691 6.65961C3.12772 6.65961 1.61141 8.28759 1.61141 10.2887V58.4354C1.61141 60.4365 3.12391 62.0645 4.98691 62.0645H40.0638C41.923 62.0645 43.4355 60.4406 43.4355 58.4354V17.3871L33.4729 6.65961H4.98691Z" fill="#4C3037"></path><path d="M38.3722 0.869385H9.55863C7.25751 0.869385 5.37927 2.89514 5.37927 5.36788V53.5145C5.37927 55.9872 7.25751 58.013 9.55863 58.013H44.6355C46.9366 58.013 48.8149 55.9872 48.8149 53.5145V12.1095L38.3722 0.869385Z" fill="#D9B1B5"></path><path d="M44.1669 34.4092H44.1593L19.4374 34.2124C18.9955 34.2083 18.6335 33.8146 18.6374 33.3389C18.6412 32.8632 19.0031 32.4778 19.445 32.4778H19.4489L44.1707 32.6705C44.6164 32.6746 44.9784 33.0683 44.9746 33.544C44.9708 34.0238 44.6088 34.4092 44.1669 34.4092Z" fill="#4C3037"></path><path d="M27.9447 39.326H27.9333L19.4336 39.2153C18.9917 39.2071 18.6335 38.8134 18.6374 38.3377C18.6412 37.862 19.0031 37.4766 19.445 37.4766H19.4527L27.9523 37.5873C28.3981 37.5955 28.7562 37.9892 28.7486 38.4689C28.7448 38.9446 28.3828 39.326 27.9447 39.326Z" fill="#4C3037"></path><path d="M44.1669 44.2467L19.4412 44.136C18.9954 44.136 18.6373 43.7423 18.6373 43.2625C18.6373 42.7868 18.9993 42.4014 19.445 42.4014L44.1707 42.508C44.6164 42.5121 44.9745 42.9017 44.9745 43.3814C44.9707 43.8612 44.6088 44.2467 44.1669 44.2467Z" fill="#4C3037"></path><path d="M29.2172 49.2374H29.2096L19.4336 49.1103C18.9917 49.1021 18.6335 48.7084 18.6374 48.2286C18.6412 47.7529 19.0031 47.3716 19.445 47.3716H19.4527L29.2286 47.4987C29.6744 47.5069 30.0325 47.9006 30.0249 48.3763C30.0211 48.856 29.6591 49.2374 29.2172 49.2374Z" fill="#4C3037"></path><path d="M42.5479 12.1095H48.8112L38.3724 0.873535V7.61102C38.3724 10.0838 40.2544 12.1095 42.5479 12.1095Z" fill="white"></path><path d="M49.6073 12.0561C49.6035 11.9741 49.5883 11.9044 49.5654 11.8265C49.554 11.7978 49.5501 11.7732 49.5349 11.7445C49.4968 11.6543 49.4511 11.564 49.3787 11.4902L38.9436 0.254246C38.8713 0.184534 38.7912 0.127122 38.7036 0.0861148C38.6808 0.0738127 38.6541 0.0656136 38.6274 0.0533114C38.5627 0.0287071 38.4941 0.0163984 38.4255 0.00819694C38.4065 0.00819694 38.3874 0 38.3684 0H9.55481C6.80413 0 4.56775 2.40713 4.56775 5.36375V53.5103C4.56775 56.4711 6.80413 58.8782 9.55481 58.8782H44.6317C47.3824 58.8782 49.6187 56.4711 49.6187 53.5103V12.1094C49.6187 12.0889 49.6073 12.0725 49.6073 12.0561ZM46.8642 11.2401H42.5477C40.6923 11.2401 39.176 9.61619 39.176 7.61094V2.96892L46.8642 11.2401ZM44.6317 57.1436H9.55481C7.69562 57.1436 6.17931 55.5197 6.17931 53.5144V5.36785C6.17931 3.3708 7.69181 1.73871 9.55481 1.73871H37.5683V7.61094C37.5683 10.5717 39.8047 12.9788 42.5515 12.9788H48.0072V53.5185C48.0034 55.5197 46.4909 57.1436 44.6317 57.1436Z" fill="#4C3037"></path><path d="M52.5219 47.6874C55.326 42.8691 54.7888 36.435 50.8913 32.2441C46.3653 27.3724 39.0238 27.3724 34.4977 32.2441C29.9679 37.1157 29.9679 45.0137 34.4977 49.8895C38.3914 54.0804 44.3689 54.6627 48.8455 51.6446L56.9223 60.3381C58.9529 60.3381 60.5987 58.5666 60.5987 56.3809L52.5219 47.6874Z" fill="white"></path><path d="M44.1671 19.6506H35.0426C34.5968 19.6506 34.2349 19.2611 34.2349 18.7813C34.2349 18.3056 34.5968 17.916 35.0426 17.916H44.1671C44.6128 17.916 44.9748 18.3056 44.9748 18.7813C44.9748 19.2652 44.6128 19.6506 44.1671 19.6506Z" fill="#4C3037"></path><path d="M44.1671 24.5715H35.0426C34.5968 24.5715 34.2349 24.182 34.2349 23.7063C34.2349 23.2265 34.5968 22.8369 35.0426 22.8369H44.1671C44.6128 22.8369 44.9748 23.2265 44.9748 23.7063C44.9748 24.182 44.6128 24.5715 44.1671 24.5715Z" fill="#4C3037"></path><path d="M20.1957 6.49146C14.5725 6.49146 10.0197 11.3959 10.0197 17.4445C10.0197 23.4972 14.5725 28.3975 20.1957 28.3975C25.8152 28.3975 30.3717 23.4972 30.3717 17.4445C30.3717 11.3959 25.8152 6.49146 20.1957 6.49146ZM20.1957 28.1023C16.9917 28.1023 14.401 27.3641 14.401 24.0467C14.401 21.5862 15.8182 18.8674 17.8489 17.6167C17.106 16.7474 16.6335 15.513 16.6335 14.2828C16.6335 12.0028 18.2261 10.1616 20.1995 10.1616C22.1692 10.1616 23.7655 12.0028 23.7655 14.2828C23.7655 15.5171 23.2931 16.7474 22.5464 17.6167C24.5808 18.8715 25.998 21.5903 25.998 24.0467C25.9942 27.3641 23.396 28.1023 20.1957 28.1023Z" fill="white"></path><path d="M22.5388 17.6167C23.2855 16.7474 23.7579 15.5131 23.7579 14.2828C23.7579 12.0028 22.1616 10.1616 20.192 10.1616C18.2185 10.1616 16.626 12.0028 16.626 14.2828C16.626 15.5172 17.0984 16.7474 17.8413 17.6167C15.8107 18.8716 14.3934 21.5903 14.3934 24.0467C14.3934 27.3683 16.9879 28.1023 20.1882 28.1023C23.3884 28.1023 25.9829 27.3642 25.9829 24.0467C25.9943 21.5862 24.5732 18.8675 22.5388 17.6167Z" fill="#D9B1B5"></path><path d="M20.1956 5.62207C14.138 5.62207 9.21191 10.9284 9.21191 17.4445C9.21191 23.9646 14.138 29.2668 20.1956 29.2668C26.2494 29.2668 31.1793 23.9646 31.1793 17.4445C31.1793 10.9284 26.2494 5.62207 20.1956 5.62207ZM15.2619 23.2511C15.2695 23.1609 15.2924 23.0747 15.3114 22.9845C15.3419 22.8082 15.3762 22.6319 15.4181 22.4555C15.4447 22.353 15.479 22.2464 15.5095 22.1439C15.5591 21.9881 15.6048 21.8322 15.6657 21.6764C15.7076 21.5739 15.7496 21.4632 15.7991 21.3606C15.8639 21.213 15.9248 21.0695 16.001 20.9301C16.0543 20.8276 16.1077 20.725 16.1686 20.6225C16.2486 20.4872 16.3286 20.356 16.4124 20.2247C16.4772 20.1263 16.5382 20.0279 16.6106 19.9377C16.6982 19.8147 16.7972 19.6917 16.8925 19.5768C16.9687 19.4907 17.0411 19.4005 17.1173 19.3185C17.2239 19.2078 17.3344 19.1011 17.4449 18.9986C17.5249 18.9248 17.6011 18.851 17.6849 18.7813C17.7116 18.7608 17.7421 18.7403 17.7687 18.7198C17.784 18.728 17.7954 18.7362 17.8107 18.7485C18.5269 19.3595 19.3498 19.6876 20.1956 19.6876C21.0414 19.6876 21.8643 19.3554 22.5805 18.7485C22.592 18.7362 22.6072 18.728 22.6225 18.7198C22.6491 18.7403 22.6796 18.7608 22.7062 18.7854C22.7863 18.851 22.8625 18.9248 22.9425 18.9986C23.053 19.1011 23.1672 19.2078 23.2701 19.3185C23.3501 19.4046 23.4187 19.4866 23.4949 19.5768C23.5939 19.6917 23.6892 19.8147 23.7806 19.9377C23.8492 20.032 23.914 20.1263 23.9787 20.2247C24.0625 20.3519 24.1464 20.4831 24.2226 20.6225C24.2797 20.725 24.333 20.8276 24.3902 20.9301C24.4626 21.0695 24.5273 21.2171 24.5921 21.3606C24.6416 21.4632 24.6835 21.5739 24.7254 21.6764C24.7864 21.8322 24.8321 21.9881 24.8816 22.148C24.9121 22.2505 24.9502 22.353 24.9731 22.4555C25.0188 22.6319 25.0493 22.8082 25.0798 22.9845C25.095 23.0706 25.1179 23.1609 25.1293 23.2511C25.1674 23.5176 25.1864 23.7842 25.1864 24.0466C25.1864 25.7033 24.5845 27.2329 20.1956 27.2329C15.8105 27.2329 15.2009 25.7033 15.2009 24.0466C15.2009 23.7801 15.2238 23.5176 15.2619 23.2511ZM21.9481 17.0262C20.9195 18.2195 19.4679 18.2195 18.4393 17.0262C17.8106 16.2922 17.4335 15.2629 17.4335 14.2787C17.4335 12.4826 18.6717 11.0227 20.1956 11.0227C21.7195 11.0227 22.9539 12.4867 22.9539 14.2787C22.9539 15.2629 22.5767 16.2881 21.9481 17.0262ZM26.7751 24.6166C26.7904 24.4362 26.8018 24.2435 26.8018 24.0466C26.8018 23.7145 26.7751 23.3823 26.7294 23.0501C26.7142 22.9435 26.6875 22.8328 26.6685 22.7262C26.6304 22.5006 26.5884 22.2792 26.5351 22.0537C26.497 21.9265 26.4589 21.7994 26.4208 21.6764C26.3598 21.4714 26.2989 21.2704 26.2227 21.0777C26.1694 20.9506 26.1199 20.8194 26.0627 20.6922C25.9827 20.4995 25.8951 20.315 25.8036 20.1304C25.7389 20.0033 25.6741 19.8844 25.6055 19.7614C25.5065 19.5768 25.3922 19.4005 25.2817 19.2283C25.2055 19.1175 25.1369 19.0027 25.0569 18.8961C24.9312 18.7198 24.794 18.5558 24.6569 18.3917C24.5769 18.3015 24.5083 18.2031 24.4283 18.1211C24.2569 17.9324 24.0778 17.7602 23.8911 17.5962C23.834 17.5429 23.7844 17.4896 23.7235 17.4404C23.7158 17.4322 23.7082 17.4199 23.6968 17.4117C23.7044 17.4035 23.7082 17.3911 23.712 17.3788C23.834 17.1779 23.9406 16.9647 24.0359 16.7514C24.0587 16.6981 24.0816 16.6448 24.1006 16.5874C24.1844 16.3824 24.2569 16.1773 24.3216 15.9682C24.3254 15.9436 24.3368 15.919 24.3445 15.8944C24.4092 15.6647 24.4511 15.4269 24.4892 15.1891C24.5007 15.1276 24.5045 15.0742 24.5121 15.0168C24.5464 14.7708 24.5654 14.5288 24.5654 14.2828C24.5654 11.5312 22.6034 9.29221 20.1956 9.29221C17.784 9.29221 15.8257 11.5312 15.8257 14.2828C15.8257 14.5288 15.8486 14.7708 15.8753 15.0168C15.8829 15.0742 15.8943 15.1275 15.902 15.185C15.94 15.4269 15.9819 15.6647 16.0467 15.8985C16.0543 15.919 16.062 15.9436 16.0696 15.9641C16.1305 16.1814 16.2067 16.3906 16.2943 16.5997C16.3134 16.653 16.3363 16.6981 16.3591 16.7514C16.4544 16.9729 16.561 17.182 16.6791 17.387C16.6868 17.3952 16.6906 17.4075 16.6982 17.4158C16.6868 17.424 16.6791 17.4322 16.6677 17.4404C16.6068 17.4937 16.5534 17.5552 16.4925 17.6085C16.3134 17.7725 16.1343 17.9406 15.9667 18.1211C15.8867 18.2072 15.8105 18.3097 15.7343 18.3999C15.5971 18.5599 15.4638 18.7239 15.3381 18.9002C15.2581 19.0068 15.1857 19.1217 15.1133 19.2365C14.999 19.4087 14.8885 19.5809 14.7895 19.7614C14.7171 19.8844 14.6561 20.0074 14.5914 20.1345C14.4999 20.3191 14.4123 20.5036 14.3323 20.6922C14.2752 20.8235 14.2218 20.9506 14.1723 21.0818C14.0961 21.2786 14.0351 21.4796 13.9742 21.6805C13.9323 21.8076 13.8942 21.9307 13.8599 22.066C13.8027 22.2874 13.7646 22.5088 13.7265 22.7303C13.7075 22.841 13.6808 22.9517 13.6656 23.0583C13.6199 23.3905 13.5932 23.7227 13.5932 24.0548C13.5932 24.2517 13.6008 24.4444 13.616 24.6289C11.8978 22.8 10.8273 20.2576 10.8273 17.4527C10.8273 11.8921 15.0333 7.36897 20.1994 7.36897C25.3617 7.36897 29.5677 11.8921 29.5677 17.4527C29.5639 20.2453 28.4972 22.7877 26.7751 24.6166Z" fill="#4C3037"></path><path d="M42.6965 32.9412C46.8644 32.9412 50.2399 36.5826 50.2399 41.0647C50.2399 45.5509 46.8606 49.1882 42.6965 49.1882C38.5247 49.1882 35.1492 45.5468 35.1492 41.0647C35.1492 36.5826 38.5285 32.9412 42.6965 32.9412Z" fill="#D9B1B5"></path><path d="M42.6963 50.0574C38.0903 50.0574 34.3414 46.0264 34.3414 41.0686C34.3414 36.1108 38.0903 32.0798 42.6963 32.0798C47.3024 32.0798 51.0474 36.1108 51.0474 41.0686C51.0474 46.0264 47.3024 50.0574 42.6963 50.0574ZM42.6963 33.8103C38.9742 33.8103 35.953 37.0663 35.953 41.0686C35.953 45.0709 38.9742 48.3228 42.6963 48.3228C46.4147 48.3228 49.4397 45.0668 49.4397 41.0686C49.4397 37.0663 46.4147 33.8103 42.6963 33.8103Z" fill="#4C3037"></path><path d="M56.9261 60.334L58.7586 62.3105C59.7758 63.4054 61.4178 63.4054 62.4351 62.3105C63.4523 61.2156 63.4523 59.4482 62.4351 58.3533L60.5987 56.3809C60.5987 58.5665 58.9567 60.334 56.9261 60.334Z" fill="#D9B1B5"></path><path d="M63.0028 57.7424L61.1703 55.7699L53.5278 47.5439C56.2251 42.3359 55.4213 35.8896 51.4629 31.6289C46.6282 26.4251 38.7648 26.4251 33.9263 31.6289C31.5871 34.1509 30.2956 37.5053 30.2956 41.0688C30.2956 44.6323 31.5871 47.9826 33.9301 50.5046C36.3341 53.0962 39.4887 54.4331 42.6851 54.4331C44.7462 54.4331 46.8187 53.8672 48.716 52.7313L56.3547 60.9532L58.1872 62.9257C58.8539 63.6433 59.7225 64.0001 60.595 64.0001C61.4674 64.0001 62.3399 63.6392 63.0028 62.9257C64.3324 61.4945 64.3324 59.1694 63.0028 57.7424ZM35.0693 49.2744C33.0348 47.0805 31.9109 44.1649 31.9109 41.0647C31.9109 37.9605 33.031 35.0448 35.0693 32.8551C37.1723 30.5915 39.9306 29.4597 42.6965 29.4597C45.4586 29.4597 48.2207 30.5915 50.3237 32.8551C53.9011 36.7015 54.526 42.6107 51.84 47.2199L51.8362 47.224C51.4057 47.9703 50.8952 48.6592 50.3237 49.2744C49.7523 49.8854 49.1122 50.4349 48.4188 50.9023L48.415 50.9065C44.1328 53.7975 38.6467 53.1249 35.0693 49.2744ZM50.3009 51.5954C50.3809 51.5257 50.4647 51.4559 50.5447 51.3821C50.8571 51.1115 51.1619 50.8244 51.4438 50.5169C51.4514 50.5128 51.4553 50.5087 51.4629 50.5005L51.4705 50.4882C51.76 50.1806 52.0267 49.8485 52.2858 49.5081C52.3505 49.422 52.4115 49.3441 52.4725 49.2621C52.5258 49.1841 52.583 49.1185 52.6363 49.0406L59.7606 56.709C59.753 56.7705 59.753 56.8279 59.7454 56.8853C59.7301 56.9632 59.7187 57.0329 59.7035 57.1067C59.673 57.2216 59.6387 57.3405 59.6044 57.4512C59.5816 57.5209 59.5587 57.5824 59.532 57.648C59.4825 57.767 59.4254 57.8777 59.3606 57.9884C59.3301 58.0376 59.3072 58.0868 59.2806 58.136C59.0825 58.4395 58.8349 58.7101 58.5529 58.9193C58.5072 58.9521 58.4577 58.9808 58.412 59.0136C58.3091 59.0792 58.2062 59.1407 58.0996 59.194C58.0386 59.2227 57.9776 59.2473 57.9129 59.2719C57.8138 59.317 57.7033 59.3457 57.6005 59.3785C57.5319 59.3949 57.4595 59.4114 57.3909 59.4237C57.3338 59.4319 57.2805 59.436 57.2271 59.4401L50.1028 51.7717C50.1713 51.7102 50.2361 51.6487 50.3009 51.5954ZM61.8674 61.6954C61.1664 62.4459 60.0311 62.45 59.3339 61.6954L58.5644 60.8712C58.5758 60.8671 58.5834 60.8589 58.5948 60.8548C58.8615 60.74 59.1168 60.5965 59.3568 60.4283C59.3682 60.4201 59.3835 60.4119 59.3987 60.3996C59.9016 60.0429 60.3321 59.5795 60.6635 59.0382C60.675 59.0218 60.6826 59.0054 60.6902 58.9931C60.8464 58.7347 60.9798 58.46 61.0864 58.1729C61.0902 58.1606 61.0979 58.1524 61.0979 58.1401L61.8674 58.9644C62.5646 59.7189 62.5646 60.945 61.8674 61.6954Z" fill="#4C3037"></path><path d="M12.0121 39.2479C11.7606 39.2479 11.5206 39.1208 11.3682 38.8994L9.64999 36.4266C9.38711 36.0411 9.45569 35.4958 9.81381 35.2087C10.1719 34.9258 10.6748 34.9996 10.9415 35.385L11.9206 36.7916L13.8903 33.0066C14.1075 32.5883 14.5989 32.4366 14.9875 32.6745C15.3799 32.9082 15.5171 33.4372 15.2961 33.8555L12.7207 38.805C12.5874 39.0634 12.3397 39.2315 12.0692 39.2479C12.0464 39.2479 12.0273 39.2479 12.0121 39.2479Z" fill="#4C3037"></path><path d="M12.0121 39.2479C11.7606 39.2479 11.5206 39.1208 11.3682 38.8994L9.64999 36.4266C9.38711 36.0411 9.45569 35.4958 9.81381 35.2087C10.1719 34.9258 10.6748 34.9996 10.9415 35.385L11.9206 36.7916L13.8903 33.0066C14.1075 32.5883 14.5989 32.4366 14.9875 32.6745C15.3799 32.9082 15.5171 33.4372 15.2961 33.8555L12.7207 38.805C12.5874 39.0634 12.3397 39.2315 12.0692 39.2479C12.0464 39.2479 12.0273 39.2479 12.0121 39.2479Z" fill="#4C3037"></path><path d="M12.0121 49.1102C11.7606 49.1102 11.5206 48.983 11.3682 48.7616L9.64999 46.2848C9.38711 45.8993 9.45569 45.358 9.81381 45.071C10.1719 44.7839 10.6748 44.8618 10.9415 45.2473L11.9206 46.6538L13.8903 42.8648C14.1075 42.4465 14.6027 42.2948 14.9875 42.5326C15.3799 42.7705 15.5171 43.2994 15.2961 43.7136L12.7207 48.6673C12.5874 48.9256 12.3397 49.0897 12.0692 49.1102C12.0464 49.1102 12.0273 49.1102 12.0121 49.1102Z" fill="#4C3037"></path></svg>