<svg xmlns="http://www.w3.org/2000/svg" width="60" height="60" viewBox="0 0 60 60" fill="none"><g id="Frame 196"><g id="Group"><g id="Group_2"><path id="Vector" d="M50.5126 13.4424H9.3584V40.3482H50.5126V13.4424Z" fill="#E66673"></path></g><g id="Group_3"><path id="Vector_2" d="M50.5126 40.9075H9.3584C9.04974 40.9075 8.80176 40.6568 8.80176 40.3482V13.4397C8.80176 13.1337 9.05238 12.8831 9.3584 12.8831H50.5126C50.8212 12.8831 51.0692 13.1337 51.0692 13.4397V40.3482C51.0692 40.6568 50.8186 40.9075 50.5126 40.9075ZM9.91767 39.7915H49.9533V13.999H9.91767V39.7915Z" fill="#3F232C"></path></g><g id="Group_4"><path id="Vector_3" d="M52.0962 8.69116H7.77637V13.4424H52.0962V8.69116Z" fill="white"></path></g><g id="Group_5"><path id="Vector_4" d="M52.0959 13.999H7.77607C7.46741 13.999 7.2168 13.7484 7.2168 13.4397V8.69116C7.2168 8.38514 7.46741 8.13452 7.77607 8.13452H52.0959C52.4046 8.13452 52.6552 8.38514 52.6552 8.69116V13.4397C52.6552 13.7484 52.4046 13.999 52.0959 13.999ZM8.33271 12.8831H51.5367V9.25043H8.33271V12.8831Z" fill="#3F232C"></path></g><g id="Group_6"><path id="Vector_5" d="M52.0962 40.3481H7.77637V43.5139H52.0962V40.3481Z" fill="white"></path></g><g id="Group_7"><path id="Vector_6" d="M52.0959 44.0731H7.77607C7.46741 44.0731 7.2168 43.8225 7.2168 43.5138V40.3481C7.2168 40.0421 7.46741 39.7915 7.77607 39.7915H52.0959C52.4046 39.7915 52.6552 40.0421 52.6552 40.3481V43.5138C52.6552 43.8251 52.4046 44.0731 52.0959 44.0731ZM8.33271 42.9572H51.5367V40.9101H8.33271V42.9572Z" fill="#3F232C"></path></g><g id="Group_8"><path id="Vector_7" d="M33.1019 43.5139H26.7705V53.0137H33.1019V43.5139Z" fill="white"></path></g><g id="Group_9"><path id="Vector_8" d="M33.1016 53.5702H26.7702C26.4616 53.5702 26.2109 53.3196 26.2109 53.011V43.5139C26.2109 43.2052 26.4616 42.9546 26.7702 42.9546H33.1016C33.4103 42.9546 33.6609 43.2052 33.6609 43.5139V53.011C33.6609 53.3196 33.4103 53.5702 33.1016 53.5702ZM27.3268 52.4543H32.5424V44.0731H27.3268V52.4543Z" fill="#3F232C"></path></g><g id="Group_10"><path id="Vector_9" d="M31.9131 18.3358L34.6831 12.0044L37.4531 18.3358H31.9131Z" fill="white"></path></g><g id="Group_11"><path id="Vector_10" d="M37.4521 18.8953H31.9121C31.7248 18.8953 31.548 18.8003 31.4451 18.642C31.3423 18.4811 31.3264 18.2832 31.4003 18.1118L34.1703 11.7803C34.26 11.5799 34.4605 11.4453 34.6821 11.4453C34.9037 11.4453 35.1068 11.5799 35.1939 11.7803L37.9639 18.1118C38.0404 18.2832 38.0219 18.4837 37.919 18.642C37.8161 18.7977 37.6394 18.8953 37.4521 18.8953ZM32.7668 17.7767H36.6L34.6821 13.3975L32.7668 17.7767Z" fill="#3F232C"></path></g><g id="Group_12"><path id="Vector_11" d="M41.4072 18.336L44.1772 12.0046L46.9472 18.336H41.4072Z" fill="white"></path></g><g id="Group_13"><path id="Vector_12" d="M46.9482 18.8955H41.4082C41.2209 18.8955 41.0441 18.8005 40.9412 18.6423C40.8384 18.4813 40.8225 18.2835 40.8964 18.112L43.6664 11.7806C43.7561 11.5801 43.9566 11.4456 44.1782 11.4456C44.3998 11.4456 44.6003 11.5801 44.6873 11.7806L47.4573 18.112C47.5338 18.2835 47.5154 18.484 47.4125 18.6423C47.3096 18.7979 47.1355 18.8955 46.9482 18.8955ZM42.2603 17.777H46.0934L44.1782 13.3977L42.2603 17.777Z" fill="#3F232C"></path></g><g id="Group_14"><path id="Vector_13" d="M22.417 18.3358L25.187 12.0044L27.957 18.3358H22.417Z" fill="white"></path></g><g id="Group_15"><path id="Vector_14" d="M27.9579 18.8953H22.4179C22.2306 18.8953 22.0539 18.8003 21.951 18.642C21.8481 18.4811 21.8323 18.2832 21.9062 18.1118L24.6762 11.7803C24.7659 11.5799 24.9637 11.4453 25.1879 11.4453C25.4095 11.4453 25.61 11.5799 25.6971 11.7803L28.4671 18.1118C28.5436 18.2832 28.5251 18.4837 28.4222 18.642C28.3246 18.7977 28.1479 18.8953 27.9579 18.8953ZM23.2727 17.7767H27.1058L25.1879 13.3975L23.2727 17.7767Z" fill="#3F232C"></path></g><g id="Group_16"><path id="Vector_15" d="M12.9258 18.336L15.6958 12.0046L18.4658 18.336H12.9258Z" fill="white"></path></g><g id="Group_17"><path id="Vector_16" d="M18.4648 18.8955H12.9248C12.7375 18.8955 12.5607 18.8005 12.4578 18.6423C12.355 18.4813 12.3391 18.2835 12.413 18.112L15.183 11.7806C15.2727 11.5801 15.4732 11.4456 15.6948 11.4456C15.9164 11.4456 16.1169 11.5801 16.2066 11.7806L18.9766 18.112C19.0531 18.2835 19.0372 18.484 18.9317 18.6423C18.8288 18.7979 18.6521 18.8955 18.4648 18.8955ZM13.7769 17.777H17.61L15.6921 13.3977L13.7769 17.777Z" fill="#3F232C"></path></g><g id="Group_18"><path id="Vector_17" d="M15.696 12.5612C15.3873 12.5612 15.1367 12.3106 15.1367 12.002V8.49595C15.1367 6.88144 16.4505 5.57031 18.0624 5.57031C19.6742 5.57031 20.988 6.88144 20.988 8.49595C20.988 8.80197 20.7374 9.05259 20.4314 9.05259C20.1227 9.05259 19.8721 8.80197 19.8721 8.49595C19.8721 7.49612 19.0596 6.68359 18.0624 6.68359C17.0652 6.68359 16.2526 7.49612 16.2526 8.49595V12.002C16.2526 12.3106 16.0046 12.5612 15.696 12.5612Z" fill="#3F232C"></path></g><g id="Group_19"><path id="Vector_18" d="M25.1892 12.5612C24.8805 12.5612 24.6299 12.3106 24.6299 12.002V8.49595C24.6299 6.88144 25.9437 5.57031 27.5555 5.57031C29.17 5.57031 30.4812 6.88144 30.4812 8.49595C30.4812 8.80197 30.2305 9.05259 29.9245 9.05259C29.6159 9.05259 29.3653 8.80197 29.3653 8.49595C29.3653 7.49612 28.5527 6.68359 27.5555 6.68359C26.5583 6.68359 25.7458 7.49612 25.7458 8.49595V12.002C25.7458 12.3106 25.4952 12.5612 25.1892 12.5612Z" fill="#3F232C"></path></g><g id="Group_20"><path id="Vector_19" d="M34.6826 12.5612C34.374 12.5612 34.126 12.3106 34.126 12.002V8.49595C34.126 6.88144 35.4397 5.57031 37.0516 5.57031C38.6661 5.57031 39.9773 6.88144 39.9773 8.49595C39.9773 8.80197 39.7266 9.05259 39.418 9.05259C39.1093 9.05259 38.8613 8.80197 38.8613 8.49595C38.8613 7.49612 38.0488 6.68359 37.0516 6.68359C36.0544 6.68359 35.2419 7.49612 35.2419 8.49595V12.002C35.2419 12.3106 34.9913 12.5612 34.6826 12.5612Z" fill="#3F232C"></path></g><g id="Group_21"><path id="Vector_20" d="M44.1765 12.5612C43.8678 12.5612 43.6172 12.3106 43.6172 12.002V8.49595C43.6172 6.88144 44.9309 5.57031 46.5428 5.57031C48.1547 5.57031 49.4685 6.88144 49.4685 8.49595C49.4685 8.80197 49.2178 9.05259 48.9092 9.05259C48.6005 9.05259 48.3499 8.80197 48.3499 8.49595C48.3499 7.49612 47.5374 6.68359 46.5402 6.68359C45.543 6.68359 44.7305 7.49612 44.7305 8.49595V12.002C44.7331 12.3106 44.4851 12.5612 44.1765 12.5612Z" fill="#3F232C"></path></g><g id="Group_22"><path id="Vector_21" d="M29.9349 20.6365L32.4569 25.7412L38.0919 26.5616L34.0134 30.5346L34.9763 36.1458L29.9349 33.4972L24.8961 36.1458L25.859 30.5346L21.7832 26.5616L27.4155 25.7412L29.9349 20.6365Z" fill="white"></path></g><g id="Group_23"><path id="Vector_22" d="M24.8946 36.705C24.7785 36.705 24.6625 36.668 24.5649 36.5968C24.3934 36.4728 24.3063 36.2591 24.3433 36.0507L25.256 30.7271L21.3886 26.9546C21.2356 26.8069 21.1802 26.5853 21.2461 26.3821C21.3121 26.1816 21.4862 26.0339 21.6972 26.0049L27.0394 25.2293L29.4295 20.3858C29.5245 20.1958 29.717 20.0745 29.9281 20.0745C30.1418 20.0745 30.3343 20.1958 30.4293 20.3858L32.8168 25.2293L38.1616 26.0049C38.3726 26.0365 38.5467 26.1816 38.6127 26.3821C38.6786 26.5853 38.6232 26.8069 38.4702 26.9572L34.6028 30.7271L35.5155 36.0507C35.5498 36.2591 35.4654 36.4728 35.2939 36.5968C35.1225 36.7234 34.8956 36.7393 34.7057 36.6416L29.9228 34.1276L25.1452 36.6416C25.074 36.6839 24.9843 36.705 24.8946 36.705ZM22.9794 26.9493L26.2479 30.1335C26.3798 30.2628 26.4379 30.4448 26.4089 30.6294L25.6385 35.1248L29.6775 33.0011C29.841 32.9167 30.0336 32.9167 30.1972 33.0011L34.2361 35.1248L33.4658 30.6294C33.4341 30.4474 33.4948 30.2628 33.6267 30.1335L36.8953 26.9493L32.3815 26.2924C32.1995 26.266 32.0412 26.1526 31.9594 25.9891L29.9386 21.8947L27.9205 25.9891C27.8387 26.1553 27.6831 26.266 27.4984 26.2924L22.9794 26.9493Z" fill="#3F232C"></path></g></g></g></svg>