<svg xmlns="http://www.w3.org/2000/svg" width="64" height="64" viewBox="0 0 64 64" fill="none"><g id="Group"><path id="Vector" d="M60.7692 0.891846H3.23072C1.85157 0.891846 0.73645 2.24894 0.73645 3.93159V47.5242C0.73645 49.1984 1.85157 50.5597 3.23072 50.5597H60.7692C62.1484 50.5597 63.267 49.2026 63.267 47.5242V3.93159C63.267 2.25316 62.1484 0.891846 60.7692 0.891846Z" fill="#94D0B7"></path><path id="Vector_2" d="M58.9559 6.14307H5.04761V42.9966H58.9559V6.14307Z" fill="white"></path><path id="Vector_3" d="M58.9524 43.8884H5.04757C4.64112 43.8884 4.31458 43.4868 4.31458 42.9921V6.13864C4.31458 5.64399 4.64459 5.24658 5.04757 5.24658H58.9558C59.3623 5.24658 59.6888 5.64399 59.6888 6.13864V42.9921C59.6888 43.491 59.3588 43.8884 58.9524 43.8884ZM5.78404 42.1001H58.2194V7.03914H5.78404V42.1001Z" fill="#253F31"></path><path id="Vector_4" d="M52.8695 59.231H11.1304V63.0994H52.8695V59.231Z" fill="#94D0B7"></path><path id="Vector_5" d="M30.2856 47.6724H26.6102C26.2037 47.6724 25.8772 47.2707 25.8772 46.7761C25.8772 46.2814 26.2072 45.884 26.6102 45.884H30.2856C30.6921 45.884 31.0221 46.2814 31.0221 46.7761C31.0221 47.2707 30.6921 47.6724 30.2856 47.6724Z" fill="#253F31"></path><path id="Vector_6" d="M37.3897 47.6724H33.7143C33.3078 47.6724 32.9778 47.2707 32.9778 46.7761C32.9778 46.2814 33.3078 45.884 33.7143 45.884H37.3897C37.7961 45.884 38.1261 46.2814 38.1261 46.7761C38.1261 47.2707 37.7961 47.6724 37.3897 47.6724Z" fill="#253F31"></path><path id="Vector_7" d="M23.904 59.231H19.5095L23.1884 50.5557H27.5829L23.904 59.231Z" fill="#94D0B7"></path><path id="Vector_8" d="M40.0995 59.231H44.494L40.8186 50.5557H36.4241L40.0995 59.231Z" fill="#94D0B7"></path><path id="Vector_9" d="M60.7693 0H3.23075C1.44862 0 0 1.76721 0 3.93606V47.5286C0 49.6975 1.44862 51.4604 3.23075 51.4604H21.9795L19.0614 58.3433H11.1304C10.724 58.3433 10.394 58.7491 10.394 59.2395V63.1079C10.394 63.5984 10.724 64 11.1304 64H52.8696C53.276 64 53.606 63.5984 53.606 63.1079V59.2395C53.606 58.7491 53.276 58.3433 52.8696 58.3433H44.9421L42.024 51.4604H60.7693C62.5514 51.4604 64 49.6975 64 47.5286V3.93606C64 1.76298 62.5514 0 60.7693 0ZM23.6331 51.452H26.374L23.4559 58.3348H20.715L23.6331 51.452ZM35.9759 51.452L38.894 58.3348H25.113L28.031 51.452H35.9759ZM52.1366 62.2032H11.8669V60.1274H19.513H23.9075H40.1029H44.4974H52.14L52.1366 62.2032ZM43.2885 58.3348H40.5476L37.6295 51.452H40.3669L43.2885 58.3348ZM62.5305 47.5244C62.5305 48.7039 61.742 49.6679 60.7693 49.6679H40.8151H36.4206H27.5794H23.1849H3.22727C2.25805 49.6679 1.466 48.7039 1.466 47.5244V3.9318C1.466 2.75225 2.25805 1.78833 3.22727 1.78833H60.7658C61.7385 1.78833 62.5271 2.75225 62.5271 3.9318L62.5305 47.5244Z" fill="#253F31"></path><path id="Vector_10" d="M23.4455 21.0414C23.508 20.5637 23.5462 20.0732 23.5462 19.5701C23.5462 19.0713 23.508 18.5851 23.4455 18.1031L20.913 17.6127C20.84 17.3421 20.7462 17.0757 20.642 16.8221L22.1462 14.2981C21.6738 13.499 21.1006 12.7972 20.4405 12.2223L18.3666 14.0571C18.1582 13.9303 17.9393 13.8119 17.7135 13.7273L17.3105 10.6453C16.918 10.565 16.515 10.5227 16.1051 10.5227C15.6952 10.5227 15.2922 10.5692 14.8996 10.6453L14.4967 13.7273C14.2743 13.8161 14.0555 13.9303 13.8436 14.0529L11.7696 12.2223C11.1165 12.7972 10.5399 13.499 10.0639 14.2981L11.5716 16.8221C11.4674 17.0757 11.3736 17.3379 11.3007 17.6127L8.77164 18.1031C8.70564 18.5808 8.6709 19.0713 8.6709 19.5701C8.6709 20.0732 8.70564 20.5594 8.77164 21.0414L11.3007 21.5276C11.3736 21.8024 11.4674 22.0645 11.5716 22.3224L10.0639 24.8464C10.5364 25.6455 11.1131 26.3473 11.7696 26.9222L13.8436 25.0874C14.0555 25.2184 14.2708 25.3283 14.4967 25.4171L14.8996 28.4992C15.2887 28.5795 15.6952 28.6176 16.1051 28.6176C16.515 28.6176 16.918 28.5753 17.3105 28.4992L17.7135 25.4171C17.9358 25.3283 18.1547 25.2142 18.3666 25.0874L20.4405 26.9222C21.0971 26.3473 21.6738 25.6455 22.1462 24.8464L20.642 22.3224C20.7462 22.0688 20.84 21.8066 20.913 21.5276L23.4455 21.0414Z" fill="#94D0B7"></path><path id="Vector_11" d="M16.112 29.5098C15.6639 29.5098 15.2192 29.4675 14.7884 29.3787C14.4758 29.3195 14.2326 29.0193 14.184 28.6388L13.8609 26.191L12.2108 27.6453C11.9537 27.8778 11.6063 27.8778 11.3493 27.6495C10.6267 27.0154 9.99443 26.2502 9.47682 25.3666C9.2927 25.0579 9.2927 24.6309 9.48029 24.3223L10.6753 22.3141L8.66391 21.9251C8.35126 21.8617 8.10809 21.5658 8.05598 21.1895C7.98303 20.6568 7.94482 20.1114 7.94482 19.5703C7.94482 19.0333 7.98303 18.4879 8.05598 17.9552C8.10809 17.5747 8.35126 17.2788 8.66391 17.2196L10.6753 16.8307L9.48029 14.8225C9.2927 14.5138 9.2927 14.0911 9.47682 13.7782C9.99443 12.8988 10.6232 12.1294 11.3493 11.4952C11.6063 11.2669 11.9537 11.2711 12.2108 11.4952L13.8609 12.9538L14.184 10.5059C14.2326 10.1254 14.4758 9.82525 14.7884 9.76184C15.6639 9.58427 16.5671 9.58427 17.4425 9.76184C17.7552 9.82525 17.9983 10.1254 18.047 10.5059L18.3666 12.9538L20.0167 11.4952C20.2738 11.2711 20.6177 11.2711 20.8782 11.4952C21.6043 12.1251 22.2365 12.8946 22.7541 13.7782C22.9382 14.0911 22.9348 14.5138 22.7507 14.8225L21.5556 16.8307L23.567 17.2196C23.8797 17.2788 24.1263 17.579 24.1784 17.9595C24.2514 18.5049 24.2896 19.046 24.2896 19.5703C24.2896 20.0945 24.2514 20.6399 24.1784 21.1853C24.1263 21.5658 23.8832 21.8617 23.567 21.9251L21.5556 22.3141L22.7507 24.3223C22.9382 24.6309 22.9382 25.0537 22.7507 25.3666C22.233 26.2502 21.6008 27.0196 20.8782 27.6495C20.6212 27.8736 20.2738 27.8736 20.0167 27.6453L18.3666 26.191L18.047 28.6388C17.9983 29.0193 17.7552 29.3195 17.4425 29.3787C17.0048 29.4675 16.5567 29.5098 16.112 29.5098ZM15.5458 27.6918C15.9209 27.7299 16.3031 27.7299 16.6783 27.6918L16.9944 25.2778C17.0395 24.9522 17.2271 24.6774 17.4877 24.5717C17.6787 24.4914 17.8629 24.3984 18.0435 24.2927C18.2901 24.1405 18.5854 24.1701 18.8078 24.3688L20.4336 25.8062C20.7219 25.5103 20.9894 25.1847 21.2326 24.8338L20.0514 22.851C19.8916 22.5847 19.8673 22.2253 19.9889 21.9251C20.0757 21.7095 20.1591 21.4854 20.2216 21.2487C20.3085 20.9358 20.5343 20.7033 20.8018 20.6483L22.7854 20.2636C22.8028 20.0311 22.8097 19.8028 22.8097 19.5745C22.8097 19.3462 22.7993 19.1221 22.7854 18.8854L20.8018 18.5007C20.5308 18.4499 20.305 18.2216 20.2216 17.9003C20.1591 17.6678 20.0757 17.4437 19.9889 17.2239C19.8673 16.9279 19.8916 16.5728 20.0514 16.298L21.2326 14.3194C20.9894 13.9685 20.7219 13.6429 20.4336 13.347L18.8078 14.7844C18.5854 14.9789 18.2936 15.0085 18.0504 14.8648C17.8698 14.7591 17.6857 14.6576 17.4946 14.5815C17.2341 14.48 17.043 14.2052 17.0013 13.8755L16.6852 11.4572C16.31 11.4191 15.9314 11.4191 15.5527 11.4572L15.2366 13.8755C15.1914 14.2052 15.0038 14.48 14.7398 14.5815C14.5453 14.6576 14.3611 14.7591 14.1805 14.8648C13.9373 15.0085 13.6455 14.9789 13.4267 14.7844L11.7974 13.347C11.5091 13.6429 11.2416 13.9685 10.9984 14.3194L12.1795 16.298C12.3393 16.5685 12.3636 16.9279 12.2386 17.2323C12.1483 17.4479 12.0718 17.672 12.0093 17.8961C11.9225 18.2131 11.6967 18.4499 11.4257 18.5007L9.44208 18.8854C9.42471 19.1179 9.41777 19.3462 9.41777 19.5745C9.41777 19.807 9.42471 20.0353 9.44208 20.2636L11.4257 20.6483C11.6967 20.7033 11.9225 20.9316 12.0093 21.2529C12.0718 21.4812 12.1483 21.7011 12.2351 21.9167C12.3602 22.2169 12.3359 22.5762 12.1761 22.851L10.9949 24.8338C11.2381 25.1847 11.5056 25.5103 11.7939 25.8062L13.4232 24.3688C13.649 24.1701 13.9443 24.1405 14.1909 24.2927C14.3611 24.3984 14.5418 24.4914 14.7398 24.5717C15.0003 24.6774 15.1879 24.9522 15.2331 25.2778L15.5458 27.6918Z" fill="#253F31"></path><path id="Vector_12" d="M18.5368 19.5704C18.5368 21.2023 17.4495 22.5213 16.112 22.5213C14.7711 22.5213 13.6873 21.1981 13.6873 19.5704C13.6873 17.9384 14.7746 16.6194 16.112 16.6194C17.453 16.6194 18.5368 17.9427 18.5368 19.5704Z" fill="white"></path><path id="Vector_13" d="M16.1119 23.4218C14.368 23.4218 12.9507 21.6969 12.9507 19.5746C12.9507 17.4565 14.368 15.7273 16.1119 15.7273C17.8559 15.7273 19.2732 17.4565 19.2732 19.5746C19.2732 21.6927 17.8559 23.4218 16.1119 23.4218ZM16.1119 17.5157C15.1809 17.5157 14.4236 18.4373 14.4236 19.5704C14.4236 20.7076 15.1809 21.6251 16.1119 21.6251C17.043 21.6251 17.8037 20.7034 17.8037 19.5704C17.8037 18.4373 17.043 17.5157 16.1119 17.5157Z" fill="#253F31"></path><path id="Vector_14" d="M38.1505 30.8839C38.2165 30.4061 38.2512 29.9157 38.2512 29.4168C38.2512 28.918 38.2165 28.4275 38.1505 27.9456L35.6215 27.4594C35.5485 27.1888 35.4547 26.9225 35.3505 26.6646L36.8547 24.1406C36.3823 23.3415 35.8056 22.6397 35.149 22.0647L33.0751 23.8996C32.8632 23.7728 32.6478 23.6586 32.422 23.5698L32.019 20.4878C31.6265 20.4074 31.2235 20.3694 30.8136 20.3694C30.4037 20.3694 30.0007 20.4117 29.6081 20.4878L29.2017 23.5698C28.9759 23.6586 28.7605 23.7727 28.5521 23.8953L26.4781 22.0647C25.8216 22.6397 25.2449 23.3415 24.7724 24.1406L26.2801 26.6646C26.1759 26.9225 26.0821 27.1846 26.0092 27.4594L23.4801 27.9456C23.4176 28.4233 23.3794 28.9137 23.3794 29.4168C23.3794 29.9157 23.4141 30.4019 23.4801 30.8839L26.0092 31.3743C26.0856 31.6449 26.1759 31.9112 26.2801 32.1649L24.7724 34.6889C25.2449 35.4879 25.8216 36.1897 26.4781 36.7647L28.5521 34.9298C28.7605 35.0609 28.9759 35.1708 29.2017 35.2596L29.6081 38.3417C29.9972 38.422 30.4002 38.4601 30.8136 38.4601C31.2235 38.4601 31.6265 38.4178 32.019 38.3417L32.422 35.2596C32.6443 35.1708 32.8632 35.0567 33.0751 34.9298L35.149 36.7647C35.8056 36.1897 36.3823 35.4879 36.8547 34.6889L35.3505 32.1649C35.4547 31.9112 35.5485 31.6491 35.6215 31.3743L38.1505 30.8839Z" fill="#94D0B7"></path><path id="Vector_15" d="M30.8171 39.3521C30.369 39.3521 29.9243 39.3098 29.4935 39.2252C29.1809 39.1618 28.9342 38.8616 28.8891 38.4811L28.566 36.0333L26.9159 37.4918C26.6588 37.7201 26.3114 37.7201 26.0543 37.4918C25.3318 36.8619 24.6995 36.0924 24.1819 35.2131C23.9978 34.9002 23.9978 34.4732 24.1854 34.1646L25.3804 32.1564L23.369 31.7675C23.0564 31.704 22.8097 31.4123 22.7611 31.0318C22.6846 30.4991 22.6499 29.9537 22.6499 29.4168C22.6499 28.8757 22.6846 28.3303 22.7611 27.7976C22.8132 27.4171 23.0564 27.1253 23.369 27.0619L25.3804 26.673L24.1854 24.669C23.9978 24.3562 23.9978 23.9334 24.1819 23.6205C24.6995 22.7411 25.3283 21.9717 26.0543 21.3375C26.3114 21.1135 26.6588 21.1135 26.9159 21.3418L28.566 22.7961L28.8891 20.3482C28.9377 19.9677 29.1809 19.6718 29.4935 19.6041C30.369 19.4266 31.2722 19.4266 32.1476 19.6041C32.4603 19.6718 32.7034 19.9677 32.7521 20.3482L33.0717 22.7961L34.7218 21.3418C34.9788 21.1135 35.3228 21.1135 35.5798 21.3375C36.3059 21.9717 36.9381 22.7411 37.4557 23.6205C37.6399 23.9334 37.6364 24.3562 37.4523 24.669L36.2572 26.673L38.2686 27.0619C38.5813 27.1253 38.8279 27.4213 38.8801 27.8018C38.953 28.3472 38.9912 28.8883 38.9912 29.4168C38.9912 29.9411 38.953 30.4822 38.8801 31.0276C38.8279 31.4081 38.5813 31.704 38.2686 31.7675L36.2572 32.1606L37.4523 34.1646C37.6399 34.4732 37.6399 34.9002 37.4557 35.2131C36.9381 36.0924 36.3059 36.8619 35.5833 37.4918C35.3262 37.7201 34.9788 37.7159 34.7218 37.4918L33.0751 36.0333L32.7555 38.4811C32.7069 38.8616 32.4602 39.1618 32.1511 39.2252C31.7099 39.3098 31.2652 39.3521 30.8171 39.3521ZM30.2508 37.5341C30.626 37.5722 31.0081 37.5722 31.3833 37.5341L31.6995 35.1201C31.7411 34.7945 31.9322 34.5197 32.1928 34.414C32.3838 34.3337 32.5679 34.2407 32.7486 34.135C32.9952 33.9828 33.287 34.0124 33.5128 34.2069L35.1386 35.6443C35.427 35.3484 35.6945 35.0228 35.9376 34.6719L34.7565 32.6891C34.5967 32.4227 34.5724 32.0676 34.694 31.7632C34.7808 31.5476 34.8607 31.3235 34.9267 31.091C35.0136 30.7739 35.2394 30.5414 35.5103 30.4907L37.494 30.1017C37.5113 29.8692 37.5183 29.6409 37.5183 29.4168C37.5183 29.1885 37.5113 28.9602 37.494 28.7277L35.5103 28.3429C35.2394 28.288 35.0136 28.0597 34.9267 27.7384C34.8607 27.5058 34.7843 27.2818 34.694 27.0619C34.5724 26.766 34.5967 26.4109 34.7565 26.1403L35.9376 24.1617C35.6945 23.8065 35.427 23.481 35.1386 23.185L33.5128 24.6225C33.294 24.817 33.0022 24.8508 32.7555 24.7028C32.5749 24.5971 32.3908 24.4957 32.1997 24.4238C31.9392 24.3181 31.7481 24.0433 31.7029 23.7135L31.3868 21.2995C31.0116 21.2572 30.6295 21.2572 30.2543 21.2995L29.9382 23.7135C29.893 24.0433 29.7054 24.3181 29.4414 24.4238C29.2469 24.4999 29.0628 24.5971 28.8821 24.7028C28.6389 24.8466 28.3471 24.817 28.1283 24.6225L26.499 23.185C26.2107 23.481 25.9432 23.8065 25.7 24.1617L26.8811 26.1403C27.0409 26.4066 27.0653 26.766 26.9402 27.0704C26.8499 27.286 26.7735 27.5101 26.7144 27.7341C26.6275 28.0512 26.4017 28.288 26.1308 28.3429L24.1472 28.7277C24.1298 28.956 24.1228 29.1843 24.1228 29.4168C24.1228 29.6451 24.1298 29.8734 24.1472 30.1017L26.1308 30.4907C26.4017 30.5414 26.6275 30.7739 26.7144 31.0952C26.7769 31.3193 26.8533 31.5434 26.9402 31.759C27.0653 32.0549 27.0409 32.4143 26.8811 32.6891L25.7 34.6719C25.9432 35.0228 26.2141 35.3484 26.499 35.6443L28.1283 34.2069C28.3541 34.0082 28.6494 33.9786 28.896 34.135C29.0662 34.2407 29.2469 34.3337 29.4449 34.414C29.7054 34.5197 29.893 34.7945 29.9382 35.1201L30.2508 37.5341Z" fill="#253F31"></path><path id="Vector_16" d="M54.7697 37.0817V12.0533C55.1241 11.9857 55.402 11.6306 55.402 11.1824C55.402 10.6878 55.072 10.2861 54.669 10.2861H53.4045C52.998 10.2861 52.6715 10.6878 52.6715 11.1824C52.6715 11.6306 52.9494 11.9857 53.3037 12.0533V37.0817C52.9425 37.1367 52.6576 37.5003 52.6576 37.9527C52.6576 38.4473 52.9876 38.849 53.3906 38.849H54.6864C55.0928 38.849 55.4194 38.4473 55.4194 37.9527C55.4159 37.5003 55.131 37.1367 54.7697 37.0817Z" fill="#253F31"></path><path id="Vector_17" d="M49.2357 37.0817V12.0533C49.5936 11.9857 49.868 11.6306 49.868 11.1824C49.868 10.6878 49.5414 10.2861 49.135 10.2861H47.8705C47.464 10.2861 47.134 10.6878 47.134 11.1824C47.134 11.6306 47.4119 11.9857 47.7697 12.0533V37.0817C47.4085 37.1367 47.1201 37.5003 47.1201 37.9527C47.1201 38.4473 47.4501 38.849 47.8566 38.849H49.1489C49.5553 38.849 49.8854 38.4473 49.8854 37.9527C49.8854 37.5003 49.6005 37.1367 49.2357 37.0817Z" fill="#253F31"></path><path id="Vector_18" d="M43.7054 37.0817V12.0533C44.0597 11.9857 44.3377 11.6306 44.3377 11.1824C44.3377 10.6878 44.0076 10.2861 43.6047 10.2861H42.3402C41.9337 10.2861 41.6072 10.6878 41.6072 11.1824C41.6072 11.6306 41.8851 11.9857 42.2394 12.0533V37.0817C41.8781 37.1367 41.5933 37.5003 41.5933 37.9527C41.5933 38.4473 41.9233 38.849 42.3297 38.849H43.622C44.0285 38.849 44.3585 38.4473 44.3585 37.9527C44.3516 37.5003 44.0667 37.1367 43.7054 37.0817Z" fill="#253F31"></path><path id="Vector_19" d="M33.2453 29.4168C33.2453 31.0487 32.158 32.3677 30.8206 32.3677C29.4796 32.3677 28.3958 31.0445 28.3958 29.4168C28.3958 27.7848 29.4831 26.47 30.8206 26.47C32.158 26.4658 33.2453 27.7848 33.2453 29.4168Z" fill="white"></path><path id="Vector_20" d="M30.817 33.2641C29.0731 33.2641 27.6558 31.5391 27.6558 29.421C27.6558 27.2987 29.0731 25.5737 30.817 25.5737C32.5609 25.5737 33.9783 27.2987 33.9783 29.421C33.9783 31.5349 32.5609 33.2641 30.817 33.2641ZM30.817 27.3578C29.886 27.3578 29.1287 28.2838 29.1287 29.4168C29.1287 30.5498 29.886 31.4672 30.817 31.4672C31.7515 31.4672 32.5088 30.5456 32.5088 29.4168C32.5088 28.2838 31.7515 27.3578 30.817 27.3578Z" fill="#253F31"></path><path id="Vector_21" d="M55.7007 23.0244C55.7007 24.149 54.9538 25.0579 54.0332 25.0579C53.1126 25.0579 52.3657 24.149 52.3657 23.0244C52.3657 21.904 53.1126 20.9993 54.0332 20.9993C54.9538 20.9951 55.7007 21.904 55.7007 23.0244Z" fill="#94D0B7"></path><path id="Vector_22" d="M54.0333 25.95C52.7097 25.95 51.6328 24.6352 51.6328 23.0244C51.6328 21.4136 52.7097 20.103 54.0333 20.103C55.3603 20.103 56.4373 21.4179 56.4373 23.0244C56.4373 24.6394 55.3603 25.95 54.0333 25.95ZM54.0333 21.8871C53.5192 21.8871 53.1023 22.3987 53.1023 23.0202C53.1023 23.6501 53.5192 24.1575 54.0333 24.1575C54.5474 24.1575 54.9643 23.6501 54.9643 23.0202C54.9643 22.3987 54.5474 21.8871 54.0333 21.8871Z" fill="#253F31"></path><path id="Vector_23" d="M50.1703 29.1716C50.1703 30.2962 49.4234 31.2009 48.5028 31.2009C47.5822 31.2009 46.8353 30.2919 46.8353 29.1716C46.8353 28.0512 47.5822 27.1465 48.5028 27.1465C49.4234 27.1423 50.1703 28.0512 50.1703 29.1716Z" fill="#94D0B7"></path><path id="Vector_24" d="M48.5028 32.0972C47.1793 32.0972 46.0989 30.7866 46.0989 29.1716C46.0989 27.5608 47.1793 26.2502 48.5028 26.2502C49.8264 26.2502 50.9068 27.5651 50.9068 29.1716C50.9068 30.7866 49.8264 32.0972 48.5028 32.0972ZM48.5028 28.0386C47.9887 28.0386 47.5683 28.5459 47.5683 29.1716C47.5683 29.7973 47.9887 30.3089 48.5028 30.3089C49.017 30.3089 49.4338 29.8015 49.4338 29.1716C49.4338 28.5459 49.017 28.0386 48.5028 28.0386Z" fill="#253F31"></path><path id="Vector_25" d="M44.6364 16.4207C44.6364 17.5453 43.8895 18.45 42.9689 18.45C42.0483 18.45 41.3014 17.541 41.3014 16.4207C41.3014 15.3003 42.0483 14.3914 42.9689 14.3914C43.8895 14.3956 44.6364 15.3045 44.6364 16.4207Z" fill="#94D0B7"></path><path id="Vector_26" d="M42.9689 19.3504C41.6453 19.3504 40.5649 18.0356 40.5649 16.4248C40.5649 14.814 41.6453 13.5034 42.9689 13.5034C44.2924 13.5034 45.3728 14.8182 45.3728 16.4248C45.3728 18.0356 44.2924 19.3504 42.9689 19.3504ZM42.9689 15.2918C42.4547 15.2918 42.0379 15.7991 42.0379 16.4248C42.0379 17.0505 42.4547 17.5621 42.9689 17.5621C43.483 17.5621 43.9034 17.0547 43.9034 16.4248C43.8999 15.7991 43.483 15.2918 42.9689 15.2918Z" fill="#253F31"></path></g></svg>